<svg xmlns="http://www.w3.org/2000/svg" viewBox="-6.5 -6 30 30"><path fill="#fff" d="M1.3 7.38L3.97 7a13.02 13.02 0 0 0 9.74 0l2.67.38c.11.02.21.09.26.19.09.17.02.38-.15.47a19.2 19.2 0 0 1-15.3 0A.36.36 0 0 1 1 7.78a.36.36 0 0 1 .3-.4z"/><path fill="#fff" d="M3.22 9.01c.28.09.55.17.83.24-.43.88-.12 1.94.74 2.45a6.12 6.12 0 0 0 3.91 4.46c.24.09.5.09.73 0a6.1 6.1 0 0 0 3.91-4.46 1.87 1.87 0 0 0 .73-2.46c.28-.08.56-.15.83-.24a2.7 2.7 0 0 1-.8 3.21 7 7 0 0 1-4.37 4.75c-.43.15-.9.15-1.33 0a7 7 0 0 1-4.37-4.75 2.73 2.73 0 0 1-.81-3.2z"/><path fill="#fff" d="M5.24 9c-.48.81-.21 1.85.61 2.32.74.43 1.68.26 2.21-.4l.6-.75.08-.08a.53.53 0 0 1 .73.08l.6.75c.59.73 1.67.85 2.41.27.67-.53.85-1.46.41-2.19-2.52.5-5.13.5-7.65 0zM9.82 14H8a.9.9 0 0 0 1.01.79.9.9 0 0 0 .81-.79zM10.11 1.31c-.71.65-1.8.65-2.51 0a1.2 1.2 0 0 0-1.68.07l-.09.11A10.76 10.76 0 0 0 4 5.52a13.01 13.01 0 0 0 9.7 0 10.76 10.76 0 0 0-1.83-4.03 1.18 1.18 0 0 0-1.65-.27l-.11.09z"/></svg>
