<svg xmlns="http://www.w3.org/2000/svg" viewBox="-6.5 -6.5 30 30"><path fill="#fff" d="M15.69 14.34c-.47-1.05-2.69-1.75-4.17-2.4-1.48-.65-1.28-1.05-1.33-1.59l-.01-.23a4.5 4.5 0 0 0 1.19-1.78l.02-.05c.06-.15.11-.33.15-.49.34-.07.54-.44.61-.78.08-.14.23-.48.2-.87-.05-.5-.25-.73-.47-.82v-.09a13.86 13.86 0 0 0-.28-2.65A3.67 3.67 0 0 0 10.32.73a4 4 0 0 0-4.63 0A3.57 3.57 0 0 0 4.3 3.09c-.12.6-.17 1.51-.17 2.15v.08c-.23.09-.44.32-.49.83-.05.39.12.73.2.87.08.35.28.72.63.78.04.17.09.34.15.49l.01.03.01.01c.27.72.7 1.35 1.22 1.8l-.01.21c-.05.54.1.94-1.37 1.59-1.49.65-3.71 1.35-4.17 2.4C-.15 15.38.04 16 .04 16h15.95c-.03.01.16-.61-.3-1.66z"/></svg>
