<?xml version="1.0" encoding="utf-8"?>
<!-- Generator: Adobe Illustrator 24.2.1, SVG Export Plug-In . SVG Version: 6.00 Build 0)  -->
<svg version="1.2" baseProfile="tiny" xmlns="http://www.w3.org/2000/svg" xmlns:xlink="http://www.w3.org/1999/xlink" x="0px"
	 y="0px" viewBox="0 0 800 500" overflow="visible" xml:space="preserve">
<g id="Layer_1">
</g>
<g id="Layer_2">
	<path fill="none" stroke="#CCCCCC" stroke-miterlimit="10" d="M38.2,51H456v40H38.2c-3.1,0-5.7-2.5-5.7-5.7V56.7
		C32.5,53.5,35,51,38.2,51z"/>
	<path fill="#0E6BA3" d="M456,51h199.5c2.5,0,4.5,2,4.5,4.5v30.9c0,2.5-2,4.5-4.5,4.5H456V51z"/>
	<path fill="#FFFFFF" d="M621,74c0,1.7-1.3,3-3,3H498c-1.6,0-3-1.3-3-3v-6c0-1.7,1.4-3,3-3h120c1.7,0,3,1.3,3,3V74z"/>
	<path fill="#CCCCCC" d="M280,447c0,1.6-1.4,3-3,3H87c-1.7,0-3-1.4-3-3v-6c0-1.6,1.3-3,3-3h190c1.6,0,3,1.4,3,3V447z"/>
	<path fill="#B3C9DA" d="M660,447c0,1.6-1.3,3-3,3h-40c-1.7,0-3-1.4-3-3v-6c0-1.6,1.3-3,3-3h40c1.7,0,3,1.4,3,3V447z"/>
	<path fill="#CCCCCC" d="M730,447c0,1.6-1.3,3-3,3h-54c-1.7,0-3-1.4-3-3v-6c0-1.6,1.3-3,3-3h54c1.7,0,3,1.4,3,3V447z"/>
	<line fill="none" stroke="#CCCCCC" stroke-miterlimit="10" x1="767" y1="469.5" x2="33" y2="469.5"/>
	<line fill="none" stroke="#CCCCCC" stroke-miterlimit="10" x1="767" y1="418.5" x2="33" y2="418.5"/>
	<g id="Shape_3">
		<g>
			<path fill-rule="evenodd" fill="#0E6BA3" d="M42,450c-1.7,0-3,1.3-3,3s1.3,3,3,3c1.7,0,3-1.3,3-3S43.7,450,42,450z M42.6,434.4
				c2.1,0,4.1,0.4,6,1c0-0.9,0.4-1.6,0.9-2.2c-2.2-0.8-4.5-1.2-6.9-1.2c-0.7,0-1.2,0.5-1.2,1.2S42,434.4,42.6,434.4z M55,440
				c0.2,0.2,0.5,0.3,0.8,0.3s0.6-0.1,0.8-0.3l6-6c0.2-0.2,0.4-0.5,0.4-0.8c0-0.7-0.5-1.2-1.2-1.2c-0.3,0-0.6,0.1-0.8,0.3l-5.1,5.1
				l-2.7-2.7c-0.2-0.2-0.5-0.3-0.8-0.3c-0.7,0-1.2,0.5-1.2,1.2c0,0.3,0.1,0.6,0.3,0.8L55,440z M42.6,444c-0.7,0-1.2,0.5-1.2,1.2
				c0,0.7,0.5,1.2,1.2,1.2c3.3,0,6,2.7,6,6c0,0.7,0.5,1.2,1.2,1.2c0.7,0,1.2-0.5,1.2-1.2C51,447.8,47.3,444,42.6,444z M59.3,440.8
				l-1,1l0,0c-0.2,0.2-0.5,0.4-0.8,0.6c2,2.9,3.1,6.3,3.1,10.1c0,0.7,0.5,1.2,1.2,1.2c0.7,0,1.2-0.5,1.2-1.2
				C63,448.1,61.6,444.1,59.3,440.8z M42.6,438c-0.7,0-1.2,0.5-1.2,1.2s0.5,1.2,1.2,1.2c6.6,0,12,5.4,12,12c0,0.7,0.5,1.2,1.2,1.2
				c0.7,0,1.2-0.5,1.2-1.2C57,444.4,50.6,438,42.6,438z"/>
		</g>
	</g>
	<path fill="#999999" d="M764.3,451.7l-5.5-5.5l-5.5,5.5c-0.3,0.3-0.7,0.5-1.1,0.5c-0.4,0-0.8-0.2-1.1-0.5c-0.3-0.3-0.5-0.7-0.5-1.1
		s0.2-0.8,0.5-1.1l5.5-5.5l-5.5-5.5c-0.3-0.3-0.5-0.7-0.5-1.1s0.2-0.8,0.5-1.1c0.3-0.3,0.7-0.5,1.1-0.5c0.4,0,0.8,0.2,1.1,0.5
		l5.5,5.5l5.5-5.5c0.3-0.3,0.7-0.5,1.1-0.5c0.4,0,0.8,0.2,1.1,0.5c0.3,0.3,0.5,0.7,0.5,1.1s-0.2,0.8-0.5,1.1L761,444l5.5,5.5
		c0.3,0.3,0.5,0.7,0.5,1.1s-0.2,0.8-0.5,1.1c-0.3,0.3-0.7,0.5-1.1,0.5C765,452.1,764.6,452,764.3,451.7z"/>
	<path fill="#CCCCCC" d="M318,396c0,1.6-1.4,3-3,3H87c-1.7,0-3-1.4-3-3v-6c0-1.6,1.3-3,3-3h228c1.6,0,3,1.4,3,3V396z"/>
	<path fill="#B3C9DA" d="M660,396c0,1.6-1.3,3-3,3h-54c-1.7,0-3-1.4-3-3v-6c0-1.6,1.3-3,3-3h54c1.7,0,3,1.4,3,3V396z"/>
	<path fill="#CCCCCC" d="M730,396c0,1.6-1.3,3-3,3h-54c-1.7,0-3-1.4-3-3v-6c0-1.6,1.3-3,3-3h54c1.7,0,3,1.4,3,3V396z"/>
	<line fill="none" stroke="#CCCCCC" stroke-miterlimit="10" x1="767" y1="367.5" x2="33" y2="367.5"/>
	<g id="Shape_3_1_">
		<g>
			<path fill-rule="evenodd" fill="#0E6BA3" d="M42,399c-1.7,0-3,1.3-3,3s1.3,3,3,3c1.7,0,3-1.3,3-3S43.7,399,42,399z M42.6,383.4
				c2.1,0,4.1,0.4,6,1c0-0.9,0.4-1.6,0.9-2.2c-2.2-0.8-4.5-1.2-6.9-1.2c-0.7,0-1.2,0.5-1.2,1.2S42,383.4,42.6,383.4z M55,389
				c0.2,0.2,0.5,0.3,0.8,0.3s0.6-0.1,0.8-0.3l6-6c0.2-0.2,0.4-0.5,0.4-0.8c0-0.7-0.5-1.2-1.2-1.2c-0.3,0-0.6,0.1-0.8,0.3l-5.1,5.1
				l-2.7-2.7c-0.2-0.2-0.5-0.3-0.8-0.3c-0.7,0-1.2,0.5-1.2,1.2c0,0.3,0.1,0.6,0.3,0.8L55,389z M42.6,393c-0.7,0-1.2,0.5-1.2,1.2
				c0,0.7,0.5,1.2,1.2,1.2c3.3,0,6,2.7,6,6c0,0.7,0.5,1.2,1.2,1.2c0.7,0,1.2-0.5,1.2-1.2C51,396.8,47.3,393,42.6,393z M59.3,389.8
				l-1,1l0,0c-0.2,0.2-0.5,0.4-0.8,0.6c2,2.9,3.1,6.3,3.1,10.1c0,0.7,0.5,1.2,1.2,1.2c0.7,0,1.2-0.5,1.2-1.2
				C63,397.1,61.6,393.1,59.3,389.8z M42.6,387c-0.7,0-1.2,0.5-1.2,1.2s0.5,1.2,1.2,1.2c6.6,0,12,5.4,12,12c0,0.7,0.5,1.2,1.2,1.2
				c0.7,0,1.2-0.5,1.2-1.2C57,393.4,50.6,387,42.6,387z"/>
		</g>
	</g>
	<path fill="#999999" d="M764.3,400.7l-5.5-5.5l-5.5,5.5c-0.3,0.3-0.7,0.5-1.1,0.5c-0.4,0-0.8-0.2-1.1-0.5c-0.3-0.3-0.5-0.7-0.5-1.1
		s0.2-0.8,0.5-1.1l5.5-5.5l-5.5-5.5c-0.3-0.3-0.5-0.7-0.5-1.1s0.2-0.8,0.5-1.1c0.3-0.3,0.7-0.5,1.1-0.5c0.4,0,0.8,0.2,1.1,0.5
		l5.5,5.5l5.5-5.5c0.3-0.3,0.7-0.5,1.1-0.5c0.4,0,0.8,0.2,1.1,0.5c0.3,0.3,0.5,0.7,0.5,1.1s-0.2,0.8-0.5,1.1L761,393l5.5,5.5
		c0.3,0.3,0.5,0.7,0.5,1.1s-0.2,0.8-0.5,1.1c-0.3,0.3-0.7,0.5-1.1,0.5C765,401.1,764.6,401,764.3,400.7z"/>
	<path fill="#CCCCCC" d="M210,345c0,1.6-1.4,3-3,3H87c-1.7,0-3-1.4-3-3v-6c0-1.6,1.3-3,3-3h120c1.6,0,3,1.4,3,3V345z"/>
	<path fill="#B3C9DA" d="M660,345c0,1.6-1.3,3-3,3h-47c-1.7,0-3-1.4-3-3v-6c0-1.6,1.3-3,3-3h47c1.7,0,3,1.4,3,3V345z"/>
	<path fill="#CCCCCC" d="M730,345c0,1.6-1.3,3-3,3h-54c-1.7,0-3-1.4-3-3v-6c0-1.6,1.3-3,3-3h54c1.7,0,3,1.4,3,3V345z"/>
	<line fill="none" stroke="#CCCCCC" stroke-miterlimit="10" x1="767" y1="316.5" x2="33" y2="316.5"/>
	<g id="Shape_3_2_">
		<g>
			<path fill-rule="evenodd" fill="#0E6BA3" d="M42,348c-1.7,0-3,1.3-3,3s1.3,3,3,3c1.7,0,3-1.3,3-3S43.7,348,42,348z M42.6,332.4
				c2.1,0,4.1,0.4,6,1c0-0.9,0.4-1.6,0.9-2.2c-2.2-0.8-4.5-1.2-6.9-1.2c-0.7,0-1.2,0.5-1.2,1.2S42,332.4,42.6,332.4z M55,338
				c0.2,0.2,0.5,0.3,0.8,0.3s0.6-0.1,0.8-0.3l6-6c0.2-0.2,0.4-0.5,0.4-0.8c0-0.7-0.5-1.2-1.2-1.2c-0.3,0-0.6,0.1-0.8,0.3l-5.1,5.1
				l-2.7-2.7c-0.2-0.2-0.5-0.3-0.8-0.3c-0.7,0-1.2,0.5-1.2,1.2c0,0.3,0.1,0.6,0.3,0.8L55,338z M42.6,342c-0.7,0-1.2,0.5-1.2,1.2
				c0,0.7,0.5,1.2,1.2,1.2c3.3,0,6,2.7,6,6c0,0.7,0.5,1.2,1.2,1.2c0.7,0,1.2-0.5,1.2-1.2C51,345.8,47.3,342,42.6,342z M59.3,338.8
				l-1,1l0,0c-0.2,0.2-0.5,0.4-0.8,0.6c2,2.9,3.1,6.3,3.1,10.1c0,0.7,0.5,1.2,1.2,1.2c0.7,0,1.2-0.5,1.2-1.2
				C63,346.1,61.6,342.1,59.3,338.8z M42.6,336c-0.7,0-1.2,0.5-1.2,1.2s0.5,1.2,1.2,1.2c6.6,0,12,5.4,12,12c0,0.7,0.5,1.2,1.2,1.2
				c0.7,0,1.2-0.5,1.2-1.2C57,342.4,50.6,336,42.6,336z"/>
		</g>
	</g>
	<path fill="#999999" d="M764.3,349.7l-5.5-5.5l-5.5,5.5c-0.3,0.3-0.7,0.5-1.1,0.5c-0.4,0-0.8-0.2-1.1-0.5c-0.3-0.3-0.5-0.7-0.5-1.1
		s0.2-0.8,0.5-1.1l5.5-5.5l-5.5-5.5c-0.3-0.3-0.5-0.7-0.5-1.1s0.2-0.8,0.5-1.1c0.3-0.3,0.7-0.5,1.1-0.5c0.4,0,0.8,0.2,1.1,0.5
		l5.5,5.5l5.5-5.5c0.3-0.3,0.7-0.5,1.1-0.5c0.4,0,0.8,0.2,1.1,0.5c0.3,0.3,0.5,0.7,0.5,1.1s-0.2,0.8-0.5,1.1L761,342l5.5,5.5
		c0.3,0.3,0.5,0.7,0.5,1.1s-0.2,0.8-0.5,1.1c-0.3,0.3-0.7,0.5-1.1,0.5C765,350.1,764.6,350,764.3,349.7z"/>
	<path fill="#CCCCCC" d="M359,294c0,1.6-1.4,3-3,3H87c-1.7,0-3-1.4-3-3v-6c0-1.6,1.3-3,3-3h269c1.6,0,3,1.4,3,3V294z"/>
	<path fill="#B3C9DA" d="M660,294c0,1.6-1.3,3-3,3h-47c-1.7,0-3-1.4-3-3v-6c0-1.6,1.3-3,3-3h47c1.7,0,3,1.4,3,3V294z"/>
	<path fill="#CCCCCC" d="M730,294c0,1.6-1.3,3-3,3h-54c-1.7,0-3-1.4-3-3v-6c0-1.6,1.3-3,3-3h54c1.7,0,3,1.4,3,3V294z"/>
	<line fill="none" stroke="#CCCCCC" stroke-miterlimit="10" x1="767" y1="265.5" x2="33" y2="265.5"/>
	<g id="Shape_3_5_">
		<g>
			<path fill-rule="evenodd" fill="#0E6BA3" d="M42,297c-1.7,0-3,1.3-3,3s1.3,3,3,3c1.7,0,3-1.3,3-3S43.7,297,42,297z M42.6,281.4
				c2.1,0,4.1,0.4,6,1c0-0.9,0.4-1.6,0.9-2.2c-2.2-0.8-4.5-1.2-6.9-1.2c-0.7,0-1.2,0.5-1.2,1.2S42,281.4,42.6,281.4z M55,287
				c0.2,0.2,0.5,0.3,0.8,0.3s0.6-0.1,0.8-0.3l6-6c0.2-0.2,0.4-0.5,0.4-0.8c0-0.7-0.5-1.2-1.2-1.2c-0.3,0-0.6,0.1-0.8,0.3l-5.1,5.1
				l-2.7-2.7c-0.2-0.2-0.5-0.3-0.8-0.3c-0.7,0-1.2,0.5-1.2,1.2c0,0.3,0.1,0.6,0.3,0.8L55,287z M42.6,291c-0.7,0-1.2,0.5-1.2,1.2
				c0,0.7,0.5,1.2,1.2,1.2c3.3,0,6,2.7,6,6c0,0.7,0.5,1.2,1.2,1.2c0.7,0,1.2-0.5,1.2-1.2C51,294.8,47.3,291,42.6,291z M59.3,287.8
				l-1,1l0,0c-0.2,0.2-0.5,0.4-0.8,0.6c2,2.9,3.1,6.3,3.1,10.1c0,0.7,0.5,1.2,1.2,1.2c0.7,0,1.2-0.5,1.2-1.2
				C63,295.1,61.6,291.1,59.3,287.8z M42.6,285c-0.7,0-1.2,0.5-1.2,1.2s0.5,1.2,1.2,1.2c6.6,0,12,5.4,12,12c0,0.7,0.5,1.2,1.2,1.2
				c0.7,0,1.2-0.5,1.2-1.2C57,291.4,50.6,285,42.6,285z"/>
		</g>
	</g>
	<path fill="#999999" d="M764.3,298.7l-5.5-5.5l-5.5,5.5c-0.3,0.3-0.7,0.5-1.1,0.5c-0.4,0-0.8-0.2-1.1-0.5c-0.3-0.3-0.5-0.7-0.5-1.1
		s0.2-0.8,0.5-1.1l5.5-5.5l-5.5-5.5c-0.3-0.3-0.5-0.7-0.5-1.1s0.2-0.8,0.5-1.1c0.3-0.3,0.7-0.5,1.1-0.5c0.4,0,0.8,0.2,1.1,0.5
		l5.5,5.5l5.5-5.5c0.3-0.3,0.7-0.5,1.1-0.5c0.4,0,0.8,0.2,1.1,0.5c0.3,0.3,0.5,0.7,0.5,1.1s-0.2,0.8-0.5,1.1L761,291l5.5,5.5
		c0.3,0.3,0.5,0.7,0.5,1.1s-0.2,0.8-0.5,1.1c-0.3,0.3-0.7,0.5-1.1,0.5C765,299.1,764.6,299,764.3,298.7z"/>
	<path fill="#CCCCCC" d="M419,243c0,1.6-1.4,3-3,3H87c-1.7,0-3-1.4-3-3v-6c0-1.6,1.3-3,3-3h329c1.6,0,3,1.4,3,3V243z"/>
	<path fill="#B3C9DA" d="M660,243c0,1.6-1.3,3-3,3h-54c-1.7,0-3-1.4-3-3v-6c0-1.6,1.3-3,3-3h54c1.7,0,3,1.4,3,3V243z"/>
	<path fill="#CCCCCC" d="M730,243c0,1.6-1.3,3-3,3h-54c-1.7,0-3-1.4-3-3v-6c0-1.6,1.3-3,3-3h54c1.7,0,3,1.4,3,3V243z"/>
	<line fill="none" stroke="#CCCCCC" stroke-miterlimit="10" x1="767" y1="214.5" x2="33" y2="214.5"/>
	<g id="Shape_3_4_">
		<g>
			<path fill-rule="evenodd" fill="#0E6BA3" d="M42,246c-1.7,0-3,1.3-3,3c0,1.7,1.3,3,3,3c1.7,0,3-1.3,3-3C45,247.3,43.7,246,42,246
				z M42.6,230.4c2.1,0,4.1,0.4,6,1c0-0.9,0.4-1.6,0.9-2.2c-2.2-0.8-4.5-1.2-6.9-1.2c-0.7,0-1.2,0.5-1.2,1.2S42,230.4,42.6,230.4z
				 M55,236c0.2,0.2,0.5,0.3,0.8,0.3s0.6-0.1,0.8-0.3l6-6c0.2-0.2,0.4-0.5,0.4-0.8c0-0.7-0.5-1.2-1.2-1.2c-0.3,0-0.6,0.1-0.8,0.3
				l-5.1,5.1l-2.7-2.7c-0.2-0.2-0.5-0.3-0.8-0.3c-0.7,0-1.2,0.5-1.2,1.2c0,0.3,0.1,0.6,0.3,0.8L55,236z M42.6,240
				c-0.7,0-1.2,0.5-1.2,1.2s0.5,1.2,1.2,1.2c3.3,0,6,2.7,6,6c0,0.7,0.5,1.2,1.2,1.2c0.7,0,1.2-0.5,1.2-1.2
				C51,243.8,47.3,240,42.6,240z M59.3,236.8l-1,1l0,0c-0.2,0.2-0.5,0.4-0.8,0.6c2,2.9,3.1,6.3,3.1,10.1c0,0.7,0.5,1.2,1.2,1.2
				c0.7,0,1.2-0.5,1.2-1.2C63,244.1,61.6,240.1,59.3,236.8z M42.6,234c-0.7,0-1.2,0.5-1.2,1.2c0,0.7,0.5,1.2,1.2,1.2
				c6.6,0,12,5.4,12,12c0,0.7,0.5,1.2,1.2,1.2c0.7,0,1.2-0.5,1.2-1.2C57,240.4,50.6,234,42.6,234z"/>
		</g>
	</g>
	<path fill="#999999" d="M764.3,247.7l-5.5-5.5l-5.5,5.5c-0.3,0.3-0.7,0.5-1.1,0.5c-0.4,0-0.8-0.2-1.1-0.5c-0.3-0.3-0.5-0.7-0.5-1.1
		c0-0.4,0.2-0.8,0.5-1.1l5.5-5.5l-5.5-5.5c-0.3-0.3-0.5-0.7-0.5-1.1c0-0.4,0.2-0.8,0.5-1.1c0.3-0.3,0.7-0.5,1.1-0.5
		c0.4,0,0.8,0.2,1.1,0.5l5.5,5.5l5.5-5.5c0.3-0.3,0.7-0.5,1.1-0.5c0.4,0,0.8,0.2,1.1,0.5c0.3,0.3,0.5,0.7,0.5,1.1
		c0,0.4-0.2,0.8-0.5,1.1L761,240l5.5,5.5c0.3,0.3,0.5,0.7,0.5,1.1c0,0.4-0.2,0.8-0.5,1.1c-0.3,0.3-0.7,0.5-1.1,0.5
		C765,248.1,764.6,248,764.3,247.7z"/>
	<path fill="#89B7DA" d="M318,192c0,1.6-1.4,3-3,3H87c-1.7,0-3-1.4-3-3v-6c0-1.6,1.3-3,3-3h228c1.6,0,3,1.4,3,3V192z"/>
	<path fill="#CCCCCC" d="M242,74c0,1.7-1.4,3-3,3H85c-1.7,0-3-1.3-3-3v-6c0-1.7,1.3-3,3-3h154c1.6,0,3,1.3,3,3V74z"/>
	<path fill="#B3C9DA" d="M660,192c0,1.6-1.3,3-3,3h-39c-1.7,0-3-1.4-3-3v-6c0-1.6,1.3-3,3-3h39c1.7,0,3,1.4,3,3V192z"/>
	<path fill="#89B7DA" d="M730,192c0,1.6-1.3,3-3,3h-54c-1.7,0-3-1.4-3-3v-6c0-1.6,1.3-3,3-3h54c1.7,0,3,1.4,3,3V192z"/>
	<line fill="none" stroke="#CCCCCC" stroke-miterlimit="10" x1="767" y1="163.5" x2="33" y2="163.5"/>
	<g id="Shape_3_3_">
		<g>
			<path fill-rule="evenodd" fill="#0E6BA3" d="M42,195c-1.7,0-3,1.3-3,3c0,1.7,1.3,3,3,3c1.7,0,3-1.3,3-3C45,196.3,43.7,195,42,195
				z M42.6,179.4c2.1,0,4.1,0.4,6,1c0-0.9,0.4-1.6,0.9-2.2c-2.2-0.8-4.5-1.2-6.9-1.2c-0.7,0-1.2,0.5-1.2,1.2S42,179.4,42.6,179.4z
				 M55,185c0.2,0.2,0.5,0.3,0.8,0.3s0.6-0.1,0.8-0.3l6-6c0.2-0.2,0.4-0.5,0.4-0.8c0-0.7-0.5-1.2-1.2-1.2c-0.3,0-0.6,0.1-0.8,0.3
				l-5.1,5.1l-2.7-2.7c-0.2-0.2-0.5-0.3-0.8-0.3c-0.7,0-1.2,0.5-1.2,1.2c0,0.3,0.1,0.6,0.3,0.8L55,185z M42.6,189
				c-0.7,0-1.2,0.5-1.2,1.2s0.5,1.2,1.2,1.2c3.3,0,6,2.7,6,6c0,0.7,0.5,1.2,1.2,1.2c0.7,0,1.2-0.5,1.2-1.2
				C51,192.8,47.3,189,42.6,189z M59.3,185.8l-1,1l0,0c-0.2,0.2-0.5,0.4-0.8,0.6c2,2.9,3.1,6.3,3.1,10.1c0,0.7,0.5,1.2,1.2,1.2
				c0.7,0,1.2-0.5,1.2-1.2C63,193.1,61.6,189.1,59.3,185.8z M42.6,183c-0.7,0-1.2,0.5-1.2,1.2c0,0.7,0.5,1.2,1.2,1.2
				c6.6,0,12,5.4,12,12c0,0.7,0.5,1.2,1.2,1.2c0.7,0,1.2-0.5,1.2-1.2C57,189.4,50.6,183,42.6,183z"/>
		</g>
	</g>
	<path fill="#999999" d="M764.3,196.7l-5.5-5.5l-5.5,5.5c-0.3,0.3-0.7,0.5-1.1,0.5c-0.4,0-0.8-0.2-1.1-0.5c-0.3-0.3-0.5-0.7-0.5-1.1
		c0-0.4,0.2-0.8,0.5-1.1l5.5-5.5l-5.5-5.5c-0.3-0.3-0.5-0.7-0.5-1.1c0-0.4,0.2-0.8,0.5-1.1c0.3-0.3,0.7-0.5,1.1-0.5
		c0.4,0,0.8,0.2,1.1,0.5l5.5,5.5l5.5-5.5c0.3-0.3,0.7-0.5,1.1-0.5c0.4,0,0.8,0.2,1.1,0.5c0.3,0.3,0.5,0.7,0.5,1.1
		c0,0.4-0.2,0.8-0.5,1.1L761,189l5.5,5.5c0.3,0.3,0.5,0.7,0.5,1.1c0,0.4-0.2,0.8-0.5,1.1c-0.3,0.3-0.7,0.5-1.1,0.5
		C765,197.1,764.6,197,764.3,196.7z"/>
	<path fill="#CCCCCC" d="M318,137c0,1.6-1.4,3-3,3H87c-1.7,0-3-1.4-3-3v-6c0-1.6,1.3-3,3-3h228c1.6,0,3,1.4,3,3V137z"/>
	<path fill="#B3C9DA" d="M660,137c0,1.6-1.3,3-3,3h-39c-1.7,0-3-1.4-3-3v-6c0-1.6,1.3-3,3-3h39c1.7,0,3,1.4,3,3V137z"/>
	<path fill="#CCCCCC" d="M730,137c0,1.6-1.3,3-3,3h-54c-1.7,0-3-1.4-3-3v-6c0-1.6,1.3-3,3-3h54c1.7,0,3,1.4,3,3V137z"/>
	<line fill="none" stroke="#CCCCCC" stroke-miterlimit="10" x1="767" y1="108.5" x2="33" y2="108.5"/>
	<g id="Shape_3_6_">
		<g>
			<path fill-rule="evenodd" fill="#0E6BA3" d="M42,140c-1.7,0-3,1.3-3,3c0,1.7,1.3,3,3,3c1.7,0,3-1.3,3-3C45,141.3,43.7,140,42,140
				z M42.6,124.4c2.1,0,4.1,0.4,6,1c0-0.9,0.4-1.6,0.9-2.2c-2.2-0.8-4.5-1.2-6.9-1.2c-0.7,0-1.2,0.5-1.2,1.2S42,124.4,42.6,124.4z
				 M55,130c0.2,0.2,0.5,0.3,0.8,0.3s0.6-0.1,0.8-0.3l6-6c0.2-0.2,0.4-0.5,0.4-0.8c0-0.7-0.5-1.2-1.2-1.2c-0.3,0-0.6,0.1-0.8,0.3
				l-5.1,5.1l-2.7-2.7c-0.2-0.2-0.5-0.3-0.8-0.3c-0.7,0-1.2,0.5-1.2,1.2c0,0.3,0.1,0.6,0.3,0.8L55,130z M42.6,134
				c-0.7,0-1.2,0.5-1.2,1.2s0.5,1.2,1.2,1.2c3.3,0,6,2.7,6,6c0,0.7,0.5,1.2,1.2,1.2c0.7,0,1.2-0.5,1.2-1.2
				C51,137.8,47.3,134,42.6,134z M59.3,130.8l-1,1l0,0c-0.2,0.2-0.5,0.4-0.8,0.6c2,2.9,3.1,6.3,3.1,10.1c0,0.7,0.5,1.2,1.2,1.2
				c0.7,0,1.2-0.5,1.2-1.2C63,138.1,61.6,134.1,59.3,130.8z M42.6,128c-0.7,0-1.2,0.5-1.2,1.2c0,0.7,0.5,1.2,1.2,1.2
				c6.6,0,12,5.4,12,12c0,0.7,0.5,1.2,1.2,1.2c0.7,0,1.2-0.5,1.2-1.2C57,134.4,50.6,128,42.6,128z"/>
		</g>
	</g>
	<path fill="#999999" d="M764.3,141.7l-5.5-5.5l-5.5,5.5c-0.3,0.3-0.7,0.5-1.1,0.5c-0.4,0-0.8-0.2-1.1-0.5c-0.3-0.3-0.5-0.7-0.5-1.1
		c0-0.4,0.2-0.8,0.5-1.1l5.5-5.5l-5.5-5.5c-0.3-0.3-0.5-0.7-0.5-1.1s0.2-0.8,0.5-1.1c0.3-0.3,0.7-0.5,1.1-0.5c0.4,0,0.8,0.2,1.1,0.5
		l5.5,5.5l5.5-5.5c0.3-0.3,0.7-0.5,1.1-0.5c0.4,0,0.8,0.2,1.1,0.5c0.3,0.3,0.5,0.7,0.5,1.1s-0.2,0.8-0.5,1.1L761,134l5.5,5.5
		c0.3,0.3,0.5,0.7,0.5,1.1c0,0.4-0.2,0.8-0.5,1.1c-0.3,0.3-0.7,0.5-1.1,0.5C765,142.1,764.6,142,764.3,141.7z"/>
	<g id="feed_2_">
		<g>
			<path fill-rule="evenodd" fill="#999999" d="M50.8,75.3c-1.2,0-2.2,1-2.2,2.2c0,1.2,1,2.2,2.2,2.2s2.2-1,2.2-2.2
				C53,76.2,52,75.3,50.8,75.3z M51.3,70.9c-0.5,0-0.9,0.4-0.9,0.9c0,0.5,0.4,0.9,0.9,0.9c2.4,0,4.3,1.9,4.3,4.3
				c0,0.5,0.4,0.9,0.9,0.9s0.9-0.4,0.9-0.9C57.3,73.6,54.6,70.9,51.3,70.9z M51.3,62.3c-0.5,0-0.9,0.4-0.9,0.9s0.4,0.9,0.9,0.9
				c7.2,0,13,5.8,13,13c0,0.5,0.4,0.9,0.9,0.9S66,77.5,66,77C66,68.9,59.4,62.3,51.3,62.3z M51.3,66.6c-0.5,0-0.9,0.4-0.9,0.9
				c0,0.5,0.4,0.9,0.9,0.9c4.8,0,8.7,3.9,8.7,8.7c0,0.5,0.4,0.9,0.9,0.9s0.9-0.4,0.9-0.9C61.7,71.2,57,66.6,51.3,66.6z"/>
		</g>
	</g>
	<g id="notification_1_">
		<g>
			<g>
				<path fill-rule="evenodd" fill="#93A9BA" d="M400,408c-18.6,0-33.8-15.2-33.8-33.8v-5h67.6v5C433.8,392.8,418.6,408,400,408z
					 M299.2,364.8c-10.7,0-19.4-8.7-19.4-19.4s8.7-19.4,19.4-19.4c5.2,0,9.4-4.2,9.4-9.4v-86.4c0-37.3,23-70.8,57.6-84.5v-1.9
					c0-18.6,15.2-33.8,33.8-33.8s33.8,15.2,33.8,33.8v1.9c34.6,13.7,57.6,47.2,57.6,84.5v86.4c0,5.2,4.2,9.4,9.4,9.4
					c10.7,0,19.4,8.7,19.4,19.4s-8.7,19.4-19.4,19.4H299.2z"/>
				<path fill="#FFFFFF" d="M400,115c15.8,0,28.8,13,28.8,28.8v5.3c33.6,11.8,57.6,43.5,57.6,81.1v86.4c0,7.9,6.5,14.4,14.4,14.4
					s14.4,6.5,14.4,14.4c0,7.9-6.5,14.4-14.4,14.4H299.2c-7.9,0-14.4-6.5-14.4-14.4c0-7.9,6.5-14.4,14.4-14.4
					c7.9,0,14.4-6.5,14.4-14.4v-86.4c0-37.6,24-69.3,57.6-81.1v-5.3C371.2,128,384.2,115,400,115 M428.8,374.2
					c0,15.8-13,28.8-28.8,28.8s-28.8-13-28.8-28.8H428.8 M400,105c-20.9,0-38,16.6-38.8,37.3c-15.8,6.9-29.3,17.8-39.5,31.8
					c-11.9,16.4-18.1,35.8-18.1,56.1v86.4c0,2.4-2,4.4-4.4,4.4c-13.5,0-24.4,10.9-24.4,24.4c0,13.5,10.9,24.4,24.4,24.4h62v4.4
					c0,21.4,17.4,38.8,38.8,38.8s38.8-17.4,38.8-38.8v-4.4h62c13.5,0,24.4-10.9,24.4-24.4c0-13.5-10.9-24.4-24.4-24.4
					c-2.4,0-4.4-2-4.4-4.4v-86.4c0-20.3-6.3-39.7-18.1-56.1c-10.2-14-23.7-24.9-39.5-31.8C438,121.6,420.9,105,400,105L400,105z"/>
			</g>
		</g>
	</g>
</g>
</svg>
