<?xml version="1.0" encoding="utf-8"?>
<!-- Generator: Adobe Illustrator 24.2.1, SVG Export Plug-In . SVG Version: 6.00 Build 0)  -->
<svg version="1.2" baseProfile="tiny" xmlns="http://www.w3.org/2000/svg" xmlns:xlink="http://www.w3.org/1999/xlink" x="0px"
	 y="0px" viewBox="0 0 800 500" overflow="visible" xml:space="preserve">
<g id="Layer_1">
	<path fill="#B3B3B3" d="M128.8,77c0,1.7-1.3,3-3,3h-101c-1.6,0-3-1.3-3-3V54.4c0-1.7,1.4-3,3-3h101c1.7,0,3,1.3,3,3V77z"/>
	<path fill="#E6E6E6" d="M257.8,176.1c0,1.7-1.3,3-3,3h-60c-1.6,0-3-1.3-3-3v-14.6c0-1.6,1.4-3,3-3h60c1.7,0,3,1.4,3,3V176.1z"/>
	<path fill="#E6E6E6" d="M328.8,176.1c0,1.7-1.3,3-3,3h-60c-1.6,0-3-1.3-3-3v-14.6c0-1.6,1.4-3,3-3h60c1.7,0,3,1.4,3,3V176.1z"/>
	<path fill="#89B7DA" d="M399.8,176.1c0,1.7-1.3,3-3,3h-60c-1.6,0-3-1.3-3-3v-14.6c0-1.6,1.4-3,3-3h60c1.7,0,3,1.4,3,3V176.1z"/>
	<path fill="#89B7DA" d="M400.8,131.9c0,1.6-1.3,3-3,3h-42.4c-1.6,0-3-1.4-3-3v-5.8c0-1.7,1.4-3,3-3h42.4c1.7,0,3,1.3,3,3V131.9z"/>
	<g id="upload_63_">
		<path fill-rule="evenodd" fill="#0E6BA3" d="M334.9,136.3c4.1,0,7.5-3.3,7.5-7.4c0-4.1-3.4-7.4-7.5-7.4c-4.1,0-7.5,3.3-7.5,7.4
			C327.4,133,330.8,136.3,334.9,136.3z"/>
	</g>
	<path fill="#CCCCCC" d="M148.8,34.6c0,1.7-1.4,3-3,3h-97c-1.7,0-3-1.3-3-3v-5.8c0-1.7,1.3-3,3-3h97c1.6,0,3,1.3,3,3V34.6z"/>
	<g id="upload_62_">
		<g>
			<path fill-rule="evenodd" fill="#999999" d="M28.9,38.9c4.1,0,7.5-3.3,7.5-7.4s-3.4-7.4-7.5-7.4s-7.5,3.3-7.5,7.4
				S24.8,38.9,28.9,38.9z"/>
		</g>
	</g>
	<path fill="#CCCCCC" d="M113.8,132.1c0,1.7-1.3,3-3,3h-62c-1.7,0-3-1.3-3-3v-5.8c0-1.7,1.3-3,3-3h62c1.7,0,3,1.3,3,3V132.1z"/>
	<g id="upload_61_">
		<g>
			<path fill-rule="evenodd" fill="#999999" d="M28.9,136.3c4.1,0,7.5-3.3,7.5-7.4c0-4.1-3.4-7.4-7.5-7.4s-7.5,3.3-7.5,7.4
				C21.4,133,24.8,136.3,28.9,136.3z"/>
		</g>
	</g>
	<path fill="#CCCCCC" d="M314.8,132.1c0,1.7-1.3,3-3,3h-62c-1.6,0-3-1.3-3-3v-5.8c0-1.7,1.4-3,3-3h62c1.7,0,3,1.3,3,3V132.1z"/>
	<g id="upload_66_">
		<g>
			<path fill-rule="evenodd" fill="#999999" d="M229.9,136.3c4.1,0,7.5-3.3,7.5-7.4c0-4.1-3.4-7.4-7.5-7.4c-4.1,0-7.5,3.3-7.5,7.4
				C222.4,133,225.8,136.3,229.9,136.3z"/>
		</g>
	</g>
	<path fill="#CCCCCC" d="M500.8,132.1c0,1.7-1.3,3-3,3h-50c-1.6,0-3-1.3-3-3v-5.8c0-1.7,1.4-3,3-3h50c1.7,0,3,1.3,3,3V132.1z"/>
	<path fill="#999999" d="M249.8,168.7c0,1.3-1.4,2.4-3,2.4h-43c-1.6,0-3-1.1-3-2.4s1.4-2.4,3-2.4h43
		C248.5,166.2,249.8,167.3,249.8,168.7z"/>
	<path fill="#999999" d="M320.8,168.7c0,1.3-1.3,2.4-3,2.4h-43c-1.6,0-3-1.1-3-2.4s1.4-2.4,3-2.4h43
		C319.5,166.2,320.8,167.3,320.8,168.7z"/>
	<path fill="#E6E6E6" d="M391.8,168.7c0,1.3-1.3,2.4-3,2.4h-43c-1.6,0-3-1.1-3-2.4s1.4-2.4,3-2.4h43
		C390.5,166.2,391.8,167.3,391.8,168.7z"/>
	<g id="upload_57_">
		<g>
			<path fill-rule="evenodd" fill="#999999" d="M427.9,136.3c4.1,0,7.5-3.3,7.5-7.4c0-4.1-3.4-7.4-7.5-7.4c-4.1,0-7.5,3.3-7.5,7.4
				C420.4,133,423.8,136.3,427.9,136.3z"/>
		</g>
	</g>
	<path fill="#CCCCCC" d="M208.8,132.1c0,1.7-1.4,3-3,3h-50c-1.6,0-3-1.3-3-3v-5.8c0-1.7,1.4-3,3-3h50c1.6,0,3,1.3,3,3V132.1z"/>
	<g id="upload_64_">
		<g>
			<path fill-rule="evenodd" fill="#999999" d="M135.9,136.3c4.1,0,7.5-3.3,7.5-7.4c0-4.1-3.4-7.4-7.5-7.4c-4.1,0-7.5,3.3-7.5,7.4
				C128.4,133,131.8,136.3,135.9,136.3z"/>
		</g>
	</g>
	<line fill="none" stroke="#CCCCCC" stroke-miterlimit="10" x1="774" y1="148.6" x2="21.8" y2="148.6"/>
</g>
<g id="Layer_2">
	<path fill-rule="evenodd" fill="#F2F2F2" d="M163,338c0,1.6-1.4,3-3,3H24c-1.6,0-3-1.4-3-3V185c0-1.6,1.4-3,3-3h136
		c1.6,0,3,1.4,3,3V338z"/>
	<path fill="#B3B3B3" d="M118,172c0,1.6-1.3,3-3,3H24c-1.6,0-3-1.4-3-3v-6c0-1.6,1.4-3,3-3h91c1.7,0,3,1.4,3,3V172z"/>
	<path fill="#CCCCCC" d="M156.1,199.7c0,1.6-1.4,3-3,3h-97c-1.6,0-3-1.4-3-3v-5.8c0-1.6,1.4-3,3-3h97c1.6,0,3,1.4,3,3V199.7z"/>
	<g id="upload_77_">
		<g>
			<path fill-rule="evenodd" fill="#999999" d="M36.2,203.9c4.1,0,7.5-3.3,7.5-7.4s-3.4-7.4-7.5-7.4s-7.5,3.3-7.5,7.4
				S32.1,203.9,36.2,203.9z"/>
		</g>
	</g>
	<path fill="#89B7DA" d="M156.1,225.7c0,1.6-1.4,3-3,3h-97c-1.6,0-3-1.4-3-3v-5.8c0-1.6,1.4-3,3-3h97c1.6,0,3,1.4,3,3V225.7z"/>
	<g id="upload_76_">
		<g>
			<path fill-rule="evenodd" fill="#999999" d="M36.2,229.9c4.1,0,7.5-3.3,7.5-7.4s-3.4-7.4-7.5-7.4s-7.5,3.3-7.5,7.4
				S32.1,229.9,36.2,229.9z"/>
		</g>
	</g>
	<path fill="#CCCCCC" d="M156.1,251.7c0,1.6-1.4,3-3,3h-97c-1.6,0-3-1.4-3-3v-5.8c0-1.6,1.4-3,3-3h97c1.6,0,3,1.4,3,3V251.7z"/>
	<g id="upload_75_">
		<g>
			<path fill-rule="evenodd" fill="#999999" d="M36.2,255.9c4.1,0,7.5-3.3,7.5-7.4s-3.4-7.4-7.5-7.4s-7.5,3.3-7.5,7.4
				S32.1,255.9,36.2,255.9z"/>
		</g>
	</g>
	<path fill="#CCCCCC" d="M156.1,277.7c0,1.6-1.4,3-3,3h-97c-1.6,0-3-1.4-3-3v-5.8c0-1.7,1.4-3,3-3h97c1.6,0,3,1.3,3,3V277.7z"/>
	<g id="upload_74_">
		<g>
			<path fill-rule="evenodd" fill="#999999" d="M36.2,281.9c4.1,0,7.5-3.3,7.5-7.4c0-4.1-3.4-7.4-7.5-7.4s-7.5,3.3-7.5,7.4
				C28.7,278.6,32.1,281.9,36.2,281.9z"/>
		</g>
	</g>
	<path fill="#CCCCCC" d="M156.1,303.7c0,1.6-1.4,3-3,3h-97c-1.6,0-3-1.4-3-3v-5.8c0-1.7,1.4-3,3-3h97c1.6,0,3,1.3,3,3V303.7z"/>
	<g id="upload_73_">
		<g>
			<path fill-rule="evenodd" fill="#999999" d="M36.2,307.9c4.1,0,7.5-3.3,7.5-7.4c0-4.1-3.4-7.4-7.5-7.4s-7.5,3.3-7.5,7.4
				C28.7,304.6,32.1,307.9,36.2,307.9z"/>
		</g>
	</g>
	<path fill="#CCCCCC" d="M156.1,329.7c0,1.6-1.4,3-3,3h-97c-1.6,0-3-1.4-3-3v-5.8c0-1.7,1.4-3,3-3h97c1.6,0,3,1.3,3,3V329.7z"/>
	<g id="upload_72_">
		<g>
			<path fill-rule="evenodd" fill="#999999" d="M36.2,333.9c4.1,0,7.5-3.3,7.5-7.4c0-4.1-3.4-7.4-7.5-7.4s-7.5,3.3-7.5,7.4
				C28.7,330.6,32.1,333.9,36.2,333.9z"/>
		</g>
	</g>
	<path fill-rule="evenodd" fill="#F2F2F2" d="M163,471c0,1.6-1.4,3-3,3H24c-1.6,0-3-1.4-3-3v-79c0-1.6,1.4-3,3-3h136
		c1.6,0,3,1.4,3,3V471z"/>
	<path fill="#B3B3B3" d="M118,379c0,1.6-1.3,3-3,3H24c-1.6,0-3-1.4-3-3v-6c0-1.6,1.4-3,3-3h91c1.7,0,3,1.4,3,3V379z"/>
	<path fill="#CCCCCC" d="M156.1,406.7c0,1.6-1.4,3-3,3h-97c-1.6,0-3-1.4-3-3v-5.8c0-1.7,1.4-3,3-3h97c1.6,0,3,1.3,3,3V406.7z"/>
	<g id="upload_71_">
		<g>
			<path fill-rule="evenodd" fill="#999999" d="M36.2,410.9c4.1,0,7.5-3.3,7.5-7.4c0-4.1-3.4-7.4-7.5-7.4s-7.5,3.3-7.5,7.4
				C28.7,407.6,32.1,410.9,36.2,410.9z"/>
		</g>
	</g>
	<path fill="#CCCCCC" d="M156.1,432.7c0,1.6-1.4,3-3,3h-97c-1.6,0-3-1.4-3-3v-5.8c0-1.7,1.4-3,3-3h97c1.6,0,3,1.3,3,3V432.7z"/>
	<g id="upload_70_">
		<g>
			<path fill-rule="evenodd" fill="#999999" d="M36.2,436.9c4.1,0,7.5-3.3,7.5-7.4c0-4.1-3.4-7.4-7.5-7.4s-7.5,3.3-7.5,7.4
				C28.7,433.6,32.1,436.9,36.2,436.9z"/>
		</g>
	</g>
	<path fill="#CCCCCC" d="M156.1,458.7c0,1.6-1.4,3-3,3h-97c-1.6,0-3-1.4-3-3v-5.8c0-1.7,1.4-3,3-3h97c1.6,0,3,1.3,3,3V458.7z"/>
	<g id="upload_69_">
		<g>
			<path fill-rule="evenodd" fill="#999999" d="M36.2,462.9c4.1,0,7.5-3.3,7.5-7.4c0-4.1-3.4-7.4-7.5-7.4s-7.5,3.3-7.5,7.4
				C28.7,459.6,32.1,462.9,36.2,462.9z"/>
		</g>
	</g>
	<path fill="#0E6BA3" d="M140.5,178h-8c-5.2,0-9.5-4.3-9.5-9.5v0c0-5.2,4.3-9.5,9.5-9.5h8c5.2,0,9.5,4.3,9.5,9.5v0
		C150,173.7,145.7,178,140.5,178z"/>
	
		<line fill="none" stroke="#FFFFFF" stroke-width="5" stroke-linecap="round" stroke-linejoin="round" stroke-miterlimit="10" x1="132.5" y1="168.5" x2="140.5" y2="168.5"/>
	<path fill="#999999" d="M303,208c0,1.6-1.4,3-3,3H195c-1.6,0-3-1.4-3-3v-6c0-1.6,1.4-3,3-3h105c1.6,0,3,1.4,3,3V208z"/>
	<path fill="#999999" d="M487,208c0,1.6-1.4,3-3,3h-57c-1.6,0-3-1.4-3-3v-6c0-1.6,1.4-3,3-3h57c1.6,0,3,1.4,3,3V208z"/>
	<path fill="#999999" d="M666,208c0,1.6-1.3,3-3,3h-57c-1.7,0-3-1.4-3-3v-6c0-1.6,1.3-3,3-3h57c1.7,0,3,1.4,3,3V208z"/>
	<path fill="#89B7DA" d="M505,239.8c0,1.7-1.4,3-3,3h-52c-1.6,0-3-1.3-3-3v-6c0-1.6,1.4-3,3-3h52c1.6,0,3,1.4,3,3V239.8z"/>
	<path fill="#B3B3B3" d="M696,239.8c0,1.7-1.3,3-3,3h-87c-1.7,0-3-1.3-3-3v-6c0-1.6,1.3-3,3-3h87c1.7,0,3,1.4,3,3V239.8z"/>
	<line fill="none" stroke="#CCCCCC" stroke-miterlimit="10" x1="774" y1="220.9" x2="192" y2="220.9"/>
	<path fill="#89B7DA" d="M387,271.7c0,1.7-1.4,3-3,3H222c-1.6,0-3-1.3-3-3v-6c0-1.6,1.4-3,3-3h162c1.6,0,3,1.4,3,3V271.7z"/>
	<path fill="#89B7DA" d="M338,239.8c0,1.7-1.4,3-3,3H222c-1.6,0-3-1.3-3-3v-6c0-1.6,1.4-3,3-3h113c1.6,0,3,1.4,3,3V239.8z"/>
	<path fill="#89B7DA" d="M510,271.7c0,1.7-1.4,3-3,3h-57c-1.6,0-3-1.3-3-3v-6c0-1.6,1.4-3,3-3h57c1.6,0,3,1.4,3,3V271.7z"/>
	<path fill="#B3B3B3" d="M688,271.7c0,1.7-1.3,3-3,3h-79c-1.7,0-3-1.3-3-3v-6c0-1.6,1.3-3,3-3h79c1.7,0,3,1.4,3,3V271.7z"/>
	<line fill="none" stroke="#CCCCCC" stroke-miterlimit="10" x1="774" y1="252.8" x2="192" y2="252.8"/>
	<path fill="#89B7DA" d="M375,303.5c0,1.6-1.4,3-3,3H222c-1.6,0-3-1.4-3-3v-6c0-1.6,1.4-3,3-3h150c1.6,0,3,1.4,3,3V303.5z"/>
	<path fill="#89B7DA" d="M513,303.5c0,1.6-1.4,3-3,3h-60c-1.6,0-3-1.4-3-3v-6c0-1.6,1.4-3,3-3h60c1.6,0,3,1.4,3,3V303.5z"/>
	<path fill="#B3B3B3" d="M708,303.5c0,1.6-1.3,3-3,3h-99c-1.7,0-3-1.4-3-3v-6c0-1.6,1.3-3,3-3h99c1.7,0,3,1.4,3,3V303.5z"/>
	<line fill="none" stroke="#CCCCCC" stroke-miterlimit="10" x1="774" y1="284.6" x2="192" y2="284.6"/>
	<path fill="#89B7DA" d="M341,335.3c0,1.6-1.4,3-3,3H222c-1.6,0-3-1.4-3-3v-6c0-1.7,1.4-3,3-3h116c1.6,0,3,1.3,3,3V335.3z"/>
	<path fill="#89B7DA" d="M501,335.3c0,1.6-1.4,3-3,3h-48c-1.6,0-3-1.4-3-3v-6c0-1.7,1.4-3,3-3h48c1.6,0,3,1.3,3,3V335.3z"/>
	<path fill="#B3B3B3" d="M674,335.3c0,1.6-1.3,3-3,3h-65c-1.7,0-3-1.4-3-3v-6c0-1.7,1.3-3,3-3h65c1.7,0,3,1.3,3,3V335.3z"/>
	<line fill="none" stroke="#CCCCCC" stroke-miterlimit="10" x1="774" y1="316.4" x2="192" y2="316.4"/>
	<path fill="#89B7DA" d="M316,367.2c0,1.7-1.4,3-3,3h-91c-1.6,0-3-1.3-3-3v-6c0-1.6,1.4-3,3-3h91c1.6,0,3,1.4,3,3V367.2z"/>
	<path fill="#89B7DA" d="M507,367.2c0,1.7-1.4,3-3,3h-54c-1.6,0-3-1.3-3-3v-6c0-1.6,1.4-3,3-3h54c1.6,0,3,1.4,3,3V367.2z"/>
	<path fill="#B3B3B3" d="M687,367.2c0,1.7-1.3,3-3,3h-78c-1.7,0-3-1.3-3-3v-6c0-1.6,1.3-3,3-3h78c1.7,0,3,1.4,3,3V367.2z"/>
	<line fill="none" stroke="#CCCCCC" stroke-miterlimit="10" x1="774" y1="348.2" x2="192" y2="348.2"/>
	<path fill="#89B7DA" d="M360,399c0,1.6-1.4,3-3,3H222c-1.6,0-3-1.4-3-3v-6c0-1.6,1.4-3,3-3h135c1.6,0,3,1.4,3,3V399z"/>
	<path fill="#89B7DA" d="M510,399c0,1.6-1.4,3-3,3h-57c-1.6,0-3-1.4-3-3v-6c0-1.6,1.4-3,3-3h57c1.6,0,3,1.4,3,3V399z"/>
	<path fill="#B3B3B3" d="M682,399c0,1.6-1.3,3-3,3h-73c-1.7,0-3-1.4-3-3v-6c0-1.6,1.3-3,3-3h73c1.7,0,3,1.4,3,3V399z"/>
	<line fill="none" stroke="#CCCCCC" stroke-miterlimit="10" x1="774" y1="380.1" x2="192" y2="380.1"/>
	<g id="upload_86_">
		<path fill-rule="evenodd" fill="none" stroke="#0E6BA3" stroke-miterlimit="10" d="M431.5,244.5c4.1,0,7.5-3.4,7.5-7.5
			s-3.4-7.5-7.5-7.5c-4.1,0-7.5,3.4-7.5,7.5S427.4,244.5,431.5,244.5z"/>
	</g>
	<g id="upload_84_">
		<path fill-rule="evenodd" fill="none" stroke="#0E6BA3" stroke-miterlimit="10" d="M431.5,277.5c4.1,0,7.5-3.4,7.5-7.5
			c0-4.1-3.4-7.5-7.5-7.5c-4.1,0-7.5,3.4-7.5,7.5C424,274.1,427.4,277.5,431.5,277.5z"/>
	</g>
	<g id="upload_82_">
		<path fill-rule="evenodd" fill="none" stroke="#0E6BA3" stroke-miterlimit="10" d="M431.5,309.5c4.1,0,7.5-3.4,7.5-7.5
			c0-4.1-3.4-7.5-7.5-7.5c-4.1,0-7.5,3.4-7.5,7.5C424,306.1,427.4,309.5,431.5,309.5z"/>
	</g>
	<g id="upload_80_">
		<path fill-rule="evenodd" fill="none" stroke="#0E6BA3" stroke-miterlimit="10" d="M431.5,340.5c4.1,0,7.5-3.4,7.5-7.5
			c0-4.1-3.4-7.5-7.5-7.5c-4.1,0-7.5,3.4-7.5,7.5C424,337.1,427.4,340.5,431.5,340.5z"/>
	</g>
	<g id="upload_78_">
		<path fill-rule="evenodd" fill="none" stroke="#0E6BA3" stroke-miterlimit="10" d="M431.5,372.5c4.1,0,7.5-3.4,7.5-7.5
			c0-4.1-3.4-7.5-7.5-7.5c-4.1,0-7.5,3.4-7.5,7.5C424,369.1,427.4,372.5,431.5,372.5z"/>
	</g>
	<g id="upload_65_">
		<path fill-rule="evenodd" fill="none" stroke="#0E6BA3" stroke-miterlimit="10" d="M431.5,403.5c4.1,0,7.5-3.4,7.5-7.5
			c0-4.1-3.4-7.5-7.5-7.5c-4.1,0-7.5,3.4-7.5,7.5C424,400.1,427.4,403.5,431.5,403.5z"/>
	</g>
	<g id="upload_109_">
		<path fill-rule="evenodd" fill="#0E6BA3" d="M591.5,242.2c2.9,0,5.2-2.4,5.2-5.2c0-2.9-2.4-5.2-5.2-5.2s-5.2,2.4-5.2,5.2
			C586.2,239.9,588.6,242.2,591.5,242.2z"/>
	</g>
	<g id="upload_107_">
		<path fill-rule="evenodd" fill="#0E6BA3" d="M591.5,275.2c2.9,0,5.2-2.4,5.2-5.2s-2.4-5.2-5.2-5.2s-5.2,2.4-5.2,5.2
			S588.6,275.2,591.5,275.2z"/>
	</g>
	<g id="upload_105_">
		<path fill-rule="evenodd" fill="#0E6BA3" d="M591.5,307.2c2.9,0,5.2-2.4,5.2-5.2s-2.4-5.2-5.2-5.2s-5.2,2.4-5.2,5.2
			S588.6,307.2,591.5,307.2z"/>
	</g>
	<g id="upload_103_">
		<path fill-rule="evenodd" fill="#0E6BA3" d="M591.5,338.2c2.9,0,5.2-2.4,5.2-5.2s-2.4-5.2-5.2-5.2s-5.2,2.4-5.2,5.2
			S588.6,338.2,591.5,338.2z"/>
	</g>
	<g id="upload_101_">
		<path fill-rule="evenodd" fill="#0E6BA3" d="M591.5,370.2c2.9,0,5.2-2.4,5.2-5.2s-2.4-5.2-5.2-5.2s-5.2,2.4-5.2,5.2
			S588.6,370.2,591.5,370.2z"/>
	</g>
	<g id="upload_16_">
		<path fill-rule="evenodd" fill="#0E6BA3" d="M591.5,401.2c2.9,0,5.2-2.4,5.2-5.2s-2.4-5.2-5.2-5.2s-5.2,2.4-5.2,5.2
			S588.6,401.2,591.5,401.2z"/>
	</g>
	<g id="upload_97_">
		<path fill-rule="evenodd" fill="none" stroke="#0E6BA3" stroke-miterlimit="10" d="M200.5,244.5c4.1,0,7.5-3.4,7.5-7.5
			s-3.4-7.5-7.5-7.5s-7.5,3.4-7.5,7.5S196.4,244.5,200.5,244.5z"/>
	</g>
	<g id="upload_95_">
		<path fill-rule="evenodd" fill="none" stroke="#0E6BA3" stroke-miterlimit="10" d="M200.5,277.5c4.1,0,7.5-3.4,7.5-7.5
			c0-4.1-3.4-7.5-7.5-7.5s-7.5,3.4-7.5,7.5C193,274.1,196.4,277.5,200.5,277.5z"/>
	</g>
	<g id="upload_93_">
		<path fill-rule="evenodd" fill="none" stroke="#0E6BA3" stroke-miterlimit="10" d="M200.5,309.5c4.1,0,7.5-3.4,7.5-7.5
			c0-4.1-3.4-7.5-7.5-7.5s-7.5,3.4-7.5,7.5C193,306.1,196.4,309.5,200.5,309.5z"/>
	</g>
	<g id="upload_91_">
		<path fill-rule="evenodd" fill="none" stroke="#0E6BA3" stroke-miterlimit="10" d="M200.5,340.5c4.1,0,7.5-3.4,7.5-7.5
			c0-4.1-3.4-7.5-7.5-7.5s-7.5,3.4-7.5,7.5C193,337.1,196.4,340.5,200.5,340.5z"/>
	</g>
	<path fill="#89B7DA" d="M387,430.7c0,1.7-1.4,3-3,3H222c-1.6,0-3-1.3-3-3v-6c0-1.6,1.4-3,3-3h162c1.6,0,3,1.4,3,3V430.7z"/>
	<path fill="#89B7DA" d="M510,430.7c0,1.7-1.4,3-3,3h-57c-1.6,0-3-1.3-3-3v-6c0-1.6,1.4-3,3-3h57c1.6,0,3,1.4,3,3V430.7z"/>
	<path fill="#B3B3B3" d="M688,430.7c0,1.7-1.3,3-3,3h-79c-1.7,0-3-1.3-3-3v-6c0-1.6,1.3-3,3-3h79c1.7,0,3,1.4,3,3V430.7z"/>
	<line fill="none" stroke="#CCCCCC" stroke-miterlimit="10" x1="774" y1="411.8" x2="192" y2="411.8"/>
	<path fill="#89B7DA" d="M375,462.5c0,1.6-1.4,3-3,3H222c-1.6,0-3-1.4-3-3v-6c0-1.6,1.4-3,3-3h150c1.6,0,3,1.4,3,3V462.5z"/>
	<path fill="#89B7DA" d="M513,462.5c0,1.6-1.4,3-3,3h-60c-1.6,0-3-1.4-3-3v-6c0-1.6,1.4-3,3-3h60c1.6,0,3,1.4,3,3V462.5z"/>
	<path fill="#B3B3B3" d="M708,462.5c0,1.6-1.3,3-3,3h-99c-1.7,0-3-1.4-3-3v-6c0-1.6,1.3-3,3-3h99c1.7,0,3,1.4,3,3V462.5z"/>
	<line fill="none" stroke="#CCCCCC" stroke-miterlimit="10" x1="774" y1="443.6" x2="192" y2="443.6"/>
	<path fill="#89B7DA" d="M341,494.3c0,1.6-1.4,3-3,3H222c-1.6,0-3-1.4-3-3v-6c0-1.7,1.4-3,3-3h116c1.6,0,3,1.3,3,3V494.3z"/>
	<path fill="#89B7DA" d="M501,494.3c0,1.6-1.4,3-3,3h-48c-1.6,0-3-1.4-3-3v-6c0-1.7,1.4-3,3-3h48c1.6,0,3,1.3,3,3V494.3z"/>
	<path fill="#B3B3B3" d="M674,494.3c0,1.6-1.3,3-3,3h-65c-1.7,0-3-1.4-3-3v-6c0-1.7,1.3-3,3-3h65c1.7,0,3,1.3,3,3V494.3z"/>
	<line fill="none" stroke="#CCCCCC" stroke-miterlimit="10" x1="774" y1="475.4" x2="192" y2="475.4"/>
	<g id="upload_127_">
		<path fill-rule="evenodd" fill="none" stroke="#0E6BA3" stroke-miterlimit="10" d="M431.5,436.5c4.1,0,7.5-3.4,7.5-7.5
			c0-4.1-3.4-7.5-7.5-7.5c-4.1,0-7.5,3.4-7.5,7.5C424,433.1,427.4,436.5,431.5,436.5z"/>
	</g>
	<g id="upload_125_">
		<path fill-rule="evenodd" fill="none" stroke="#0E6BA3" stroke-miterlimit="10" d="M431.5,468.5c4.1,0,7.5-3.4,7.5-7.5
			c0-4.1-3.4-7.5-7.5-7.5c-4.1,0-7.5,3.4-7.5,7.5C424,465.1,427.4,468.5,431.5,468.5z"/>
	</g>
	<g id="upload_123_">
		<path fill-rule="evenodd" fill="none" stroke="#0E6BA3" stroke-miterlimit="10" d="M431.5,499.5c4.1,0,7.5-3.4,7.5-7.5
			c0-4.1-3.4-7.5-7.5-7.5c-4.1,0-7.5,3.4-7.5,7.5C424,496.1,427.4,499.5,431.5,499.5z"/>
	</g>
	<g id="upload_121_">
		<path fill-rule="evenodd" fill="#0E6BA3" d="M591.5,434.2c2.9,0,5.2-2.4,5.2-5.2s-2.4-5.2-5.2-5.2s-5.2,2.4-5.2,5.2
			S588.6,434.2,591.5,434.2z"/>
	</g>
	<g id="upload_119_">
		<path fill-rule="evenodd" fill="#0E6BA3" d="M591.5,466.2c2.9,0,5.2-2.4,5.2-5.2s-2.4-5.2-5.2-5.2s-5.2,2.4-5.2,5.2
			S588.6,466.2,591.5,466.2z"/>
	</g>
	<g id="upload_117_">
		<path fill-rule="evenodd" fill="#0E6BA3" d="M591.5,497.2c2.9,0,5.2-2.4,5.2-5.2s-2.4-5.2-5.2-5.2s-5.2,2.4-5.2,5.2
			S588.6,497.2,591.5,497.2z"/>
	</g>
	<g id="upload_115_">
		<path fill-rule="evenodd" fill="none" stroke="#0E6BA3" stroke-miterlimit="10" d="M200.5,436.5c4.1,0,7.5-3.4,7.5-7.5
			c0-4.1-3.4-7.5-7.5-7.5s-7.5,3.4-7.5,7.5C193,433.1,196.4,436.5,200.5,436.5z"/>
	</g>
	<g id="upload_113_">
		<path fill-rule="evenodd" fill="none" stroke="#0E6BA3" stroke-miterlimit="10" d="M200.5,468.5c4.1,0,7.5-3.4,7.5-7.5
			c0-4.1-3.4-7.5-7.5-7.5s-7.5,3.4-7.5,7.5C193,465.1,196.4,468.5,200.5,468.5z"/>
	</g>
	<g id="upload_100_">
		<path fill-rule="evenodd" fill="none" stroke="#0E6BA3" stroke-miterlimit="10" d="M200.5,499.5c4.1,0,7.5-3.4,7.5-7.5
			c0-4.1-3.4-7.5-7.5-7.5s-7.5,3.4-7.5,7.5C193,496.1,196.4,499.5,200.5,499.5z"/>
	</g>
	<g id="upload_89_">
		<path fill-rule="evenodd" fill="none" stroke="#0E6BA3" stroke-miterlimit="10" d="M200.5,372.5c4.1,0,7.5-3.4,7.5-7.5
			c0-4.1-3.4-7.5-7.5-7.5s-7.5,3.4-7.5,7.5C193,369.1,196.4,372.5,200.5,372.5z"/>
	</g>
	<g id="upload_68_">
		<path fill-rule="evenodd" fill="none" stroke="#0E6BA3" stroke-miterlimit="10" d="M200.5,403.5c4.1,0,7.5-3.4,7.5-7.5
			c0-4.1-3.4-7.5-7.5-7.5s-7.5,3.4-7.5,7.5C193,400.1,196.4,403.5,200.5,403.5z"/>
	</g>
	<g id="comparison_2_">
		<g>
			<g>
				<path fill-rule="evenodd" fill="#93A9BA" d="M400,392c-13.4,0-24.3-10.9-24.3-24.3V110.3c0-13.4,10.9-24.3,24.3-24.3
					s24.3,10.9,24.3,24.3v257.4C424.3,381.1,413.4,392,400,392z M457.2,363.4c-13.4,0-24.3-10.9-24.3-24.3v-28.6
					c0-13.4,10.9-24.3,24.3-24.3h71.5c13.4,0,24.3,10.9,24.3,24.3v28.6c0,13.4-10.9,24.3-24.3,24.3H457.2z M518.7,329.1v-8.6h-51.5
					v8.6H518.7z M271.3,363.4c-13.4,0-24.3-10.9-24.3-24.3v-28.6c0-13.4,10.9-24.3,24.3-24.3h71.5c13.4,0,24.3,10.9,24.3,24.3v28.6
					c0,13.4-10.9,24.3-24.3,24.3H271.3z M457.2,277.6c-13.4,0-24.3-10.9-24.3-24.3v-28.6c0-13.4,10.9-24.3,24.3-24.3h71.5
					c13.4,0,24.3,10.9,24.3,24.3v28.6c0,13.4-10.9,24.3-24.3,24.3H457.2z M518.7,243.3v-8.6h-51.5v8.6H518.7z M271.3,277.6
					c-13.4,0-24.3-10.9-24.3-24.3v-28.6c0-13.4,10.9-24.3,24.3-24.3h71.5c13.4,0,24.3,10.9,24.3,24.3v28.6
					c0,13.4-10.9,24.3-24.3,24.3H271.3z M457.2,191.8c-13.4,0-24.3-10.9-24.3-24.3v-28.6c0-13.4,10.9-24.3,24.3-24.3h71.5
					c13.4,0,24.3,10.9,24.3,24.3v28.6c0,13.4-10.9,24.3-24.3,24.3H457.2z M518.7,157.5v-8.6h-51.5v8.6H518.7z M271.3,191.8
					c-13.4,0-24.3-10.9-24.3-24.3v-28.6c0-13.4,10.9-24.3,24.3-24.3h71.5c13.4,0,24.3,10.9,24.3,24.3v28.6
					c0,13.4-10.9,24.3-24.3,24.3H271.3z"/>
				<path fill="#FFFFFF" d="M400,96c7.9,0,14.3,6.4,14.3,14.3v257.4c0,7.9-6.4,14.3-14.3,14.3s-14.3-6.4-14.3-14.3V110.3
					C385.7,102.4,392.1,96,400,96 M528.7,124.6c7.9,0,14.3,6.4,14.3,14.3v28.6c0,7.9-6.4,14.3-14.3,14.3h-71.5
					c-7.9,0-14.3-6.4-14.3-14.3v-28.6c0-7.9,6.4-14.3,14.3-14.3H528.7 M457.2,167.5h71.5v-28.6h-71.5V167.5 M342.8,124.6
					c7.9,0,14.3,6.4,14.3,14.3v28.6c0,7.9-6.4,14.3-14.3,14.3h-71.5c-7.9,0-14.3-6.4-14.3-14.3v-28.6c0-7.9,6.4-14.3,14.3-14.3
					H342.8 M528.7,210.4c7.9,0,14.3,6.4,14.3,14.3v28.6c0,7.9-6.4,14.3-14.3,14.3h-71.5c-7.9,0-14.3-6.4-14.3-14.3v-28.6
					c0-7.9,6.4-14.3,14.3-14.3H528.7 M457.2,253.3h71.5v-28.6h-71.5V253.3 M342.8,210.4c7.9,0,14.3,6.4,14.3,14.3v28.6
					c0,7.9-6.4,14.3-14.3,14.3h-71.5c-7.9,0-14.3-6.4-14.3-14.3v-28.6c0-7.9,6.4-14.3,14.3-14.3H342.8 M528.7,296.2
					c7.9,0,14.3,6.4,14.3,14.3v28.6c0,7.9-6.4,14.3-14.3,14.3h-71.5c-7.9,0-14.3-6.4-14.3-14.3v-28.6c0-7.9,6.4-14.3,14.3-14.3
					H528.7 M457.2,339.1h71.5v-28.6h-71.5V339.1 M342.8,296.2c7.9,0,14.3,6.4,14.3,14.3v28.6c0,7.9-6.4,14.3-14.3,14.3h-71.5
					c-7.9,0-14.3-6.4-14.3-14.3v-28.6c0-7.9,6.4-14.3,14.3-14.3H342.8 M400,76c-18.9,0-34.3,15.4-34.3,34.3v3.1
					c-6.1-5.5-14.1-8.8-22.9-8.8h-71.5c-18.9,0-34.3,15.4-34.3,34.3v28.6c0,11.9,6.1,22.5,15.4,28.6c-9.3,6.1-15.4,16.7-15.4,28.6
					v28.6c0,11.9,6.1,22.5,15.4,28.6c-9.3,6.1-15.4,16.7-15.4,28.6v28.6c0,18.9,15.4,34.3,34.3,34.3h71.5c8.8,0,16.8-3.3,22.9-8.8
					v3.1c0,18.9,15.4,34.3,34.3,34.3s34.3-15.4,34.3-34.3v-3.1c6.1,5.5,14.1,8.8,22.9,8.8h71.5c18.9,0,34.3-15.4,34.3-34.3v-28.6
					c0-11.9-6.1-22.5-15.4-28.6c9.3-6.1,15.4-16.7,15.4-28.6v-28.6c0-11.9-6.1-22.5-15.4-28.6c9.3-6.1,15.4-16.7,15.4-28.6v-28.6
					c0-18.9-15.4-34.3-34.3-34.3h-71.5c-8.8,0-16.8,3.3-22.9,8.8v-3.1C434.3,91.4,418.9,76,400,76L400,76z M434.3,199.2V193
					c1.2,1.1,2.6,2.2,4,3.1C436.9,197,435.5,198.1,434.3,199.2L434.3,199.2z M361.7,196.1c1.4-0.9,2.7-2,4-3.1v6.2
					C364.5,198.1,363.1,197,361.7,196.1L361.7,196.1z M434.3,285v-6.2c1.2,1.1,2.6,2.2,4,3.1C436.9,282.8,435.5,283.9,434.3,285
					L434.3,285z M361.7,281.9c1.4-0.9,2.7-2,4-3.1v6.2C364.5,283.9,363.1,282.8,361.7,281.9L361.7,281.9z"/>
			</g>
		</g>
	</g>
</g>
</svg>
