<?xml version="1.0" encoding="utf-8"?>
<!-- Generator: Adobe Illustrator 24.2.1, SVG Export Plug-In . SVG Version: 6.00 Build 0)  -->
<svg version="1.2" baseProfile="tiny" xmlns="http://www.w3.org/2000/svg" xmlns:xlink="http://www.w3.org/1999/xlink" x="0px"
	 y="0px" viewBox="0 0 800 500" overflow="visible" xml:space="preserve">
<g id="Layer_1">
	<rect fill="#172026" width="800" height="50"/>
	<rect y="50" fill="#EBF1F5" width="800" height="50"/>
</g>
<g id="Layer_2">
	<path fill="#FFFFFF" d="M602.9,40H185V8h417.9c2.8,0,5.1,2.3,5.1,5.1v21.8C608,37.7,605.7,40,602.9,40z"/>
	<g>
		<path fill="#FFFFFF" d="M21,21.8c0.9,2.2,1.7,4.5,2.4,6.8c1.8-0.6,3.6-1.3,5.4-2.2c-1-2.1-2.1-4.2-3.4-6.2
			C23.9,20.9,22.5,21.4,21,21.8z"/>
		<path fill="#FFFFFF" d="M16,31.8v5c1.8,0,4.8-0.6,8.1-1.6c-0.3-1.7-0.8-3.5-1.2-5.2C20.5,30.7,18.1,31.3,16,31.8z"/>
		<path fill="#FFFFFF" d="M16.4,14.6c-0.1,0-0.2,0.1-0.4,0.1V22c1.1-0.2,2.4-0.4,3.8-0.8C18.8,19,17.6,16.7,16.4,14.6z"/>
		<path fill="#FFFFFF" d="M29,17.3c-1.8-2.1-3.8-4-5.9-5.7c-0.6,0.5-1.3,0.9-2,1.3c1.7,1.9,3.4,4,4.8,6.2C27,18.6,28,18,29,17.3z"/>
		<path fill="#FFFFFF" d="M20.1,22.1c-1.4,0.4-2.8,0.7-4.1,0.9v7.7c2-0.4,4.3-1,6.5-1.7C21.9,26.6,21.1,24.3,20.1,22.1z"/>
		<path fill="#FFFFFF" d="M26.3,19.8c1.3,2,2.4,4.1,3.4,6.2c1.4-0.7,2.7-1.5,3.9-2.5c-1.2-2-2.6-3.9-4.1-5.7
			C28.4,18.6,27.4,19.2,26.3,19.8z"/>
		<path fill="#FFFFFF" d="M40.6,25.6c0.5-0.7,1-1.3,1.4-2c-0.8-2-1.8-3.8-3-5.5c-0.4,0.8-0.8,1.5-1.3,2.2
			C38.9,22,39.9,23.8,40.6,25.6z"/>
		<path fill="#FFFFFF" d="M32,15.2c-0.5,0.7-1.1,1.4-1.8,2c1.5,1.8,2.9,3.7,4.1,5.8c0.9-0.8,1.7-1.6,2.4-2.4
			C35.3,18.6,33.7,16.8,32,15.2z"/>
		<path fill="#FFFFFF" d="M37.3,19.7c0.5-0.7,0.9-1.4,1.2-2.2c-1.5-1.9-3.2-3.5-5.2-4.9c-0.2,0.6-0.4,1.2-0.7,1.7
			C34.3,15.9,35.9,17.7,37.3,19.7z"/>
		<path fill="#FFFFFF" d="M24.9,19.6c-1.5-2.2-3.1-4.3-4.9-6.2c-0.9,0.4-1.8,0.7-2.7,1c1.2,2.1,2.4,4.4,3.3,6.7
			C22.1,20.7,23.5,20.2,24.9,19.6z"/>
		<path fill="#FFFFFF" d="M30,26.9c0.7,1.7,1.3,3.4,1.8,5.2c1.6-0.8,3.1-1.7,4.5-2.6c-0.6-1.8-1.4-3.5-2.3-5.2
			C32.7,25.3,31.4,26.1,30,26.9z"/>
		<path fill="#FFFFFF" d="M23.7,29.7c0.5,1.8,0.9,3.5,1.2,5.2c2-0.7,4-1.5,6-2.4c-0.5-1.7-1.1-3.5-1.8-5.2
			C27.4,28.2,25.5,29,23.7,29.7z"/>
		<path fill="#FFFFFF" d="M29.8,16.7c0.7-0.6,1.3-1.2,1.7-2c-2.1-1.9-4.4-3.6-6.7-5c-0.2,0.4-0.6,0.8-0.9,1.2
			C26,12.7,28,14.6,29.8,16.7z"/>
		<path fill="#FFFFFF" d="M32.6,12.1c0,0.2-0.1,0.4-0.1,0.6c0,0,0,0,0,0c0,0.2-0.1,0.3-0.2,0.5c0,0,0,0.1-0.1,0.1
			c-0.1,0.2-0.1,0.3-0.2,0.5c-2.1-1.9-4.4-3.6-6.8-5c0,0,0-0.1,0-0.1C28,9.5,30.4,10.7,32.6,12.1z"/>
		<path fill="#FFFFFF" d="M34.7,23.7c0.9,1.7,1.7,3.5,2.4,5.3c1.1-0.8,2.1-1.6,2.9-2.5c-0.8-1.8-1.7-3.6-2.8-5.2
			C36.4,22.1,35.6,22.9,34.7,23.7z"/>
	</g>
	<path fill="#5C7081" d="M185,40H61.2c-1.8,0-3.2-1.4-3.2-3.2V11.2C58,9.4,59.4,8,61.2,8H185V40z"/>
	<path fill="#89B7DA" d="M781.3,91H680.7c-1.5,0-2.7-1.2-2.7-2.7V61.7c0-1.5,1.2-2.7,2.7-2.7h100.5c1.5,0,2.7,1.2,2.7,2.7v26.5
		C784,89.8,782.8,91,781.3,91z"/>
	<g id="zoomout_9_">
		<path fill-rule="evenodd" fill="#93A9BA" d="M211.6,31.3l-4.3-4.3c0.8-1.1,1.2-2.5,1.2-4c0-3.9-3.1-7-7-7s-7,3.1-7,7s3.1,7,7,7
			c1.5,0,2.8-0.4,4-1.2l4.3,4.3c0.2,0.2,0.6,0.4,0.9,0.4c0.7,0,1.3-0.6,1.3-1.3C212,31.9,211.8,31.6,211.6,31.3z M201.5,28.3
			c-2.9,0-5.3-2.4-5.3-5.3s2.4-5.3,5.3-5.3s5.3,2.4,5.3,5.3S204.4,28.3,201.5,28.3z"/>
	</g>
	<g id="Rectangle_1_copy_2_">
		<g>
			<path fill-rule="evenodd" fill="#FFFFFF" d="M643,18.4c5,0,9-1.4,9-3s-4-3-9-3c-5,0-9,1.4-9,3S638,18.4,643,18.4z M634,17.7v6.7
				c0,1.6,4,3,9,3s9-1.4,9-3v-6.7c-1.8,1.3-5.2,2.2-9,2.2S635.8,19,634,17.7z M634,26.7v6.7c0,1.7,4,3,9,3s9-1.3,9-3v-6.7
				c-1.8,1.3-5.2,2.2-9,2.2S635.8,28,634,26.7z"/>
		</g>
	</g>
	<g id="upload_32_">
		<g>
			<path fill-rule="evenodd" fill="#FFFFFF" d="M697,84.9c5.5,0,10-4.5,10-10c0-5.5-4.5-10-10-10s-10,4.5-10,10
				C687,80.4,691.5,84.9,697,84.9z M693,74.9c0.3,0,0.5,0.1,0.7,0.3l2.3,2.3v-7.6c0-0.5,0.5-1,1-1s1,0.5,1,1v7.6l2.3-2.3
				c0.2-0.2,0.4-0.3,0.7-0.3c0.5,0,1,0.5,1,1c0,0.3-0.1,0.5-0.3,0.7l-4,4c-0.2,0.2-0.4,0.3-0.7,0.3s-0.5-0.1-0.7-0.3l-4-4
				c-0.2-0.2-0.3-0.4-0.3-0.7C692,75.4,692.5,74.9,693,74.9z"/>
		</g>
	</g>
	<g id="_x32_0_2_">
		<path id="Combined-Shape_2_" fill-rule="evenodd" fill="#FFFFFF" d="M685.3,29.7L684,33c1.1,0.4,2.3,0.7,3.5,0.7s2.4-0.2,3.5-0.7
			l-1.3-3.3c-0.7,0.3-1.4,0.4-2.2,0.4S686,30,685.3,29.7z M682,26.4c-0.3-0.7-0.4-1.4-0.4-2.2c0-0.8,0.1-1.5,0.4-2.2l-3.3-1.3
			c-0.4,1.1-0.7,2.3-0.7,3.5c0,1.2,0.2,2.4,0.7,3.5L682,26.4z M685.3,18.8c0.7-0.3,1.4-0.4,2.2-0.4s1.5,0.1,2.2,0.4l1.3-3.3
			c-1.1-0.4-2.3-0.7-3.5-0.7s-2.4,0.2-3.5,0.7L685.3,18.8z M692.9,22c0.3,0.7,0.4,1.4,0.4,2.2c0,0.8-0.1,1.5-0.4,2.2l3.3,1.3
			c0.4-1.1,0.7-2.3,0.7-3.5c0-1.2-0.2-2.4-0.7-3.5L692.9,22z M687.5,27.8c2,0,3.5-1.6,3.5-3.5s-1.6-3.5-3.5-3.5s-3.5,1.6-3.5,3.5
			S685.5,27.8,687.5,27.8z M687.5,36c-6.5,0-11.8-5.3-11.8-11.8s5.3-11.8,11.8-11.8c6.5,0,11.8,5.3,11.8,11.8S694,36,687.5,36z"/>
	</g>
	<path id="help_2_" fill="#FFFFFF" d="M731.9,12.3c-6.5,0-11.8,5.3-11.8,11.8S725.4,36,731.9,36s11.8-5.3,11.8-11.8
		S738.5,12.3,731.9,12.3z M728.9,17.8c0.8-0.6,1.8-1,3-1c0.6,0,1.2,0.1,1.8,0.3c0.5,0.2,1,0.5,1.3,0.8c0.4,0.3,0.7,0.7,0.9,1.2
		c0.2,0.5,0.3,1,0.3,1.5c0,0.5-0.1,1-0.3,1.5c-0.2,0.4-0.5,0.9-0.8,1.3l-1.4,1.9c-0.2,0.2-0.3,0.4-0.4,0.6c-0.1,0.2-0.1,0.4-0.1,0.7
		v0.5c0,0.1,0,0.6,0,0.6h-2.4v-2.4c0,0,0.1-0.7,0.3-1l1.4-1.9c0.3-0.4,0.5-0.7,0.6-0.9s0.2-0.5,0.2-0.8c0-0.4-0.1-0.7-0.4-1
		c-0.2-0.3-0.6-0.4-1-0.4c-0.4,0-0.8,0.1-1.1,0.4c-0.3,0.3-0.4,0.6-0.5,1.1c0,0.1-0.1,0.2-0.3,0.2l-2.3-0.3c-0.1,0-0.2-0.1-0.2-0.3
		C727.6,19.3,728.1,18.5,728.9,17.8z M730.8,28.9h2.4l0,2.4h-2.4V28.9z"/>
	<g id="login_2_">
		<g>
			<path fill-rule="evenodd" fill="#FFFFFF" d="M783.1,12.3h-9.5c-0.7,0-1.2,0.5-1.2,1.2s0.5,1.2,1.2,1.2h8.3v19h-8.3
				c-0.7,0-1.2,0.5-1.2,1.2s0.5,1.2,1.2,1.2h9.5c0.7,0,1.2-0.5,1.2-1.2V13.4C784.3,12.8,783.8,12.3,783.1,12.3z M778.4,24.1
				c0-0.3-0.1-0.6-0.3-0.8l-5.9-5.9c-0.2-0.2-0.5-0.3-0.8-0.3c-0.7,0-1.2,0.5-1.2,1.2c0,0.3,0.1,0.6,0.3,0.8l3.9,3.9h-12.6
				c-0.7,0-1.2,0.5-1.2,1.2c0,0.7,0.5,1.2,1.2,1.2h12.6l-3.9,3.9c-0.2,0.2-0.4,0.5-0.4,0.8c0,0.7,0.5,1.2,1.2,1.2
				c0.3,0,0.6-0.1,0.8-0.3L778,25C778.2,24.8,778.4,24.5,778.4,24.1z"/>
		</g>
	</g>
	<path fill="#EDEDED" d="M204,146H18c-1.7,0-3-1.3-3-3v-24c0-1.7,1.3-3,3-3h186c1.7,0,3,1.3,3,3v24C207,144.7,205.7,146,204,146z"/>
	<path fill="#EDEDED" d="M204,186H18c-1.7,0-3-1.3-3-3v-24c0-1.7,1.3-3,3-3h186c1.7,0,3,1.3,3,3v24C207,184.7,205.7,186,204,186z"/>
	<path fill="#EDEDED" d="M204,412H18c-1.7,0-3-1.3-3-3v-24c0-1.7,1.3-3,3-3h186c1.7,0,3,1.3,3,3v24C207,410.7,205.7,412,204,412z"/>
	<path fill="#EDEDED" d="M204,450H18c-1.7,0-3-1.3-3-3v-24c0-1.7,1.3-3,3-3h186c1.7,0,3,1.3,3,3v24C207,448.7,205.7,450,204,450z"/>
	<path fill="#EDEDED" d="M204,488H18c-1.7,0-3-1.3-3-3v-24c0-1.7,1.3-3,3-3h186c1.7,0,3,1.3,3,3v24C207,486.7,205.7,488,204,488z"/>
	<polygon points="32.1,131.1 25,138.1 25,124 	"/>
	<polygon points="32.1,397.1 25,404.1 25,390 	"/>
	<polygon points="32.1,435.1 25,442.1 25,428 	"/>
	<polygon points="32.1,473.1 25,480.1 25,466 	"/>
	<polygon points="30,175.1 22.9,168 37.1,168 	"/>
	<path fill="#B3B3B3" d="M185,135c0,1.6-1.4,3-3,3H48c-1.7,0-3-1.4-3-3v-6c0-1.7,1.3-3,3-3h134c1.6,0,3,1.3,3,3V135z"/>
	<path fill="#999999" d="M367,175c0,1.6-1.4,3-3,3H259c-1.6,0-3-1.4-3-3v-6c0-1.6,1.4-3,3-3h105c1.6,0,3,1.4,3,3V175z"/>
	<path fill="#999999" d="M536,175c0,1.6-1.3,3-3,3h-57c-1.6,0-3-1.4-3-3v-6c0-1.6,1.4-3,3-3h57c1.7,0,3,1.4,3,3V175z"/>
	<path fill="#999999" d="M662,175c0,1.6-1.3,3-3,3h-57c-1.7,0-3-1.4-3-3v-6c0-1.6,1.3-3,3-3h57c1.7,0,3,1.4,3,3V175z"/>
	<path fill="#89B7DA" d="M382,78c0,1.7-1.4,3-3,3H62c-1.7,0-3-1.3-3-3v-6c0-1.7,1.3-3,3-3h317c1.6,0,3,1.3,3,3V78z"/>
	<path fill="#89B7DA" d="M554,217c0,1.6-1.3,3-3,3h-52c-1.6,0-3-1.4-3-3v-6c0-1.6,1.4-3,3-3h52c1.7,0,3,1.4,3,3V217z"/>
	<path fill="#89B7DA" d="M310,28c0,1.6-1.4,3-3,3h-81c-1.6,0-3-1.4-3-3v-6c0-1.6,1.4-3,3-3h81c1.6,0,3,1.4,3,3V28z"/>
	<path fill="#B3B3B3" d="M692,217c0,1.6-1.3,3-3,3h-87c-1.7,0-3-1.4-3-3v-6c0-1.6,1.3-3,3-3h87c1.7,0,3,1.4,3,3V217z"/>
	<path fill="#B3B3B3" d="M185,400c0,1.6-1.4,3-3,3H48c-1.7,0-3-1.4-3-3v-6c0-1.6,1.3-3,3-3h134c1.6,0,3,1.4,3,3V400z"/>
	<path fill="#B3B3B3" d="M171,438c0,1.6-1.4,3-3,3H48c-1.7,0-3-1.4-3-3v-6c0-1.6,1.3-3,3-3h120c1.6,0,3,1.4,3,3V438z"/>
	<path fill="#B3B3B3" d="M192,476c0,1.6-1.4,3-3,3H48c-1.7,0-3-1.4-3-3v-6c0-1.6,1.3-3,3-3h141c1.6,0,3,1.4,3,3V476z"/>
	<path fill="#B3B3B3" d="M163,174c0,1.6-1.4,3-3,3H48c-1.7,0-3-1.4-3-3v-6c0-1.6,1.3-3,3-3h112c1.6,0,3,1.4,3,3V174z"/>
	<path fill="#FFFFFF" d="M168,27c0,1.6-1.4,3-3,3H76c-1.7,0-3-1.4-3-3v-6c0-1.6,1.3-3,3-3h89c1.6,0,3,1.4,3,3V27z"/>
	<path fill="#FFFFFF" d="M770,78c0,1.7-1.3,3-3,3h-47c-1.7,0-3-1.3-3-3v-6c0-1.7,1.3-3,3-3h47c1.7,0,3,1.3,3,3V78z"/>
	<path fill="#B3B3B3" d="M142,211c0,1.6-1.4,3-3,3H48c-1.7,0-3-1.4-3-3v-6c0-1.6,1.3-3,3-3h91c1.6,0,3,1.4,3,3V211z"/>
	<path fill="#B3B3B3" d="M127,241.4c0,1.7-1.3,3-3,3H48c-1.7,0-3-1.3-3-3v-6c0-1.6,1.3-3,3-3h76c1.7,0,3,1.4,3,3V241.4z"/>
	<path fill="#B3B3B3" d="M139,271.8c0,1.7-1.4,3-3,3H48c-1.7,0-3-1.3-3-3v-6c0-1.6,1.3-3,3-3h88c1.6,0,3,1.4,3,3V271.8z"/>
	<path fill="#B3B3B3" d="M142,302.2c0,1.6-1.4,3-3,3H48c-1.7,0-3-1.4-3-3v-6c0-1.7,1.3-3,3-3h91c1.6,0,3,1.3,3,3V302.2z"/>
	<path fill="#B3B3B3" d="M127,332.6c0,1.6-1.3,3-3,3H48c-1.7,0-3-1.4-3-3v-6c0-1.6,1.3-3,3-3h76c1.7,0,3,1.4,3,3V332.6z"/>
	<path fill="#B3B3B3" d="M142,363c0,1.6-1.4,3-3,3H48c-1.7,0-3-1.4-3-3v-6c0-1.6,1.3-3,3-3h91c1.6,0,3,1.4,3,3V363z"/>
	<path fill="#CCCCCC" d="M163,357c0-1.7,1.3-3,3-3h28c1.7,0,3,1.3,3,3v6c0,1.6-1.3,3-3,3h-28c-1.7,0-3-1.4-3-3V357z"/>
	<path fill="#CCCCCC" d="M168.3,326.6c0-1.6,1.4-3,3-3H194c1.7,0,3,1.4,3,3v6c0,1.7-1.3,3-3,3h-22.7c-1.6,0-3-1.3-3-3V326.6z"/>
	<path fill="#CCCCCC" d="M164.1,296.2c0-1.6,1.3-3,3-3H194c1.7,0,3,1.4,3,3v6c0,1.6-1.3,3-3,3h-26.9c-1.7,0-3-1.4-3-3V296.2z"/>
	<path fill="#CCCCCC" d="M163,265.8c0-1.6,1.3-3,3-3h28c1.7,0,3,1.4,3,3v6c0,1.6-1.3,3-3,3h-28c-1.7,0-3-1.4-3-3V265.8z"/>
	<path fill="#CCCCCC" d="M168.3,235.4c0-1.7,1.4-3,3-3H194c1.7,0,3,1.3,3,3v6c0,1.6-1.3,3-3,3h-22.7c-1.6,0-3-1.4-3-3V235.4z"/>
	<path fill="#CCCCCC" d="M163,205c0-1.6,1.3-3,3-3h28c1.7,0,3,1.4,3,3v6c0,1.7-1.3,3-3,3h-28c-1.7,0-3-1.3-3-3V205z"/>
	<circle fill="none" stroke="#CCCCCC" stroke-miterlimit="10" cx="28.2" cy="208.2" r="6.2"/>
	<circle fill="none" stroke="#CCCCCC" stroke-miterlimit="10" cx="28.2" cy="238.4" r="6.2"/>
	<circle fill="none" stroke="#CCCCCC" stroke-miterlimit="10" cx="28.2" cy="268.6" r="6.2"/>
	<circle fill="none" stroke="#CCCCCC" stroke-miterlimit="10" cx="28.2" cy="298.9" r="6.2"/>
	<circle fill="none" stroke="#CCCCCC" stroke-miterlimit="10" cx="28.2" cy="329" r="6.2"/>
	<circle fill="none" stroke="#CCCCCC" stroke-miterlimit="10" cx="28.2" cy="359.2" r="6.2"/>
	<line fill="none" stroke="#CCCCCC" stroke-miterlimit="10" x1="228.5" y1="116.5" x2="228.5" y2="487.5"/>
	<line fill="none" stroke="#CCCCCC" stroke-miterlimit="10" x1="785" y1="189.5" x2="256" y2="189.5"/>
	<path fill="#89B7DA" d="M424,262c0,1.6-1.4,3-3,3H259c-1.6,0-3-1.4-3-3v-6c0-1.6,1.4-3,3-3h162c1.6,0,3,1.4,3,3V262z"/>
	<path fill="#89B7DA" d="M375,218c0,1.6-1.4,3-3,3H259c-1.6,0-3-1.4-3-3v-6c0-1.6,1.4-3,3-3h113c1.6,0,3,1.4,3,3V218z"/>
	<path fill="#89B7DA" d="M559,262c0,1.6-1.3,3-3,3h-57c-1.6,0-3-1.4-3-3v-6c0-1.6,1.4-3,3-3h57c1.7,0,3,1.4,3,3V262z"/>
	<path fill="#B3B3B3" d="M684,262c0,1.6-1.3,3-3,3h-79c-1.7,0-3-1.4-3-3v-6c0-1.6,1.3-3,3-3h79c1.7,0,3,1.4,3,3V262z"/>
	<line fill="none" stroke="#CCCCCC" stroke-miterlimit="10" x1="785" y1="234.5" x2="256" y2="234.5"/>
	<path fill="#89B7DA" d="M412,310c0,1.6-1.4,3-3,3H259c-1.6,0-3-1.4-3-3v-6c0-1.6,1.4-3,3-3h150c1.6,0,3,1.4,3,3V310z"/>
	<path fill="#89B7DA" d="M562,310c0,1.6-1.3,3-3,3h-60c-1.6,0-3-1.4-3-3v-6c0-1.6,1.4-3,3-3h60c1.7,0,3,1.4,3,3V310z"/>
	<path fill="#B3B3B3" d="M704,310c0,1.6-1.3,3-3,3h-99c-1.7,0-3-1.4-3-3v-6c0-1.6,1.3-3,3-3h99c1.7,0,3,1.4,3,3V310z"/>
	<line fill="none" stroke="#CCCCCC" stroke-miterlimit="10" x1="785" y1="282.5" x2="256" y2="282.5"/>
	<path fill="#89B7DA" d="M378,358c0,1.6-1.4,3-3,3H259c-1.6,0-3-1.4-3-3v-6c0-1.6,1.4-3,3-3h116c1.6,0,3,1.4,3,3V358z"/>
	<path fill="#89B7DA" d="M550,358c0,1.6-1.3,3-3,3h-48c-1.6,0-3-1.4-3-3v-6c0-1.6,1.4-3,3-3h48c1.7,0,3,1.4,3,3V358z"/>
	<path fill="#B3B3B3" d="M670,358c0,1.6-1.3,3-3,3h-65c-1.7,0-3-1.4-3-3v-6c0-1.6,1.3-3,3-3h65c1.7,0,3,1.4,3,3V358z"/>
	<line fill="none" stroke="#CCCCCC" stroke-miterlimit="10" x1="785" y1="330.5" x2="256" y2="330.5"/>
	<path fill="#89B7DA" d="M353,406c0,1.6-1.4,3-3,3h-91c-1.6,0-3-1.4-3-3v-6c0-1.6,1.4-3,3-3h91c1.6,0,3,1.4,3,3V406z"/>
	<path fill="#89B7DA" d="M556,406c0,1.6-1.3,3-3,3h-54c-1.6,0-3-1.4-3-3v-6c0-1.6,1.4-3,3-3h54c1.7,0,3,1.4,3,3V406z"/>
	<path fill="#B3B3B3" d="M683,406c0,1.6-1.3,3-3,3h-78c-1.7,0-3-1.4-3-3v-6c0-1.6,1.3-3,3-3h78c1.7,0,3,1.4,3,3V406z"/>
	<line fill="none" stroke="#CCCCCC" stroke-miterlimit="10" x1="785" y1="378.5" x2="256" y2="378.5"/>
	<path fill="#89B7DA" d="M397,455c0,1.6-1.4,3-3,3H259c-1.6,0-3-1.4-3-3v-6c0-1.6,1.4-3,3-3h135c1.6,0,3,1.4,3,3V455z"/>
	<path fill="#89B7DA" d="M559,455c0,1.6-1.3,3-3,3h-57c-1.6,0-3-1.4-3-3v-6c0-1.6,1.4-3,3-3h57c1.7,0,3,1.4,3,3V455z"/>
	<path fill="#B3B3B3" d="M678,455c0,1.6-1.3,3-3,3h-73c-1.7,0-3-1.4-3-3v-6c0-1.6,1.3-3,3-3h73c1.7,0,3,1.4,3,3V455z"/>
	<line fill="none" stroke="#CCCCCC" stroke-miterlimit="10" x1="785" y1="427.5" x2="256" y2="427.5"/>
	<path fill="none" stroke="#999999" stroke-miterlimit="10" d="M780.7,114.5h-26.8c-1.6,0-2.8,1.3-2.8,2.8v22.8
		c0,1.6,1.3,2.8,2.8,2.8h26.8c1.6,0,2.8-1.3,2.8-2.8v-22.8C783.5,115.8,782.2,114.5,780.7,114.5z"/>
	<g id="upload_30_">
		<path fill-rule="evenodd" fill="#0E6BA3" d="M480.5,221.5c4.1,0,7.5-3.4,7.5-7.5s-3.4-7.5-7.5-7.5c-4.1,0-7.5,3.4-7.5,7.5
			S476.4,221.5,480.5,221.5z"/>
	</g>
	<g id="upload_28_">
		<path fill-rule="evenodd" fill="#0E6BA3" d="M480.5,266.5c4.1,0,7.5-3.4,7.5-7.5c0-4.1-3.4-7.5-7.5-7.5c-4.1,0-7.5,3.4-7.5,7.5
			C473,263.1,476.4,266.5,480.5,266.5z"/>
	</g>
	<g id="upload_26_">
		<path fill-rule="evenodd" fill="#0E6BA3" d="M480.5,314.5c4.1,0,7.5-3.4,7.5-7.5c0-4.1-3.4-7.5-7.5-7.5c-4.1,0-7.5,3.4-7.5,7.5
			C473,311.1,476.4,314.5,480.5,314.5z"/>
	</g>
	<g id="upload_24_">
		<path fill-rule="evenodd" fill="#0E6BA3" d="M480.5,361.5c4.1,0,7.5-3.4,7.5-7.5c0-4.1-3.4-7.5-7.5-7.5c-4.1,0-7.5,3.4-7.5,7.5
			C473,358.1,476.4,361.5,480.5,361.5z"/>
	</g>
	<g id="upload_22_">
		<path fill-rule="evenodd" fill="#0E6BA3" d="M480.5,410.5c4.1,0,7.5-3.4,7.5-7.5c0-4.1-3.4-7.5-7.5-7.5c-4.1,0-7.5,3.4-7.5,7.5
			C473,407.1,476.4,410.5,480.5,410.5z"/>
	</g>
	<g id="upload_2_">
		<path fill-rule="evenodd" fill="#0E6BA3" d="M480.5,459.5c4.1,0,7.5-3.4,7.5-7.5c0-4.1-3.4-7.5-7.5-7.5c-4.1,0-7.5,3.4-7.5,7.5
			C473,456.1,476.4,459.5,480.5,459.5z"/>
	</g>
	<g>
		<path fill="#0E6BA3" d="M190.5,181h-8c-5.2,0-9.5-4.3-9.5-9.5v0c0-5.2,4.3-9.5,9.5-9.5h8c5.2,0,9.5,4.3,9.5,9.5v0
			C200,176.7,195.7,181,190.5,181z"/>
		
			<line fill="none" stroke="#FFFFFF" stroke-width="5" stroke-linecap="round" stroke-linejoin="round" stroke-miterlimit="10" x1="182.5" y1="171.5" x2="190.5" y2="171.5"/>
	</g>
	<path fill="#999999" d="M774.9,120.6h-15.3c-0.9,0-1.6,0.7-1.6,1.6v13c0,0.9,0.7,1.6,1.6,1.6h15.3c0.9,0,1.6-0.7,1.6-1.6v-13
		C776.5,121.4,775.8,120.6,774.9,120.6z"/>
	<g id="zoomout_3_">
		<path fill-rule="evenodd" fill="#93A9BA" d="M521.2,399.6c-6.9,0-13.7-2.8-18.6-7.7L435,324.3c-19.1,12-41,18.3-63.5,18.3
			c-65.6,0-119.1-53.4-119.1-119.1s53.4-119.1,119.1-119.1c65.6,0,119.1,53.4,119.1,119.1c0,22.5-6.3,44.4-18.3,63.5l67.6,67.6
			c4.9,4.9,7.7,11.7,7.7,18.6C547.6,387.7,535.7,399.6,521.2,399.6z M371.5,142.9c-44.4,0-80.5,36.1-80.5,80.5
			c0,44.4,36.1,80.5,80.5,80.5c44.4,0,80.5-36.1,80.5-80.5C452,179.1,415.9,142.9,371.5,142.9z"/>
		<path fill="#FFFFFF" d="M371.5,109.4c63,0,114.1,51,114.1,114.1c0,23.8-7.3,45.8-19.7,64.2l70.4,70.4c3.8,3.8,6.3,9.3,6.3,15.1
			c0,11.8-9.6,21.4-21.4,21.4c-5.8,0-11.3-2.4-15.1-6.3l-70.4-70.4c-18.4,12.4-40.3,19.7-64.2,19.7c-63,0-114.1-51-114.1-114.1
			S308.5,109.4,371.5,109.4 M371.5,309c47.2,0,85.5-38.4,85.5-85.5s-38.4-85.5-85.5-85.5s-85.5,38.4-85.5,85.5S324.3,309,371.5,309
			 M371.5,99.4c-33.1,0-64.3,12.9-87.7,36.3c-23.4,23.4-36.3,54.6-36.3,87.7s12.9,64.3,36.3,87.7c23.4,23.4,54.6,36.3,87.7,36.3
			c22.1,0,43.6-5.8,62.7-17l64.8,64.8c5.8,5.8,13.9,9.2,22.2,9.2c17.3,0,31.4-14.1,31.4-31.4c0-8.2-3.4-16.3-9.2-22.2l-64.8-64.8
			c11.1-19.1,17-40.6,17-62.7c0-33.1-12.9-64.3-36.3-87.7C435.8,112.3,404.6,99.4,371.5,99.4L371.5,99.4z M371.5,299
			c-41.7,0-75.5-33.9-75.5-75.5c0-41.7,33.9-75.5,75.5-75.5s75.5,33.9,75.5,75.5C447,265.1,413.1,299,371.5,299L371.5,299z"/>
	</g>
</g>
</svg>
