<?xml version="1.0" encoding="utf-8"?>
<!-- Generator: Adobe Illustrator 24.2.1, SVG Export Plug-In . SVG Version: 6.00 Build 0)  -->
<svg version="1.2" baseProfile="tiny" xmlns="http://www.w3.org/2000/svg" xmlns:xlink="http://www.w3.org/1999/xlink" x="0px"
	 y="0px" viewBox="0 0 800 500" overflow="visible" xml:space="preserve">
<g id="Layer_1">
</g>
<g id="Layer_2">
	<path fill="none" stroke="#CCCCCC" stroke-miterlimit="10" d="M278.5,19c0-1.6,1.4-3,3-3h497c1.7,0,3,1.4,3,3v34c0,1.7-1.3,3-3,3
		h-497c-1.6,0-3-1.3-3-3V19z"/>
	<path fill="#EDEDED" d="M234.8,45H16.2c-1.8,0-3.2-1.5-3.2-3.2V18.2c0-1.8,1.5-3.2,3.2-3.2h218.5c1.8,0,3.2,1.5,3.2,3.2v23.5
		C238,43.5,236.5,45,234.8,45z"/>
	<path fill="#B3B3B3" d="M167,33c0,1.7-1.4,3-3,3H52c-1.7,0-3-1.3-3-3v-6c0-1.6,1.3-3,3-3h112c1.6,0,3,1.4,3,3V33z"/>
	<path fill="#B3B3B3" d="M142.9,70c0,1.6-1.4,3-3,3H52c-1.7,0-3-1.4-3-3v-6c0-1.6,1.3-3,3-3h87.9c1.6,0,3,1.4,3,3V70z"/>
	<path fill="#89B7DA" d="M128.4,100.4c0,1.7-1.3,3-3,3H52c-1.7,0-3-1.3-3-3v-6c0-1.6,1.3-3,3-3h73.4c1.7,0,3,1.4,3,3V100.4z"/>
	<path fill="#B3B3B3" d="M140,130.8c0,1.7-1.4,3-3,3H52c-1.7,0-3-1.3-3-3v-6c0-1.7,1.3-3,3-3h85c1.6,0,3,1.3,3,3V130.8z"/>
	<path fill="#B3B3B3" d="M142.9,161.2c0,1.6-1.4,3-3,3H52c-1.7,0-3-1.4-3-3v-6c0-1.7,1.3-3,3-3h87.9c1.6,0,3,1.3,3,3V161.2z"/>
	<path fill="#89B7DA" d="M128.4,191.6c0,1.6-1.3,3-3,3H52c-1.7,0-3-1.4-3-3v-6c0-1.6,1.3-3,3-3h73.4c1.7,0,3,1.4,3,3V191.6z"/>
	<path fill="#89B7DA" d="M142.9,222c0,1.7-1.4,3-3,3H52c-1.7,0-3-1.3-3-3v-6c0-1.6,1.3-3,3-3h87.9c1.6,0,3,1.4,3,3V222z"/>
	<path fill="#B3C9DA" d="M187.1,216c0-1.7,1.4-3,3-3h33.3c1.6,0,3,1.3,3,3v6c0,1.6-1.4,3-3,3h-33.3c-1.6,0-3-1.4-3-3V216z"/>
	<path fill="#B3C9DA" d="M193.2,185.6c0-1.6,1.3-3,3-3h27.3c1.6,0,3,1.4,3,3v6c0,1.7-1.4,3-3,3h-27.3c-1.7,0-3-1.3-3-3V185.6z"/>
	<path fill="#CCCCCC" d="M188.3,155.2c0-1.7,1.4-3,3-3h32.1c1.6,0,3,1.3,3,3v6c0,1.6-1.4,3-3,3h-32.1c-1.6,0-3-1.4-3-3V155.2z"/>
	<path fill="#CCCCCC" d="M187.1,124.8c0-1.7,1.4-3,3-3h33.3c1.6,0,3,1.3,3,3v6c0,1.7-1.4,3-3,3h-33.3c-1.6,0-3-1.3-3-3V124.8z"/>
	<path fill="#B3C9DA" d="M193.2,94.4c0-1.7,1.3-3,3-3h27.3c1.6,0,3,1.3,3,3v6c0,1.7-1.4,3-3,3h-27.3c-1.7,0-3-1.3-3-3V94.4z"/>
	<path fill="#CCCCCC" d="M187.1,64c0-1.6,1.4-3,3-3h33.3c1.6,0,3,1.4,3,3v6c0,1.7-1.4,3-3,3h-33.3c-1.6,0-3-1.3-3-3V64z"/>
	<path fill="#CCCCCC" d="M656.1,64c0-1.6,1.3-3,3-3h33.3c1.7,0,3,1.4,3,3v6c0,1.7-1.3,3-3,3h-33.3c-1.7,0-3-1.3-3-3V64z"/>
	<path fill="#CCCCCC" d="M748.1,131h27.3c3.3,0,6,2.7,6,6v0c0,3.3-2.7,6-6,6h-27.3c-3.3,0-6-2.7-6-6v0
		C742.1,133.6,744.8,131,748.1,131z"/>
	<path fill="#CCCCCC" d="M278.1,154c0-1.7,1.4-3,3-3H694c1.7,0,3,1.3,3,3v6c0,1.6-1.3,3-3,3H281.1c-1.6,0-3-1.4-3-3V154z"/>
	<path fill="#CCCCCC" d="M277.4,172c0-1.6,1.4-3,3-3H545c1.7,0,3,1.4,3,3v6c0,1.6-1.3,3-3,3H280.4c-1.6,0-3-1.4-3-3V172z"/>
	<path fill="#E6E6E6" d="M277.4,197c0-1.6,1.4-3,3-3H380c1.6,0,3,1.4,3,3v3c0,1.6-1.4,3-3,3h-99.6c-1.6,0-3-1.4-3-3V197z"/>
	<path fill="#E6E6E6" d="M623.4,197c0-1.6,1.4-3,3-3H686c1.7,0,3,1.4,3,3v3c0,1.6-1.3,3-3,3h-59.6c-1.6,0-3-1.4-3-3V197z"/>
	<path fill="#E6E6E6" d="M389.7,197c0-1.6,1.4-3,3-3h167.6c1.7,0,3,1.4,3,3v3c0,1.6-1.3,3-3,3H392.7c-1.6,0-3-1.4-3-3V197z"/>
	<path fill="#0E6BA3" d="M570.1,197c0-1.6,1.3-3,3-3h40.6c1.6,0,3,1.4,3,3v3c0,1.6-1.4,3-3,3h-40.6c-1.7,0-3-1.4-3-3V197z"/>
	<path fill="#5C7081" d="M749,137c0-1.1,1.3-2,3-2h18.7c1.6,0,3,0.9,3,2s-1.4,2-3,2H752C750.3,139,749,138.1,749,137z"/>
	<path fill="#CCCCCC" d="M742.1,64c0-1.6,1.3-3,3-3h33.3c1.7,0,3,1.4,3,3v6c0,1.7-1.3,3-3,3h-33.3c-1.7,0-3-1.3-3-3V64z"/>
	<path fill="none" stroke="#CCCCCC" stroke-miterlimit="10" d="M37.5,70.5c0,1.7-1.3,3-3,3h-7c-1.6,0-3-1.3-3-3v-7c0-1.7,1.4-3,3-3
		h7c1.7,0,3,1.3,3,3V70.5z"/>
	<path fill="none" stroke="#CCCCCC" stroke-miterlimit="10" d="M37.5,100.9c0,1.7-1.3,3-3,3h-7c-1.6,0-3-1.3-3-3v-7c0-1.7,1.4-3,3-3
		h7c1.7,0,3,1.3,3,3V100.9z"/>
	<path fill="none" stroke="#CCCCCC" stroke-miterlimit="10" d="M37.5,131.3c0,1.6-1.3,3-3,3h-7c-1.6,0-3-1.4-3-3v-7c0-1.7,1.4-3,3-3
		h7c1.7,0,3,1.3,3,3V131.3z"/>
	<path fill="none" stroke="#CCCCCC" stroke-miterlimit="10" d="M37.5,161.7c0,1.7-1.3,3-3,3h-7c-1.6,0-3-1.3-3-3v-7c0-1.6,1.4-3,3-3
		h7c1.7,0,3,1.4,3,3V161.7z"/>
	<path fill="none" stroke="#CCCCCC" stroke-miterlimit="10" d="M37.5,192.1c0,1.6-1.3,3-3,3h-7c-1.6,0-3-1.4-3-3v-7c0-1.7,1.4-3,3-3
		h7c1.7,0,3,1.3,3,3V192.1z"/>
	<path fill="none" stroke="#CCCCCC" stroke-miterlimit="10" d="M37.5,222.5c0,1.6-1.3,3-3,3h-7c-1.6,0-3-1.4-3-3v-7c0-1.6,1.4-3,3-3
		h7c1.7,0,3,1.4,3,3V222.5z"/>
	<path fill="#EDEDED" d="M234.8,273H16.2c-1.8,0-3.2-1.5-3.2-3.2v-23.5c0-1.8,1.5-3.2,3.2-3.2h218.5c1.8,0,3.2,1.5,3.2,3.2v23.5
		C238,271.5,236.5,273,234.8,273z"/>
	<path fill="#B3B3B3" d="M167,261c0,1.6-1.4,3-3,3H52c-1.7,0-3-1.4-3-3v-6c0-1.6,1.3-3,3-3h112c1.6,0,3,1.4,3,3V261z"/>
	<path fill="#B3B3B3" d="M142.9,298c0,1.6-1.4,3-3,3H52c-1.7,0-3-1.4-3-3v-6c0-1.7,1.3-3,3-3h87.9c1.6,0,3,1.3,3,3V298z"/>
	<path fill="#B3B3B3" d="M128.4,328.4c0,1.6-1.3,3-3,3H52c-1.7,0-3-1.4-3-3v-6c0-1.6,1.3-3,3-3h73.4c1.7,0,3,1.4,3,3V328.4z"/>
	<path fill="#B3B3B3" d="M140,358.8c0,1.6-1.4,3-3,3H52c-1.7,0-3-1.4-3-3v-6c0-1.6,1.3-3,3-3h85c1.6,0,3,1.4,3,3V358.8z"/>
	<path fill="#89B7DA" d="M142.9,389.2c0,1.6-1.4,3-3,3H52c-1.7,0-3-1.4-3-3v-6c0-1.6,1.3-3,3-3h87.9c1.6,0,3,1.4,3,3V389.2z"/>
	<path fill="#B3B3B3" d="M128.4,419.6c0,1.7-1.3,3-3,3H52c-1.7,0-3-1.3-3-3v-6c0-1.6,1.3-3,3-3h73.4c1.7,0,3,1.4,3,3V419.6z"/>
	<path fill="#89B7DA" d="M142.9,450c0,1.6-1.4,3-3,3H52c-1.7,0-3-1.4-3-3v-6c0-1.7,1.3-3,3-3h87.9c1.6,0,3,1.3,3,3V450z"/>
	<path fill="#B3C9DA" d="M187.1,444c0-1.6,1.4-3,3-3h33.3c1.6,0,3,1.4,3,3v6c0,1.6-1.4,3-3,3h-33.3c-1.6,0-3-1.4-3-3V444z"/>
	<path fill="#CCCCCC" d="M193.2,413.6c0-1.6,1.3-3,3-3h27.3c1.6,0,3,1.4,3,3v6c0,1.6-1.4,3-3,3h-27.3c-1.7,0-3-1.4-3-3V413.6z"/>
	<path fill="#B3C9DA" d="M188.3,383.2c0-1.6,1.4-3,3-3h32.1c1.6,0,3,1.4,3,3v6c0,1.6-1.4,3-3,3h-32.1c-1.6,0-3-1.4-3-3V383.2z"/>
	<path fill="#CCCCCC" d="M187.1,352.8c0-1.7,1.4-3,3-3h33.3c1.6,0,3,1.3,3,3v6c0,1.6-1.4,3-3,3h-33.3c-1.6,0-3-1.4-3-3V352.8z"/>
	<path fill="#CCCCCC" d="M193.2,322.4c0-1.6,1.3-3,3-3h27.3c1.6,0,3,1.4,3,3v6c0,1.7-1.4,3-3,3h-27.3c-1.7,0-3-1.3-3-3V322.4z"/>
	<path fill="#CCCCCC" d="M187.1,292c0-1.6,1.4-3,3-3h33.3c1.6,0,3,1.4,3,3v6c0,1.6-1.4,3-3,3h-33.3c-1.6,0-3-1.4-3-3V292z"/>
	<path fill="none" stroke="#CCCCCC" stroke-miterlimit="10" d="M37.5,298.5c0,1.6-1.3,3-3,3h-7c-1.6,0-3-1.4-3-3v-7c0-1.6,1.4-3,3-3
		h7c1.7,0,3,1.4,3,3V298.5z"/>
	<path fill="none" stroke="#CCCCCC" stroke-miterlimit="10" d="M37.5,328.9c0,1.6-1.3,3-3,3h-7c-1.6,0-3-1.4-3-3v-7c0-1.6,1.4-3,3-3
		h7c1.7,0,3,1.4,3,3V328.9z"/>
	<path fill="none" stroke="#CCCCCC" stroke-miterlimit="10" d="M37.5,359.3c0,1.7-1.3,3-3,3h-7c-1.6,0-3-1.3-3-3v-7c0-1.6,1.4-3,3-3
		h7c1.7,0,3,1.4,3,3V359.3z"/>
	<path fill="none" stroke="#CCCCCC" stroke-miterlimit="10" d="M37.5,389.7c0,1.6-1.3,3-3,3h-7c-1.6,0-3-1.4-3-3v-7c0-1.7,1.4-3,3-3
		h7c1.7,0,3,1.3,3,3V389.7z"/>
	<path fill="#89B7DA" d="M142.9,480.2c0,1.6-1.4,3-3,3H52c-1.7,0-3-1.4-3-3v-6c0-1.6,1.3-3,3-3h87.9c1.6,0,3,1.4,3,3V480.2z"/>
	<path fill="#B3C9DA" d="M188.3,474.2c0-1.6,1.4-3,3-3h32.1c1.6,0,3,1.4,3,3v6c0,1.6-1.4,3-3,3h-32.1c-1.6,0-3-1.4-3-3V474.2z"/>
	<path fill="none" stroke="#CCCCCC" stroke-miterlimit="10" d="M37.5,480.7c0,1.6-1.3,3-3,3h-7c-1.6,0-3-1.4-3-3v-7c0-1.7,1.4-3,3-3
		h7c1.7,0,3,1.3,3,3V480.7z"/>
	<path fill="none" stroke="#CCCCCC" stroke-miterlimit="10" d="M37.5,420.1c0,1.6-1.3,3-3,3h-7c-1.6,0-3-1.4-3-3v-7c0-1.6,1.4-3,3-3
		h7c1.7,0,3,1.4,3,3V420.1z"/>
	<path fill="none" stroke="#CCCCCC" stroke-miterlimit="10" d="M37.5,450.5c0,1.6-1.3,3-3,3h-7c-1.6,0-3-1.4-3-3v-7c0-1.6,1.4-3,3-3
		h7c1.7,0,3,1.4,3,3V450.5z"/>
	<line fill="none" stroke="#CCCCCC" stroke-miterlimit="10" x1="258.5" y1="15" x2="258.5" y2="484"/>
	<path fill="#89B7DA" d="M739,70c0,1.7-1.3,3-3,3h-34c-1.7,0-3-1.3-3-3v-6c0-1.7,1.3-3,3-3h34c1.7,0,3,1.3,3,3V70z"/>
	<path fill="#89B7DA" d="M523,140c0,1.6-1.3,3-3,3H305c-1.6,0-3-1.4-3-3v-6c0-1.6,1.4-3,3-3h215c1.7,0,3,1.4,3,3V140z"/>
	<g id="upload_1_">
		<path fill-rule="evenodd" fill="#0E6BA3" d="M286.5,144.5c4.1,0,7.5-3.4,7.5-7.5s-3.4-7.5-7.5-7.5c-4.1,0-7.5,3.4-7.5,7.5
			S282.4,144.5,286.5,144.5z"/>
	</g>
	<line fill="none" stroke="#CCCCCC" stroke-miterlimit="10" x1="782" y1="229.5" x2="278" y2="229.5"/>
	<path fill="#CCCCCC" d="M748.1,250h27.3c3.3,0,6,2.7,6,6v0c0,3.3-2.7,6-6,6h-27.3c-3.3,0-6-2.7-6-6v0
		C742.1,252.6,744.8,250,748.1,250z"/>
	<path fill="#CCCCCC" d="M278.1,273c0-1.6,1.4-3,3-3H775c1.7,0,3,1.4,3,3v6c0,1.6-1.3,3-3,3H281.1c-1.6,0-3-1.4-3-3V273z"/>
	<path fill="#CCCCCC" d="M277.4,291c0-1.6,1.4-3,3-3H730c1.7,0,3,1.4,3,3v6c0,1.6-1.3,3-3,3H280.4c-1.6,0-3-1.4-3-3V291z"/>
	<path fill="#E6E6E6" d="M277.4,316c0-1.6,1.4-3,3-3H380c1.6,0,3,1.4,3,3v3c0,1.6-1.4,3-3,3h-99.6c-1.6,0-3-1.4-3-3V316z"/>
	<path fill="#E6E6E6" d="M623.4,316c0-1.6,1.4-3,3-3H686c1.7,0,3,1.4,3,3v3c0,1.6-1.3,3-3,3h-59.6c-1.6,0-3-1.4-3-3V316z"/>
	<path fill="#E6E6E6" d="M389.7,316c0-1.6,1.4-3,3-3h167.6c1.7,0,3,1.4,3,3v3c0,1.6-1.3,3-3,3H392.7c-1.6,0-3-1.4-3-3V316z"/>
	<path fill="#0E6BA3" d="M570.1,316c0-1.6,1.3-3,3-3h40.6c1.6,0,3,1.4,3,3v3c0,1.6-1.4,3-3,3h-40.6c-1.7,0-3-1.4-3-3V316z"/>
	<path fill="#5C7081" d="M749,256c0-1.1,1.3-2,3-2h18.7c1.6,0,3,0.9,3,2s-1.4,2-3,2H752C750.3,258,749,257.1,749,256z"/>
	<path fill="#89B7DA" d="M549,259c0,1.6-1.3,3-3,3H305c-1.6,0-3-1.4-3-3v-6c0-1.6,1.4-3,3-3h241c1.7,0,3,1.4,3,3V259z"/>
	<g id="upload_4_">
		<path fill-rule="evenodd" fill="#0E6BA3" d="M286.5,263.5c4.1,0,7.5-3.4,7.5-7.5c0-4.1-3.4-7.5-7.5-7.5c-4.1,0-7.5,3.4-7.5,7.5
			C279,260.1,282.4,263.5,286.5,263.5z"/>
	</g>
	<line fill="none" stroke="#CCCCCC" stroke-miterlimit="10" x1="782" y1="348.5" x2="278" y2="348.5"/>
	<path fill="#CCCCCC" d="M748.1,374h27.3c3.3,0,6,2.7,6,6l0,0c0,3.3-2.7,6-6,6h-27.3c-3.3,0-6-2.7-6-6l0,0
		C742.1,376.6,744.8,374,748.1,374z"/>
	<path fill="#CCCCCC" d="M278.1,397c0-1.6,1.4-3,3-3H755c1.7,0,3,1.4,3,3v6c0,1.6-1.3,3-3,3H281.1c-1.6,0-3-1.4-3-3V397z"/>
	<path fill="#CCCCCC" d="M277.4,415c0-1.6,1.4-3,3-3H596c1.7,0,3,1.4,3,3v6c0,1.6-1.3,3-3,3H280.4c-1.6,0-3-1.4-3-3V415z"/>
	<path fill="#E6E6E6" d="M277.4,440c0-1.6,1.4-3,3-3H380c1.6,0,3,1.4,3,3v3c0,1.6-1.4,3-3,3h-99.6c-1.6,0-3-1.4-3-3V440z"/>
	<path fill="#E6E6E6" d="M623.4,440c0-1.6,1.4-3,3-3H686c1.7,0,3,1.4,3,3v3c0,1.6-1.3,3-3,3h-59.6c-1.6,0-3-1.4-3-3V440z"/>
	<path fill="#E6E6E6" d="M389.7,440c0-1.6,1.4-3,3-3h167.6c1.7,0,3,1.4,3,3v3c0,1.6-1.3,3-3,3H392.7c-1.6,0-3-1.4-3-3V440z"/>
	<path fill="#0E6BA3" d="M570.1,440c0-1.6,1.3-3,3-3h40.6c1.6,0,3,1.4,3,3v3c0,1.6-1.4,3-3,3h-40.6c-1.7,0-3-1.4-3-3V440z"/>
	<path fill="#5C7081" d="M749,380c0-1.1,1.3-2,3-2h18.7c1.6,0,3,0.9,3,2s-1.4,2-3,2H752C750.3,382,749,381.1,749,380z"/>
	<path fill="#89B7DA" d="M492,383c0,1.6-1.4,3-3,3H305c-1.6,0-3-1.4-3-3v-6c0-1.6,1.4-3,3-3h184c1.6,0,3,1.4,3,3V383z"/>
	<g id="upload_7_">
		<path fill-rule="evenodd" fill="#0E6BA3" d="M286.5,387.5c4.1,0,7.5-3.4,7.5-7.5c0-4.1-3.4-7.5-7.5-7.5c-4.1,0-7.5,3.4-7.5,7.5
			C279,384.1,282.4,387.5,286.5,387.5z"/>
	</g>
	<line fill="none" stroke="#CCCCCC" stroke-miterlimit="10" x1="782" y1="472.5" x2="278" y2="472.5"/>
	<g id="zoomout_1_">
		<path fill-rule="evenodd" fill="#93A9BA" d="M308.6,43.3l-4.3-4.3c0.8-1.1,1.2-2.5,1.2-4c0-3.9-3.1-7-7-7s-7,3.1-7,7s3.1,7,7,7
			c1.5,0,2.8-0.4,4-1.2l4.3,4.3c0.2,0.2,0.6,0.4,0.9,0.4c0.7,0,1.3-0.6,1.3-1.3C309,43.9,308.8,43.6,308.6,43.3z M298.5,40.3
			c-2.9,0-5.3-2.4-5.3-5.3c0-2.9,2.4-5.3,5.3-5.3c2.9,0,5.3,2.4,5.3,5.3C303.7,37.9,301.4,40.3,298.5,40.3z"/>
	</g>
	<path fill="#CCCCCC" d="M529,40c0,1.7-1.3,3-3,3H323c-1.6,0-3-1.3-3-3v-6c0-1.7,1.4-3,3-3h203c1.7,0,3,1.3,3,3V40z"/>
	<g id="Ellipse_1_copy_2">
		<g>
			<g>
				<path fill-rule="evenodd" fill="#93A9BA" d="M399.7,389.7c-54.3-0.1-112-13.7-111.9-38.7l0.2-82.3l8,6
					c20,15.1,59.8,24.5,103.9,24.6l0.6,0c44,0,83.6-9.3,103.4-24.2l8-6.1l-0.2,82.3c0,11.4-12,21.2-34.7,28.3
					c-20.5,6.4-47.8,9.9-76.7,9.9L399.7,389.7z M399.9,296c-54.3-0.1-112-13.7-111.9-38.7l0.2-82.3l8,6
					c20,15.1,59.8,24.5,103.9,24.6l0.6,0c44,0,83.6-9.3,103.4-24.2l8-6.1l-0.2,82.3c0,11.4-12,21.2-34.7,28.3
					c-20.5,6.4-47.8,9.9-76.7,9.9L399.9,296z M400.1,202.4c-54.3-0.1-112-13.7-111.9-38.7c0-11.4,12-21.2,34.7-28.3
					c20.5-6.4,47.8-9.9,76.7-9.9l0.7,0c54.3,0.1,112,13.7,111.9,38.7c0,11.4-12,21.2-34.7,28.3c-20.5,6.4-47.8,9.9-76.7,9.9
					C400.8,202.4,400.1,202.4,400.1,202.4z"/>
				<path fill="#FFFFFF" d="M399.5,130.5c0.2,0,0.5,0,0.7,0c59.1,0.1,107,15.2,106.9,33.7c0,18.4-47.6,33.2-106.4,33.2
					c-0.2,0-0.5,0-0.7,0c-59-0.1-107-15.2-106.9-33.7C293.2,145.4,340.8,130.5,399.5,130.5 M293.1,185.2
					c20,15.2,60.4,25.5,106.9,25.6c0.2,0,0.4,0,0.6,0c46.4,0,86.5-10.2,106.4-25.2l-0.1,72.2c0,18.4-47.6,33.2-106.4,33.2
					c-0.2,0-0.5,0-0.7,0c-59.1-0.1-107-15.2-106.9-33.7L293.1,185.2 M293,278.8c20,15.2,60.4,25.5,106.9,25.6c0.2,0,0.4,0,0.6,0
					c46.4,0,86.5-10.2,106.4-25.2l-0.1,72.2c0,18.4-47.6,33.2-106.4,33.2c-0.2,0-0.5,0-0.7,0c-59.1-0.1-107-15.2-106.9-33.7
					L293,278.8 M399.5,120.5c-56,0-116.3,13.5-116.4,43.2c0,0.5,0,0.9,0,1.4l0,0l0,20.1l-0.1,72.2c0,0.5,0,0.9,0,1.4l0,0l0,20.1
					l-0.1,72.2c0,9.7,6.6,23.3,38.3,33.3c21.1,6.7,49.1,10.4,78.6,10.4l0.7,0c56,0,116.3-13.5,116.4-43.2l0.1-72.2l0-20.1l0,0
					c0-0.4,0-0.9,0-1.3l0.1-72.2l0-20.1l0,0c0-0.4,0-0.9,0-1.3c0-9.7-6.6-23.3-38.3-33.3c-21.1-6.7-49.1-10.4-78.6-10.4L399.5,120.5
					L399.5,120.5z"/>
			</g>
		</g>
	</g>
	<g>
		<path fill="#0E6BA3" d="M191.5,39h-8c-5.2,0-9.5-4.3-9.5-9.5v0c0-5.2,4.3-9.5,9.5-9.5h8c5.2,0,9.5,4.3,9.5,9.5v0
			C201,34.7,196.7,39,191.5,39z"/>
		
			<line fill="none" stroke="#FFFFFF" stroke-width="5" stroke-linecap="round" stroke-linejoin="round" stroke-miterlimit="10" x1="183.5" y1="29.5" x2="191.5" y2="29.5"/>
	</g>
	<g>
		<path fill="#0E6BA3" d="M195.5,267h-8c-5.2,0-9.5-4.3-9.5-9.5l0,0c0-5.2,4.3-9.5,9.5-9.5h8c5.2,0,9.5,4.3,9.5,9.5l0,0
			C205,262.7,200.7,267,195.5,267z"/>
		
			<line fill="none" stroke="#FFFFFF" stroke-width="5" stroke-linecap="round" stroke-linejoin="round" stroke-miterlimit="10" x1="187.5" y1="257.5" x2="195.5" y2="257.5"/>
	</g>
</g>
</svg>
