<?xml version="1.0" encoding="UTF-8"?>
<svg width="800px" height="488px" viewBox="0 0 800 488" version="1.1" xmlns="http://www.w3.org/2000/svg" xmlns:xlink="http://www.w3.org/1999/xlink">
    <title>home_search</title>
    <g id="Page-1" stroke="none" stroke-width="1" fill="none" fill-rule="evenodd">
        <g id="home_search">
            <g id="Layer_1" fill-rule="nonzero">
                <rect id="Rectangle" fill="#172026" x="0" y="0" width="800" height="50"></rect>
                <rect id="Rectangle" fill="#EBF1F5" x="0" y="50" width="800" height="50"></rect>
            </g>
            <g id="Layer_2" transform="translate(15.000000, 8.000000)">
                <path d="M587.9,32 L170,32 L170,0 L587.9,0 C590.7,0 593,2.3 593,5.1 L593,26.9 C593,29.7 590.7,32 587.9,32 Z" id="Path" fill="#FFFFFF" fill-rule="nonzero"></path>
                <g id="Group" transform="translate(1.000000, 0.000000)" fill="#FFFFFF" fill-rule="nonzero">
                    <path d="M5,13.8 C5.9,16 6.7,18.3 7.4,20.6 C9.2,20 11,19.3 12.8,18.4 C11.8,16.3 10.7,14.2 9.4,12.2 C7.9,12.9 6.5,13.4 5,13.8 Z" id="Path"></path>
                    <path d="M0,23.8 L0,28.8 C1.8,28.8 4.8,28.2 8.1,27.2 C7.8,25.5 7.3,23.7 6.9,22 C4.5,22.7 2.1,23.3 0,23.8 Z" id="Path"></path>
                    <path d="M0.4,6.6 C0.3,6.6 0.2,6.7 -1.77635684e-15,6.7 L-1.77635684e-15,14 C1.1,13.8 2.4,13.6 3.8,13.2 C2.8,11 1.6,8.7 0.4,6.6 Z" id="Path"></path>
                    <path d="M13,9.3 C11.2,7.2 9.2,5.3 7.1,3.6 C6.5,4.1 5.8,4.5 5.1,4.9 C6.8,6.8 8.5,8.9 9.9,11.1 C11,10.6 12,10 13,9.3 Z" id="Path"></path>
                    <path d="M4.1,14.1 C2.7,14.5 1.3,14.8 0,15 L0,22.7 C2,22.3 4.3,21.7 6.5,21 C5.9,18.6 5.1,16.3 4.1,14.1 Z" id="Path"></path>
                    <path d="M10.3,11.8 C11.6,13.8 12.7,15.9 13.7,18 C15.1,17.3 16.4,16.5 17.6,15.5 C16.4,13.5 15,11.6 13.5,9.8 C12.4,10.6 11.4,11.2 10.3,11.8 Z" id="Path"></path>
                    <path d="M24.6,17.6 C25.1,16.9 25.6,16.3 26,15.6 C25.2,13.6 24.2,11.8 23,10.1 C22.6,10.9 22.2,11.6 21.7,12.3 C22.9,14 23.9,15.8 24.6,17.6 Z" id="Path"></path>
                    <path d="M16,7.2 C15.5,7.9 14.9,8.6 14.2,9.2 C15.7,11 17.1,12.9 18.3,15 C19.2,14.2 20,13.4 20.7,12.6 C19.3,10.6 17.7,8.8 16,7.2 Z" id="Path"></path>
                    <path d="M21.3,11.7 C21.8,11 22.2,10.3 22.5,9.5 C21,7.6 19.3,6 17.3,4.6 C17.1,5.2 16.9,5.8 16.6,6.3 C18.3,7.9 19.9,9.7 21.3,11.7 Z" id="Path"></path>
                    <path d="M8.9,11.6 C7.4,9.4 5.8,7.3 4,5.4 C3.1,5.8 2.2,6.1 1.3,6.4 C2.5,8.5 3.7,10.8 4.6,13.1 C6.1,12.7 7.5,12.2 8.9,11.6 Z" id="Path"></path>
                    <path d="M14,18.9 C14.7,20.6 15.3,22.3 15.8,24.1 C17.4,23.3 18.9,22.4 20.3,21.5 C19.7,19.7 18.9,18 18,16.3 C16.7,17.3 15.4,18.1 14,18.9 Z" id="Path"></path>
                    <path d="M7.7,21.7 C8.2,23.5 8.6,25.2 8.9,26.9 C10.9,26.2 12.9,25.4 14.9,24.5 C14.4,22.8 13.8,21 13.1,19.3 C11.4,20.2 9.5,21 7.7,21.7 Z" id="Path"></path>
                    <path d="M13.8,8.7 C14.5,8.1 15.1,7.5 15.5,6.7 C13.4,4.8 11.1,3.1 8.8,1.7 C8.6,2.1 8.2,2.5 7.9,2.9 C10,4.7 12,6.6 13.8,8.7 Z" id="Path"></path>
                    <path d="M16.6,4.1 C16.6,4.3 16.5,4.5 16.5,4.7 C16.5,4.7 16.5,4.7 16.5,4.7 C16.5,4.9 16.4,5 16.3,5.2 C16.3,5.2 16.3,5.3 16.2,5.3 C16.1,5.5 16.1,5.6 16,5.8 C13.9,3.9 11.6,2.2 9.2,0.8 C9.2,0.8 9.2,0.7 9.2,0.7 C12,1.5 14.4,2.7 16.6,4.1 Z" id="Path"></path>
                    <path d="M18.7,15.7 C19.6,17.4 20.4,19.2 21.1,21 C22.2,20.2 23.2,19.4 24,18.5 C23.2,16.7 22.3,14.9 21.2,13.3 C20.4,14.1 19.6,14.9 18.7,15.7 Z" id="Path"></path>
                </g>
                <path d="M170,32 L46.2,32 C44.4,32 43,30.6 43,28.8 L43,3.2 C43,1.4 44.4,0 46.2,0 L170,0 L170,32 Z" id="Path" fill="#5C7081" fill-rule="nonzero"></path>
                <path d="M766.3,83 L665.7,83 C664.2,83 663,81.8 663,80.3 L663,53.7 C663,52.2 664.2,51 665.7,51 L766.2,51 C767.7,51 768.9,52.2 768.9,53.7 L768.9,80.2 C769,81.8 767.8,83 766.3,83 Z" id="Path" fill="#89B7DA" fill-rule="nonzero"></path>
                <g id="zoomout_9_" transform="translate(179.000000, 8.000000)" fill="#93A9BA">
                    <path d="M17.6,15.3 L13.3,11 C14.1,9.9 14.5,8.5 14.5,7 C14.5,3.1 11.4,0 7.5,0 C3.6,0 0.5,3.1 0.5,7 C0.5,10.9 3.6,14 7.5,14 C9,14 10.3,13.6 11.5,12.8 L15.8,17.1 C16,17.3 16.4,17.5 16.7,17.5 C17.4,17.5 18,16.9 18,16.2 C18,15.9 17.8,15.6 17.6,15.3 Z M7.5,12.3 C4.6,12.3 2.2,9.9 2.2,7 C2.2,4.1 4.6,1.7 7.5,1.7 C10.4,1.7 12.8,4.1 12.8,7 C12.8,9.9 10.4,12.3 7.5,12.3 Z" id="Shape"></path>
                </g>
                <g id="Rectangle_1_copy_2_" transform="translate(619.000000, 4.000000)" fill="#FFFFFF">
                    <path d="M9,6.4 C14,6.4 18,5 18,3.4 C18,1.8 14,0.4 9,0.4 C4,0.4 0,1.8 0,3.4 C0,5 4,6.4 9,6.4 Z M0,5.7 L0,12.4 C0,14 4,15.4 9,15.4 C14,15.4 18,14 18,12.4 L18,5.7 C16.2,7 12.8,7.9 9,7.9 C5.2,7.9 1.8,7 0,5.7 Z M0,14.7 L0,21.4 C0,23.1 4,24.4 9,24.4 C14,24.4 18,23.1 18,21.4 L18,14.7 C16.2,16 12.8,16.9 9,16.9 C5.2,16.9 1.8,16 0,14.7 Z" id="Shape"></path>
                </g>
                <g id="upload_32_" transform="translate(672.000000, 56.000000)" fill="#FFFFFF">
                    <path d="M10,20.9 C15.5,20.9 20,16.4 20,10.9 C20,5.4 15.5,0.9 10,0.9 C4.5,0.9 0,5.4 0,10.9 C0,16.4 4.5,20.9 10,20.9 Z M6,10.9 C6.3,10.9 6.5,11 6.7,11.2 L9,13.5 L9,5.9 C9,5.4 9.5,4.9 10,4.9 C10.5,4.9 11,5.4 11,5.9 L11,13.5 L13.3,11.2 C13.5,11 13.7,10.9 14,10.9 C14.5,10.9 15,11.4 15,11.9 C15,12.2 14.9,12.4 14.7,12.6 L10.7,16.6 C10.5,16.8 10.3,16.9 10,16.9 C9.7,16.9 9.5,16.8 9.3,16.6 L5.3,12.6 C5.1,12.4 5,12.2 5,11.9 C5,11.4 5.5,10.9 6,10.9 Z" id="Shape"></path>
                </g>
                <g id="_x32_0_2_" transform="translate(660.000000, 4.000000)" fill="#FFFFFF">
                    <path d="M10.3,17.7 L9,21 C10.1,21.4 11.3,21.7 12.5,21.7 C13.7,21.7 14.9,21.5 16,21 L14.7,17.7 C14,18 13.3,18.1 12.5,18.1 C11.7,18.1 11,18 10.3,17.7 Z M7,14.4 C6.7,13.7 6.6,13 6.6,12.2 C6.6,11.4 6.7,10.7 7,10 L3.7,8.7 C3.3,9.8 3,11 3,12.2 C3,13.4 3.2,14.6 3.7,15.7 L7,14.4 Z M10.3,6.8 C11,6.5 11.7,6.4 12.5,6.4 C13.3,6.4 14,6.5 14.7,6.8 L16,3.5 C14.9,3.1 13.7,2.8 12.5,2.8 C11.3,2.8 10.1,3 9,3.5 L10.3,6.8 Z M17.9,10 C18.2,10.7 18.3,11.4 18.3,12.2 C18.3,13 18.2,13.7 17.9,14.4 L21.2,15.7 C21.6,14.6 21.9,13.4 21.9,12.2 C21.9,11 21.7,9.8 21.2,8.7 L17.9,10 Z M12.5,15.8 C14.5,15.8 16,14.2 16,12.3 C16,10.4 14.4,8.8 12.5,8.8 C10.6,8.8 9,10.4 9,12.3 C9,14.2 10.5,15.8 12.5,15.8 Z M12.5,24 C6,24 0.7,18.7 0.7,12.2 C0.7,5.7 6,0.4 12.5,0.4 C19,0.4 24.3,5.7 24.3,12.2 C24.3,18.7 19,24 12.5,24 Z" id="Combined-Shape_2_"></path>
                </g>
                <path d="M716.9,4.3 C710.4,4.3 705.1,9.6 705.1,16.1 C705.1,22.6 710.4,28 716.9,28 C723.4,28 728.7,22.7 728.7,16.2 C728.7,9.7 723.5,4.3 716.9,4.3 Z M713.9,9.8 C714.7,9.2 715.7,8.8 716.9,8.8 C717.5,8.8 718.1,8.9 718.7,9.1 C719.2,9.3 719.7,9.6 720,9.9 C720.4,10.2 720.7,10.6 720.9,11.1 C721.1,11.6 721.2,12.1 721.2,12.6 C721.2,13.1 721.1,13.6 720.9,14.1 C720.7,14.5 720.4,15 720.1,15.4 L718.7,17.3 C718.5,17.5 718.4,17.7 718.3,17.9 C718.2,18.1 718.2,18.3 718.2,18.6 L718.2,19.1 C718.2,19.2 718.2,19.7 718.2,19.7 L715.8,19.7 L715.8,17.3 C715.8,17.3 715.9,16.6 716.1,16.3 L717.5,14.4 C717.8,14 718,13.7 718.1,13.5 C718.2,13.3 718.3,13 718.3,12.7 C718.3,12.3 718.2,12 717.9,11.7 C717.7,11.4 717.3,11.3 716.9,11.3 C716.5,11.3 716.1,11.4 715.8,11.7 C715.5,12 715.4,12.3 715.3,12.8 C715.3,12.9 715.2,13 715,13 L712.7,12.7 C712.6,12.7 712.5,12.6 712.5,12.4 C712.6,11.3 713.1,10.5 713.9,9.8 Z M715.8,20.9 L718.2,20.9 L718.2,23.3 L715.8,23.3 L715.8,20.9 Z" id="help_2_" fill="#FFFFFF" fill-rule="nonzero"></path>
                <g id="login_2_" transform="translate(745.000000, 4.000000)" fill="#FFFFFF">
                    <path d="M23.1,0.3 L13.6,0.3 C12.9,0.3 12.4,0.8 12.4,1.5 C12.4,2.2 12.9,2.7 13.6,2.7 L21.9,2.7 L21.9,21.7 L13.6,21.7 C12.9,21.7 12.4,22.2 12.4,22.9 C12.4,23.6 12.9,24.1 13.6,24.1 L23.1,24.1 C23.8,24.1 24.3,23.6 24.3,22.9 L24.3,1.4 C24.3,0.8 23.8,0.3 23.1,0.3 Z M18.4,12.1 C18.4,11.8 18.3,11.5 18.1,11.3 L12.2,5.4 C12,5.2 11.7,5.1 11.4,5.1 C10.7,5.1 10.2,5.6 10.2,6.3 C10.2,6.6 10.3,6.9 10.5,7.1 L14.4,11 L1.8,11 C1.1,11 0.6,11.5 0.6,12.2 C0.6,12.9 1.1,13.4 1.8,13.4 L14.4,13.4 L10.5,17.3 C10.3,17.5 10.1,17.8 10.1,18.1 C10.1,18.8 10.6,19.3 11.3,19.3 C11.6,19.3 11.9,19.2 12.1,19 L18,13 C18.2,12.8 18.4,12.5 18.4,12.1 Z" id="Shape"></path>
                </g>
                <path d="M189,138 L3,138 C1.3,138 0,136.7 0,135 L0,111 C0,109.3 1.3,108 3,108 L189,108 C190.7,108 192,109.3 192,111 L192,135 C192,136.7 190.7,138 189,138 Z" id="Path" fill="#EDEDED" fill-rule="nonzero"></path>
                <path d="M189,178 L3,178 C1.3,178 0,176.7 0,175 L0,151 C0,149.3 1.3,148 3,148 L189,148 C190.7,148 192,149.3 192,151 L192,175 C192,176.7 190.7,178 189,178 Z" id="Path" fill="#EDEDED" fill-rule="nonzero"></path>
                <path d="M189,404 L3,404 C1.3,404 0,402.7 0,401 L0,377 C0,375.3 1.3,374 3,374 L189,374 C190.7,374 192,375.3 192,377 L192,401 C192,402.7 190.7,404 189,404 Z" id="Path" fill="#EDEDED" fill-rule="nonzero"></path>
                <path d="M189,442 L3,442 C1.3,442 0,440.7 0,439 L0,415 C0,413.3 1.3,412 3,412 L189,412 C190.7,412 192,413.3 192,415 L192,439 C192,440.7 190.7,442 189,442 Z" id="Path" fill="#EDEDED" fill-rule="nonzero"></path>
                <path d="M189,480 L3,480 C1.3,480 0,478.7 0,477 L0,453 C0,451.3 1.3,450 3,450 L189,450 C190.7,450 192,451.3 192,453 L192,477 C192,478.7 190.7,480 189,480 Z" id="Path" fill="#EDEDED" fill-rule="nonzero"></path>
                <polygon id="Path" fill="#000000" fill-rule="nonzero" points="17.1 123.1 10 130.1 10 116"></polygon>
                <polygon id="Path" fill="#000000" fill-rule="nonzero" points="17.1 389.1 10 396.1 10 382"></polygon>
                <polygon id="Path" fill="#000000" fill-rule="nonzero" points="17.1 427.1 10 434.1 10 420"></polygon>
                <polygon id="Path" fill="#000000" fill-rule="nonzero" points="17.1 465.1 10 472.1 10 458"></polygon>
                <polygon id="Path" fill="#000000" fill-rule="nonzero" points="15 167.1 7.9 160 22.1 160"></polygon>
                <path d="M170,127 C170,128.6 168.6,130 167,130 L33,130 C31.3,130 30,128.6 30,127 L30,121 C30,119.3 31.3,118 33,118 L167,118 C168.6,118 170,119.3 170,121 L170,127 Z" id="Path" fill="#B3B3B3" fill-rule="nonzero"></path>
                <path d="M352,167 C352,168.6 350.6,170 349,170 L244,170 C242.4,170 241,168.6 241,167 L241,161 C241,159.4 242.4,158 244,158 L349,158 C350.6,158 352,159.4 352,161 L352,167 Z" id="Path" fill="#999999" fill-rule="nonzero"></path>
                <path d="M521,167 C521,168.6 519.7,170 518,170 L461,170 C459.4,170 458,168.6 458,167 L458,161 C458,159.4 459.4,158 461,158 L518,158 C519.7,158 521,159.4 521,161 L521,167 Z" id="Path" fill="#999999" fill-rule="nonzero"></path>
                <path d="M647,167 C647,168.6 645.7,170 644,170 L587,170 C585.3,170 584,168.6 584,167 L584,161 C584,159.4 585.3,158 587,158 L644,158 C645.7,158 647,159.4 647,161 L647,167 Z" id="Path" fill="#999999" fill-rule="nonzero"></path>
                <path d="M367,70 C367,71.7 365.6,73 364,73 L47,73 C45.3,73 44,71.7 44,70 L44,64 C44,62.3 45.3,61 47,61 L364,61 C365.6,61 367,62.3 367,64 L367,70 Z" id="Path" fill="#89B7DA" fill-rule="nonzero"></path>
                <path d="M539,209 C539,210.6 537.7,212 536,212 L484,212 C482.4,212 481,210.6 481,209 L481,203 C481,201.4 482.4,200 484,200 L536,200 C537.7,200 539,201.4 539,203 L539,209 Z" id="Path" fill="#89B7DA" fill-rule="nonzero"></path>
                <path d="M295,20 C295,21.6 293.6,23 292,23 L211,23 C209.4,23 208,21.6 208,20 L208,14 C208,12.4 209.4,11 211,11 L292,11 C293.6,11 295,12.4 295,14 L295,20 Z" id="Path" fill="#89B7DA" fill-rule="nonzero"></path>
                <path d="M677,209 C677,210.6 675.7,212 674,212 L587,212 C585.3,212 584,210.6 584,209 L584,203 C584,201.4 585.3,200 587,200 L674,200 C675.7,200 677,201.4 677,203 L677,209 Z" id="Path" fill="#B3B3B3" fill-rule="nonzero"></path>
                <path d="M170,392 C170,393.6 168.6,395 167,395 L33,395 C31.3,395 30,393.6 30,392 L30,386 C30,384.4 31.3,383 33,383 L167,383 C168.6,383 170,384.4 170,386 L170,392 Z" id="Path" fill="#B3B3B3" fill-rule="nonzero"></path>
                <path d="M156,430 C156,431.6 154.6,433 153,433 L33,433 C31.3,433 30,431.6 30,430 L30,424 C30,422.4 31.3,421 33,421 L153,421 C154.6,421 156,422.4 156,424 L156,430 Z" id="Path" fill="#B3B3B3" fill-rule="nonzero"></path>
                <path d="M177,468 C177,469.6 175.6,471 174,471 L33,471 C31.3,471 30,469.6 30,468 L30,462 C30,460.4 31.3,459 33,459 L174,459 C175.6,459 177,460.4 177,462 L177,468 Z" id="Path" fill="#B3B3B3" fill-rule="nonzero"></path>
                <path d="M148,166 C148,167.6 146.6,169 145,169 L33,169 C31.3,169 30,167.6 30,166 L30,160 C30,158.4 31.3,157 33,157 L145,157 C146.6,157 148,158.4 148,160 L148,166 Z" id="Path" fill="#B3B3B3" fill-rule="nonzero"></path>
                <path d="M153,19 C153,20.6 151.6,22 150,22 L61,22 C59.3,22 58,20.6 58,19 L58,13 C58,11.4 59.3,10 61,10 L150,10 C151.6,10 153,11.4 153,13 L153,19 Z" id="Path" fill="#FFFFFF" fill-rule="nonzero"></path>
                <path d="M755,70 C755,71.7 753.7,73 752,73 L705,73 C703.3,73 702,71.7 702,70 L702,64 C702,62.3 703.3,61 705,61 L752,61 C753.7,61 755,62.3 755,64 L755,70 Z" id="Path" fill="#FFFFFF" fill-rule="nonzero"></path>
                <path d="M127,203 C127,204.6 125.6,206 124,206 L33,206 C31.3,206 30,204.6 30,203 L30,197 C30,195.4 31.3,194 33,194 L124,194 C125.6,194 127,195.4 127,197 L127,203 Z" id="Path" fill="#B3B3B3" fill-rule="nonzero"></path>
                <path d="M112,233.4 C112,235.1 110.7,236.4 109,236.4 L33,236.4 C31.3,236.4 30,235.1 30,233.4 L30,227.4 C30,225.8 31.3,224.4 33,224.4 L109,224.4 C110.7,224.4 112,225.8 112,227.4 L112,233.4 Z" id="Path" fill="#B3B3B3" fill-rule="nonzero"></path>
                <path d="M124,263.8 C124,265.5 122.6,266.8 121,266.8 L33,266.8 C31.3,266.8 30,265.5 30,263.8 L30,257.8 C30,256.2 31.3,254.8 33,254.8 L121,254.8 C122.6,254.8 124,256.2 124,257.8 L124,263.8 Z" id="Path" fill="#B3B3B3" fill-rule="nonzero"></path>
                <path d="M127,294.2 C127,295.8 125.6,297.2 124,297.2 L33,297.2 C31.3,297.2 30,295.8 30,294.2 L30,288.2 C30,286.5 31.3,285.2 33,285.2 L124,285.2 C125.6,285.2 127,286.5 127,288.2 L127,294.2 Z" id="Path" fill="#B3B3B3" fill-rule="nonzero"></path>
                <path d="M112,324.6 C112,326.2 110.7,327.6 109,327.6 L33,327.6 C31.3,327.6 30,326.2 30,324.6 L30,318.6 C30,317 31.3,315.6 33,315.6 L109,315.6 C110.7,315.6 112,317 112,318.6 L112,324.6 Z" id="Path" fill="#B3B3B3" fill-rule="nonzero"></path>
                <path d="M127,355 C127,356.6 125.6,358 124,358 L33,358 C31.3,358 30,356.6 30,355 L30,349 C30,347.4 31.3,346 33,346 L124,346 C125.6,346 127,347.4 127,349 L127,355 Z" id="Path" fill="#B3B3B3" fill-rule="nonzero"></path>
                <path d="M148,349 C148,347.3 149.3,346 151,346 L179,346 C180.7,346 182,347.3 182,349 L182,355 C182,356.6 180.7,358 179,358 L151,358 C149.3,358 148,356.6 148,355 L148,349 Z" id="Path" fill="#CCCCCC" fill-rule="nonzero"></path>
                <path d="M153.3,318.6 C153.3,317 154.7,315.6 156.3,315.6 L179,315.6 C180.7,315.6 182,317 182,318.6 L182,324.6 C182,326.3 180.7,327.6 179,327.6 L156.3,327.6 C154.7,327.6 153.3,326.3 153.3,324.6 L153.3,318.6 Z" id="Path" fill="#CCCCCC" fill-rule="nonzero"></path>
                <path d="M149.1,288.2 C149.1,286.6 150.4,285.2 152.1,285.2 L179,285.2 C180.7,285.2 182,286.6 182,288.2 L182,294.2 C182,295.8 180.7,297.2 179,297.2 L152.1,297.2 C150.4,297.2 149.1,295.8 149.1,294.2 L149.1,288.2 Z" id="Path" fill="#CCCCCC" fill-rule="nonzero"></path>
                <path d="M148,257.8 C148,256.2 149.3,254.8 151,254.8 L179,254.8 C180.7,254.8 182,256.2 182,257.8 L182,263.8 C182,265.4 180.7,266.8 179,266.8 L151,266.8 C149.3,266.8 148,265.4 148,263.8 L148,257.8 Z" id="Path" fill="#CCCCCC" fill-rule="nonzero"></path>
                <path d="M153.3,227.4 C153.3,225.7 154.7,224.4 156.3,224.4 L179,224.4 C180.7,224.4 182,225.7 182,227.4 L182,233.4 C182,235 180.7,236.4 179,236.4 L156.3,236.4 C154.7,236.4 153.3,235 153.3,233.4 L153.3,227.4 Z" id="Path" fill="#CCCCCC" fill-rule="nonzero"></path>
                <path d="M148,197 C148,195.4 149.3,194 151,194 L179,194 C180.7,194 182,195.4 182,197 L182,203 C182,204.7 180.7,206 179,206 L151,206 C149.3,206 148,204.7 148,203 L148,197 Z" id="Path" fill="#CCCCCC" fill-rule="nonzero"></path>
                <circle id="Oval" stroke="#CCCCCC" cx="13.2" cy="200.2" r="6.2"></circle>
                <circle id="Oval" stroke="#CCCCCC" cx="13.2" cy="230.4" r="6.2"></circle>
                <circle id="Oval" stroke="#CCCCCC" cx="13.2" cy="260.6" r="6.2"></circle>
                <circle id="Oval" stroke="#CCCCCC" cx="13.2" cy="290.9" r="6.2"></circle>
                <circle id="Oval" stroke="#CCCCCC" cx="13.2" cy="321" r="6.2"></circle>
                <circle id="Oval" stroke="#CCCCCC" cx="13.2" cy="351.2" r="6.2"></circle>
                <line x1="213.5" y1="108.5" x2="213.5" y2="479.5" id="Path" stroke="#CCCCCC"></line>
                <line x1="770" y1="181.5" x2="241" y2="181.5" id="Path" stroke="#CCCCCC"></line>
                <path d="M409,254 C409,255.6 407.6,257 406,257 L244,257 C242.4,257 241,255.6 241,254 L241,248 C241,246.4 242.4,245 244,245 L406,245 C407.6,245 409,246.4 409,248 L409,254 Z" id="Path" fill="#89B7DA" fill-rule="nonzero"></path>
                <path d="M360,210 C360,211.6 358.6,213 357,213 L244,213 C242.4,213 241,211.6 241,210 L241,204 C241,202.4 242.4,201 244,201 L357,201 C358.6,201 360,202.4 360,204 L360,210 Z" id="Path" fill="#89B7DA" fill-rule="nonzero"></path>
                <path d="M544,254 C544,255.6 542.7,257 541,257 L484,257 C482.4,257 481,255.6 481,254 L481,248 C481,246.4 482.4,245 484,245 L541,245 C542.7,245 544,246.4 544,248 L544,254 Z" id="Path" fill="#89B7DA" fill-rule="nonzero"></path>
                <path d="M669,254 C669,255.6 667.7,257 666,257 L587,257 C585.3,257 584,255.6 584,254 L584,248 C584,246.4 585.3,245 587,245 L666,245 C667.7,245 669,246.4 669,248 L669,254 Z" id="Path" fill="#B3B3B3" fill-rule="nonzero"></path>
                <line x1="770" y1="226.5" x2="241" y2="226.5" id="Path" stroke="#CCCCCC"></line>
                <path d="M397,302 C397,303.6 395.6,305 394,305 L244,305 C242.4,305 241,303.6 241,302 L241,296 C241,294.4 242.4,293 244,293 L394,293 C395.6,293 397,294.4 397,296 L397,302 Z" id="Path" fill="#89B7DA" fill-rule="nonzero"></path>
                <path d="M547,302 C547,303.6 545.7,305 544,305 L484,305 C482.4,305 481,303.6 481,302 L481,296 C481,294.4 482.4,293 484,293 L544,293 C545.7,293 547,294.4 547,296 L547,302 Z" id="Path" fill="#89B7DA" fill-rule="nonzero"></path>
                <path d="M689,302 C689,303.6 687.7,305 686,305 L587,305 C585.3,305 584,303.6 584,302 L584,296 C584,294.4 585.3,293 587,293 L686,293 C687.7,293 689,294.4 689,296 L689,302 Z" id="Path" fill="#B3B3B3" fill-rule="nonzero"></path>
                <line x1="770" y1="274.5" x2="241" y2="274.5" id="Path" stroke="#CCCCCC"></line>
                <path d="M363,350 C363,351.6 361.6,353 360,353 L244,353 C242.4,353 241,351.6 241,350 L241,344 C241,342.4 242.4,341 244,341 L360,341 C361.6,341 363,342.4 363,344 L363,350 Z" id="Path" fill="#89B7DA" fill-rule="nonzero"></path>
                <path d="M535,350 C535,351.6 533.7,353 532,353 L484,353 C482.4,353 481,351.6 481,350 L481,344 C481,342.4 482.4,341 484,341 L532,341 C533.7,341 535,342.4 535,344 L535,350 Z" id="Path" fill="#89B7DA" fill-rule="nonzero"></path>
                <path d="M655,350 C655,351.6 653.7,353 652,353 L587,353 C585.3,353 584,351.6 584,350 L584,344 C584,342.4 585.3,341 587,341 L652,341 C653.7,341 655,342.4 655,344 L655,350 Z" id="Path" fill="#B3B3B3" fill-rule="nonzero"></path>
                <line x1="770" y1="322.5" x2="241" y2="322.5" id="Path" stroke="#CCCCCC"></line>
                <path d="M338,398 C338,399.6 336.6,401 335,401 L244,401 C242.4,401 241,399.6 241,398 L241,392 C241,390.4 242.4,389 244,389 L335,389 C336.6,389 338,390.4 338,392 L338,398 Z" id="Path" fill="#89B7DA" fill-rule="nonzero"></path>
                <path d="M541,398 C541,399.6 539.7,401 538,401 L484,401 C482.4,401 481,399.6 481,398 L481,392 C481,390.4 482.4,389 484,389 L538,389 C539.7,389 541,390.4 541,392 L541,398 Z" id="Path" fill="#89B7DA" fill-rule="nonzero"></path>
                <path d="M668,398 C668,399.6 666.7,401 665,401 L587,401 C585.3,401 584,399.6 584,398 L584,392 C584,390.4 585.3,389 587,389 L665,389 C666.7,389 668,390.4 668,392 L668,398 Z" id="Path" fill="#B3B3B3" fill-rule="nonzero"></path>
                <line x1="770" y1="370.5" x2="241" y2="370.5" id="Path" stroke="#CCCCCC"></line>
                <path d="M382,447 C382,448.6 380.6,450 379,450 L244,450 C242.4,450 241,448.6 241,447 L241,441 C241,439.4 242.4,438 244,438 L379,438 C380.6,438 382,439.4 382,441 L382,447 Z" id="Path" fill="#89B7DA" fill-rule="nonzero"></path>
                <path d="M544,447 C544,448.6 542.7,450 541,450 L484,450 C482.4,450 481,448.6 481,447 L481,441 C481,439.4 482.4,438 484,438 L541,438 C542.7,438 544,439.4 544,441 L544,447 Z" id="Path" fill="#89B7DA" fill-rule="nonzero"></path>
                <path d="M663,447 C663,448.6 661.7,450 660,450 L587,450 C585.3,450 584,448.6 584,447 L584,441 C584,439.4 585.3,438 587,438 L660,438 C661.7,438 663,439.4 663,441 L663,447 Z" id="Path" fill="#B3B3B3" fill-rule="nonzero"></path>
                <line x1="770" y1="419.5" x2="241" y2="419.5" id="Path" stroke="#CCCCCC"></line>
                <path d="M765.7,106.5 L738.9,106.5 C737.3,106.5 736.1,107.8 736.1,109.3 L736.1,132.1 C736.1,133.7 737.4,134.9 738.9,134.9 L765.7,134.9 C767.3,134.9 768.5,133.6 768.5,132.1 L768.5,109.3 C768.5,107.8 767.2,106.5 765.7,106.5 Z" id="Path" stroke="#999999"></path>
                <g id="upload_30_" transform="translate(458.000000, 198.000000)" fill="#0E6BA3">
                    <path d="M7.5,15.5 C11.6,15.5 15,12.1 15,8 C15,3.9 11.6,0.5 7.5,0.5 C3.4,0.5 0,3.9 0,8 C0,12.1 3.4,15.5 7.5,15.5 Z" id="Path"></path>
                </g>
                <g id="upload_28_" transform="translate(458.000000, 243.000000)" fill="#0E6BA3">
                    <path d="M7.5,15.5 C11.6,15.5 15,12.1 15,8 C15,3.9 11.6,0.5 7.5,0.5 C3.4,0.5 0,3.9 0,8 C0,12.1 3.4,15.5 7.5,15.5 Z" id="Path"></path>
                </g>
                <g id="upload_26_" transform="translate(458.000000, 291.000000)" fill="#0E6BA3">
                    <path d="M7.5,15.5 C11.6,15.5 15,12.1 15,8 C15,3.9 11.6,0.5 7.5,0.5 C3.4,0.5 0,3.9 0,8 C0,12.1 3.4,15.5 7.5,15.5 Z" id="Path"></path>
                </g>
                <g id="upload_24_" transform="translate(458.000000, 338.000000)" fill="#0E6BA3">
                    <path d="M7.5,15.5 C11.6,15.5 15,12.1 15,8 C15,3.9 11.6,0.5 7.5,0.5 C3.4,0.5 0,3.9 0,8 C0,12.1 3.4,15.5 7.5,15.5 Z" id="Path"></path>
                </g>
                <g id="upload_22_" transform="translate(458.000000, 387.000000)" fill="#0E6BA3">
                    <path d="M7.5,15.5 C11.6,15.5 15,12.1 15,8 C15,3.9 11.6,0.5 7.5,0.5 C3.4,0.5 0,3.9 0,8 C0,12.1 3.4,15.5 7.5,15.5 Z" id="Path"></path>
                </g>
                <g id="upload_2_" transform="translate(458.000000, 436.000000)" fill="#0E6BA3">
                    <path d="M7.5,15.5 C11.6,15.5 15,12.1 15,8 C15,3.9 11.6,0.5 7.5,0.5 C3.4,0.5 0,3.9 0,8 C0,12.1 3.4,15.5 7.5,15.5 Z" id="Path"></path>
                </g>
                <g id="Group" transform="translate(158.000000, 154.000000)">
                    <path d="M17.5,19 L9.5,19 C4.3,19 0,14.7 0,9.5 L0,9.5 C0,4.3 4.3,0 9.5,0 L17.5,0 C22.7,0 27,4.3 27,9.5 L27,9.5 C27,14.7 22.7,19 17.5,19 Z" id="Path" fill="#0E6BA3" fill-rule="nonzero"></path>
                    <line x1="9.5" y1="9.5" x2="17.5" y2="9.5" id="Path" stroke="#FFFFFF" stroke-width="5" stroke-linecap="round" stroke-linejoin="round"></line>
                </g>
                <path d="M759.9,112.6 L744.6,112.6 C743.7,112.6 743,113.3 743,114.2 L743,127.2 C743,128.1 743.7,128.8 744.6,128.8 L759.9,128.8 C760.8,128.8 761.5,128.1 761.5,127.2 L761.5,114.2 C761.5,113.4 760.8,112.6 759.9,112.6 Z" id="Path" fill="#999999" fill-rule="nonzero"></path>
                <g id="zoomout_3_" transform="translate(225.000000, 72.000000)">
                    <path d="M184,61.5 C184,70.725 190.15,76.875 199.375,76.875 L230.125,76.875 L230.125,107.625 C230.125,116.85 236.275,123 245.5,123 C253.1875,123 260.875,116.85 260.875,107.625 L260.875,76.875 L291.625,76.875 C299.3125,76.875 307,70.725 307,61.5 C307,52.275 299.3125,46.125 291.625,46.125 L260.875,46.125 L260.875,15.375 C260.875,6.15 253.1875,0 245.5,0 C236.275,0 230.125,6.15 230.125,15.375 L230.125,46.125 L199.375,46.125 C190.15,46.125 184,53.8125 184,61.5 L184,61.5 Z M291.65,107.45 C291.65,133.545 271.695,153.5 245.6,153.5 C219.505,153.5 199.55,133.545 199.55,107.45 C173.455,107.45 153.5,87.495 153.5,61.4 C153.5,35.305 173.455,15.35 199.55,15.35 C199.55,12.28 199.55,9.21 201.085,7.675 C185.735,3.07 170.385,0 153.5,0 C69.075,0 0,69.075 0,153.5 C0,237.925 69.075,307 153.5,307 C237.925,307 307,237.925 307,153.5 C307,136.615 303.93,121.265 299.325,107.45 L291.65,107.45 L291.65,107.45 Z" id="Shape" fill="#FFFFFF"></path>
                    <path d="M184.5,64.4 C184.5,73.25 190.4,79.15 199.25,79.15 L228.75,79.15 L228.75,108.65 C228.75,117.5 234.65,123.4 243.5,123.4 C250.875,123.4 258.25,117.5 258.25,108.65 L258.25,79.15 L287.75,79.15 C295.125,79.15 302.5,73.25 302.5,64.4 C302.5,55.55 295.125,49.65 287.75,49.65 L258.25,49.65 L258.25,20.15 C258.25,11.3 250.875,5.4 243.5,5.4 C234.65,5.4 228.75,11.3 228.75,20.15 L228.75,49.65 L199.25,49.65 C190.4,49.65 184.5,57.025 184.5,64.4 L184.5,64.4 Z M287.75,108.65 C287.75,133.725 268.575,152.9 243.5,152.9 C218.425,152.9 199.25,133.725 199.25,108.65 C174.175,108.65 155,89.475 155,64.4 C155,39.325 174.175,20.15 199.25,20.15 C199.25,17.2 199.25,14.25 200.725,12.775 C185.975,8.35 171.225,5.4 155,5.4 C73.875,5.4 7.5,71.775 7.5,152.9 C7.5,234.025 73.875,300.4 155,300.4 C236.125,300.4 302.5,234.025 302.5,152.9 C302.5,136.675 299.55,121.925 295.125,108.65 L287.75,108.65 L287.75,108.65 Z" id="Shape" fill="#93A9BA"></path>
                </g>
            </g>
        </g>
    </g>
</svg>