<svg width="300" height="300" viewBox="0 0 300 300" fill="none" xmlns="http://www.w3.org/2000/svg">
<g clip-path="url(#clip0_347_45)">
<path d="M297.88 175.19L223.05 160.2L217.61 150.7L229.5 171.48L295.28 187.45C296.31 183.43 297.17 179.34 297.87 175.19H297.88Z" fill="#FFF8F1"/>
<path d="M235.25 181.51L235.88 182.62L263.45 230.8H36.62L88.13 139.12L235.88 182.62L233.43 178.33L229.51 171.48L229.43 171.34L153.67 149.04L222.92 159.98L217.28 150.13L217.51 150.53L298.99 166.86V167.32C299.64 161.64 299.99 155.87 299.99 150.01C299.99 144.15 299.64 138.38 298.99 132.7V133.13L201.63 122.78L199.18 118.49L201.17 121.97L205.93 130.29L298.99 145.17V153.67L211.28 139.64L217.18 149.96L146.22 138.75L211.06 139.26L209.09 135.82L206.22 130.8L205.96 130.35L209.09 135.82L209.57 136.65L205.93 130.28L205.89 130.22L146.3 129.75L201.17 121.96L196.36 113.55L94.35 128.03L92.8 130.79L92.07 132.09L92.64 131.07L88.2 138.97L1.12 168.36C10.17 242.54 73.37 300 150 300C216.97 300 273.69 256.1 292.96 195.52L235.25 181.51Z" fill="#FFF8F1"/>
<path d="M196.36 113.55L196.49 113.77L297.84 124.55C285.75 53.83 224.17 0 150 0C67.16 0 0 67.16 0 150C0 153.28 0.12 156.53 0.32 159.76L94.36 128.03L149 30.79L196.36 113.55Z" fill="#FFF8F1"/>
<path d="M93.75 129.12L92.65 131.07L92.81 130.79L93.75 129.12Z" fill="#FFF8F1"/>
</g>
<defs>
<clipPath id="clip0_347_45">
<rect width="300" height="300" fill="white"/>
</clipPath>
</defs>
</svg>