<?xml version="1.0" encoding="UTF-8"?>
<svg width="24px" height="24px" viewBox="0 0 24 24" version="1.1" xmlns="http://www.w3.org/2000/svg" xmlns:xlink="http://www.w3.org/1999/xlink">
    <!-- Generator: Sketch 52.2 (67145) - http://www.bohemiancoding.com/sketch -->
    <title>Airplane</title>
    <desc>Airplane</desc>
    <g id="Airplane" stroke="none" stroke-width="1" fill="none" fill-rule="evenodd">
        <g fill="#000000" fill-rule="nonzero">
            <path d="M18.0660709,8.36536402 L20.8875772,5.54458629 C21.9133918,4.5186687 22.5761819,3.61553579 22.8567664,2.85923472 C23.1695365,2.01845964 22.9100641,1.61112553 22.6495875,1.35064901 C22.4112529,1.11228608 22.1537887,1.00065218 21.8379832,1.00065218 C21.0182429,1.00065218 19.8174299,1.75090285 18.455676,3.11265673 L15.633611,5.93369193 C15.4827627,6.0845505 15.2856301,6.15997978 15.0875036,6.15997978 C14.9517428,6.15997978 14.8149675,6.12377517 14.6932745,6.05136336 L4.16427616,4.01376597 L3.46026606,4.71777606 L11.3963424,8.76691548 C11.6125841,8.87651799 11.7654534,9.08269789 11.8066889,9.32205978 C11.848931,9.56042013 11.7755125,9.80580926 11.6095691,9.98281589 C9.94429072,11.7608636 7.97597694,14.2298938 6.47444575,16.4263723 C6.32861803,16.6395862 6.08924584,16.76329 5.83680992,16.76329 C5.78652459,16.76329 5.73523257,16.7582617 5.68494724,16.7482026 L2.07735892,16.0260953 L1.69116211,16.4132957 L4.53433974,18.1270289 C4.87828874,18.3352145 5.00601415,18.7706894 4.82900752,19.1297232 C4.81593349,19.1578847 4.80285945,19.1850394 4.78978542,19.2111875 C4.81492938,19.1991201 4.84208155,19.1860435 4.87024298,19.1719654 C4.97986351,19.1186626 5.09552158,19.0925145 5.21017296,19.0925145 C5.47265771,19.0925145 5.72811626,19.2262697 5.87193319,19.4656316 L7.58770034,22.3077776 L7.97490074,21.92158 L7.25279091,18.3139917 C7.19143719,18.0102612 7.31816364,17.6994993 7.57361704,17.5245035 C9.7700441,16.0229723 12.2390743,14.0558686 14.0171735,12.3893801 C14.1619971,12.2536089 14.3500721,12.1801904 14.5451811,12.1801904 C14.589434,12.1801904 14.6336844,12.1852213 14.6779373,12.1922603 C14.917276,12.2345102 15.1224518,12.386378 15.2330816,12.6026068 L19.2829934,20.5386832 L19.9870035,19.8346731 L17.9494061,9.30670462 C17.878001,9.18904348 17.8407871,9.05427642 17.839783,8.91548777 C17.8387789,8.70931044 17.9202406,8.51119432 18.0660709,8.36536402 Z M21.0697191,20.1661711 L19.0174935,22.2183966 L18.3922722,20.9932331 L14.4791672,13.3252378 C12.7196079,14.9479471 10.3794067,16.8076312 8.26271451,18.2644698 L9.06067514,22.2510011 L7.39080297,23.9165484 L6.73160317,22.8245925 L5.12324023,20.1603562 L2.58904951,21.3765913 L3.83944965,18.875791 L0.0817566599,16.6108312 L1.7479369,14.9403211 L2.27362914,15.0455455 L5.73387271,15.7381597 C7.18887409,13.6241389 9.04933934,11.2833511 10.6737781,9.52089059 L1.78047362,4.98335494 L3.83276985,2.93105871 L15.0510811,5.10205363 L17.7485692,2.40554995 C19.2842942,0.869824996 20.6760371,0.000652177297 21.8379832,0.000652177297 C22.4240387,0.000652177297 22.934104,0.22090165 23.3566943,0.643542225 C23.9932762,1.28012414 24.1981866,2.12141993 23.7943241,3.20706462 C23.4547975,4.12224111 22.7139781,5.13228661 21.5945927,6.25178437 L18.8983998,8.94728106 L21.0697191,20.1661711 Z M8.15134766,18.3408882 C8.14715319,18.3437577 8.14295965,18.3466255 8.13876706,18.3494916 C8.15131479,18.3408959 8.1628081,18.3311762 8.17316587,18.3205352 L8.15134766,18.3408882 Z M3.93208597,18.6875335 C3.93153488,18.6886513 3.93099366,18.6897715 3.93046229,18.6908938 C3.93098075,18.6898674 3.93152679,18.6887143 3.93208597,18.6875335 Z"></path>
        </g>
    </g>
</svg>