<?xml version="1.0" encoding="UTF-8"?>
<svg width="24px" height="24px" viewBox="0 0 24 24" version="1.1" xmlns="http://www.w3.org/2000/svg" xmlns:xlink="http://www.w3.org/1999/xlink">
    <!-- Generator: Sketch 51.3 (57544) - http://www.bohemiancoding.com/sketch -->
    <title>Airplane</title>
    <desc>Created with Sketch.</desc>
    <defs></defs>
    <g id="Airplane" stroke="none" stroke-width="1" fill="none" fill-rule="evenodd">
        <path stroke="#106ba3" d="M18.4196014,8.71894024 L18.4196243,8.71891741 C18.3681857,8.77035596 18.3394227,8.84028823 18.3397699,8.91187046 C18.3401316,8.96186309 18.3530203,9.00803166 18.3768515,9.04730049 L18.4402967,9.21169698 L20.5283613,20.0004221 L19.1502435,21.3785399 L18.8376328,20.7659581 L14.7879585,12.8303465 C14.7485834,12.753387 14.6758818,12.6996282 14.5993925,12.6860525 C14.5730019,12.6818547 14.5557752,12.6801904 14.5451811,12.6801904 C14.4759577,12.6801904 14.4104613,12.7060391 14.3590917,12.7541978 C12.5633405,14.4372302 10.0746709,16.4203915 7.85619205,17.9369976 C7.76592123,17.9988367 7.72135816,18.1083892 7.74306577,18.2158562 L8.51778794,22.0862905 L7.48925165,23.112163 L7.15965175,22.566185 L5.44334463,19.7231425 C5.39425844,19.6414458 5.30571399,19.5925145 5.21017296,19.5925145 C5.1701058,19.5925145 5.12931044,19.6019703 5.09381707,19.6191953 C5.04659603,19.6425185 5.04659603,19.6425185 5.00612545,19.6619612 L3.68941747,20.2938894 L4.34257183,18.9875807 C4.35884519,18.9546186 4.35884519,18.9546186 4.38054675,18.9086284 C4.44274522,18.7824672 4.39758738,18.6287133 4.27622562,18.5552544 L0.886459385,16.5120635 L1.91264791,15.4832082 L2.17549403,15.5358204 L5.78302462,16.2579161 C5.80076359,16.2614646 5.81919845,16.26329 5.83680992,16.26329 C5.92643619,16.26329 6.01037854,16.2192018 6.06167632,16.1441997 C7.57590659,13.9291446 9.55995896,11.4397809 11.2448002,9.64084568 C11.3032281,9.57852246 11.3290316,9.49209582 11.3139472,9.40694562 C11.29962,9.32377983 11.2459673,9.25125507 11.1691019,9.21229367 L2.62036984,4.8505655 L3.99852301,3.47241234 L14.7882731,5.56047106 L14.9489525,5.62167887 C14.9912796,5.64686509 15.0393663,5.65997978 15.0875036,5.65997978 C15.1599305,5.65997978 15.2277519,5.63244779 15.2801221,5.58007402 L18.1021226,2.75910334 C19.5510735,1.31015245 20.8472671,0.500652177 21.8379832,0.500652177 C22.2886479,0.500652177 22.6724765,0.666391841 23.0031409,0.997095615 C23.5046357,1.49859041 23.6596493,2.13502611 23.3255452,3.03314967 C23.0155885,3.86862227 22.314047,4.82511556 21.241085,5.89818533 L18.4196014,8.71894024 Z"></path>
    </g>
</svg>