<?xml version="1.0" encoding="UTF-8"?>
<svg width="24px" height="24px" viewBox="0 0 24 24" version="1.1" xmlns="http://www.w3.org/2000/svg">
    <!-- Generator: Sketch 51.3 (57544) - http://www.bohemiancoding.com/sketch -->
    <title>Asset</title>
    <desc>Created with Sketch.</desc>
    <defs></defs>
    <g id="Asset" stroke="none" stroke-width="1" fill="none" fill-rule="evenodd">
        <path d="M4.33171748,20.0305109 C3.8921701,20.6552366 3.51934598,21.1220537 3.0916693,21.5965604 C3.01326221,21.683553 2.93189748,21.7721114 2.84260009,21.8678476 C2.71553212,22.0040778 2.25526225,22.4886651 2.17610788,22.5728012 C2.16074403,22.589132 2.14548828,22.605371 2.13033137,22.6215287 L6.38413302,22.6190547 C7.37302453,21.1038959 8.83362003,20.3380932 10.6784792,20.3380932 C13.0126391,20.3380932 14.3581217,20.2117027 15.7559558,19.890725 C16.3816915,19.7470404 19.2138834,18.9457741 20.1621602,18.7030648 C22.8358532,18.1230168 22.995556,18.0277055 22.8928889,17.5945752 C22.8424135,17.4143949 22.5614539,17.3248206 21.9642808,17.3678933 C21.790536,17.3804251 21.6108476,17.4025091 21.3679589,17.4387373 C21.2421159,17.4577685 21.2421159,17.4577685 21.1214042,17.4761816 C21.0259516,17.4905904 20.9565205,17.5004858 20.9215142,17.5039968 L18.5841878,17.934951 C18.0434511,18.1117118 17.2610827,18.270735 16.2693584,18.4215269 C15.5869857,18.5252819 14.9929014,18.6004489 14.036808,18.7118923 C13.6406056,18.7580741 13.5303956,18.77133 13.4410746,18.7843146 C12.5225145,18.4215269 14.3374922,17.4638545 15.104917,16.9462443 C15.3289318,16.7951515 15.7145613,16.4797367 16.2618054,16 C16.3403888,15.9110274 16.3622254,15.7778343 16.2618054,15.6463186 C16.1498199,15.499656 15.9585537,15.3868408 15.8967285,15.3868408 C15.6042977,15.3868408 15.2441988,15.5174684 14.6708101,15.8146503 C14.5984138,15.8521726 14.5443,15.8807076 14.4156059,15.9490117 C13.7546352,16.3001195 13.4999794,16.4222464 13.2031222,16.5074588 C12.4401735,16.839851 11.3524859,16.8394865 10.4869138,16.5109193 C9.60439372,16.1448667 8.77986245,16.2844925 7.76842896,16.9558803 C6.17648344,18.0963798 5.15113314,18.9869407 4.33171748,20.0305109 Z M18.3372748,16.9681529 L20.7676663,16.5163464 C20.8219579,16.5095296 20.8842232,16.5006555 20.972143,16.4873838 C21.0901997,16.4693733 21.0901997,16.4693733 21.2204353,16.4496788 C21.4862809,16.4100264 21.6882332,16.3852061 21.89234,16.3704844 C22.9152673,16.296703 23.631798,16.5251442 23.8607714,17.3439498 C24.1687365,18.6381301 23.5922452,18.9821826 20.3923168,19.6760398 C19.4843285,19.908781 16.6349211,20.7149177 15.9797565,20.8653599 C14.5013302,21.2048436 13.0828298,21.3380932 10.6784792,21.3380932 C9.08709162,21.3380932 7.90013058,22.0024887 7.09321756,23.3726251 L6.94828111,23.6187268 L-0.104477722,23.6228285 L0.624167796,22.7924132 C0.901224154,22.4766605 1.15608906,22.1976215 1.44776726,21.887586 C1.52980897,21.8003808 1.98800685,21.317975 2.11132996,21.1857596 C2.19694401,21.0939723 2.27451242,21.0095459 2.34885846,20.9270591 C2.74978519,20.4822314 3.09753411,20.0468112 3.52937763,19.4342102 C4.43676782,18.2773881 5.52659263,17.3313488 7.19325235,16.137804 C8.48061417,15.2805137 9.64936777,15.0809115 10.8558043,15.5815727 C11.4707341,15.8148189 12.2886257,15.815093 12.8599024,15.5701116 C13.1247041,15.4907666 13.3502077,15.3826204 13.9464849,15.0658778 C14.0772627,14.9964641 14.1344898,14.9662874 14.2106525,14.926813 C14.9198836,14.5592253 15.3950931,14.3868408 15.8967285,14.3868408 C16.3010986,14.3868408 16.7690582,14.6628589 17.0566029,15.0394439 C17.4251146,15.5220677 17.4634159,16.1201722 17.0378415,16.6020102 C16.6869557,16.9555739 16.3861843,17.2316967 16.1355274,17.4303785 C17.0686681,17.2880539 17.8016499,17.1387082 18.3372748,16.9681529 Z"
              id="Hand" fill="#000000" fill-rule="nonzero"></path>
        <g id="Diamond" transform="translate(3.784357, 0.841797)" fill="#000000" fill-rule="nonzero">
            <polygon id="Path"
                     points="1.21564331 5.10808894 1.21564331 4.10808894 15.2156433 4.10808894 15.2156433 5.10808894"></polygon>
            <path d="M13.4066263,1.15820312 L3.0246603,1.15820312 L1.31364956,4.58022461 L8.21564331,12.4024842 L15.1176371,4.58022461 L13.4066263,1.15820312 Z M15.8836195,5.22354903 L8.96548117,13.0641058 C8.60007763,13.4782298 7.96814569,13.5177256 7.55402167,13.152322 C7.52280888,13.1247813 7.49334615,13.0953186 7.46580546,13.0641058 L0.547667108,5.22354903 C0.286171134,4.92718693 0.223761229,4.50461218 0.388422548,4.14531107 L1.94828893,0.741586799 C2.1111958,0.386114012 2.46634763,0.158203125 2.85737135,0.158203125 L13.5739153,0.158203125 C13.964939,0.158203125 14.3200908,0.386114012 14.4829977,0.741586799 L16.0428641,4.14531107 C16.2075254,4.50461218 16.1451155,4.92718693 15.8836195,5.22354903 Z"
                  id="Path-2"></path>
            <polygon id="Path"
                     points="13.364184 0.802567966 14.0671026 1.51383828 10.6415769 4.89914148 8.21749289 1.94816623 5.81632525 4.89931126 2.36555406 1.51518704 3.06573256 0.801219211 5.73312543 3.41709499 8.21379373 0.368240016 10.7184207 3.41726477"></polygon>
            <path d="M5.08904045,4.17430992 L11.4660242,4.17430992 L8.71564331,13.1582031 L7.71564331,13.1582031 L5.08904045,4.17430992 Z M8.22645899,10.5732703 L10.0682898,5.17430992 L6.46675127,5.17430992 L8.22645899,10.5732703 Z"
                  id="Path-3"></path>
        </g>
    </g>
</svg>