<?xml version="1.0" encoding="UTF-8"?>
<svg width="24px" height="24px" viewBox="0 0 24 24" version="1.1" xmlns="http://www.w3.org/2000/svg" xmlns:xlink="http://www.w3.org/1999/xlink">
    <!-- Generator: Sketch 52.2 (67145) - http://www.bohemiancoding.com/sketch -->
    <title>Asset</title>
    <desc>Asset</desc>
    <g id="Asset" stroke="none" stroke-width="1" fill="none" fill-rule="evenodd">
        <g transform="translate(-1.000000, 0.000000)" fill="#000000" fill-rule="nonzero">
            <path d="M5.33171748,20.0305109 C4.8921701,20.6552366 4.51934598,21.1220537 4.0916693,21.5965604 C4.01326221,21.683553 3.93189748,21.7721114 3.84260009,21.8678476 C3.71553212,22.0040778 3.25526225,22.4886651 3.17610788,22.5728012 C3.16074403,22.589132 3.14548828,22.605371 3.13033137,22.6215287 L7.38413302,22.6190547 C8.37302453,21.1038959 9.83362003,20.3380932 11.6784792,20.3380932 C14.0126391,20.3380932 15.3581217,20.2117027 16.7559558,19.890725 C17.3816915,19.7470404 20.2138834,18.9457741 21.1621602,18.7030648 C23.8358532,18.1230168 23.995556,18.0277055 23.8928889,17.5945752 C23.8424135,17.4143949 23.5614539,17.3248206 22.9642808,17.3678933 C22.790536,17.3804251 22.6108476,17.4025091 22.3679589,17.4387373 C22.2421159,17.4577685 22.2421159,17.4577685 22.1214042,17.4761816 C22.0259516,17.4905904 21.9565205,17.5004858 21.9215142,17.5039968 L19.5841878,17.934951 C19.0434511,18.1117118 18.2610827,18.270735 17.2693584,18.4215269 C16.5869857,18.5252819 15.9929014,18.6004489 15.036808,18.7118923 C14.6406056,18.7580741 14.5303956,18.77133 14.4410746,18.7843146 C13.5225145,18.4215269 15.3374922,17.4638545 16.104917,16.9462443 C16.3289318,16.7951515 16.7145613,16.4797367 17.2618054,16 C17.3403888,15.9110274 17.3622254,15.7778343 17.2618054,15.6463186 C17.1498199,15.499656 16.9585537,15.3868408 16.8967285,15.3868408 C16.6042977,15.3868408 16.2441988,15.5174684 15.6708101,15.8146503 C15.5984138,15.8521726 15.5443,15.8807076 15.4156059,15.9490117 C14.7546352,16.3001195 14.4999794,16.4222464 14.2031222,16.5074588 C13.4401735,16.839851 12.3524859,16.8394865 11.4869138,16.5109193 C10.6043937,16.1448667 9.77986245,16.2844925 8.76842896,16.9558803 C7.17648344,18.0963798 6.15113314,18.9869407 5.33171748,20.0305109 Z M19.3372748,16.9681529 L21.7676663,16.5163464 C21.8219579,16.5095296 21.8842232,16.5006555 21.972143,16.4873838 C22.0901997,16.4693733 22.0901997,16.4693733 22.2204353,16.4496788 C22.4862809,16.4100264 22.6882332,16.3852061 22.89234,16.3704844 C23.9152673,16.296703 24.631798,16.5251442 24.8607714,17.3439498 C25.1687365,18.6381301 24.5922452,18.9821826 21.3923168,19.6760398 C20.4843285,19.908781 17.6349211,20.7149177 16.9797565,20.8653599 C15.5013302,21.2048436 14.0828298,21.3380932 11.6784792,21.3380932 C10.0870916,21.3380932 8.90013058,22.0024887 8.09321756,23.3726251 L7.94828111,23.6187268 L0.895522278,23.6228285 L1.6241678,22.7924132 C1.90122415,22.4766605 2.15608906,22.1976215 2.44776726,21.887586 C2.52980897,21.8003808 2.98800685,21.317975 3.11132996,21.1857596 C3.19694401,21.0939723 3.27451242,21.0095459 3.34885846,20.9270591 C3.74978519,20.4822314 4.09753411,20.0468112 4.52937763,19.4342102 C5.43676782,18.2773881 6.52659263,17.3313488 8.19325235,16.137804 C9.48061417,15.2805137 10.6493678,15.0809115 11.8558043,15.5815727 C12.4707341,15.8148189 13.2886257,15.815093 13.8599024,15.5701116 C14.1247041,15.4907666 14.3502077,15.3826204 14.9464849,15.0658778 C15.0772627,14.9964641 15.1344898,14.9662874 15.2106525,14.926813 C15.9198836,14.5592253 16.3950931,14.3868408 16.8967285,14.3868408 C17.3010986,14.3868408 17.7690582,14.6628589 18.0566029,15.0394439 C18.4251146,15.5220677 18.4634159,16.1201722 18.0378415,16.6020102 C17.6869557,16.9555739 17.3861843,17.2316967 17.1355274,17.4303785 C18.0686681,17.2880539 18.8016499,17.1387082 19.3372748,16.9681529 Z" id="Hand"></path>
            <g id="Diamond" transform="translate(4.784357, 0.841797)">
                <polygon id="Path" points="1.21564331 5.10808894 1.21564331 4.10808894 15.2156433 4.10808894 15.2156433 5.10808894"></polygon>
                <path d="M13.4066263,1.15820312 L3.0246603,1.15820312 L1.31364956,4.58022461 L8.21564331,12.4024842 L15.1176371,4.58022461 L13.4066263,1.15820312 Z M15.8836195,5.22354903 L8.96548117,13.0641058 C8.60007763,13.4782298 7.96814569,13.5177256 7.55402167,13.152322 C7.52280888,13.1247813 7.49334615,13.0953186 7.46580546,13.0641058 L0.547667108,5.22354903 C0.286171134,4.92718693 0.223761229,4.50461218 0.388422548,4.14531107 L1.94828893,0.741586799 C2.1111958,0.386114012 2.46634763,0.158203125 2.85737135,0.158203125 L13.5739153,0.158203125 C13.964939,0.158203125 14.3200908,0.386114012 14.4829977,0.741586799 L16.0428641,4.14531107 C16.2075254,4.50461218 16.1451155,4.92718693 15.8836195,5.22354903 Z" id="Path-2"></path>
                <polygon id="Path" points="13.364184 0.802567966 14.0671026 1.51383828 10.6415769 4.89914148 8.21749289 1.94816623 5.81632525 4.89931126 2.36555406 1.51518704 3.06573256 0.801219211 5.73312543 3.41709499 8.21379373 0.368240016 10.7184207 3.41726477"></polygon>
                <path d="M5.08904045,4.17430992 L11.4660242,4.17430992 L8.71564331,13.1582031 L7.71564331,13.1582031 L5.08904045,4.17430992 Z M8.22645899,10.5732703 L10.0682898,5.17430992 L6.46675127,5.17430992 L8.22645899,10.5732703 Z" id="Path-3"></path>
            </g>
        </g>
    </g>
</svg>