<?xml version="1.0" encoding="UTF-8"?>
<svg width="24px" height="24px" viewBox="0 0 24 24" version="1.1" xmlns="http://www.w3.org/2000/svg" xmlns:xlink="http://www.w3.org/1999/xlink">
    <!-- Generator: Sketch 51.3 (57544) - http://www.bohemiancoding.com/sketch -->
    <title>Asset</title>
    <desc>Created with Sketch.</desc>
    <defs></defs>
    <g id="Asset" stroke="none" stroke-width="1" fill="none" fill-rule="evenodd">
        <path d="M7.48436764,16.5443159 C8.5775623,15.8166246 9.58295241,15.5946685 10.6784792,16.0490723 C11.4105819,16.3267627 12.363506,16.3278614 13.003418,16.0490723 C13.9155187,15.7757708 14.9868194,14.8868408 15.8967285,14.8868408 C16.352231,14.8868408 17.219042,15.6415574 16.6630859,16.2710144 C16.7519919,16.4521167 14.2667206,18.3146973 13.3568115,18.3146973 C12.6485596,18.3146973 16.7567139,18.0062958 18.428833,17.4596985 L20.8299561,17.0124512 C21.5642504,16.9202548 23.1179199,16.5443159 23.3743536,17.4596985 C23.569458,18.2795973 23.3743536,18.5178223 20.2681674,19.1916981 C15.9775483,20.2914959 15.4321592,20.8380932 10.6784792,20.8380932 C8.94098926,20.8380932 7.57445378,21.5701959 6.66238112,23.118893 L1,23.1221861 C2.28089197,21.6623922 2.82858514,21.2979846 3.92279134,19.7427968 C4.92581557,18.4640518 6.20451559,17.4608562 7.48436764,16.5443159 Z" id="Hand" stroke="#106ba3"></path>
        <g id="Diamond" transform="translate(4.784357, 0.841797)" fill-rule="nonzero" stroke="#000000">
            <path d="M0.561278494,4.60808894 L13.7884953,4.60808894" id="Path"></path>
            <polygon id="Path-2" points="12.2156433 0.791259766 14.2156433 4.91357422 7.21564331 13.1582031 0.215643311 4.91357422 2.21564331 0.791259766"></polygon>
            <polyline id="Path" points="12.2156433 1.15820312 9.67999878 4.15820312 7.21564331 1.15820312 4.77472534 4.15820312 2.21564331 1.15820312"></polyline>
            <polygon id="Path-3" points="4.77789586 4.67430992 7.21564331 12.1535645 9.76715698 4.67430992"></polygon>
        </g>
    </g>
</svg>