<?xml version="1.0" encoding="UTF-8"?>
<svg width="24px" height="24px" viewBox="0 0 24 24" version="1.1" xmlns="http://www.w3.org/2000/svg" xmlns:xlink="http://www.w3.org/1999/xlink">
    <!-- Generator: Sketch 52.2 (67145) - http://www.bohemiancoding.com/sketch -->
    <title>Associate</title>
    <desc>Associate</desc>
    <g id="Associate" stroke="none" stroke-width="1" fill="none" fill-rule="evenodd">
        <g transform="translate(0.000000, 3.000000)" fill="#000000" fill-rule="nonzero">
            <path d="M16.5,8 C18.4329966,8 20,6.43299662 20,4.5 C20,2.56700338 18.4329966,1 16.5,1 C14.5670034,1 13,2.56700338 13,4.5 C13,6.43299662 14.5670034,8 16.5,8 Z M16.5,9 C14.0147186,9 12,6.98528137 12,4.5 C12,2.01471863 14.0147186,0 16.5,0 C18.9852814,0 21,2.01471863 21,4.5 C21,6.98528137 18.9852814,9 16.5,9 Z" id="Oval-12"></path>
            <path d="M6.5,7 C7.88071187,7 9,5.88071187 9,4.5 C9,3.11928813 7.88071187,2 6.5,2 C5.11928813,2 4,3.11928813 4,4.5 C4,5.88071187 5.11928813,7 6.5,7 Z M6.5,8 C4.56700338,8 3,6.43299662 3,4.5 C3,2.56700338 4.56700338,1 6.5,1 C8.43299662,1 10,2.56700338 10,4.5 C10,6.43299662 8.43299662,8 6.5,8 Z" id="Oval-12-Copy"></path>
            <path d="M14,10 C11.790861,10 10,11.790861 10,14 L10,20 L23,20 L23,14 C23,11.790861 21.209139,10 19,10 L14,10 Z M14,9 L19,9 C21.7614237,9 24,11.2385763 24,14 L24,20 C24,20.5522847 23.5522847,21 23,21 L10,21 C9.44771525,21 9,20.5522847 9,20 L9,14 C9,11.2385763 11.2385763,9 14,9 Z" id="Rectangle-10"></path>
            <path d="M8,20.5 L8,20.5 C8,20.7761424 7.77614237,21 7.5,21 L1.5,21 C0.671572875,21 1.687539e-14,20.3284271 1.687539e-14,19.5 L1.687539e-14,12.5 C1.687539e-14,10.0147186 2.01471863,8 4.5,8 L8.5,8 C9.02171416,8 9.69128884,8.23398788 10.508724,8.70196365 L10.5087236,8.7019645 C10.7880696,8.86188809 10.8939512,9.21209757 10.75,9.5 L10.75,9.5 C10.6447624,9.71047524 10.3888265,9.79578718 10.1783513,9.69054956 C10.1514147,9.67708127 10.125982,9.66079508 10.1024795,9.64196406 C9.56831279,9.21399229 9.0341564,9 8.5,9 L4.5,9 C2.56700338,9 1,10.5670034 1,12.5 L1,19.5 C1,19.7761424 1.22385763,20 1.5,20 L7.5,20 C7.77614237,20 8,20.2238576 8,20.5 Z" id="Line-40"></path>
            <path d="M4,21 L3,21 L3,13 C3,12.4477153 3.44771525,12 4,12 L4,21 Z" id="Line-41"></path>
            <path d="M13,21 L12,21 L12,14 C12,13.4477153 12.4477153,13 13,13 L13,21 Z" id="Line-42"></path>
            <path d="M21,21 L20,21 L20,13 L20,13 C20.5522847,13 21,13.4477153 21,14 L21,21 Z" id="Line-43"></path>
        </g>
    </g>
</svg>