<?xml version="1.0" encoding="UTF-8"?>
<svg width="24px" height="24px" viewBox="0 0 24 24" version="1.1" xmlns="http://www.w3.org/2000/svg" xmlns:xlink="http://www.w3.org/1999/xlink">
    <!-- Generator: Sketch 51.3 (57544) - http://www.bohemiancoding.com/sketch -->
    <title>Associate</title>
    <desc>Created with Sketch.</desc>
    <defs></defs>
    <g id="Associate" stroke="none" stroke-width="1" fill="none" fill-rule="evenodd">
        <path d="M11.9978629,7.3246984 C11.9978629,4.93609888 13.9338826,3 16.3225613,3 C18.71124,3 20.6472597,4.93601971 20.6472597,7.3246984 C20.6472597,9.71329791 18.71124,11.6493968 16.3225613,11.6493968 C13.9338826,11.6493968 11.9978629,9.71337709 11.9978629,7.3246984 Z M14.5595348,12.2658913 C11.7359583,12.2658913 9,14.5544952 9,17.3791537 L9,23.8521085 L11.9009022,23.8520821 L11.9009022,18.0183445 C11.9009022,17.0637281 12.7905703,17.0163034 12.7905703,17.0163034 L12.7905703,23.8521085 L19.8554495,23.8521085 C19.8564814,22.194435 19.8564814,17.0163034 19.8564814,17.0163034 C19.8564814,17.0163034 20.7461495,17.0833129 20.7461495,18.0183445 L20.7461495,23.8520821 L23.6459961,23.8521085 L23.6459961,17.3791537 C23.6459961,14.5545216 20.9089795,12.2658913 18.0854057,12.2658913 L14.5595348,12.2658913 Z" id="Fill-1" stroke="#106ba3"></path>
        <path d="M3.06130042,7.0383317 C3.06130042,5.15341253 4.62725282,3.62557587 6.5593391,3.62557587 C8.49142538,3.62557587 10.0573778,5.15335005 10.0573778,7.0383317 C10.0573778,8.92325087 8.49142538,10.4510875 6.5593391,10.4510875 C4.62725282,10.4510875 3.06130042,8.92331335 3.06130042,7.0383317 Z M11.5192851,12.5453167 C9.88391762,13.4355869 8.67944336,15.0737693 8.67944336,16.9479437 L8.67944336,23.4208984 L12.4829102,23.4208984 L12.4829102,23.5071026 L3.70248299,23.5071026 L3.70248299,14.6862827 C3.70248299,14.6862827 2.98287365,14.723707 2.98287365,15.4770249 L2.98287365,23.5070817 L0.636474609,23.5071026 L0.636474609,14.9726193 C0.636474609,12.7435923 2.8494585,10.9375828 5.13331252,10.9375828 L7.98521839,10.9375828 C9.33534116,10.9375828 10.6609968,11.5687373 11.5192851,12.5453167 Z" id="Combined-Shape" stroke="#106ba3"></path>
    </g>
</svg>