<?xml version="1.0" encoding="UTF-8"?>
<svg width="24px" height="24px" viewBox="0 0 24 24" version="1.1" xmlns="http://www.w3.org/2000/svg">
    <!-- Generator: Sketch 51.3 (57544) - http://www.bohemiancoding.com/sketch -->
    <title>Associate</title>
    <desc>Created with Sketch.</desc>
    <defs></defs>
    <g id="Associate" stroke="none" stroke-width="1" fill="none" fill-rule="evenodd">
        <path d="M16.5,11 C18.4329966,11 20,9.43299662 20,7.5 C20,5.56700338 18.4329966,4 16.5,4 C14.5670034,4 13,5.56700338 13,7.5 C13,9.43299662 14.5670034,11 16.5,11 Z M16.5,12 C14.0147186,12 12,9.98528137 12,7.5 C12,5.01471863 14.0147186,3 16.5,3 C18.9852814,3 21,5.01471863 21,7.5 C21,9.98528137 18.9852814,12 16.5,12 Z"
              id="Oval-12" fill="#000000" fill-rule="nonzero"></path>
        <path d="M6.5,10 C7.88071187,10 9,8.88071187 9,7.5 C9,6.11928813 7.88071187,5 6.5,5 C5.11928813,5 4,6.11928813 4,7.5 C4,8.88071187 5.11928813,10 6.5,10 Z M6.5,11 C4.56700338,11 3,9.43299662 3,7.5 C3,5.56700338 4.56700338,4 6.5,4 C8.43299662,4 10,5.56700338 10,7.5 C10,9.43299662 8.43299662,11 6.5,11 Z"
              id="Oval-12-Copy" fill="#000000" fill-rule="nonzero"></path>
        <path d="M14,13 C11.790861,13 10,14.790861 10,17 L10,23 L23,23 L23,17 C23,14.790861 21.209139,13 19,13 L14,13 Z M14,12 L19,12 C21.7614237,12 24,14.2385763 24,17 L24,23 C24,23.5522847 23.5522847,24 23,24 L10,24 C9.44771525,24 9,23.5522847 9,23 L9,17 C9,14.2385763 11.2385763,12 14,12 Z"
              id="Rectangle-10" fill="#000000" fill-rule="nonzero"></path>
        <path d="M8,23.5 L8,23.5 C8,23.7761424 7.77614237,24 7.5,24 L1.5,24 C0.671572875,24 0,23.3284271 0,22.5 L0,15.5 C0,13.0147186 2.01471863,11 4.5,11 L8.5,11 C9.02171416,11 9.69128884,11.2339879 10.508724,11.7019637 L10.5087236,11.7019645 C10.7880696,11.8618881 10.8939512,12.2120976 10.75,12.5 L10.75,12.5 C10.6447624,12.7104752 10.3888265,12.7957872 10.1783513,12.6905496 C10.1514147,12.6770813 10.125982,12.6607951 10.1024795,12.6419641 C9.56831279,12.2139923 9.0341564,12 8.5,12 L4.5,12 C2.56700338,12 1,13.5670034 1,15.5 L1,22.5 C1,22.7761424 1.22385763,23 1.5,23 L7.5,23 C7.77614237,23 8,23.2238576 8,23.5 Z"
              id="Line-40" fill="#000000" fill-rule="nonzero"></path>
        <path d="M4,24 L3,24 L3,16 C3,15.4477153 3.44771525,15 4,15 L4,24 Z" id="Line-41" fill="#000000"
              fill-rule="nonzero"></path>
    </g>
</svg>