<?xml version="1.0" encoding="UTF-8"?>
<svg width="24px" height="24px" viewBox="0 0 24 24" version="1.1" xmlns="http://www.w3.org/2000/svg">
    <!-- Generator: Sketch 51.3 (57544) - http://www.bohemiancoding.com/sketch -->
    <title>Audio</title>
    <desc>Created with Sketch.</desc>
    <defs></defs>
    <g id="Audio" stroke="none" stroke-width="1" fill="none" fill-rule="evenodd">
        <path d="M5,14 L5,10 L3,10 C2.44771525,10 2,10.4477153 2,11 L2,13 C2,13.5522847 2.44771525,14 3,14 L5,14 Z M3,9 L6,9 L6,15 L3,15 C1.8954305,15 1,14.1045695 1,13 L1,11 C1,9.8954305 1.8954305,9 3,9 Z"
              id="Rectangle-Copy-7" fill="#000000" fill-rule="nonzero"></path>
        <path d="M12,6.44300047 L6,8.69300047 L6,15.3069995 L12,17.5569995 L12,6.44300047 Z M5.64887656,7.75667129 L11.6488766,5.50667129 C12.1659969,5.31275117 12.7424091,5.5747567 12.9363292,6.09187703 C12.9784331,6.20415408 13,6.32308852 13,6.44300047 L13,17.5569995 C13,18.1092843 12.5522847,18.5569995 12,18.5569995 C11.880088,18.5569995 11.7611536,18.5354326 11.6488766,18.4933287 L5.64887656,16.2433287 C5.25857283,16.0969648 5,15.7238441 5,15.3069995 L5,8.69300047 C5,8.27615591 5.25857283,7.90303519 5.64887656,7.75667129 Z"
              id="Rectangle-Copy-7" fill="#000000" fill-rule="nonzero"></path>
        <path d="M15.8904344,14.8123475 L15.8904344,14.8123475 C15.7179296,15.0279785 15.4032834,15.0629392 15.1876525,14.8904344 L15.1876525,14.8904344 C14.9720215,14.7179296 14.9370608,14.4032834 15.1095656,14.1876525 C16.1327483,12.9086741 16.1327483,11.0913259 15.1095656,9.81234752 L15.1095656,9.81234752 C14.9370608,9.59671656 14.9720215,9.28207037 15.1876525,9.1095656 L15.1876525,9.1095656 C15.4032834,8.93706082 15.7179296,8.97202151 15.8904344,9.18765248 C17.2057921,10.8318495 17.2057921,13.1681505 15.8904344,14.8123475 Z"
              id="Line-37" fill="#000000" fill-rule="nonzero"></path>
        <path d="M18.2519305,15.9341216 L18.2519305,15.9341216 C18.0121718,15.7971166 17.9288734,15.4916893 18.0658784,15.2519305 L18.3648306,14.7287642 C19.3310476,13.0378845 19.3310476,10.9621155 18.3648306,9.27123584 L18.0658784,8.74806947 C17.9288734,8.50831075 18.0121718,8.20288341 18.2519305,8.06587843 L18.2519305,8.06587843 C18.4916893,7.92887344 18.7971166,8.01217181 18.9341216,8.25193053 L19.2330738,8.7750969 C20.3749666,10.7734092 20.3749666,13.2265908 19.2330738,15.2249031 L18.9341216,15.7480695 C18.7971166,15.9878282 18.4916893,16.0711266 18.2519305,15.9341216 Z"
              id="Line-37-Copy" fill="#000000" fill-rule="nonzero"></path>
        <path d="M21.2969308,16.9569058 L21.2969308,16.9569058 C21.0445887,16.8447537 20.9309422,16.5492729 21.0430942,16.2969308 L21.5990463,15.0460385 C22.4609309,13.1067983 22.4609309,10.8932017 21.5990463,8.9539615 L21.0430942,7.70306923 C20.9309422,7.45072714 21.0445887,7.15524627 21.2969308,7.04309423 L21.2969308,7.04309423 C21.5492729,6.93094219 21.8447537,7.04458868 21.9569058,7.29693077 L22.5128579,8.54782304 C23.4896603,10.7456285 23.4896603,13.2543715 22.5128579,15.452177 L21.9569058,16.7030692 C21.8447537,16.9554113 21.5492729,17.0690578 21.2969308,16.9569058 Z"
              id="Line-37-Copy-2" fill="#000000" fill-rule="nonzero"></path>
    </g>
</svg>