<?xml version="1.0" encoding="UTF-8"?>
<svg width="24px" height="24px" viewBox="0 0 24 24" version="1.1" xmlns="http://www.w3.org/2000/svg" xmlns:xlink="http://www.w3.org/1999/xlink">
    <!-- Generator: Sketch 52.2 (67145) - http://www.bohemiancoding.com/sketch -->
    <title>Audio</title>
    <desc>Audio</desc>
    <g id="Audio" stroke="none" stroke-width="1" fill="none" fill-rule="evenodd">
        <g transform="translate(1.000000, 5.000000)" fill="#000000" fill-rule="nonzero">
            <path d="M4,9 L4,5 L2,5 C1.44771525,5 1,5.44771525 1,6 L1,8 C1,8.55228475 1.44771525,9 2,9 L4,9 Z M2,4 L5,4 L5,10 L2,10 C0.8954305,10 2.22044605e-16,9.1045695 0,8 L0,6 C-1.11022302e-16,4.8954305 0.8954305,4 2,4 Z" id="Rectangle-Copy-7"></path>
            <path d="M11,1.44300047 L5,3.69300047 L5,10.3069995 L11,12.5569995 L11,1.44300047 Z M4.64887656,2.75667129 L10.6488766,0.506671291 C11.1659969,0.312751168 11.7424091,0.574756701 11.9363292,1.09187703 C11.9784331,1.20415408 12,1.32308852 12,1.44300047 L12,12.5569995 C12,13.1092843 11.5522847,13.5569995 11,13.5569995 C10.880088,13.5569995 10.7611536,13.5354326 10.6488766,13.4933287 L4.64887656,11.2433287 C4.25857283,11.0969648 4,10.7238441 4,10.3069995 L4,3.69300047 C4,3.27615591 4.25857283,2.90303519 4.64887656,2.75667129 Z" id="Rectangle-Copy-7"></path>
            <path d="M14.8904344,9.81234752 L14.8904344,9.81234752 C14.7179296,10.0279785 14.4032834,10.0629392 14.1876525,9.8904344 L14.1876525,9.8904344 C13.9720215,9.71792963 13.9370608,9.40328344 14.1095656,9.18765248 C15.1327483,7.90867405 15.1327483,6.09132595 14.1095656,4.81234752 L14.1095656,4.81234752 C13.9370608,4.59671656 13.9720215,4.28207037 14.1876525,4.1095656 L14.1876525,4.1095656 C14.4032834,3.93706082 14.7179296,3.97202151 14.8904344,4.18765248 C16.2057921,5.83184955 16.2057921,8.16815045 14.8904344,9.81234752 Z" id="Line-37"></path>
            <path d="M17.2519305,10.9341216 L17.2519305,10.9341216 C17.0121718,10.7971166 16.9288734,10.4916893 17.0658784,10.2519305 L17.3648306,9.72876416 C18.3310476,8.03788448 18.3310476,5.96211552 17.3648306,4.27123584 L17.0658784,3.74806947 C16.9288734,3.50831075 17.0121718,3.20288341 17.2519305,3.06587843 L17.2519305,3.06587843 C17.4916893,2.92887344 17.7971166,3.01217181 17.9341216,3.25193053 L18.2330738,3.7750969 C19.3749666,5.77340925 19.3749666,8.22659075 18.2330738,10.2249031 L17.9341216,10.7480695 C17.7971166,10.9878282 17.4916893,11.0711266 17.2519305,10.9341216 Z" id="Line-37-Copy"></path>
            <path d="M20.2969308,11.9569058 L20.2969308,11.9569058 C20.0445887,11.8447537 19.9309422,11.5492729 20.0430942,11.2969308 L20.5990463,10.0460385 C21.4609309,8.10679834 21.4609309,5.89320166 20.5990463,3.9539615 L20.0430942,2.70306923 C19.9309422,2.45072714 20.0445887,2.15524627 20.2969308,2.04309423 L20.2969308,2.04309423 C20.5492729,1.93094219 20.8447537,2.04458868 20.9569058,2.29693077 L21.5128579,3.54782304 C22.4896603,5.74562855 22.4896603,8.25437145 21.5128579,10.452177 L20.9569058,11.7030692 C20.8447537,11.9554113 20.5492729,12.0690578 20.2969308,11.9569058 Z" id="Line-37-Copy-2"></path>
        </g>
    </g>
</svg>