<?xml version="1.0" encoding="UTF-8"?>
<svg width="24px" height="24px" viewBox="0 0 24 24" version="1.1" xmlns="http://www.w3.org/2000/svg" xmlns:xlink="http://www.w3.org/1999/xlink">
    <!-- Generator: Sketch 52.2 (67145) - http://www.bohemiancoding.com/sketch -->
    <title>BankAccount</title>
    <desc>BankAccount</desc>
    <g id="BankAccount" stroke="none" stroke-width="1" fill="none" fill-rule="evenodd">
        <g fill="#000000">
            <g id="Group" transform="translate(9.500000, 15.000000)">
                <path d="M0.586317109,5.73867596 L0.586317109,4.79355401 C1.22511241,5.06068659 1.77098383,5.19425087 2.22394777,5.19425087 C2.7524057,5.19425087 3.0166307,5.01422944 3.0166307,4.65418118 C3.0166307,4.42189199 2.79886284,4.21864199 2.36332059,4.04442509 L1.92778052,3.87020906 C1.45449128,3.67857047 1.11622521,3.4724169 0.912972161,3.25174216 C0.709719112,3.03106742 0.608094112,2.75813171 0.608094112,2.43292683 C0.608094112,1.97996289 0.780856612,1.62790486 1.1263868,1.37674216 C1.47191698,1.12557946 1.95536162,1 2.57673523,1 C2.96581964,1 3.42893928,1.05661964 3.96610805,1.16986063 L3.96610805,2.07578397 C3.44926458,1.89575984 3.0209878,1.80574913 2.68126484,1.80574913 C2.14699969,1.80574913 1.87987112,1.9712527 1.87987112,2.30226481 C1.87987112,2.52003593 2.07731397,2.70441272 2.47220561,2.8554007 L2.84677007,2.99912892 C3.40716776,3.21109281 3.79697223,3.4259571 4.01619516,3.64372822 C4.23541809,3.86149935 4.34502791,4.14169399 4.34502791,4.48432056 C4.34502791,4.93438088 4.15847345,5.29950499 3.78535892,5.57970383 C3.4122444,5.85990268 2.92662207,6 2.32847739,6 C1.75356162,6 1.17284734,5.91289286 0.586317109,5.73867596 Z" id="s"></path>
                <path d="M2.5,0 L2.5,0 C2.77614237,-5.07265313e-17 3,0.223857625 3,0.5 L3,1 C3,1.27614237 2.77614237,1.5 2.5,1.5 L2.5,1.5 C2.22385763,1.5 2,1.27614237 2,1 L2,0.5 C2,0.223857625 2.22385763,5.07265313e-17 2.5,0 Z" id="Line-46" fill-rule="nonzero"></path>
                <path d="M2.5,5.5 L2.5,5.5 C2.77614237,5.5 3,5.72385763 3,6 L3,6.5 C3,6.77614237 2.77614237,7 2.5,7 L2.5,7 C2.22385763,7 2,6.77614237 2,6.5 L2,6 C2,5.72385763 2.22385763,5.5 2.5,5.5 Z" id="Line" fill-rule="nonzero"></path>
            </g>
            <path d="M23,23 L24,23 L24,24 L0,24 L0,23 L1,23 L1,12 L0,12 L0,9 L3,9 L3,6 L8,6 C8,4.14239097 9.26626446,2.58053386 10.982714,2.13050808 L12,-2.06501483e-14 L13.017286,2.13050808 C14.7337355,2.58053386 16,4.14239097 16,6 L21,6 L21,9 L24,9 L24,12 L23,12 L23,23 Z M22,23 L22,12 L18.6583758,12 L20.7071068,14 L19,14 L19,23 L22,23 Z M18,23 L18,14 L17,14 L17,23 L18,23 Z M16,23 L16,14 L8,14 L8,23 L16,23 Z M7,23 L7,14 L6,14 L6,23 L7,23 Z M5,23 L5,14 L3.29289322,14 L5.34162423,12 L2,12 L2,23 L5,23 Z M9,6 L11.4878172,6 L12,5.5 L12.5121828,6 L15,6 C15,4.34314575 13.6568542,3 12,3 C10.3431458,3 9,4.34314575 9,6 Z M15,7 L13.5365483,7 L15.5852793,9 L20,9 L20,7 L16,7 L15,7 Z M8,7 L4,7 L4,9 L8.41472074,9 L10.4634517,7 L9,7 L8,7 Z M21,10 L20,10 L20,11 L21,11 L21,10 Z M3,10 L3,11 L4,11 L4,10 L3,10 Z M22,11 L23,11 L23,10 L22,10 L22,11 Z M2,11 L2,10 L1,10 L1,11 L2,11 Z M19,11 L19,10 L16.6096448,10 L17.6340103,11 L19,11 Z M5,11 L6.36598973,11 L7.39035523,10 L5,10 L5,11 Z M16.669451,13 L18.2928932,13 L12,7 L5.70710678,13 L7.330549,13 L12,8.5 L16.669451,13 Z M8.70710678,13 L15.2928932,13 L12,10 L8.70710678,13 Z M3,15 L4,15 L4,18 L3,18 L3,15 Z M20,15 L21,15 L21,18 L20,18 L20,15 Z" id="Combined-Shape" fill-rule="nonzero"></path>
        </g>
    </g>
</svg>