<?xml version="1.0" encoding="UTF-8"?>
<svg width="24px" height="24px" viewBox="0 0 24 24" version="1.1" xmlns="http://www.w3.org/2000/svg">
    <!-- Generator: Sketch 51.3 (57544) - http://www.bohemiancoding.com/sketch -->
    <title>BankAccount</title>
    <desc>Created with Sketch.</desc>
    <defs></defs>
    <g id="BankAccount" stroke="none" stroke-width="1" fill="none" fill-rule="evenodd">
        <g id="Group" transform="translate(9.500000, 15.000000)" fill="#000000">
            <path d="M0.586317109,5.73867596 L0.586317109,4.79355401 C1.22511241,5.06068659 1.77098383,5.19425087 2.22394777,5.19425087 C2.7524057,5.19425087 3.0166307,5.01422944 3.0166307,4.65418118 C3.0166307,4.42189199 2.79886284,4.21864199 2.36332059,4.04442509 L1.92778052,3.87020906 C1.45449128,3.67857047 1.11622521,3.4724169 0.912972161,3.25174216 C0.709719112,3.03106742 0.608094112,2.75813171 0.608094112,2.43292683 C0.608094112,1.97996289 0.780856612,1.62790486 1.1263868,1.37674216 C1.47191698,1.12557946 1.95536162,1 2.57673523,1 C2.96581964,1 3.42893928,1.05661964 3.96610805,1.16986063 L3.96610805,2.07578397 C3.44926458,1.89575984 3.0209878,1.80574913 2.68126484,1.80574913 C2.14699969,1.80574913 1.87987112,1.9712527 1.87987112,2.30226481 C1.87987112,2.52003593 2.07731397,2.70441272 2.47220561,2.8554007 L2.84677007,2.99912892 C3.40716776,3.21109281 3.79697223,3.4259571 4.01619516,3.64372822 C4.23541809,3.86149935 4.34502791,4.14169399 4.34502791,4.48432056 C4.34502791,4.93438088 4.15847345,5.29950499 3.78535892,5.57970383 C3.4122444,5.85990268 2.92662207,6 2.32847739,6 C1.75356162,6 1.17284734,5.91289286 0.586317109,5.73867596 Z"
                  id="s"></path>
            <path d="M2.5,0 L2.5,0 C2.77614237,-5.07265313e-17 3,0.223857625 3,0.5 L3,1 C3,1.27614237 2.77614237,1.5 2.5,1.5 L2.5,1.5 C2.22385763,1.5 2,1.27614237 2,1 L2,0.5 C2,0.223857625 2.22385763,5.07265313e-17 2.5,0 Z"
                  id="Line-46" fill-rule="nonzero"></path>
            <path d="M2.5,5.5 L2.5,5.5 C2.77614237,5.5 3,5.72385763 3,6 L3,6.5 C3,6.77614237 2.77614237,7 2.5,7 L2.5,7 C2.22385763,7 2,6.77614237 2,6.5 L2,6 C2,5.72385763 2.22385763,5.5 2.5,5.5 Z"
                  id="Line" fill-rule="nonzero"></path>
        </g>
        <polygon id="Line-45" fill="#000000" fill-rule="nonzero" points="8 24 7 24 7 14 8 14"></polygon>
        <polygon id="Line-45-Copy-2" fill="#000000" fill-rule="nonzero" points="6 24 5 24 5 14 6 14"></polygon>
        <polygon id="Line-45-Copy" fill="#000000" fill-rule="nonzero" points="17 24 16 24 16 14 17 14"></polygon>
        <polygon id="Line-45-Copy-3" fill="#000000" fill-rule="nonzero" points="19 24 18 24 18 14 19 14"></polygon>
        <path d="M3.29289322,14 L12,5.5 L20.7071068,14 L3.29289322,14 Z M5.70710678,13 L18.2928932,13 L12,7 L5.70710678,13 Z"
              id="Line-47" fill="#000000" fill-rule="nonzero"></path>
        <path d="M6.29289322,14 L12,8.5 L17.7071068,14 L6.29289322,14 Z M8.70710678,13 L15.2928932,13 L12,10 L8.70710678,13 Z"
              id="Line-47-Copy" fill="#000000" fill-rule="nonzero"></path>
        <polygon id="Line-48" fill="#000000" fill-rule="nonzero"
                 points="1 11 7 11 6 12 0 12 0 9 9 9 8 10 1 10"></polygon>
        <polygon id="Line-2" fill="#000000" fill-rule="nonzero"
                 points="23 10 16 10 15 9 24 9 24 12 18 12 17 11 23 11"></polygon>
        <polygon id="Line-49" fill="#000000" fill-rule="nonzero" points="2 9 3 9 3 12 2 12"></polygon>
        <polygon id="Line-49-Copy" fill="#000000" fill-rule="nonzero" points="3 15 4 15 4 18 3 18"></polygon>
        <polygon id="Line-49-Copy-2" fill="#000000" fill-rule="nonzero" points="20 15 21 15 21 18 20 18"></polygon>
        <polygon id="Line-3" fill="#000000" fill-rule="nonzero" points="4 9 5 9 5 12 4 12"></polygon>
        <polygon id="Line-4" fill="#000000" fill-rule="nonzero" points="21 9 22 9 22 12 21 12"></polygon>
        <polygon id="Line-5" fill="#000000" fill-rule="nonzero" points="19 9 20 9 20 12 19 12"></polygon>
        <polygon id="Line-50" fill="#000000" fill-rule="nonzero" points="1 11 2 11 2 24 1 24"></polygon>
        <polygon id="Line-51" fill="#000000" fill-rule="nonzero" points="22 11 23 11 23 24 22 24"></polygon>
        <polygon id="Line-52" fill="#000000" fill-rule="nonzero"
                 points="4 7 4 10 3 10 3 6 21 6 21 10 20 10 20 7"></polygon>
        <path d="M9,7 L8,7 L8,6 C8,3.790861 9.790861,2 12,2 C14.209139,2 16,3.790861 16,6 L16,7 L15,7 L15,6 C15,4.34314575 13.6568542,3 12,3 C10.3431458,3 9,4.34314575 9,6 L9,7 Z"
              id="Line-53" fill="#000000" fill-rule="nonzero"></path>
        <polygon id="Line-54" fill="#000000" fill-rule="nonzero"
                 points="12 -2.0206059e-14 13.1937129 2.5 10.8062871 2.5"></polygon>
    </g>
</svg>