<?xml version="1.0" encoding="UTF-8"?>
<svg width="24px" height="24px" viewBox="0 0 24 24" version="1.1" xmlns="http://www.w3.org/2000/svg" xmlns:xlink="http://www.w3.org/1999/xlink">
    <!-- Generator: Sketch 52.2 (67145) - http://www.bohemiancoding.com/sketch -->
    <title>Company</title>
    <desc>Company</desc>
    <g id="Company" stroke="none" stroke-width="1" fill="none" fill-rule="evenodd">
        <g fill="#000000" fill-rule="nonzero">
            <path d="M1,5 L1,23 L8,23 L8,5 L1,5 Z M1,4 L9,4 L9,24 L1,24 C0.44771525,24 6.76353751e-17,23.5522847 0,23 L0,5 C-6.76353751e-17,4.44771525 0.44771525,4 1,4 Z" id="Rectangle"></path>
            <path d="M9,22 L9,23 L15,23 L15,22 L9,22 Z M8,21 L16,21 L16,24 L8,24 L8,21 Z" id="Rectangle-Copy"></path>
            <path d="M9,1 L9,21 L15,21 L15,1 L9,1 Z M9,0 L15,0 C15.5522847,-1.01453063e-16 16,0.44771525 16,1 L16,22 L8,22 L8,1 C8,0.44771525 8.44771525,1.01453063e-16 9,0 Z" id="Rectangle-Copy-3"></path>
            <path d="M11,3 L11,4 L13,4 L13,3 L11,3 Z M11,2 L13,2 C13.5522847,2 14,2.44771525 14,3 L14,4 C14,4.55228475 13.5522847,5 13,5 L11,5 C10.4477153,5 10,4.55228475 10,4 L10,3 C10,2.44771525 10.4477153,2 11,2 Z" id="Rectangle-Copy-4"></path>
            <path d="M11,7 L11,8 L13,8 L13,7 L11,7 Z M11,6 L13,6 C13.5522847,6 14,6.44771525 14,7 L14,8 C14,8.55228475 13.5522847,9 13,9 L11,9 C10.4477153,9 10,8.55228475 10,8 L10,7 C10,6.44771525 10.4477153,6 11,6 Z" id="Rectangle-Copy-5"></path>
            <path d="M11,11 L11,12 L13,12 L13,11 L11,11 Z M11,10 L13,10 C13.5522847,10 14,10.4477153 14,11 L14,12 C14,12.5522847 13.5522847,13 13,13 L11,13 C10.4477153,13 10,12.5522847 10,12 L10,11 C10,10.4477153 10.4477153,10 11,10 Z" id="Rectangle-Copy-6"></path>
            <path d="M3,8 L4,8 L4,7 L3,7 L3,8 Z M3,6 L4,6 C4.55228475,6 5,6.44771525 5,7 L5,8 C5,8.55228475 4.55228475,9 4,9 L3,9 C2.44771525,9 2,8.55228475 2,8 L2,7 C2,6.44771525 2.44771525,6 3,6 Z" id="Rectangle-Copy-20"></path>
            <path d="M7,8 L8,8 L8,7 L7,7 L7,8 Z M7,6 L8,6 C8.55228475,6 9,6.44771525 9,7 L9,8 C9,8.55228475 8.55228475,9 8,9 L7,9 C6.44771525,9 6,8.55228475 6,8 L6,7 C6,6.44771525 6.44771525,6 7,6 Z" id="Rectangle-Copy-21"></path>
            <path d="M3,12 L4,12 L4,11 L3,11 L3,12 Z M3,10 L4,10 C4.55228475,10 5,10.4477153 5,11 L5,12 C5,12.5522847 4.55228475,13 4,13 L3,13 C2.44771525,13 2,12.5522847 2,12 L2,11 C2,10.4477153 2.44771525,10 3,10 Z" id="Rectangle-Copy-22"></path>
            <path d="M7,12 L8,12 L8,11 L7,11 L7,12 Z M7,10 L8,10 C8.55228475,10 9,10.4477153 9,11 L9,12 C9,12.5522847 8.55228475,13 8,13 L7,13 C6.44771525,13 6,12.5522847 6,12 L6,11 C6,10.4477153 6.44771525,10 7,10 Z" id="Rectangle-Copy-23"></path>
            <path d="M3,16 L4,16 L4,15 L3,15 L3,16 Z M3,14 L4,14 C4.55228475,14 5,14.4477153 5,15 L5,16 C5,16.5522847 4.55228475,17 4,17 L3,17 C2.44771525,17 2,16.5522847 2,16 L2,15 C2,14.4477153 2.44771525,14 3,14 Z" id="Rectangle-Copy-24"></path>
            <path d="M7,16 L8,16 L8,15 L7,15 L7,16 Z M7,14 L8,14 C8.55228475,14 9,14.4477153 9,15 L9,16 C9,16.5522847 8.55228475,17 8,17 L7,17 C6.44771525,17 6,16.5522847 6,16 L6,15 C6,14.4477153 6.44771525,14 7,14 Z" id="Rectangle-Copy-25"></path>
            <path d="M3,20 L4,20 L4,19 L3,19 L3,20 Z M3,18 L4,18 C4.55228475,18 5,18.4477153 5,19 L5,20 C5,20.5522847 4.55228475,21 4,21 L3,21 C2.44771525,21 2,20.5522847 2,20 L2,19 C2,18.4477153 2.44771525,18 3,18 Z" id="Rectangle-Copy-26"></path>
            <path d="M7,20 L8,20 L8,19 L7,19 L7,20 Z M7,18 L8,18 C8.55228475,18 9,18.4477153 9,19 L9,20 C9,20.5522847 8.55228475,21 8,21 L7,21 C6.44771525,21 6,20.5522847 6,20 L6,19 C6,18.4477153 6.44771525,18 7,18 Z" id="Rectangle-Copy-27"></path>
            <path d="M16,20 L17,20 L17,19 L16,19 L16,20 Z M16,18 L17,18 C17.5522847,18 18,18.4477153 18,19 L18,20 C18,20.5522847 17.5522847,21 17,21 L16,21 C15.4477153,21 15,20.5522847 15,20 L15,19 C15,18.4477153 15.4477153,18 16,18 Z" id="Rectangle-Copy-28"></path>
            <path d="M20,20 L21,20 L21,19 L20,19 L20,20 Z M20,18 L21,18 C21.5522847,18 22,18.4477153 22,19 L22,20 C22,20.5522847 21.5522847,21 21,21 L20,21 C19.4477153,21 19,20.5522847 19,20 L19,19 C19,18.4477153 19.4477153,18 20,18 Z" id="Rectangle-Copy-29"></path>
            <path d="M20,16 L21,16 L21,15 L20,15 L20,16 Z M20,14 L21,14 C21.5522847,14 22,14.4477153 22,15 L22,16 C22,16.5522847 21.5522847,17 21,17 L20,17 C19.4477153,17 19,16.5522847 19,16 L19,15 C19,14.4477153 19.4477153,14 20,14 Z" id="Rectangle-Copy-30"></path>
            <path d="M16,16 L17,16 L17,15 L16,15 L16,16 Z M16,14 L17,14 C17.5522847,14 18,14.4477153 18,15 L18,16 C18,16.5522847 17.5522847,17 17,17 L16,17 C15.4477153,17 15,16.5522847 15,16 L15,15 C15,14.4477153 15.4477153,14 16,14 Z" id="Rectangle-Copy-31"></path>
            <path d="M16,12 L17,12 L17,11 L16,11 L16,12 Z M16,10 L17,10 C17.5522847,10 18,10.4477153 18,11 L18,12 C18,12.5522847 17.5522847,13 17,13 L16,13 C15.4477153,13 15,12.5522847 15,12 L15,11 C15,10.4477153 15.4477153,10 16,10 Z" id="Rectangle-Copy-32"></path>
            <path d="M20,12 L21,12 L21,11 L20,11 L20,12 Z M20,10 L21,10 C21.5522847,10 22,10.4477153 22,11 L22,12 C22,12.5522847 21.5522847,13 21,13 L20,13 C19.4477153,13 19,12.5522847 19,12 L19,11 C19,10.4477153 19.4477153,10 20,10 Z" id="Rectangle-Copy-33"></path>
            <path d="M20,8 L21,8 L21,7 L20,7 L20,8 Z M20,6 L21,6 C21.5522847,6 22,6.44771525 22,7 L22,8 C22,8.55228475 21.5522847,9 21,9 L20,9 C19.4477153,9 19,8.55228475 19,8 L19,7 C19,6.44771525 19.4477153,6 20,6 Z" id="Rectangle-Copy-34"></path>
            <path d="M16,8 L17,8 L17,7 L16,7 L16,8 Z M16,6 L17,6 C17.5522847,6 18,6.44771525 18,7 L18,8 C18,8.55228475 17.5522847,9 17,9 L16,9 C15.4477153,9 15,8.55228475 15,8 L15,7 C15,6.44771525 15.4477153,6 16,6 Z" id="Rectangle-Copy-35"></path>
            <path d="M11,15 L11,16 L13,16 L13,15 L11,15 Z M11,14 L13,14 C13.5522847,14 14,14.4477153 14,15 L14,16 C14,16.5522847 13.5522847,17 13,17 L11,17 C10.4477153,17 10,16.5522847 10,16 L10,15 C10,14.4477153 10.4477153,14 11,14 Z" id="Rectangle-Copy-7"></path>
            <path d="M11,19 L11,21 L13,21 L13,19 L11,19 Z M11,18 L13,18 C13.5522847,18 14,18.4477153 14,19 L14,22 L10,22 L10,19 C10,18.4477153 10.4477153,18 11,18 Z" id="Rectangle-Copy-8"></path>
            <path d="M16,5 L16,23 L23,23 L23,5 L16,5 Z M16,4 L23,4 C23.5522847,4 24,4.44771525 24,5 L24,23 C24,23.5522847 23.5522847,24 23,24 L15,24 L15,5 C15,4.44771525 15.4477153,4 16,4 Z" id="Rectangle-Copy-2"></path>
        </g>
    </g>
</svg>