<?xml version="1.0" encoding="UTF-8"?>
<svg width="24px" height="24px" viewBox="0 0 24 24" version="1.1" xmlns="http://www.w3.org/2000/svg" xmlns:xlink="http://www.w3.org/1999/xlink">
    <!-- Generator: Sketch 51.3 (57544) - http://www.bohemiancoding.com/sketch -->
    <title>Company</title>
    <desc>Created with Sketch.</desc>
    <defs></defs>
    <g id="Company" stroke="none" stroke-width="1" fill="none" fill-rule="evenodd">
        <rect id="Rectangle" stroke="#106ba3" fill-rule="nonzero" x="0.5" y="4.5" width="8" height="19"></rect>
        <rect id="Rectangle-Copy" stroke="#106ba3" fill-rule="nonzero" x="8.5" y="21.5" width="7" height="2"></rect>
        <rect id="Rectangle-Copy-3" stroke="#106ba3" fill-rule="nonzero" x="8.5" y="0.5" width="7" height="21"></rect>
        <rect id="Rectangle-Copy-4" stroke="#106ba3" fill-rule="nonzero" x="10.5" y="2.5" width="3" height="2"></rect>
        <rect id="Rectangle-Copy-5" stroke="#106ba3" fill-rule="nonzero" x="10.5" y="6.5" width="3" height="2"></rect>
        <rect id="Rectangle-Copy-6" stroke="#106ba3" fill-rule="nonzero" x="10.5" y="10.5" width="3" height="2"></rect>
        <rect id="Rectangle-Copy-9" stroke="#106ba3" fill-rule="nonzero" x="2.5" y="6.5" width="2" height="2"></rect>
        <rect id="Rectangle-Copy-17" stroke="#106ba3" fill-rule="nonzero" x="15.5" y="6.5" width="2" height="2"></rect>
        <rect id="Rectangle-Copy-11" stroke="#106ba3" fill-rule="nonzero" x="2.5" y="10.5" width="2" height="2"></rect>
        <rect id="Rectangle-Copy-18" stroke="#106ba3" fill-rule="nonzero" x="15.5" y="10.5" width="2" height="2"></rect>
        <rect id="Rectangle-Copy-13" stroke="#106ba3" fill-rule="nonzero" x="2.5" y="14.5" width="2" height="2"></rect>
        <rect id="Rectangle-Copy-19" stroke="#106ba3" fill-rule="nonzero" x="15.5" y="14.5" width="2" height="2"></rect>
        <rect id="Rectangle-Copy-15" stroke="#106ba3" fill-rule="nonzero" x="2.5" y="18.5" width="2" height="2"></rect>
        <rect id="Rectangle-Copy-20" stroke="#106ba3" fill-rule="nonzero" x="15.5" y="18.5" width="2" height="2"></rect>
        <rect id="Rectangle-Copy-10" stroke="#106ba3" fill-rule="nonzero" x="6.5" y="6.5" width="2" height="2"></rect>
        <rect id="Rectangle-Copy-21" stroke="#106ba3" fill-rule="nonzero" x="19.5" y="6.5" width="2" height="2"></rect>
        <rect id="Rectangle-Copy-12" stroke="#106ba3" fill-rule="nonzero" x="6.5" y="10.5" width="2" height="2"></rect>
        <rect id="Rectangle-Copy-22" stroke="#106ba3" fill-rule="nonzero" x="19.5" y="10.5" width="2" height="2"></rect>
        <rect id="Rectangle-Copy-14" stroke="#106ba3" fill-rule="nonzero" x="6.5" y="14.5" width="2" height="2"></rect>
        <rect id="Rectangle-Copy-23" stroke="#106ba3" fill-rule="nonzero" x="19.5" y="14.5" width="2" height="2"></rect>
        <rect id="Rectangle-Copy-16" stroke="#106ba3" fill-rule="nonzero" x="6.5" y="18.5" width="2" height="2"></rect>
        <rect id="Rectangle-Copy-24" stroke="#106ba3" fill-rule="nonzero" x="19.5" y="18.5" width="2" height="2"></rect>
        <rect id="Rectangle-Copy-7" stroke="#106ba3" fill-rule="nonzero" x="10.5" y="14.5" width="3" height="2"></rect>
        <rect id="Rectangle-Copy-8" stroke="#106ba3" fill-rule="nonzero" x="10.5" y="18.5" width="3" height="3"></rect>
        <rect id="Rectangle-Copy-2" stroke="#106ba3" fill-rule="nonzero" x="15.5" y="4.5" width="8" height="19"></rect>
    </g>
</svg>