<?xml version="1.0" encoding="UTF-8"?>
<svg width="24px" height="24px" viewBox="0 0 24 24" version="1.1" xmlns="http://www.w3.org/2000/svg">
    <!-- Generator: Sketch 51.3 (57544) - http://www.bohemiancoding.com/sketch -->
    <title>Connections</title>
    <desc>Created with Sketch.</desc>
    <defs></defs>
    <g id="Connections" stroke="none" stroke-width="1" fill="none" fill-rule="evenodd">
        <path d="M12.5,15 C14.4329966,15 16,13.4329966 16,11.5 C16,9.56700338 14.4329966,8 12.5,8 C10.5670034,8 9,9.56700338 9,11.5 C9,13.4329966 10.5670034,15 12.5,15 Z M12.5,16 C10.0147186,16 8,13.9852814 8,11.5 C8,9.01471863 10.0147186,7 12.5,7 C14.9852814,7 17,9.01471863 17,11.5 C17,13.9852814 14.9852814,16 12.5,16 Z"
              id="Oval-6" fill="#000000" fill-rule="nonzero"></path>
        <path d="M12.5,4 C13.3284271,4 14,3.32842712 14,2.5 C14,1.67157288 13.3284271,1 12.5,1 C11.6715729,1 11,1.67157288 11,2.5 C11,3.32842712 11.6715729,4 12.5,4 Z M12.5,5 C11.1192881,5 10,3.88071187 10,2.5 C10,1.11928813 11.1192881,0 12.5,0 C13.8807119,0 15,1.11928813 15,2.5 C15,3.88071187 13.8807119,5 12.5,5 Z"
              id="Oval-6-Copy" fill="#000000" fill-rule="nonzero"></path>
        <path d="M12.5,22 C13.3284271,22 14,21.3284271 14,20.5 C14,19.6715729 13.3284271,19 12.5,19 C11.6715729,19 11,19.6715729 11,20.5 C11,21.3284271 11.6715729,22 12.5,22 Z M12.5,23 C11.1192881,23 10,21.8807119 10,20.5 C10,19.1192881 11.1192881,18 12.5,18 C13.8807119,18 15,19.1192881 15,20.5 C15,21.8807119 13.8807119,23 12.5,23 Z"
              id="Oval-6-Copy-4" fill="#000000" fill-rule="nonzero"></path>
        <path d="M21.5,9 C22.3284271,9 23,8.32842712 23,7.5 C23,6.67157288 22.3284271,6 21.5,6 C20.6715729,6 20,6.67157288 20,7.5 C20,8.32842712 20.6715729,9 21.5,9 Z M21.5,10 C20.1192881,10 19,8.88071187 19,7.5 C19,6.11928813 20.1192881,5 21.5,5 C22.8807119,5 24,6.11928813 24,7.5 C24,8.88071187 22.8807119,10 21.5,10 Z"
              id="Oval-6-Copy-5" fill="#000000" fill-rule="nonzero"></path>
        <path d="M21.5,17 C22.3284271,17 23,16.3284271 23,15.5 C23,14.6715729 22.3284271,14 21.5,14 C20.6715729,14 20,14.6715729 20,15.5 C20,16.3284271 20.6715729,17 21.5,17 Z M21.5,18 C20.1192881,18 19,16.8807119 19,15.5 C19,14.1192881 20.1192881,13 21.5,13 C22.8807119,13 24,14.1192881 24,15.5 C24,16.8807119 22.8807119,18 21.5,18 Z"
              id="Oval-6-Copy-7" fill="#000000" fill-rule="nonzero"></path>
        <path d="M3.5,9 C4.32842712,9 5,8.32842712 5,7.5 C5,6.67157288 4.32842712,6 3.5,6 C2.67157288,6 2,6.67157288 2,7.5 C2,8.32842712 2.67157288,9 3.5,9 Z M3.5,10 C2.11928813,10 1,8.88071187 1,7.5 C1,6.11928813 2.11928813,5 3.5,5 C4.88071187,5 6,6.11928813 6,7.5 C6,8.88071187 4.88071187,10 3.5,10 Z"
              id="Oval-6-Copy-6" fill="#000000" fill-rule="nonzero"></path>
        <path d="M3.5,17 C4.32842712,17 5,16.3284271 5,15.5 C5,14.6715729 4.32842712,14 3.5,14 C2.67157288,14 2,14.6715729 2,15.5 C2,16.3284271 2.67157288,17 3.5,17 Z M3.5,18 C2.11928813,18 1,16.8807119 1,15.5 C1,14.1192881 2.11928813,13 3.5,13 C4.88071187,13 6,14.1192881 6,15.5 C6,16.8807119 4.88071187,18 3.5,18 Z"
              id="Oval-6-Copy-8" fill="#000000" fill-rule="nonzero"></path>
        <polygon id="Line-7" fill="#000000" fill-rule="nonzero"
                 points="4.86754447 8.81622777 5.18377223 7.86754447 9.13245553 9.18377223 8.81622777 10.1324555"></polygon>
        <polygon id="Line-8" fill="#000000" fill-rule="nonzero" points="12 4 13 4 13 8 12 8"></polygon>
        <polygon id="Line" fill="#000000" fill-rule="nonzero"
                 points="19.8162278 7.86754447 20.1324555 8.81622777 16.1837722 10.1324555 15.8675445 9.18377223"></polygon>
        <polygon id="Line-2" fill="#000000" fill-rule="nonzero"
                 points="20.1324555 14.1837722 19.8162278 15.1324555 15.8675445 13.8162278 16.1837722 12.8675445"></polygon>
        <polygon id="Line-3" fill="#000000" fill-rule="nonzero" points="13 19 12 19 12 15 13 15"></polygon>
        <polygon id="Line-4" fill="#000000" fill-rule="nonzero"
                 points="5.18377223 15.1324555 4.86754447 14.1837722 8.81622777 12.8675445 9.13245553 13.8162278"></polygon>
        <path d="M12.5,13 C13.3284271,13 14,12.3284271 14,11.5 C14,10.6715729 13.3284271,10 12.5,10 C11.6715729,10 11,10.6715729 11,11.5 C11,12.3284271 11.6715729,13 12.5,13 Z M12.5,14 C11.1192881,14 10,12.8807119 10,11.5 C10,10.1192881 11.1192881,9 12.5,9 C13.8807119,9 15,10.1192881 15,11.5 C15,12.8807119 13.8807119,14 12.5,14 Z"
              id="Oval-6-Copy-2" fill="#000000" fill-rule="nonzero"></path>
    </g>
</svg>