<?xml version="1.0" encoding="UTF-8"?>
<svg width="24px" height="24px" viewBox="0 0 24 24" version="1.1" xmlns="http://www.w3.org/2000/svg" xmlns:xlink="http://www.w3.org/1999/xlink">
    <!-- Generator: Sketch 52.2 (67145) - http://www.bohemiancoding.com/sketch -->
    <title>Connections</title>
    <desc>Connections</desc>
    <g id="Connections" stroke="none" stroke-width="1" fill="none" fill-rule="evenodd">
        <g transform="translate(1.000000, 0.000000)" fill="#000000" fill-rule="nonzero">
            <path d="M11.5,15 C13.4329966,15 15,13.4329966 15,11.5 C15,9.56700338 13.4329966,8 11.5,8 C9.56700338,8 8,9.56700338 8,11.5 C8,13.4329966 9.56700338,15 11.5,15 Z M11.5,16 C9.01471863,16 7,13.9852814 7,11.5 C7,9.01471863 9.01471863,7 11.5,7 C13.9852814,7 16,9.01471863 16,11.5 C16,13.9852814 13.9852814,16 11.5,16 Z" id="Oval-6"></path>
            <path d="M11.5,4 C12.3284271,4 13,3.32842712 13,2.5 C13,1.67157288 12.3284271,1 11.5,1 C10.6715729,1 10,1.67157288 10,2.5 C10,3.32842712 10.6715729,4 11.5,4 Z M11.5,5 C10.1192881,5 9,3.88071187 9,2.5 C9,1.11928813 10.1192881,0 11.5,0 C12.8807119,0 14,1.11928813 14,2.5 C14,3.88071187 12.8807119,5 11.5,5 Z" id="Oval-6-Copy"></path>
            <path d="M11.5,22 C12.3284271,22 13,21.3284271 13,20.5 C13,19.6715729 12.3284271,19 11.5,19 C10.6715729,19 10,19.6715729 10,20.5 C10,21.3284271 10.6715729,22 11.5,22 Z M11.5,23 C10.1192881,23 9,21.8807119 9,20.5 C9,19.1192881 10.1192881,18 11.5,18 C12.8807119,18 14,19.1192881 14,20.5 C14,21.8807119 12.8807119,23 11.5,23 Z" id="Oval-6-Copy-4"></path>
            <path d="M20.5,9 C21.3284271,9 22,8.32842712 22,7.5 C22,6.67157288 21.3284271,6 20.5,6 C19.6715729,6 19,6.67157288 19,7.5 C19,8.32842712 19.6715729,9 20.5,9 Z M20.5,10 C19.1192881,10 18,8.88071187 18,7.5 C18,6.11928813 19.1192881,5 20.5,5 C21.8807119,5 23,6.11928813 23,7.5 C23,8.88071187 21.8807119,10 20.5,10 Z" id="Oval-6-Copy-5"></path>
            <path d="M20.5,17 C21.3284271,17 22,16.3284271 22,15.5 C22,14.6715729 21.3284271,14 20.5,14 C19.6715729,14 19,14.6715729 19,15.5 C19,16.3284271 19.6715729,17 20.5,17 Z M20.5,18 C19.1192881,18 18,16.8807119 18,15.5 C18,14.1192881 19.1192881,13 20.5,13 C21.8807119,13 23,14.1192881 23,15.5 C23,16.8807119 21.8807119,18 20.5,18 Z" id="Oval-6-Copy-7"></path>
            <path d="M2.5,9 C3.32842712,9 4,8.32842712 4,7.5 C4,6.67157288 3.32842712,6 2.5,6 C1.67157288,6 1,6.67157288 1,7.5 C1,8.32842712 1.67157288,9 2.5,9 Z M2.5,10 C1.11928813,10 0,8.88071187 0,7.5 C0,6.11928813 1.11928813,5 2.5,5 C3.88071187,5 5,6.11928813 5,7.5 C5,8.88071187 3.88071187,10 2.5,10 Z" id="Oval-6-Copy-6"></path>
            <path d="M2.5,17 C3.32842712,17 4,16.3284271 4,15.5 C4,14.6715729 3.32842712,14 2.5,14 C1.67157288,14 1,14.6715729 1,15.5 C1,16.3284271 1.67157288,17 2.5,17 Z M2.5,18 C1.11928813,18 0,16.8807119 0,15.5 C0,14.1192881 1.11928813,13 2.5,13 C3.88071187,13 5,14.1192881 5,15.5 C5,16.8807119 3.88071187,18 2.5,18 Z" id="Oval-6-Copy-8"></path>
            <polygon id="Line-7" points="3.86754447 8.81622777 4.18377223 7.86754447 8.13245553 9.18377223 7.81622777 10.1324555"></polygon>
            <polygon id="Line-8" points="11 4 12 4 12 8 11 8"></polygon>
            <polygon id="Line" points="18.8162278 7.86754447 19.1324555 8.81622777 15.1837722 10.1324555 14.8675445 9.18377223"></polygon>
            <polygon id="Line-2" points="19.1324555 14.1837722 18.8162278 15.1324555 14.8675445 13.8162278 15.1837722 12.8675445"></polygon>
            <polygon id="Line-3" points="12 19 11 19 11 15 12 15"></polygon>
            <polygon id="Line-4" points="4.18377223 15.1324555 3.86754447 14.1837722 7.81622777 12.8675445 8.13245553 13.8162278"></polygon>
            <path d="M11.5,13 C12.3284271,13 13,12.3284271 13,11.5 C13,10.6715729 12.3284271,10 11.5,10 C10.6715729,10 10,10.6715729 10,11.5 C10,12.3284271 10.6715729,13 11.5,13 Z M11.5,14 C10.1192881,14 9,12.8807119 9,11.5 C9,10.1192881 10.1192881,9 11.5,9 C12.8807119,9 14,10.1192881 14,11.5 C14,12.8807119 12.8807119,14 11.5,14 Z" id="Oval-6-Copy-2"></path>
        </g>
    </g>
</svg>