<?xml version="1.0" encoding="UTF-8"?>
<svg width="24px" height="24px" viewBox="0 0 24 24" version="1.1" xmlns="http://www.w3.org/2000/svg" xmlns:xlink="http://www.w3.org/1999/xlink">
    <!-- Generator: Sketch 52.2 (67145) - http://www.bohemiancoding.com/sketch -->
    <title>Contract</title>
    <desc>Contract</desc>
    <g id="Contract" stroke="none" stroke-width="1" fill="none" fill-rule="evenodd">
        <g fill="#000000" fill-rule="nonzero">
            <path d="M17,21 L17,15 L18,14 L18,21 C18,21.5522847 17.5522847,22 17,22 L3,22 C2.44771525,22 2,21.5522847 2,21 L2,1 C2,0.44771525 2.44771525,1.01453063e-16 3,0 L17,0 C17.5522847,-1.01453063e-16 18,0.44771525 18,1 L18,10 L17,11 L17,1 L3,1 L3,21 L17,21 Z" id="Line-4"></path>
            <path d="M4.91666667,3.5 L4.91666667,3.5 C4.91666667,3.22385763 5.14052429,3 5.41666667,3 L14.5833333,3 C14.8594757,3 15.0833333,3.22385763 15.0833333,3.5 L15.0833333,3.5 C15.0833333,3.77614237 14.8594757,4 14.5833333,4 L5.41666667,4 C5.14052429,4 4.91666667,3.77614237 4.91666667,3.5 Z" id="Line"></path>
            <path d="M4.91666667,6.5 L4.91666667,6.5 C4.91666667,6.22385763 5.14052429,6 5.41666667,6 L14.5833333,6 C14.8594757,6 15.0833333,6.22385763 15.0833333,6.5 L15.0833333,6.5 C15.0833333,6.77614237 14.8594757,7 14.5833333,7 L5.41666667,7 C5.14052429,7 4.91666667,6.77614237 4.91666667,6.5 Z" id="Line-2"></path>
            <path d="M4.91666667,9.5 L4.91666667,9.5 C4.91666667,9.22385763 5.14052429,9 5.41666667,9 L14.5833333,9 C14.8594757,9 15.0833333,9.22385763 15.0833333,9.5 L15.0833333,9.5 C15.0833333,9.77614237 14.8594757,10 14.5833333,10 L5.41666667,10 C5.14052429,10 4.91666667,9.77614237 4.91666667,9.5 Z" id="Line-3"></path>
            <path d="M6.41535434,16.2823175 C6.31240692,16.505979 6.20536712,16.7456998 6.07090351,17.0521684 C6.01300471,17.1841309 5.8175846,17.6318737 5.80374934,17.6635012 C5.78564865,17.7048796 5.76642797,17.7486667 5.74608731,17.7948624 L5.74610896,17.7948719 C5.6354547,18.046179 5.34202704,18.1602007 5.09071993,18.0495464 C5.08944895,18.0489868 5.08818031,18.0484218 5.08691406,18.0478516 L5.08691406,18.0478516 C4.83520415,17.9344924 4.72194252,17.6394095 4.83316246,17.386747 C4.85228279,17.3432631 4.87042545,17.3019253 4.88757289,17.2627261 C4.90106482,17.2318834 5.09680534,16.7834065 5.1551676,16.6503877 C5.29182527,16.3389184 5.40110052,16.0941912 5.50696119,15.8642004 C5.94392751,14.9148557 6.28127943,14.3103743 6.61330487,13.9578761 C7.2209511,13.3127625 7.93924335,13.5055905 8.25111975,14.4210342 C8.35897445,14.7376176 8.44233623,15.0561533 8.5144713,15.407236 C8.56086776,15.6330485 8.59879353,15.850129 8.66244782,16.227159 C8.8043761,17.038124 9,17.0521684 10,17.0521684 C11.1753614,17.0521684 12.3507228,17.0521684 13.5260842,17.0521684 L13.5260842,17.0521684 C13.7878207,17.0521684 14,17.2643477 14,17.5260842 L14,17.5260842 C14,17.7904253 13.790506,18.0072097 13.5263195,18.0162488 C10.8505636,18.1077892 9.41861345,18.1535645 9.23046875,18.1535645 C8.22777508,18.1535645 7.89388079,17.6363913 7.67741929,16.3995504 C7.49255823,15.3432714 7.46777137,15.2226333 7.30454431,14.7435166 C7.29939252,14.7283947 7.29448609,14.7144134 7.28988783,14.7015114 C7.06536803,14.9695537 6.7779687,15.4945085 6.41535434,16.2823175 Z" id="Path-4"></path>
            <path d="M15,23 L15,21 L16,21 L16,23 C16,23.5522847 15.5522847,24 15,24 L1,24 C0.44771525,24 6.76353751e-17,23.5522847 0,23 L0,3 C-6.76353751e-17,2.44771525 0.44771525,2 1,2 L3,2 L3,3 L1,3 L1,23 L15,23 Z" id="Line-55"></path>
            <path d="M13.2928932,14 L20.7928932,6.5 C21.1834175,6.10947571 21.8165825,6.10947571 22.2071068,6.5 L23.5,7.79289322 C23.8905243,8.18341751 23.8905243,8.81658249 23.5,9.20710678 L16,16.7071068 C15.8124636,16.8946432 15.5581097,17 15.2928932,17 L13,17 L13,14.7071068 C13,14.4418903 13.1053568,14.1875364 13.2928932,14 Z M14,16 L15.2928932,16 L22.7928932,8.5 L21.5,7.20710678 L14,14.7071068 L14,16 Z" id="Line-56"></path>
        </g>
    </g>
</svg>