<?xml version="1.0" encoding="UTF-8"?>
<svg width="24px" height="24px" viewBox="0 0 24 24" version="1.1" xmlns="http://www.w3.org/2000/svg" xmlns:xlink="http://www.w3.org/1999/xlink">
    <!-- Generator: Sketch 52.2 (67145) - http://www.bohemiancoding.com/sketch -->
    <title>ContractAward</title>
    <desc>ContractAward</desc>
    <g id="ContractAward" stroke="none" stroke-width="1" fill="none" fill-rule="evenodd">
        <g transform="translate(4.000000, 0.000000)" fill="#000000" fill-rule="nonzero">
            <path d="M9.5,20 C11.4329966,20 13,18.4329966 13,16.5 C13,14.5670034 11.4329966,13 9.5,13 C7.56700338,13 6,14.5670034 6,16.5 C6,18.4329966 7.56700338,20 9.5,20 Z M9.5,21 C7.01471863,21 5,18.9852814 5,16.5 C5,14.0147186 7.01471863,12 9.5,12 C11.9852814,12 14,14.0147186 14,16.5 C14,18.9852814 11.9852814,21 9.5,21 Z" id="Oval-2"></path>
            <path d="M9.5,18 C10.3284271,18 11,17.3284271 11,16.5 C11,15.6715729 10.3284271,15 9.5,15 C8.67157288,15 8,15.6715729 8,16.5 C8,17.3284271 8.67157288,18 9.5,18 Z M9.5,19 C8.11928813,19 7,17.8807119 7,16.5 C7,15.1192881 8.11928813,14 9.5,14 C10.8807119,14 12,15.1192881 12,16.5 C12,17.8807119 10.8807119,19 9.5,19 Z" id="Oval-2-Copy"></path>
            <path d="M3,3.5 L3,3.5 C3,3.22385763 3.22385763,3 3.5,3 L12.482666,3 C12.7588084,3 12.982666,3.22385763 12.982666,3.5 L12.982666,3.5 C12.982666,3.77614237 12.7588084,4 12.482666,4 L3.5,4 C3.22385763,4 3,3.77614237 3,3.5 Z" id="Path-5"></path>
            <path d="M3,6.5 L3,6.5 C3,6.22385763 3.22385763,6 3.5,6 L12.482666,6 C12.7588084,6 12.982666,6.22385763 12.982666,6.5 L12.982666,6.5 C12.982666,6.77614237 12.7588084,7 12.482666,7 L3.5,7 C3.22385763,7 3,6.77614237 3,6.5 Z" id="Path-8"></path>
            <path d="M3,9.5 L3,9.5 C3,9.22385763 3.22385763,9 3.5,9 L12.482666,9 C12.7588084,9 12.982666,9.22385763 12.982666,9.5 L12.982666,9.5 C12.982666,9.77614237 12.7588084,10 12.482666,10 L3.5,10 C3.22385763,10 3,9.77614237 3,9.5 Z" id="Path-9"></path>
            <path d="M1,20 L6,20 L6,21 L1,21 C0.44771525,21 6.76353751e-17,20.5522847 0,20 L0,1 C-6.76353751e-17,0.44771525 0.44771525,1.01453063e-16 1,0 L15,0 C15.5522847,-1.01453063e-16 16,0.44771525 16,1 L16,20 C16,20.5522847 15.5522847,21 15,21 L13,21 L13,20 L15,20 L15,1 L1,1 L1,20 Z" id="Path-7"></path>
            <path d="M7.13962039,24 L6.1403882,24 C5.58810345,24 5.1403882,23.5522847 5.1403882,23 C5.1403882,22.9182382 5.15041555,22.836785 5.1702457,22.7574644 L6.13619656,18.8936609 L7.10633906,19.1361966 L6.1403882,23 L7.13962039,23 L8.13962039,20 L10.8603796,20 L11.8603796,23 L12.8596118,23 L11.8936609,19.1361966 L12.8638034,18.8936609 L13.8297543,22.7574644 C13.963703,23.2932593 13.6379423,23.8361938 13.1021474,23.9701425 C13.0228268,23.9899727 12.9413736,24 12.8596118,24 L11.8603796,24 C11.4299492,24 11.0478104,23.7245699 10.9116963,23.3162278 L10.1396204,21 L8.86037961,21 L8.08830369,23.3162278 C7.95218964,23.7245699 7.5700508,24 7.13962039,24 Z" id="Line-57"></path>
        </g>
    </g>
</svg>