<?xml version="1.0" encoding="UTF-8"?>
<svg width="24px" height="24px" viewBox="0 0 24 24" version="1.1" xmlns="http://www.w3.org/2000/svg">
    <!-- Generator: Sketch 51.3 (57544) - http://www.bohemiancoding.com/sketch -->
    <title>ContractAward</title>
    <desc>Created with Sketch.</desc>
    <defs></defs>
    <g id="ContractAward" stroke="none" stroke-width="1" fill="none" fill-rule="evenodd">
        <path d="M13.5,20 C15.4329966,20 17,18.4329966 17,16.5 C17,14.5670034 15.4329966,13 13.5,13 C11.5670034,13 10,14.5670034 10,16.5 C10,18.4329966 11.5670034,20 13.5,20 Z M13.5,21 C11.0147186,21 9,18.9852814 9,16.5 C9,14.0147186 11.0147186,12 13.5,12 C15.9852814,12 18,14.0147186 18,16.5 C18,18.9852814 15.9852814,21 13.5,21 Z"
              id="Oval-2" fill="#000000" fill-rule="nonzero"></path>
        <path d="M13.5,18 C14.3284271,18 15,17.3284271 15,16.5 C15,15.6715729 14.3284271,15 13.5,15 C12.6715729,15 12,15.6715729 12,16.5 C12,17.3284271 12.6715729,18 13.5,18 Z M13.5,19 C12.1192881,19 11,17.8807119 11,16.5 C11,15.1192881 12.1192881,14 13.5,14 C14.8807119,14 16,15.1192881 16,16.5 C16,17.8807119 14.8807119,19 13.5,19 Z"
              id="Oval-2-Copy" fill="#000000" fill-rule="nonzero"></path>
        <path d="M7,3.5 L7,3.5 C7,3.22385763 7.22385763,3 7.5,3 L16.482666,3 C16.7588084,3 16.982666,3.22385763 16.982666,3.5 L16.982666,3.5 C16.982666,3.77614237 16.7588084,4 16.482666,4 L7.5,4 C7.22385763,4 7,3.77614237 7,3.5 Z"
              id="Path-5" fill="#000000" fill-rule="nonzero"></path>
        <path d="M7,6.5 L7,6.5 C7,6.22385763 7.22385763,6 7.5,6 L16.482666,6 C16.7588084,6 16.982666,6.22385763 16.982666,6.5 L16.982666,6.5 C16.982666,6.77614237 16.7588084,7 16.482666,7 L7.5,7 C7.22385763,7 7,6.77614237 7,6.5 Z"
              id="Path-8" fill="#000000" fill-rule="nonzero"></path>
        <path d="M7,9.5 L7,9.5 C7,9.22385763 7.22385763,9 7.5,9 L16.482666,9 C16.7588084,9 16.982666,9.22385763 16.982666,9.5 L16.982666,9.5 C16.982666,9.77614237 16.7588084,10 16.482666,10 L7.5,10 C7.22385763,10 7,9.77614237 7,9.5 Z"
              id="Path-9" fill="#000000" fill-rule="nonzero"></path>
        <path d="M5,20 L10,20 L10,21 L5,21 C4.44771525,21 4,20.5522847 4,20 L4,1 C4,0.44771525 4.44771525,1.01453063e-16 5,0 L19,0 C19.5522847,-1.01453063e-16 20,0.44771525 20,1 L20,20 C20,20.5522847 19.5522847,21 19,21 L17,21 L17,20 L19,20 L19,1 L5,1 L5,20 Z"
              id="Path-7" fill="#000000" fill-rule="nonzero"></path>
        <path d="M11.1396204,24 L10.1403882,24 C9.58810345,24 9.1403882,23.5522847 9.1403882,23 C9.1403882,22.9182382 9.15041555,22.836785 9.1702457,22.7574644 L10.1361966,18.8936609 L11.1063391,19.1361966 L10.1403882,23 L11.1396204,23 L12.1396204,20 L14.8603796,20 L15.8603796,23 L16.8596118,23 L15.8936609,19.1361966 L16.8638034,18.8936609 L17.8297543,22.7574644 C17.963703,23.2932593 17.6379423,23.8361938 17.1021474,23.9701425 C17.0228268,23.9899727 16.9413736,24 16.8596118,24 L15.8603796,24 C15.4299492,24 15.0478104,23.7245699 14.9116963,23.3162278 L14.1396204,21 L12.8603796,21 L12.0883037,23.3162278 C11.9521896,23.7245699 11.5700508,24 11.1396204,24 Z"
              id="Line-57" fill="#000000" fill-rule="nonzero"></path>
    </g>
</svg>