<?xml version="1.0" encoding="UTF-8"?>
<svg width="24px" height="24px" viewBox="0 0 24 24" version="1.1" xmlns="http://www.w3.org/2000/svg" xmlns:xlink="http://www.w3.org/1999/xlink">
    <!-- Generator: Sketch 52.2 (67145) - http://www.bohemiancoding.com/sketch -->
    <title>CourtCaseParty</title>
    <desc>CourtCaseParty</desc>
    <g id="CourtCaseParty" stroke="none" stroke-width="1" fill="none" fill-rule="evenodd">
        <g transform="translate(0.000000, 2.000000)" fill="#000000" fill-rule="nonzero">
            <path d="M20,20 L16,20 C15.2597176,20 14.6133738,20.4021986 14.2675644,21 L21.7324356,21 C21.3866262,20.4021986 20.7402824,20 20,20 Z M16,19 L20,19 C21.6568542,19 23,20.3431458 23,22 L13,22 C13,20.3431458 14.3431458,19 16,19 Z" id="Rectangle-4"></path>
            <path d="M15.5,5 C15.2238576,5 15,5.22385763 15,5.5 C15,5.77614237 15.2238576,6 15.5,6 L20.5,6 C20.7761424,6 21,5.77614237 21,5.5 C21,5.22385763 20.7761424,5 20.5,5 L15.5,5 Z M15.5,4 L20.5,4 C21.3284271,4 22,4.67157288 22,5.5 C22,6.32842712 21.3284271,7 20.5,7 L15.5,7 C14.6715729,7 14,6.32842712 14,5.5 C14,4.67157288 14.6715729,4 15.5,4 Z" id="Rectangle-5"></path>
            <path d="M15.5,14 C15.2238576,14 15,14.2238576 15,14.5 C15,14.7761424 15.2238576,15 15.5,15 L20.5,15 C20.7761424,15 21,14.7761424 21,14.5 C21,14.2238576 20.7761424,14 20.5,14 L15.5,14 Z M15.5,13 L20.5,13 C21.3284271,13 22,13.6715729 22,14.5 C22,15.3284271 21.3284271,16 20.5,16 L15.5,16 C14.6715729,16 14,15.3284271 14,14.5 C14,13.6715729 14.6715729,13 15.5,13 Z" id="Rectangle-5-Copy"></path>
            <path d="M16.5,7 C16.2238576,7 16,7.22385763 16,7.5 L16,12.5 C16,12.7761424 16.2238576,13 16.5,13 L19.5,13 C19.7761424,13 20,12.7761424 20,12.5 L20,7.5 C20,7.22385763 19.7761424,7 19.5,7 L16.5,7 Z M16.5,6 L19.5,6 C20.3284271,6 21,6.67157288 21,7.5 L21,12.5 C21,13.3284271 20.3284271,14 19.5,14 L16.5,14 C15.6715729,14 15,13.3284271 15,12.5 L15,7.5 C15,6.67157288 15.6715729,6 16.5,6 Z" id="Rectangle-5-Copy-2"></path>
            <path d="M21,9 L21,11 L26,11 L26,9 L21,9 Z M20,8 L27,8 L27,12 L20,12 L20,8 Z" id="Rectangle-5-Copy-3"></path>
            <path d="M1,17 L10,17 L10,11 C10,9.34314575 8.65685425,8 7,8 L4,8 C2.34314575,8 1,9.34314575 1,11 L1,17 Z M4,7 L7,7 C9.209139,7 11,8.790861 11,11 L11,18 L0,18 L0,11 C-2.705415e-16,8.790861 1.790861,7 4,7 Z" id="Rectangle-6"></path>
            <path d="M3,10 L3,18 L2,18 L2,11 C2,10.4477153 2.44771525,10 3,10 Z" id="Line-4"></path>
            <path d="M8,10 L8,10 C8.55228475,10 9,10.4477153 9,11 L9,18 L8,18 L8,10 Z" id="Line"></path>
            <path d="M5.5,6 C6.88071187,6 8,4.88071187 8,3.5 C8,2.11928813 6.88071187,1 5.5,1 C4.11928813,1 3,2.11928813 3,3.5 C3,4.88071187 4.11928813,6 5.5,6 Z M5.5,7 C3.56700338,7 2,5.43299662 2,3.5 C2,1.56700338 3.56700338,0 5.5,0 C7.43299662,0 9,1.56700338 9,3.5 C9,5.43299662 7.43299662,7 5.5,7 Z" id="Oval-3"></path>
            <path d="M1,18 L1,21 L12,21 L12,18 L1,18 Z M0,17 L12,17 C12.5522847,17 13,17.4477153 13,18 L13,22 L0,22 L0,17 Z" id="Rectangle-7"></path>
        </g>
    </g>
</svg>