<?xml version="1.0" encoding="UTF-8"?>
<svg width="24px" height="24px" viewBox="0 0 24 24" version="1.1" xmlns="http://www.w3.org/2000/svg">
    <!-- Generator: Sketch 51.3 (57544) - http://www.bohemiancoding.com/sketch -->
    <title>CourtCase</title>
    <desc>Created with Sketch.</desc>
    <defs></defs>
    <g id="CourtCase" stroke="none" stroke-width="1" fill="none" fill-rule="evenodd">
        <path d="M1,23 L14,23 C14,21.8954305 13.1045695,21 12,21 L3,21 C1.8954305,21 1,21.8954305 1,23 Z M3,20 L12,20 C13.6568542,20 15,21.3431458 15,23 L15,24 L0,24 L0,23 C-2.02906125e-16,21.3431458 1.34314575,20 3,20 Z"
              id="Rectangle-4" fill="#000000" fill-rule="nonzero"></path>
        <path d="M2.5,3 C2.22385763,3 2,3.22385763 2,3.5 C2,3.77614237 2.22385763,4 2.5,4 L12.5,4 C12.7761424,4 13,3.77614237 13,3.5 C13,3.22385763 12.7761424,3 12.5,3 L2.5,3 Z M2.5,2 L12.5,2 C13.3284271,2 14,2.67157288 14,3.5 C14,4.32842712 13.3284271,5 12.5,5 L2.5,5 C1.67157288,5 1,4.32842712 1,3.5 C1,2.67157288 1.67157288,2 2.5,2 Z"
              id="Rectangle-5" fill="#000000" fill-rule="nonzero"></path>
        <path d="M2.5,16 C2.22385763,16 2,16.2238576 2,16.5 C2,16.7761424 2.22385763,17 2.5,17 L12.5,17 C12.7761424,17 13,16.7761424 13,16.5 C13,16.2238576 12.7761424,16 12.5,16 L2.5,16 Z M2.5,15 L12.5,15 C13.3284271,15 14,15.6715729 14,16.5 C14,17.3284271 13.3284271,18 12.5,18 L2.5,18 C1.67157288,18 1,17.3284271 1,16.5 C1,15.6715729 1.67157288,15 2.5,15 Z"
              id="Rectangle-5-Copy" fill="#000000" fill-rule="nonzero"></path>
        <path d="M4.5,5 C4.22385763,5 4,5.22385763 4,5.5 L4,14.5 C4,14.7761424 4.22385763,15 4.5,15 L10.5,15 C10.7761424,15 11,14.7761424 11,14.5 L11,5.5 C11,5.22385763 10.7761424,5 10.5,5 L4.5,5 Z M4.5,4 L10.5,4 C11.3284271,4 12,4.67157288 12,5.5 L12,14.5 C12,15.3284271 11.3284271,16 10.5,16 L4.5,16 C3.67157288,16 3,15.3284271 3,14.5 L3,5.5 C3,4.67157288 3.67157288,4 4.5,4 Z"
              id="Rectangle-5-Copy-2" fill="#000000" fill-rule="nonzero"></path>
        <path d="M12,9 L12,11 L24,11 L24,9 L12,9 Z M11,8 L25,8 L25,12 L11,12 L11,8 Z" id="Rectangle-5-Copy-3"
              fill="#000000" fill-rule="nonzero"></path>
    </g>
</svg>