<?xml version="1.0" encoding="UTF-8"?>
<svg width="24px" height="24px" viewBox="0 0 24 24" version="1.1" xmlns="http://www.w3.org/2000/svg" xmlns:xlink="http://www.w3.org/1999/xlink">
    <!-- Generator: Sketch 52.2 (67145) - http://www.bohemiancoding.com/sketch -->
    <title>CourtCase</title>
    <desc>CourtCase</desc>
    <g id="CourtCase" stroke="none" stroke-width="1" fill="none" fill-rule="evenodd">
        <g transform="translate(0.000000, 2.000000)" fill="#000000" fill-rule="nonzero">
            <path d="M1,21 L14,21 C14,19.8954305 13.1045695,19 12,19 L3,19 C1.8954305,19 1,19.8954305 1,21 Z M3,18 L12,18 C13.6568542,18 15,19.3431458 15,21 L15,22 L0,22 L0,21 C-2.02906125e-16,19.3431458 1.34314575,18 3,18 Z" id="Rectangle-4"></path>
            <path d="M2.5,1 C2.22385763,1 2,1.22385763 2,1.5 C2,1.77614237 2.22385763,2 2.5,2 L12.5,2 C12.7761424,2 13,1.77614237 13,1.5 C13,1.22385763 12.7761424,1 12.5,1 L2.5,1 Z M2.5,0 L12.5,0 C13.3284271,-2.22044605e-16 14,0.671572875 14,1.5 C14,2.32842712 13.3284271,3 12.5,3 L2.5,3 C1.67157288,3 1,2.32842712 1,1.5 C1,0.671572875 1.67157288,0 2.5,0 Z" id="Rectangle-5"></path>
            <path d="M2.5,14 C2.22385763,14 2,14.2238576 2,14.5 C2,14.7761424 2.22385763,15 2.5,15 L12.5,15 C12.7761424,15 13,14.7761424 13,14.5 C13,14.2238576 12.7761424,14 12.5,14 L2.5,14 Z M2.5,13 L12.5,13 C13.3284271,13 14,13.6715729 14,14.5 C14,15.3284271 13.3284271,16 12.5,16 L2.5,16 C1.67157288,16 1,15.3284271 1,14.5 C1,13.6715729 1.67157288,13 2.5,13 Z" id="Rectangle-5-Copy"></path>
            <path d="M4.5,3 C4.22385763,3 4,3.22385763 4,3.5 L4,12.5 C4,12.7761424 4.22385763,13 4.5,13 L10.5,13 C10.7761424,13 11,12.7761424 11,12.5 L11,3.5 C11,3.22385763 10.7761424,3 10.5,3 L4.5,3 Z M4.5,2 L10.5,2 C11.3284271,2 12,2.67157288 12,3.5 L12,12.5 C12,13.3284271 11.3284271,14 10.5,14 L4.5,14 C3.67157288,14 3,13.3284271 3,12.5 L3,3.5 C3,2.67157288 3.67157288,2 4.5,2 Z" id="Rectangle-5-Copy-2"></path>
            <path d="M12,7 L12,9 L24,9 L24,7 L12,7 Z M11,6 L25,6 L25,10 L11,10 L11,6 Z" id="Rectangle-5-Copy-3"></path>
        </g>
    </g>
</svg>