<?xml version="1.0" encoding="UTF-8"?>
<svg width="24px" height="24px" viewBox="0 0 24 24" version="1.1" xmlns="http://www.w3.org/2000/svg">
    <!-- Generator: Sketch 51.3 (57544) - http://www.bohemiancoding.com/sketch -->
    <title>CourtCaseParty</title>
    <desc>Created with Sketch.</desc>
    <defs></defs>
    <g id="CourtCaseParty" stroke="none" stroke-width="1" fill="none" fill-rule="evenodd">
        <path d="M20,22 L16,22 C15.2597176,22 14.6133738,22.4021986 14.2675644,23 L21.7324356,23 C21.3866262,22.4021986 20.7402824,22 20,22 Z M16,21 L20,21 C21.6568542,21 23,22.3431458 23,24 L13,24 C13,22.3431458 14.3431458,21 16,21 Z"
              id="Rectangle-4" fill="#000000" fill-rule="nonzero"></path>
        <rect id="Rectangle-5" stroke="#000000" fill-rule="nonzero" x="14.5" y="6.5" width="7" height="2" rx="1"></rect>
        <rect id="Rectangle-5-Copy" stroke="#000000" fill-rule="nonzero" x="14.5" y="15.5" width="7" height="2"
              rx="1"></rect>
        <rect id="Rectangle-5-Copy-2" stroke="#000000" fill-rule="nonzero" x="15.5" y="8.5" width="5" height="7"
              rx="1.5"></rect>
        <path d="M21,11 L21,13 L26,13 L26,11 L21,11 Z M20,10 L27,10 L27,14 L20,14 L20,10 Z" id="Rectangle-5-Copy-3"
              fill="#000000" fill-rule="nonzero"></path>
        <path d="M1,19 L10,19 L10,13 C10,11.3431458 8.65685425,10 7,10 L4,10 C2.34314575,10 1,11.3431458 1,13 L1,19 Z M4,9 L7,9 C9.209139,9 11,10.790861 11,13 L11,20 L0,20 L0,13 C-2.705415e-16,10.790861 1.790861,9 4,9 Z"
              id="Rectangle-6" fill="#000000" fill-rule="nonzero"></path>
        <path d="M3,12 L3,20 L2,20 L2,13 C2,12.4477153 2.44771525,12 3,12 Z" id="Line-4" fill="#000000"
              fill-rule="nonzero"></path>
        <path d="M8,12 L8,12 C8.55228475,12 9,12.4477153 9,13 L9,20 L8,20 L8,12 Z" id="Line" fill="#000000"
              fill-rule="nonzero"></path>
        <path d="M5.5,8 C6.88071187,8 8,6.88071187 8,5.5 C8,4.11928813 6.88071187,3 5.5,3 C4.11928813,3 3,4.11928813 3,5.5 C3,6.88071187 4.11928813,8 5.5,8 Z M5.5,9 C3.56700338,9 2,7.43299662 2,5.5 C2,3.56700338 3.56700338,2 5.5,2 C7.43299662,2 9,3.56700338 9,5.5 C9,7.43299662 7.43299662,9 5.5,9 Z"
              id="Oval-3" fill="#000000" fill-rule="nonzero"></path>
        <path d="M1,20 L1,23 L12,23 L12,20 L1,20 Z M0,19 L12,19 C12.5522847,19 13,19.4477153 13,20 L13,24 L0,24 L0,19 Z"
              id="Rectangle-7" fill="#000000" fill-rule="nonzero"></path>
    </g>
</svg>