<?xml version="1.0" encoding="UTF-8"?>
<svg width="24px" height="24px" viewBox="0 0 24 24" version="1.1" xmlns="http://www.w3.org/2000/svg">
    <!-- Generator: Sketch 51.3 (57544) - http://www.bohemiancoding.com/sketch -->
    <title>Directorship</title>
    <desc>Created with Sketch.</desc>
    <defs></defs>
    <g id="Directorship" stroke="none" stroke-width="1" fill="none" fill-rule="evenodd">
        <path d="M1,10 L1,14 L18,14 L18,16.2928932 L22.2928932,12 L18,7.70710678 L18,10 L1,10 Z M0,14 L0,10 C-6.76353751e-17,9.44771525 0.44771525,9 1,9 L17,9 L17,5.29289322 L23.7071068,12 L17,18.7071068 L17,15 L1,15 C0.44771525,15 6.76353751e-17,14.5522847 0,14 Z"
              id="Path-10" fill="#000000" fill-rule="nonzero"></path>
        <path d="M12,8 L1,8 C0.44771525,8 3.05125913e-18,7.55228475 -5.55111512e-16,7 L0,6 C-6.76353751e-17,5.44771525 0.44771525,5 1,5 L12,5 L12,3.29289322 L15.2071068,6.5 L12,9.70710678 L12,8 Z M13,7 L13,7.29289322 L13.7928932,6.5 L13,5.70710678 L13,6 L1,6 L1,7 L13,7 Z"
              id="Path" fill="#000000" fill-rule="nonzero"></path>
        <path d="M8,4 L0.994384766,4 C0.442100016,4 -0.00561523437,3.55228475 -0.00561523438,3 L-0.00561523438,2 C-0.00561523438,1.44771525 0.442100016,1 0.994384766,1 L8,1 L8,-0.707106781 L11.2071068,2.5 L8,5.70710678 L8,4 Z M0.994384766,3 L9,3 L9,3.29289322 L9.79289322,2.5 L9,1.70710678 L9,2 L0.994384766,2 L0.994384766,3 Z"
              id="Path-Copy-2" fill="#000000" fill-rule="nonzero"></path>
        <path d="M0,18 L0,17 C-6.76353751e-17,16.4477153 0.44771525,16 1,16 L12,16 L12,14.2928932 L15.2071068,17.5 L12,20.7071068 L12,19 L1,19 C0.44771525,19 3.05125913e-18,18.5522847 -5.55111512e-16,18 Z M1,18 L13,18 L13,18.2928932 L13.7928932,17.5 L13,16.7071068 L13,17 L1,17 L1,18 Z"
              id="Path-Copy" fill="#000000" fill-rule="nonzero"></path>
        <path d="M8,23 L1.01293945,23 C0.460654703,23 0.0129394531,22.5522847 0.0129394531,22 L0.0129394531,21 C0.0129394531,20.4477153 0.460654703,20 1.01293945,20 L8,20 L8,18.2928932 L11.2071068,21.5 L8,24.7071068 L8,23 Z M1.01293945,22 L9,22 L9,22.2928932 L9.79289322,21.5 L9,20.7071068 L9,21 L1.01293945,21 L1.01293945,22 Z"
              id="Path-Copy-3" fill="#000000" fill-rule="nonzero"></path>
    </g>
</svg>