<?xml version="1.0" encoding="UTF-8"?>
<svg width="24px" height="24px" viewBox="0 0 24 24" version="1.1" xmlns="http://www.w3.org/2000/svg" xmlns:xlink="http://www.w3.org/1999/xlink">
    <!-- Generator: Sketch 51.3 (57544) - http://www.bohemiancoding.com/sketch -->
    <title>Directorship</title>
    <desc>Created with Sketch.</desc>
    <defs></defs>
    <g id="Directorship" stroke="none" stroke-width="1" fill="none" fill-rule="evenodd">
        <polygon id="Path-10" stroke="#106ba3" fill-rule="nonzero" points="0.5 9.5 17.5 9.5 17.5 6.5 23 12 17.5 17.5 17.5 14.5 0.5 14.5"></polygon>
        <polygon id="Path" stroke="#106ba3" fill-rule="nonzero" points="0.5 7.5 12.5 7.5 12.5 8.5 14.5 6.5 12.5 4.5 12.5 5.5 0.5 5.5"></polygon>
        <polygon id="Path-Copy-2" stroke="#106ba3" fill-rule="nonzero" points="0.494384766 3.5 8.5 3.5 8.5 4.5 10.5 2.5 8.5 0.5 8.5 1.5 0.494384766 1.5"></polygon>
        <polygon id="Path-Copy" stroke="#106ba3" fill-rule="nonzero" points="0.5 18.5 12.5 18.5 12.5 19.5 14.5 17.5 12.5 15.5 12.5 16.5 0.5 16.5"></polygon>
        <polygon id="Path-Copy-3" stroke="#106ba3" fill-rule="nonzero" points="0.512939453 22.5 8.5 22.5 8.5 23.5 10.5 21.5 8.5 19.5 8.5 20.5 0.512939453 20.5"></polygon>
    </g>
</svg>