<?xml version="1.0" encoding="UTF-8"?>
<svg width="24px" height="24px" viewBox="0 0 24 24" version="1.1" xmlns="http://www.w3.org/2000/svg" xmlns:xlink="http://www.w3.org/1999/xlink">
    <!-- Generator: Sketch 52.2 (67145) - http://www.bohemiancoding.com/sketch -->
    <title>Directorship</title>
    <desc>Directorship</desc>
    <g id="Directorship" stroke="none" stroke-width="1" fill="none" fill-rule="evenodd">
        <g transform="translate(-1.000000, -1.000000)" fill="#000000" fill-rule="nonzero">
            <path d="M2,11 L2,15 L19,15 L19,17.2928932 L23.2928932,13 L19,8.70710678 L19,11 L2,11 Z M1,15 L1,11 C1,10.4477153 1.44771525,10 2,10 L18,10 L18,6.29289322 L24.7071068,13 L18,19.7071068 L18,16 L2,16 C1.44771525,16 1,15.5522847 1,15 Z" id="Path-10"></path>
            <path d="M13,9 L2,9 C1.44771525,9 1,8.55228475 1,8 L1,7 C1,6.44771525 1.44771525,6 2,6 L13,6 L13,4.29289322 L16.2071068,7.5 L13,10.7071068 L13,9 Z M14,8 L14,8.29289322 L14.7928932,7.5 L14,6.70710678 L14,7 L2,7 L2,8 L14,8 Z" id="Path"></path>
            <path d="M9,5 L1.99438477,5 C1.44210002,5 0.994384766,4.55228475 0.994384766,4 L0.994384766,3 C0.994384766,2.44771525 1.44210002,2 1.99438477,2 L9,2 L9,0.292893219 L12.2071068,3.5 L9,6.70710678 L9,5 Z M1.99438477,4 L10,4 L10,4.29289322 L10.7928932,3.5 L10,2.70710678 L10,3 L1.99438477,3 L1.99438477,4 Z" id="Path-Copy-2"></path>
            <path d="M1,19 L1,18 C1,17.4477153 1.44771525,17 2,17 L13,17 L13,15.2928932 L16.2071068,18.5 L13,21.7071068 L13,20 L2,20 C1.44771525,20 1,19.5522847 1,19 Z M2,19 L14,19 L14,19.2928932 L14.7928932,18.5 L14,17.7071068 L14,18 L2,18 L2,19 Z" id="Path-Copy"></path>
            <path d="M9,24 L2.01293945,24 C1.4606547,24 1.01293945,23.5522847 1.01293945,23 L1.01293945,22 C1.01293945,21.4477153 1.4606547,21 2.01293945,21 L9,21 L9,19.2928932 L12.2071068,22.5 L9,25.7071068 L9,24 Z M2.01293945,23 L10,23 L10,23.2928932 L10.7928932,22.5 L10,21.7071068 L10,22 L2.01293945,22 L2.01293945,23 Z" id="Path-Copy-3"></path>
        </g>
    </g>
</svg>