<?xml version="1.0" encoding="UTF-8"?>
<svg width="24px" height="24px" viewBox="0 0 24 24" version="1.1" xmlns="http://www.w3.org/2000/svg" xmlns:xlink="http://www.w3.org/1999/xlink">
    <!-- Generator: Sketch 52.2 (67145) - http://www.bohemiancoding.com/sketch -->
    <title>DocumentDOC</title>
    <desc>DocumentDOC</desc>
    <g id="DocumentDOC" stroke="none" stroke-width="1" fill="none" fill-rule="evenodd">
        <g transform="translate(3.000000, 0.000000)" fill="#000000" fill-rule="nonzero">
            <path d="M3,3.5 L3,3.5 C3,3.22385763 3.22385763,3 3.5,3 L11.5,3 C11.7761424,3 12,3.22385763 12,3.5 L12,3.5 C12,3.77614237 11.7761424,4 11.5,4 L3.5,4 C3.22385763,4 3,3.77614237 3,3.5 Z" id="Line-Copy-3"></path>
            <path d="M3,6.5 L3,6.5 C3,6.22385763 3.22385763,6 3.5,6 L14.5,6 C14.7761424,6 15,6.22385763 15,6.5 L15,6.5 C15,6.77614237 14.7761424,7 14.5,7 L3.5,7 C3.22385763,7 3,6.77614237 3,6.5 Z" id="Line-2-Copy-3"></path>
            <path d="M3,9.5 L3,9.5 C3,9.22385763 3.22385763,9 3.5,9 L14.5,9 C14.7761424,9 15,9.22385763 15,9.5 L15,9.5 C15,9.77614237 14.7761424,10 14.5,10 L3.5,10 C3.22385763,10 3,9.77614237 3,9.5 Z" id="Line-3-Copy-5"></path>
            <path d="M1,1 L1,23 L17,23 L17,4.41421356 L13.5857864,1 L1,1 Z M1,0 L13.5857864,0 C13.8510029,-4.87194788e-17 14.1053568,0.10535684 14.2928932,0.292893219 L17.7071068,3.70710678 C17.8946432,3.89464316 18,4.14899707 18,4.41421356 L18,23 C18,23.5522847 17.5522847,24 17,24 L1,24 C0.44771525,24 0,23.5522847 0,23 L0,1 C0,0.44771525 0.44771525,1.01453063e-16 1,0 Z" id="Rectangle-Copy-12"></path>
            <path d="M17,4 L18,5 L14,5 C13.4477153,5 13,4.55228475 13,4 L13,0 L14,1 L14,4 L17,4 Z M17,4 L18,5 L14,5 C13.4477153,5 13,4.55228475 13,4 L13,0 L14,1 L14,4 L17,4 Z" id="Rectangle-Copy-13"></path>
            <path d="M3,12.5 L3,12.5 C3,12.2238576 3.22385763,12 3.5,12 L14.5,12 C14.7761424,12 15,12.2238576 15,12.5 L15,12.5 C15,12.7761424 14.7761424,13 14.5,13 L3.5,13 C3.22385763,13 3,12.7761424 3,12.5 Z" id="Line-3-Copy-6"></path>
            <path d="M5,18.5 C5,17.8468906 4.58259619,17.2912711 4,17.0853529 L4,19.9146471 C4.58259619,19.7087289 5,19.1531094 5,18.5 Z M3.5,16 C4.88071187,16 6,17.1192881 6,18.5 C6,19.8807119 4.88071187,21 3.5,21 L3.5,21 C3.22385763,21 3,20.7761424 3,20.5 L3,16.5 C3,16.2238576 3.22385763,16 3.5,16 Z" id="Line-58"></path>
            <path d="M8,19.5 C8,19.7761424 8.22385763,20 8.5,20 C8.77614237,20 9,19.7761424 9,19.5 L9,17.5 C9,17.2238576 8.77614237,17 8.5,17 C8.22385763,17 8,17.2238576 8,17.5 L8,19.5 Z M7,19.5 L7,17.5 C7,16.6715729 7.67157288,16 8.5,16 C9.32842712,16 10,16.6715729 10,17.5 L10,19.5 C10,20.3284271 9.32842712,21 8.5,21 C7.67157288,21 7,20.3284271 7,19.5 Z" id="Line-58-Copy"></path>
            <path d="M14,17.5 L14,17.5 C14,17.7761424 13.7761424,18 13.5,18 L13.5,18 C13.2238576,18 13,17.7761424 13,17.5 C13,17.2238576 12.7761424,17 12.5,17 C12.2238576,17 12,17.2238576 12,17.5 L12,19.5 C12,19.7761424 12.2238576,20 12.5,20 C12.7761424,20 13,19.7761424 13,19.5 L13,19.5 C13,19.2238576 13.2238576,19 13.5,19 L13.5,19 C13.7761424,19 14,19.2238576 14,19.5 C14,20.3284271 13.3284271,21 12.5,21 C11.6715729,21 11,20.3284271 11,19.5 L11,17.5 C11,16.6715729 11.6715729,16 12.5,16 C13.3284271,16 14,16.6715729 14,17.5 Z" id="Line-59"></path>
        </g>
    </g>
</svg>