<?xml version="1.0" encoding="UTF-8"?>
<svg width="24px" height="24px" viewBox="0 0 24 24" version="1.1" xmlns="http://www.w3.org/2000/svg">
    <!-- Generator: Sketch 51.3 (57544) - http://www.bohemiancoding.com/sketch -->
    <title>DocumentUnknown</title>
    <desc>Created with Sketch.</desc>
    <defs></defs>
    <g id="DocumentUnknown" stroke="none" stroke-width="1" fill="none" fill-rule="evenodd">
        <path d="M8.77964942,18.2743401 L8.23208699,18.9560642 C7.97400436,19.2773813 7.53910211,19.3972202 7.15286255,19.2534485 L7.15286255,19.2534485 C6.99264687,19.1938107 6.91111239,19.0155842 6.9707502,18.8553685 C6.99723753,18.7842109 7.04895429,18.7252704 7.11606447,18.6897568 L7.58516093,18.4415193 C7.91261255,18.2682377 8.11743164,17.9281217 8.11743164,17.5576475 L8.11743164,17.4309387 C8.11743164,17.0675074 7.82281238,16.7728882 7.4593811,16.7728882 L7.42287561,16.7728882 C7.13071143,16.7728882 6.89386556,17.009734 6.89386556,17.3018982 C6.89386556,17.3302168 6.89613944,17.3584896 6.90066528,17.3864441 L6.92009049,17.5064268 C6.95765285,17.7384364 6.80002223,17.9569676 6.56801266,17.99453 C6.54552473,17.9981708 6.52278075,18 6.5,18 L6.5,18 C6.22385763,18 6,17.7761424 6,17.5 L6,17 C6,16.4477153 6.44771525,16 7,16 L8,16 C8.55228475,16 9,16.4477153 9,17 L9,17.6481238 C9,17.8758641 8.92226407,18.0967825 8.77964942,18.2743401 Z"
              id="Line-4-Copy-2" fill="#000000" fill-rule="nonzero"></path>
        <path d="M12.7796494,18.2743401 L12.232087,18.9560642 C11.9740044,19.2773813 11.5391021,19.3972202 11.1528625,19.2534485 L11.1528625,19.2534485 C10.9926469,19.1938107 10.9111124,19.0155842 10.9707502,18.8553685 C10.9972375,18.7842109 11.0489543,18.7252704 11.1160645,18.6897568 L11.5851609,18.4415193 C11.9126125,18.2682377 12.1174316,17.9281217 12.1174316,17.5576475 L12.1174316,17.4309387 C12.1174316,17.0675074 11.8228124,16.7728882 11.4593811,16.7728882 L11.4228756,16.7728882 C11.1307114,16.7728882 10.8938656,17.009734 10.8938656,17.3018982 C10.8938656,17.3302168 10.8961394,17.3584896 10.9006653,17.3864441 L10.9200905,17.5064268 C10.9576528,17.7384364 10.8000222,17.9569676 10.5680127,17.99453 C10.5455247,17.9981708 10.5227808,18 10.5,18 L10.5,18 C10.2238576,18 10,17.7761424 10,17.5 L10,17 C10,16.4477153 10.4477153,16 11,16 L12,16 C12.5522847,16 13,16.4477153 13,17 L13,17.6481238 C13,17.8758641 12.9222641,18.0967825 12.7796494,18.2743401 Z"
              id="Line-4-Copy-3" fill="#000000" fill-rule="nonzero"></path>
        <path d="M16.7796494,18.2743401 L16.232087,18.9560642 C15.9740044,19.2773813 15.5391021,19.3972202 15.1528625,19.2534485 L15.1528625,19.2534485 C14.9926469,19.1938107 14.9111124,19.0155842 14.9707502,18.8553685 C14.9972375,18.7842109 15.0489543,18.7252704 15.1160645,18.6897568 L15.5851609,18.4415193 C15.9126125,18.2682377 16.1174316,17.9281217 16.1174316,17.5576475 L16.1174316,17.4309387 C16.1174316,17.0675074 15.8228124,16.7728882 15.4593811,16.7728882 L15.4228756,16.7728882 C15.1307114,16.7728882 14.8938656,17.009734 14.8938656,17.3018982 C14.8938656,17.3302168 14.8961394,17.3584896 14.9006653,17.3864441 L14.9200905,17.5064268 C14.9576528,17.7384364 14.8000222,17.9569676 14.5680127,17.99453 C14.5455247,17.9981708 14.5227808,18 14.5,18 L14.5,18 C14.2238576,18 14,17.7761424 14,17.5 L14,17 C14,16.4477153 14.4477153,16 15,16 L16,16 C16.5522847,16 17,16.4477153 17,17 L17,17.6481238 C17,17.8758641 16.9222641,18.0967825 16.7796494,18.2743401 Z"
              id="Line-4-Copy-4" fill="#000000" fill-rule="nonzero"></path>
        <rect id="Rectangle-16" fill="#000000" fill-rule="nonzero" x="7" y="20" width="1" height="1"></rect>
        <rect id="Rectangle-16-Copy" fill="#000000" fill-rule="nonzero" x="11" y="20" width="1" height="1"></rect>
        <rect id="Rectangle-16-Copy-2" fill="#000000" fill-rule="nonzero" x="15" y="20" width="1" height="1"></rect>
        <path d="M6,3.5 L6,3.5 C6,3.22385763 6.22385763,3 6.5,3 L14.5,3 C14.7761424,3 15,3.22385763 15,3.5 L15,3.5 C15,3.77614237 14.7761424,4 14.5,4 L6.5,4 C6.22385763,4 6,3.77614237 6,3.5 Z"
              id="Line-Copy-3" fill="#000000" fill-rule="nonzero"></path>
        <path d="M6,6.5 L6,6.5 C6,6.22385763 6.22385763,6 6.5,6 L17.5,6 C17.7761424,6 18,6.22385763 18,6.5 L18,6.5 C18,6.77614237 17.7761424,7 17.5,7 L6.5,7 C6.22385763,7 6,6.77614237 6,6.5 Z"
              id="Line-2-Copy-3" fill="#000000" fill-rule="nonzero"></path>
        <path d="M6,9.5 L6,9.5 C6,9.22385763 6.22385763,9 6.5,9 L17.5,9 C17.7761424,9 18,9.22385763 18,9.5 L18,9.5 C18,9.77614237 17.7761424,10 17.5,10 L6.5,10 C6.22385763,10 6,9.77614237 6,9.5 Z"
              id="Line-3-Copy-5" fill="#000000" fill-rule="nonzero"></path>
        <path d="M6,12.5 L6,12.5 C6,12.2238576 6.22385763,12 6.5,12 L17.5,12 C17.7761424,12 18,12.2238576 18,12.5 L18,12.5 C18,12.7761424 17.7761424,13 17.5,13 L6.5,13 C6.22385763,13 6,12.7761424 6,12.5 Z"
              id="Line-3-Copy-6" fill="#000000" fill-rule="nonzero"></path>
        <path d="M4,1 L4,23 L20,23 L20,4.41421356 L16.5857864,1 L4,1 Z M4,0 L16.5857864,0 C16.8510029,-4.87194788e-17 17.1053568,0.10535684 17.2928932,0.292893219 L20.7071068,3.70710678 C20.8946432,3.89464316 21,4.14899707 21,4.41421356 L21,23 C21,23.5522847 20.5522847,24 20,24 L4,24 C3.44771525,24 3,23.5522847 3,23 L3,1 C3,0.44771525 3.44771525,1.01453063e-16 4,0 Z"
              id="Rectangle-Copy-12" fill="#000000" fill-rule="nonzero"></path>
        <path d="M20,4 L21,5 L17,5 C16.4477153,5 16,4.55228475 16,4 L16,0 L17,1 L17,4 L20,4 Z M20,4 L21,5 L17,5 C16.4477153,5 16,4.55228475 16,4 L16,0 L17,1 L17,4 L20,4 Z"
              id="Rectangle-Copy-13" fill="#000000" fill-rule="nonzero"></path>
    </g>
</svg>