<?xml version="1.0" encoding="UTF-8"?>
<svg width="24px" height="24px" viewBox="0 0 24 24" version="1.1" xmlns="http://www.w3.org/2000/svg" xmlns:xlink="http://www.w3.org/1999/xlink">
    <!-- Generator: Sketch 51.3 (57544) - http://www.bohemiancoding.com/sketch -->
    <title>DocumentDOC</title>
    <desc>Created with Sketch.</desc>
    <defs></defs>
    <g id="DocumentDOC" stroke="none" stroke-width="1" fill="none" fill-rule="evenodd">
        <rect id="Rectangle-Copy-3" stroke="#106ba3" fill-rule="nonzero" x="3.5" y="0.5" width="17" height="23"></rect>
        <path d="M6.5,3.5 L17.5,3.5" id="Line-Copy" stroke="#106ba3" stroke-linecap="square" fill-rule="nonzero"></path>
        <path d="M6.5,6.5 L17.5,6.5" id="Line-2-Copy" stroke="#106ba3" stroke-linecap="square" fill-rule="nonzero"></path>
        <path d="M6.5,9.5 L17.5,9.5" id="Line-3-Copy" stroke="#106ba3" stroke-linecap="square" fill-rule="nonzero"></path>
        <path d="M6.5,12.5 L17.5,12.5" id="Line-3-Copy-2" stroke="#106ba3" stroke-linecap="square" fill-rule="nonzero"></path>
        <polygon id="Path-11" stroke="#106ba3" fill-rule="nonzero" points="5.5 21.5 5.5 16.5 7.5 16.5 8.5 17.5 8.5 20.5 7.5 21.5"></polygon>
        <polygon id="Path-12" stroke="#106ba3" fill-rule="nonzero" points="11.5 16.5 10.5 17.5 10.5 20.5 11.5 21.5 12.5 21.5 13.5 20.5 13.5 17.5 12.5 16.5"></polygon>
        <polyline id="Path-13" stroke="#106ba3" fill-rule="nonzero" points="18.5 17.5 17.5 16.5 16.5 16.5 15.5 17.5 15.5 20.5 16.5 21.5 17.5 21.5 18.5 20.5"></polyline>
    </g>
</svg>