<?xml version="1.0" encoding="UTF-8"?>
<svg width="24px" height="24px" viewBox="0 0 24 24" version="1.1" xmlns="http://www.w3.org/2000/svg">
    <!-- Generator: Sketch 51.3 (57544) - http://www.bohemiancoding.com/sketch -->
    <title>DocumentPDF</title>
    <desc>Created with Sketch.</desc>
    <defs></defs>
    <g id="DocumentPDF" stroke="none" stroke-width="1" fill="none" fill-rule="evenodd">
        <path d="M6,3.5 L6,3.5 C6,3.22385763 6.22385763,3 6.5,3 L14.5,3 C14.7761424,3 15,3.22385763 15,3.5 L15,3.5 C15,3.77614237 14.7761424,4 14.5,4 L6.5,4 C6.22385763,4 6,3.77614237 6,3.5 Z"
              id="Line-Copy-4" fill="#000000" fill-rule="nonzero"></path>
        <path d="M6,6.5 L6,6.5 C6,6.22385763 6.22385763,6 6.5,6 L17.5,6 C17.7761424,6 18,6.22385763 18,6.5 L18,6.5 C18,6.77614237 17.7761424,7 17.5,7 L6.5,7 C6.22385763,7 6,6.77614237 6,6.5 Z"
              id="Line-2-Copy-4" fill="#000000" fill-rule="nonzero"></path>
        <path d="M6,9.5 L6,9.5 C6,9.22385763 6.22385763,9 6.5,9 L17.5,9 C17.7761424,9 18,9.22385763 18,9.5 L18,9.5 C18,9.77614237 17.7761424,10 17.5,10 L6.5,10 C6.22385763,10 6,9.77614237 6,9.5 Z"
              id="Line-3-Copy-7" fill="#000000" fill-rule="nonzero"></path>
        <path d="M4,1 L4,23 L20,23 L20,4.41421356 L16.5857864,1 L4,1 Z M4,0 L16.5857864,0 C16.8510029,-4.87194788e-17 17.1053568,0.10535684 17.2928932,0.292893219 L20.7071068,3.70710678 C20.8946432,3.89464316 21,4.14899707 21,4.41421356 L21,23 C21,23.5522847 20.5522847,24 20,24 L4,24 C3.44771525,24 3,23.5522847 3,23 L3,1 C3,0.44771525 3.44771525,1.01453063e-16 4,0 Z"
              id="Rectangle-Copy-14" fill="#000000" fill-rule="nonzero"></path>
        <path d="M20,4 L21,5 L17,5 C16.4477153,5 16,4.55228475 16,4 L16,0 L17,1 L17,4 L20,4 Z M20,4 L21,5 L17,5 C16.4477153,5 16,4.55228475 16,4 L16,0 L17,1 L17,4 L20,4 Z"
              id="Rectangle-Copy-15" fill="#000000" fill-rule="nonzero"></path>
        <path d="M6,12.5 L6,12.5 C6,12.2238576 6.22385763,12 6.5,12 L17.5,12 C17.7761424,12 18,12.2238576 18,12.5 L18,12.5 C18,12.7761424 17.7761424,13 17.5,13 L6.5,13 C6.22385763,13 6,12.7761424 6,12.5 Z"
              id="Line-3-Copy-8" fill="#000000" fill-rule="nonzero"></path>
        <path d="M12,18.5 C12,17.8468906 11.5825962,17.2912711 11,17.0853529 L11,19.9146471 C11.5825962,19.7087289 12,19.1531094 12,18.5 Z M10.5,16 C11.8807119,16 13,17.1192881 13,18.5 C13,19.8807119 11.8807119,21 10.5,21 L10.5,21 C10.2238576,21 10,20.7761424 10,20.5 L10,16.5 C10,16.2238576 10.2238576,16 10.5,16 Z"
              id="Line-58-Copy-2" fill="#000000" fill-rule="nonzero"></path>
        <path d="M7,18 L8,18 L8,17 L7,17 L7,18 Z M7,19 L7,20.5 C7,20.7761424 6.77614237,21 6.5,21 L6.5,21 C6.22385763,21 6,20.7761424 6,20.5 L6,17 C6,16.4477153 6.44771525,16 7,16 L8,16 C8.55228475,16 9,16.4477153 9,17 L9,18 C9,18.5522847 8.55228475,19 8,19 L7,19 Z"
              id="Line-60" fill="#000000" fill-rule="nonzero"></path>
        <path d="M15,17 L15,20.5 C15,20.7761424 14.7761424,21 14.5,21 L14.5,21 C14.2238576,21 14,20.7761424 14,20.5 L14,17 C14,16.4477153 14.4477153,16 15,16 L16.5,16 C16.7761424,16 17,16.2238576 17,16.5 L17,16.5 C17,16.7761424 16.7761424,17 16.5,17 L15,17 Z"
              id="Line-61" fill="#000000" fill-rule="nonzero"></path>
        <path d="M16.5,18.5 L16.5,18.5 C16.5,18.7761424 16.2761424,19 16,19 L14,19 L14,18 L16,18 C16.2761424,18 16.5,18.2238576 16.5,18.5 Z"
              id="Line-62" fill="#000000" fill-rule="nonzero"></path>
    </g>
</svg>