<?xml version="1.0" encoding="UTF-8"?>
<svg width="24px" height="24px" viewBox="0 0 24 24" version="1.1" xmlns="http://www.w3.org/2000/svg" xmlns:xlink="http://www.w3.org/1999/xlink">
    <!-- Generator: Sketch 52.2 (67145) - http://www.bohemiancoding.com/sketch -->
    <title>DocumentUnknown</title>
    <desc>DocumentUnknown</desc>
    <g id="DocumentUnknown" stroke="none" stroke-width="1" fill="none" fill-rule="evenodd">
        <g transform="translate(3.000000, 0.000000)" fill="#000000" fill-rule="nonzero">
            <path d="M5.77964942,18.2743401 L5.23208699,18.9560642 C4.97400436,19.2773813 4.53910211,19.3972202 4.15286255,19.2534485 L4.15286255,19.2534485 C3.99264687,19.1938107 3.91111239,19.0155842 3.9707502,18.8553685 C3.99723753,18.7842109 4.04895429,18.7252704 4.11606447,18.6897568 L4.58516093,18.4415193 C4.91261255,18.2682377 5.11743164,17.9281217 5.11743164,17.5576475 L5.11743164,17.4309387 C5.11743164,17.0675074 4.82281238,16.7728882 4.4593811,16.7728882 L4.42287561,16.7728882 C4.13071143,16.7728882 3.89386556,17.009734 3.89386556,17.3018982 C3.89386556,17.3302168 3.89613944,17.3584896 3.90066528,17.3864441 L3.92009049,17.5064268 C3.95765285,17.7384364 3.80002223,17.9569676 3.56801266,17.99453 C3.54552473,17.9981708 3.52278075,18 3.5,18 L3.5,18 C3.22385763,18 3,17.7761424 3,17.5 L3,17 C3,16.4477153 3.44771525,16 4,16 L5,16 C5.55228475,16 6,16.4477153 6,17 L6,17.6481238 C6,17.8758641 5.92226407,18.0967825 5.77964942,18.2743401 Z" id="Line-4-Copy-2"></path>
            <path d="M9.77964942,18.2743401 L9.23208699,18.9560642 C8.97400436,19.2773813 8.53910211,19.3972202 8.15286255,19.2534485 L8.15286255,19.2534485 C7.99264687,19.1938107 7.91111239,19.0155842 7.9707502,18.8553685 C7.99723753,18.7842109 8.04895429,18.7252704 8.11606447,18.6897568 L8.58516093,18.4415193 C8.91261255,18.2682377 9.11743164,17.9281217 9.11743164,17.5576475 L9.11743164,17.4309387 C9.11743164,17.0675074 8.82281238,16.7728882 8.4593811,16.7728882 L8.42287561,16.7728882 C8.13071143,16.7728882 7.89386556,17.009734 7.89386556,17.3018982 C7.89386556,17.3302168 7.89613944,17.3584896 7.90066528,17.3864441 L7.92009049,17.5064268 C7.95765285,17.7384364 7.80002223,17.9569676 7.56801266,17.99453 C7.54552473,17.9981708 7.52278075,18 7.5,18 L7.5,18 C7.22385763,18 7,17.7761424 7,17.5 L7,17 C7,16.4477153 7.44771525,16 8,16 L9,16 C9.55228475,16 10,16.4477153 10,17 L10,17.6481238 C10,17.8758641 9.92226407,18.0967825 9.77964942,18.2743401 Z" id="Line-4-Copy-3"></path>
            <path d="M13.7796494,18.2743401 L13.232087,18.9560642 C12.9740044,19.2773813 12.5391021,19.3972202 12.1528625,19.2534485 L12.1528625,19.2534485 C11.9926469,19.1938107 11.9111124,19.0155842 11.9707502,18.8553685 C11.9972375,18.7842109 12.0489543,18.7252704 12.1160645,18.6897568 L12.5851609,18.4415193 C12.9126125,18.2682377 13.1174316,17.9281217 13.1174316,17.5576475 L13.1174316,17.4309387 C13.1174316,17.0675074 12.8228124,16.7728882 12.4593811,16.7728882 L12.4228756,16.7728882 C12.1307114,16.7728882 11.8938656,17.009734 11.8938656,17.3018982 C11.8938656,17.3302168 11.8961394,17.3584896 11.9006653,17.3864441 L11.9200905,17.5064268 C11.9576528,17.7384364 11.8000222,17.9569676 11.5680127,17.99453 C11.5455247,17.9981708 11.5227808,18 11.5,18 L11.5,18 C11.2238576,18 11,17.7761424 11,17.5 L11,17 C11,16.4477153 11.4477153,16 12,16 L13,16 C13.5522847,16 14,16.4477153 14,17 L14,17.6481238 C14,17.8758641 13.9222641,18.0967825 13.7796494,18.2743401 Z" id="Line-4-Copy-4"></path>
            <rect id="Rectangle-16" x="4" y="20" width="1" height="1"></rect>
            <rect id="Rectangle-16-Copy" x="8" y="20" width="1" height="1"></rect>
            <rect id="Rectangle-16-Copy-2" x="12" y="20" width="1" height="1"></rect>
            <path d="M3,3.5 L3,3.5 C3,3.22385763 3.22385763,3 3.5,3 L11.5,3 C11.7761424,3 12,3.22385763 12,3.5 L12,3.5 C12,3.77614237 11.7761424,4 11.5,4 L3.5,4 C3.22385763,4 3,3.77614237 3,3.5 Z" id="Line-Copy-3"></path>
            <path d="M3,6.5 L3,6.5 C3,6.22385763 3.22385763,6 3.5,6 L14.5,6 C14.7761424,6 15,6.22385763 15,6.5 L15,6.5 C15,6.77614237 14.7761424,7 14.5,7 L3.5,7 C3.22385763,7 3,6.77614237 3,6.5 Z" id="Line-2-Copy-3"></path>
            <path d="M3,9.5 L3,9.5 C3,9.22385763 3.22385763,9 3.5,9 L14.5,9 C14.7761424,9 15,9.22385763 15,9.5 L15,9.5 C15,9.77614237 14.7761424,10 14.5,10 L3.5,10 C3.22385763,10 3,9.77614237 3,9.5 Z" id="Line-3-Copy-5"></path>
            <path d="M3,12.5 L3,12.5 C3,12.2238576 3.22385763,12 3.5,12 L14.5,12 C14.7761424,12 15,12.2238576 15,12.5 L15,12.5 C15,12.7761424 14.7761424,13 14.5,13 L3.5,13 C3.22385763,13 3,12.7761424 3,12.5 Z" id="Line-3-Copy-6"></path>
            <path d="M1,1 L1,23 L17,23 L17,4.41421356 L13.5857864,1 L1,1 Z M1,0 L13.5857864,0 C13.8510029,-4.87194788e-17 14.1053568,0.10535684 14.2928932,0.292893219 L17.7071068,3.70710678 C17.8946432,3.89464316 18,4.14899707 18,4.41421356 L18,23 C18,23.5522847 17.5522847,24 17,24 L1,24 C0.44771525,24 0,23.5522847 0,23 L0,1 C0,0.44771525 0.44771525,1.01453063e-16 1,0 Z" id="Rectangle-Copy-12"></path>
            <path d="M17,4 L18,5 L14,5 C13.4477153,5 13,4.55228475 13,4 L13,0 L14,1 L14,4 L17,4 Z M17,4 L18,5 L14,5 C13.4477153,5 13,4.55228475 13,4 L13,0 L14,1 L14,4 L17,4 Z" id="Rectangle-Copy-13"></path>
        </g>
    </g>
</svg>