<?xml version="1.0" encoding="UTF-8"?>
<svg width="24px" height="24px" viewBox="0 0 24 24" version="1.1" xmlns="http://www.w3.org/2000/svg">
    <!-- Generator: Sketch 51.3 (57544) - http://www.bohemiancoding.com/sketch -->
    <title>DocumentDOC</title>
    <desc>Created with Sketch.</desc>
    <defs></defs>
    <g id="DocumentDOC" stroke="none" stroke-width="1" fill="none" fill-rule="evenodd">
        <path d="M6,3.5 L6,3.5 C6,3.22385763 6.22385763,3 6.5,3 L14.5,3 C14.7761424,3 15,3.22385763 15,3.5 L15,3.5 C15,3.77614237 14.7761424,4 14.5,4 L6.5,4 C6.22385763,4 6,3.77614237 6,3.5 Z"
              id="Line-Copy-3" fill="#000000" fill-rule="nonzero"></path>
        <path d="M6,6.5 L6,6.5 C6,6.22385763 6.22385763,6 6.5,6 L17.5,6 C17.7761424,6 18,6.22385763 18,6.5 L18,6.5 C18,6.77614237 17.7761424,7 17.5,7 L6.5,7 C6.22385763,7 6,6.77614237 6,6.5 Z"
              id="Line-2-Copy-3" fill="#000000" fill-rule="nonzero"></path>
        <path d="M6,9.5 L6,9.5 C6,9.22385763 6.22385763,9 6.5,9 L17.5,9 C17.7761424,9 18,9.22385763 18,9.5 L18,9.5 C18,9.77614237 17.7761424,10 17.5,10 L6.5,10 C6.22385763,10 6,9.77614237 6,9.5 Z"
              id="Line-3-Copy-5" fill="#000000" fill-rule="nonzero"></path>
        <path d="M4,1 L4,23 L20,23 L20,4.41421356 L16.5857864,1 L4,1 Z M4,0 L16.5857864,0 C16.8510029,-4.87194788e-17 17.1053568,0.10535684 17.2928932,0.292893219 L20.7071068,3.70710678 C20.8946432,3.89464316 21,4.14899707 21,4.41421356 L21,23 C21,23.5522847 20.5522847,24 20,24 L4,24 C3.44771525,24 3,23.5522847 3,23 L3,1 C3,0.44771525 3.44771525,1.01453063e-16 4,0 Z"
              id="Rectangle-Copy-12" fill="#000000" fill-rule="nonzero"></path>
        <path d="M20,4 L21,5 L17,5 C16.4477153,5 16,4.55228475 16,4 L16,0 L17,1 L17,4 L20,4 Z M20,4 L21,5 L17,5 C16.4477153,5 16,4.55228475 16,4 L16,0 L17,1 L17,4 L20,4 Z"
              id="Rectangle-Copy-13" fill="#000000" fill-rule="nonzero"></path>
        <path d="M6,12.5 L6,12.5 C6,12.2238576 6.22385763,12 6.5,12 L17.5,12 C17.7761424,12 18,12.2238576 18,12.5 L18,12.5 C18,12.7761424 17.7761424,13 17.5,13 L6.5,13 C6.22385763,13 6,12.7761424 6,12.5 Z"
              id="Line-3-Copy-6" fill="#000000" fill-rule="nonzero"></path>
        <path d="M8,18.5 C8,17.8468906 7.58259619,17.2912711 7,17.0853529 L7,19.9146471 C7.58259619,19.7087289 8,19.1531094 8,18.5 Z M6.5,16 C7.88071187,16 9,17.1192881 9,18.5 C9,19.8807119 7.88071187,21 6.5,21 L6.5,21 C6.22385763,21 6,20.7761424 6,20.5 L6,16.5 C6,16.2238576 6.22385763,16 6.5,16 Z"
              id="Line-58" fill="#000000" fill-rule="nonzero"></path>
        <path d="M11,19.5 C11,19.7761424 11.2238576,20 11.5,20 C11.7761424,20 12,19.7761424 12,19.5 L12,17.5 C12,17.2238576 11.7761424,17 11.5,17 C11.2238576,17 11,17.2238576 11,17.5 L11,19.5 Z M10,19.5 L10,17.5 C10,16.6715729 10.6715729,16 11.5,16 C12.3284271,16 13,16.6715729 13,17.5 L13,19.5 C13,20.3284271 12.3284271,21 11.5,21 C10.6715729,21 10,20.3284271 10,19.5 Z"
              id="Line-58-Copy" fill="#000000" fill-rule="nonzero"></path>
        <path d="M17,17.5 L17,17.5 C17,17.7761424 16.7761424,18 16.5,18 L16.5,18 C16.2238576,18 16,17.7761424 16,17.5 C16,17.2238576 15.7761424,17 15.5,17 C15.2238576,17 15,17.2238576 15,17.5 L15,19.5 C15,19.7761424 15.2238576,20 15.5,20 C15.7761424,20 16,19.7761424 16,19.5 L16,19.5 C16,19.2238576 16.2238576,19 16.5,19 L16.5,19 C16.7761424,19 17,19.2238576 17,19.5 C17,20.3284271 16.3284271,21 15.5,21 C14.6715729,21 14,20.3284271 14,19.5 L14,17.5 C14,16.6715729 14.6715729,16 15.5,16 C16.3284271,16 17,16.6715729 17,17.5 Z"
              id="Line-59" fill="#000000" fill-rule="nonzero"></path>
    </g>
</svg>