<?xml version="1.0" encoding="UTF-8"?>
<svg width="24px" height="24px" viewBox="0 0 24 24" version="1.1" xmlns="http://www.w3.org/2000/svg" xmlns:xlink="http://www.w3.org/1999/xlink">
    <!-- Generator: Sketch 52.2 (67145) - http://www.bohemiancoding.com/sketch -->
    <title>Pages</title>
    <desc>Pages</desc>
    <g id="Pages" stroke="none" stroke-width="1" fill="none" fill-rule="evenodd">
        <g transform="translate(2.000000, 0.000000)" fill="#000000" fill-rule="nonzero">
            <path d="M1,7 L1,23 L13,23 L13,7 L1,7 Z M1,6 L13,6 C13.5,6 14,6.5 14,7 L14,23 C14,23.5522847 13.5522847,24 13,24 L1,24 C0.44771525,24 0,23.5522847 0,23 L0,7 C0,6.44771525 0.44771525,6 1,6 Z" id="Rectangle-Copy-6"></path>
            <path d="M2,9.5 L2,9.5 C2,9.22385763 2.22385763,9 2.5,9 L11.5,9 C11.7761424,9 12,9.22385763 12,9.5 L12,9.5 C12,9.77614237 11.7761424,10 11.5,10 L2.5,10 C2.22385763,10 2,9.77614237 2,9.5 Z" id="Line-Copy-4"></path>
            <path d="M2,17.5 L2,17.5 C2,17.2238576 2.22385763,17 2.5,17 L11.5,17 C11.7761424,17 12,17.2238576 12,17.5 L12,17.5 C12,17.7761424 11.7761424,18 11.5,18 L2.5,18 C2.22385763,18 2,17.7761424 2,17.5 Z" id="Line-Copy-9"></path>
            <path d="M2,11.5 L2,11.5 C2,11.2238576 2.22385763,11 2.5,11 L9.5,11 C9.77614237,11 10,11.2238576 10,11.5 L10,11.5 C10,11.7761424 9.77614237,12 9.5,12 L2.5,12 C2.22385763,12 2,11.7761424 2,11.5 Z" id="Line-Copy-5"></path>
            <path d="M2,15.5 L2,15.5 C2,15.2238576 2.22385763,15 2.5,15 L10.5,15 C10.7761424,15 11,15.2238576 11,15.5 L11,15.5 C11,15.7761424 10.7761424,16 10.5,16 L2.5,16 C2.22385763,16 2,15.7761424 2,15.5 Z" id="Line-Copy-8"></path>
            <path d="M2,21.5 L2,21.5 C2,21.2238576 2.22385763,21 2.5,21 L10.5,21 C10.7761424,21 11,21.2238576 11,21.5 L11,21.5 C11,21.7761424 10.7761424,22 10.5,22 L2.5,22 C2.22385763,22 2,21.7761424 2,21.5 Z" id="Line-Copy-12"></path>
            <path d="M2,13.5 L2,13.5 C2,13.2238576 2.22385763,13 2.5,13 L6.5,13 C6.77614237,13 7,13.2238576 7,13.5 L7,13.5 C7,13.7761424 6.77614237,14 6.5,14 L2.5,14 C2.22385763,14 2,13.7761424 2,13.5 Z" id="Line-Copy-6"></path>
            <path d="M2,19.5 L2,19.5 C2,19.2238576 2.22385763,19 2.5,19 L4.5,19 C4.77614237,19 5,19.2238576 5,19.5 L5,19.5 C5,19.7761424 4.77614237,20 4.5,20 L2.5,20 C2.22385763,20 2,19.7761424 2,19.5 Z" id="Line-Copy-10"></path>
            <path d="M8,13.5 L8,13.5 C8,13.2238576 8.22385763,13 8.5,13 L11.5,13 C11.7761424,13 12,13.2238576 12,13.5 L12,13.5 C12,13.7761424 11.7761424,14 11.5,14 L8.5,14 C8.22385763,14 8,13.7761424 8,13.5 Z" id="Line-Copy-7"></path>
            <path d="M6,19.5 L6,19.5 C6,19.2238576 6.22385763,19 6.5,19 L11.5,19 C11.7761424,19 12,19.2238576 12,19.5 L12,19.5 C12,19.7761424 11.7761424,20 11.5,20 L6.5,20 C6.22385763,20 6,19.7761424 6,19.5 Z" id="Line-Copy-11"></path>
            <path d="M3,6.5 L2,6.5 L2,5.5 C2,4.67157288 2.67157288,4 3.5,4 L14.5,4 C15.3284271,4 16,4.67157288 16,5.5 L16,20.5 C16,21.3284271 15.3284271,22 14.5,22 L13.5,22 L13.5,21 L14.5,21 C14.7761424,21 15,20.7761424 15,20.5 L15,5.5 C15,5.22385763 14.7761424,5 14.5,5 L3.5,5 C3.22385763,5 3,5.22385763 3,5.5 L3,6.5 Z" id="Line-19"></path>
            <path d="M5,4.5 L4,4.5 L4,3.5 C4,2.67157288 4.67157288,2 5.5,2 L16.5,2 C17.3284271,2 18,2.67157288 18,3.5 L18,18.5 C18,19.3284271 17.3284271,20 16.5,20 L15.5,20 L15.5,19 L16.5,19 C16.7761424,19 17,18.7761424 17,18.5 L17,3.5 C17,3.22385763 16.7761424,3 16.5,3 L5.5,3 C5.22385763,3 5,3.22385763 5,3.5 L5,4.5 Z" id="Line-19-Copy"></path>
            <path d="M7,2.5 L6,2.5 L6,1.5 C6,0.671572875 6.67157288,0 7.5,0 L18.5,0 C19.3284271,0 20,0.671572875 20,1.5 L20,16.5 C20,17.3284271 19.3284271,18 18.5,18 L17.5,18 L17.5,17 L18.5,17 C18.7761424,17 19,16.7761424 19,16.5 L19,1.5 C19,1.22385763 18.7761424,1 18.5,1 L7.5,1 C7.22385763,1 7,1.22385763 7,1.5 L7,2.5 Z" id="Line-19-Copy-2"></path>
        </g>
    </g>
</svg>