<?xml version="1.0" encoding="UTF-8"?>
<svg width="24px" height="24px" viewBox="0 0 24 24" version="1.1" xmlns="http://www.w3.org/2000/svg">
    <!-- Generator: Sketch 51.3 (57544) - http://www.bohemiancoding.com/sketch -->
    <title>DocumentTXT</title>
    <desc>Created with Sketch.</desc>
    <defs></defs>
    <g id="DocumentTXT" stroke="none" stroke-width="1" fill="none" fill-rule="evenodd">
        <path d="M6,3.5 L6,3.5 C6,3.22385763 6.22385763,3 6.5,3 L14.5,3 C14.7761424,3 15,3.22385763 15,3.5 L15,3.5 C15,3.77614237 14.7761424,4 14.5,4 L6.5,4 C6.22385763,4 6,3.77614237 6,3.5 Z"
              id="Line-Copy-2" fill="#000000" fill-rule="nonzero"></path>
        <path d="M6,6.5 L6,6.5 C6,6.22385763 6.22385763,6 6.5,6 L17.5,6 C17.7761424,6 18,6.22385763 18,6.5 L18,6.5 C18,6.77614237 17.7761424,7 17.5,7 L6.5,7 C6.22385763,7 6,6.77614237 6,6.5 Z"
              id="Line-2-Copy-2" fill="#000000" fill-rule="nonzero"></path>
        <path d="M6,9.5 L6,9.5 C6,9.22385763 6.22385763,9 6.5,9 L17.5,9 C17.7761424,9 18,9.22385763 18,9.5 L18,9.5 C18,9.77614237 17.7761424,10 17.5,10 L6.5,10 C6.22385763,10 6,9.77614237 6,9.5 Z"
              id="Line-3-Copy-3" fill="#000000" fill-rule="nonzero"></path>
        <path d="M6,12.5 L6,12.5 C6,12.2238576 6.22385763,12 6.5,12 L17.5,12 C17.7761424,12 18,12.2238576 18,12.5 L18,12.5 C18,12.7761424 17.7761424,13 17.5,13 L6.5,13 C6.22385763,13 6,12.7761424 6,12.5 Z"
              id="Line-3-Copy-4" fill="#000000" fill-rule="nonzero"></path>
        <path d="M6,16.5 L6,16.5 C6,16.2238576 6.22385763,16 6.5,16 L8.5,16 C8.77614237,16 9,16.2238576 9,16.5 L9,16.5 C9,16.7761424 8.77614237,17 8.5,17 L6.5,17 C6.22385763,17 6,16.7761424 6,16.5 Z"
              id="Line-21" fill="#000000" fill-rule="nonzero"></path>
        <path d="M7,16 L8,16 L8,20.5 C8,20.7761424 7.77614237,21 7.5,21 L7.5,21 C7.22385763,21 7,20.7761424 7,20.5 L7,16 Z"
              id="Line" fill="#000000" fill-rule="nonzero"></path>
        <path d="M14,16.5 L14,16.5 C14,16.2238576 14.2238576,16 14.5,16 L16.5,16 C16.7761424,16 17,16.2238576 17,16.5 L17,16.5 C17,16.7761424 16.7761424,17 16.5,17 L14.5,17 C14.2238576,17 14,16.7761424 14,16.5 Z"
              id="Line-4" fill="#000000" fill-rule="nonzero"></path>
        <path d="M15,16 L16,16 L16,20.5 C16,20.7761424 15.7761424,21 15.5,21 L15.5,21 C15.2238576,21 15,20.7761424 15,20.5 L15,16 Z"
              id="Line-5" fill="#000000" fill-rule="nonzero"></path>
        <path d="M10.5,16 L10.5,16 C10.7761424,16 11,16.2238576 11,16.5 L11,17.0857864 C11,17.2183947 11.0526784,17.3455716 11.1464466,17.4393398 L12.5606602,18.8535534 C12.8419647,19.134858 13,19.5163888 13,19.9142136 L13,20.5 C13,20.7761424 12.7761424,21 12.5,21 L12.5,21 C12.2238576,21 12,20.7761424 12,20.5 L12,19.9142136 C12,19.7816053 11.9473216,19.6544284 11.8535534,19.5606602 L10.4393398,18.1464466 C10.1580353,17.865142 10,17.4836112 10,17.0857864 L10,16.5 C10,16.2238576 10.2238576,16 10.5,16 Z"
              id="Line-5-Copy-2" fill="#000000" fill-rule="nonzero"></path>
        <path d="M12.5,16 L12.5,16 C12.7761424,16 13,16.2238576 13,16.5 L13,17.0857864 C13,17.4836112 12.8419647,17.865142 12.5606602,18.1464466 L11.1464466,19.5606602 C11.0526784,19.6544284 11,19.7816053 11,19.9142136 L11,20.5 C11,20.7761424 10.7761424,21 10.5,21 L10.5,21 C10.2238576,21 10,20.7761424 10,20.5 L10,19.9142136 C10,19.5163888 10.1580353,19.134858 10.4393398,18.8535534 L11.8535534,17.4393398 C11.9473216,17.3455716 12,17.2183947 12,17.0857864 L12,16.5 C12,16.2238576 12.2238576,16 12.5,16 Z"
              id="Line-5-Copy" fill="#000000" fill-rule="nonzero"></path>
        <path d="M4,1 L4,23 L20,23 L20,4.41421356 L16.5857864,1 L4,1 Z M4,0 L16.5857864,0 C16.8510029,-4.87194788e-17 17.1053568,0.10535684 17.2928932,0.292893219 L20.7071068,3.70710678 C20.8946432,3.89464316 21,4.14899707 21,4.41421356 L21,23 C21,23.5522847 20.5522847,24 20,24 L4,24 C3.44771525,24 3,23.5522847 3,23 L3,1 C3,0.44771525 3.44771525,1.01453063e-16 4,0 Z"
              id="Rectangle-Copy-10" fill="#000000" fill-rule="nonzero"></path>
        <path d="M20,4 L21,5 L17,5 C16.4477153,5 16,4.55228475 16,4 L16,0 L17,1 L17,4 L20,4 Z M20,4 L21,5 L17,5 C16.4477153,5 16,4.55228475 16,4 L16,0 L17,1 L17,4 L20,4 Z"
              id="Rectangle-Copy-11" fill="#000000" fill-rule="nonzero"></path>
    </g>
</svg>