<?xml version="1.0" encoding="UTF-8"?>
<svg width="24px" height="24px" viewBox="0 0 24 24" version="1.1" xmlns="http://www.w3.org/2000/svg">
    <!-- Generator: Sketch 51.3 (57544) - http://www.bohemiancoding.com/sketch -->
    <title>EconomicActivity</title>
    <desc>Created with Sketch.</desc>
    <defs></defs>
    <g id="EconomicActivity" stroke="none" stroke-width="1" fill="none" fill-rule="evenodd">
        <path d="M3,8 L3,16 L21,16 L21,8 L3,8 Z M3,7 L21,7 C21.5522847,7 22,7.44771525 22,8 L22,16 C22,16.5522847 21.5522847,17 21,17 L3,17 C2.44771525,17 2,16.5522847 2,16 L2,8 C2,7.44771525 2.44771525,7 3,7 Z"
              id="Rectangle-8" fill="#000000" fill-rule="nonzero"></path>
        <path d="M3,8 L3,10 L4,10 C4.55228475,10 5,9.55228475 5,9 L5,8 L3,8 Z M3,7 L6,7 L6,9 C6,10.1045695 5.1045695,11 4,11 L2,11 L2,8 C2,7.44771525 2.44771525,7 3,7 Z"
              id="Rectangle-8-Copy" fill="#000000" fill-rule="nonzero"></path>
        <path d="M19,8 L19,10 L20,10 C20.5522847,10 21,9.55228475 21,9 L21,8 L19,8 Z M19,7 L22,7 L22,9 C22,10.1045695 21.1045695,11 20,11 L18,11 L18,8 C18,7.44771525 18.4477153,7 19,7 Z"
              id="Rectangle-8-Copy-4" fill="#000000" fill-rule="nonzero"
              transform="translate(20.000000, 9.000000) rotate(-270.000000) translate(-20.000000, -9.000000) "></path>
        <path d="M3,14 L3,16 L4,16 C4.55228475,16 5,15.5522847 5,15 L5,14 L3,14 Z M3,13 L6,13 L6,15 C6,16.1045695 5.1045695,17 4,17 L2,17 L2,14 C2,13.4477153 2.44771525,13 3,13 Z"
              id="Rectangle-8-Copy-2" fill="#000000" fill-rule="nonzero"
              transform="translate(4.000000, 15.000000) rotate(-90.000000) translate(-4.000000, -15.000000) "></path>
        <path d="M19,14 L19,16 L20,16 C20.5522847,16 21,15.5522847 21,15 L21,14 L19,14 Z M19,13 L22,13 L22,15 C22,16.1045695 21.1045695,17 20,17 L18,17 L18,14 C18,13.4477153 18.4477153,13 19,13 Z"
              id="Rectangle-8-Copy-3" fill="#000000" fill-rule="nonzero"
              transform="translate(20.000000, 15.000000) rotate(-180.000000) translate(-20.000000, -15.000000) "></path>
        <path d="M12,14 C13.709139,14 15,13.0318542 15,12 C15,10.9681458 13.709139,10 12,10 C10.290861,10 9,10.9681458 9,12 C9,13.0318542 10.290861,14 12,14 Z M12,15 C9.790861,15 8,13.6568542 8,12 C8,10.3431458 9.790861,9 12,9 C14.209139,9 16,10.3431458 16,12 C16,13.6568542 14.209139,15 12,15 Z"
              id="Oval-4" fill="#000000" fill-rule="nonzero"></path>
        <path d="M15,1 L16.5,1 C18.4329966,1 20,2.56700338 20,4.5 L20,5 C20,5.55228475 19.5522847,6 19,6 L18,6 C17.4477153,6 17,5.55228475 17,5 L17,4.5 C17,4.22385763 16.7761424,4 16.5,4 L15,4 L15,5.70710678 L11.7928932,2.5 L15,-0.707106781 L15,1 Z M19,5 L19,4.5 C19,3.11928813 17.8807119,2 16.5,2 L14,2 L14,1.70710678 L13.2071068,2.5 L14,3.29289322 L14,3 L16.5,3 C17.3284271,3 18,3.67157288 18,4.5 L18,5 L19,5 Z"
              id="Path-18" fill="#000000" fill-rule="nonzero"></path>
        <path d="M7.20710678,19.7071068 L8.70710678,19.7071068 C10.6401034,19.7071068 12.2071068,21.2741102 12.2071068,23.2071068 L12.2071068,23.7071068 C12.2071068,24.2593915 11.7593915,24.7071068 11.2071068,24.7071068 L10.2071068,24.7071068 C9.65482203,24.7071068 9.20710678,24.2593915 9.20710678,23.7071068 L9.20710678,23.2071068 C9.20710678,22.9309644 8.98324916,22.7071068 8.70710678,22.7071068 L7.20710678,22.7071068 L7.20710678,24.4142136 L4,21.2071068 L7.20710678,18 L7.20710678,19.7071068 Z M10.2071068,23.7071068 L11.2071068,23.7071068 L11.2071068,23.2071068 C11.2071068,21.8263949 10.0878187,20.7071068 8.70710678,20.7071068 L6.20710678,20.7071068 L6.20710678,20.4142136 L5.41421356,21.2071068 L6.20710678,22 L6.20710678,21.7071068 L8.70710678,21.7071068 C9.53553391,21.7071068 10.2071068,22.3786797 10.2071068,23.2071068 L10.2071068,23.7071068 Z"
              id="Path-18-Copy" fill="#000000" fill-rule="nonzero"
              transform="translate(8.103553, 21.353553) rotate(180.000000) translate(-8.103553, -21.353553) "></path>
    </g>
</svg>