<?xml version="1.0" encoding="UTF-8"?>
<svg width="24px" height="24px" viewBox="0 0 24 24" version="1.1" xmlns="http://www.w3.org/2000/svg" xmlns:xlink="http://www.w3.org/1999/xlink">
    <!-- Generator: Sketch 52.2 (67145) - http://www.bohemiancoding.com/sketch -->
    <title>EconomicActivity</title>
    <desc>EconomicActivity</desc>
    <g id="EconomicActivity" stroke="none" stroke-width="1" fill="none" fill-rule="evenodd">
        <g transform="translate(2.000000, -1.000000)" fill="#000000" fill-rule="nonzero">
            <path d="M1,9 L1,17 L19,17 L19,9 L1,9 Z M1,8 L19,8 C19.5522847,8 20,8.44771525 20,9 L20,17 C20,17.5522847 19.5522847,18 19,18 L1,18 C0.44771525,18 6.76353751e-17,17.5522847 0,17 L0,9 C-6.76353751e-17,8.44771525 0.44771525,8 1,8 Z" id="Rectangle-8"></path>
            <path d="M1,9 L1,11 L2,11 C2.55228475,11 3,10.5522847 3,10 L3,9 L1,9 Z M1,8 L4,8 L4,10 C4,11.1045695 3.1045695,12 2,12 L0,12 L0,9 C-6.76353751e-17,8.44771525 0.44771525,8 1,8 Z" id="Rectangle-8-Copy"></path>
            <path d="M17,9 L17,11 L18,11 C18.5522847,11 19,10.5522847 19,10 L19,9 L17,9 Z M17,8 L20,8 L20,10 C20,11.1045695 19.1045695,12 18,12 L16,12 L16,9 C16,8.44771525 16.4477153,8 17,8 Z" id="Rectangle-8-Copy-4" transform="translate(18.000000, 10.000000) rotate(-270.000000) translate(-18.000000, -10.000000) "></path>
            <path d="M1,15 L1,17 L2,17 C2.55228475,17 3,16.5522847 3,16 L3,15 L1,15 Z M1,14 L4,14 L4,16 C4,17.1045695 3.1045695,18 2,18 L0,18 L0,15 C-6.76353751e-17,14.4477153 0.44771525,14 1,14 Z" id="Rectangle-8-Copy-2" transform="translate(2.000000, 16.000000) rotate(-90.000000) translate(-2.000000, -16.000000) "></path>
            <path d="M17,15 L17,17 L18,17 C18.5522847,17 19,16.5522847 19,16 L19,15 L17,15 Z M17,14 L20,14 L20,16 C20,17.1045695 19.1045695,18 18,18 L16,18 L16,15 C16,14.4477153 16.4477153,14 17,14 Z" id="Rectangle-8-Copy-3" transform="translate(18.000000, 16.000000) rotate(-180.000000) translate(-18.000000, -16.000000) "></path>
            <path d="M10,15 C11.709139,15 13,14.0318542 13,13 C13,11.9681458 11.709139,11 10,11 C8.290861,11 7,11.9681458 7,13 C7,14.0318542 8.290861,15 10,15 Z M10,16 C7.790861,16 6,14.6568542 6,13 C6,11.3431458 7.790861,10 10,10 C12.209139,10 14,11.3431458 14,13 C14,14.6568542 12.209139,16 10,16 Z" id="Oval-4"></path>
            <path d="M13,2 L14.5,2 C16.4329966,2 18,3.56700338 18,5.5 L18,6 C18,6.55228475 17.5522847,7 17,7 L16,7 C15.4477153,7 15,6.55228475 15,6 L15,5.5 C15,5.22385763 14.7761424,5 14.5,5 L13,5 L13,6.70710678 L9.79289322,3.5 L13,0.292893219 L13,2 Z M17,6 L17,5.5 C17,4.11928813 15.8807119,3 14.5,3 L12,3 L12,2.70710678 L11.2071068,3.5 L12,4.29289322 L12,4 L14.5,4 C15.3284271,4 16,4.67157288 16,5.5 L16,6 L17,6 Z" id="Path-18"></path>
            <path d="M5.20710678,20.7071068 L6.70710678,20.7071068 C8.64010341,20.7071068 10.2071068,22.2741102 10.2071068,24.2071068 L10.2071068,24.7071068 C10.2071068,25.2593915 9.75939153,25.7071068 9.20710678,25.7071068 L8.20710678,25.7071068 C7.65482203,25.7071068 7.20710678,25.2593915 7.20710678,24.7071068 L7.20710678,24.2071068 C7.20710678,23.9309644 6.98324916,23.7071068 6.70710678,23.7071068 L5.20710678,23.7071068 L5.20710678,25.4142136 L2,22.2071068 L5.20710678,19 L5.20710678,20.7071068 Z M8.20710678,24.7071068 L9.20710678,24.7071068 L9.20710678,24.2071068 C9.20710678,22.8263949 8.08781866,21.7071068 6.70710678,21.7071068 L4.20710678,21.7071068 L4.20710678,21.4142136 L3.41421356,22.2071068 L4.20710678,23 L4.20710678,22.7071068 L6.70710678,22.7071068 C7.53553391,22.7071068 8.20710678,23.3786797 8.20710678,24.2071068 L8.20710678,24.7071068 Z" id="Path-18-Copy" transform="translate(6.103553, 22.353553) rotate(180.000000) translate(-6.103553, -22.353553) "></path>
        </g>
    </g>
</svg>