<?xml version="1.0" encoding="UTF-8"?>
<svg width="24px" height="24px" viewBox="0 0 24 24" version="1.1" xmlns="http://www.w3.org/2000/svg" xmlns:xlink="http://www.w3.org/1999/xlink">
    <!-- Generator: Sketch 51.3 (57544) - http://www.bohemiancoding.com/sketch -->
    <title>EconomicActivity</title>
    <desc>Created with Sketch.</desc>
    <defs></defs>
    <g id="EconomicActivity" stroke="none" stroke-width="1" fill="none" fill-rule="evenodd">
        <rect id="Rectangle-8" stroke="#106ba3" fill-rule="nonzero" x="1.5" y="7.5" width="21" height="9"></rect>
        <path d="M1.5,7.5 L1.5,10.5 L3,10.5 C3.82842712,10.5 4.5,9.82842712 4.5,9 L4.5,7.5 L1.5,7.5 Z" id="Rectangle-8-Copy" stroke="#106ba3" fill-rule="nonzero"></path>
        <path d="M19.5,7.5 L19.5,10.5 L21,10.5 C21.8284271,10.5 22.5,9.82842712 22.5,9 L22.5,7.5 L19.5,7.5 Z" id="Rectangle-8-Copy-4" stroke="#106ba3" fill-rule="nonzero" transform="translate(21.000000, 9.000000) rotate(-270.000000) translate(-21.000000, -9.000000) "></path>
        <path d="M1.5,13.5 L1.5,16.5 L3,16.5 C3.82842712,16.5 4.5,15.8284271 4.5,15 L4.5,13.5 L1.5,13.5 Z" id="Rectangle-8-Copy-2" stroke="#106ba3" fill-rule="nonzero" transform="translate(3.000000, 15.000000) rotate(-90.000000) translate(-3.000000, -15.000000) "></path>
        <path d="M19.5,13.5 L19.5,16.5 L21,16.5 C21.8284271,16.5 22.5,15.8284271 22.5,15 L22.5,13.5 L19.5,13.5 Z" id="Rectangle-8-Copy-3" stroke="#106ba3" fill-rule="nonzero" transform="translate(21.000000, 15.000000) rotate(-180.000000) translate(-21.000000, -15.000000) "></path>
        <ellipse id="Oval-4" stroke="#106ba3" fill-rule="nonzero" cx="12" cy="12" rx="3.5" ry="2.5"></ellipse>
        <polygon id="Path-18" stroke="#106ba3" fill-rule="nonzero" points="17.5 5.5 19.5 5.5 19.5 2.5 18.5 1.5 14.5 1.5 14.5 0.5 12.5 2.5 14.5 4.5 14.5 3.5 17.5 3.5"></polygon>
        <polygon id="Path-18-Copy" stroke="#106ba3" fill-rule="nonzero" transform="translate(9.000000, 21.000000) rotate(180.000000) translate(-9.000000, -21.000000) " points="10.5 23.5 12.5 23.5 12.5 20.5 11.5 19.5 7.5 19.5 7.5 18.5 5.5 20.5 7.5 22.5 7.5 21.5 10.5 21.5"></polygon>
    </g>
</svg>