<?xml version="1.0" encoding="UTF-8"?>
<svg width="24px" height="24px" viewBox="0 0 24 24" version="1.1" xmlns="http://www.w3.org/2000/svg" xmlns:xlink="http://www.w3.org/1999/xlink">
    <!-- Generator: Sketch 51.3 (57544) - http://www.bohemiancoding.com/sketch -->
    <title>Email</title>
    <desc>Created with Sketch.</desc>
    <defs></defs>
    <g id="Email" stroke="none" stroke-width="1" fill="none" fill-rule="evenodd">
        <rect id="Rectangle-Copy-5" stroke="#106ba3" fill-rule="nonzero" x="3.5" y="0.5" width="17" height="23"></rect>
        <path d="M6.5,3.5 L17.5,3.5" id="Line-Copy-3" stroke="#106ba3" stroke-linecap="square" fill-rule="nonzero"></path>
        <path d="M6.5,6.5 L17.5,6.5" id="Line-2-Copy-3" stroke="#106ba3" stroke-linecap="square" fill-rule="nonzero"></path>
        <path d="M6.5,9.5 L17.5,9.5" id="Line-3-Copy-5" stroke="#106ba3" stroke-linecap="square" fill-rule="nonzero"></path>
        <path d="M15.8302917,16.0368626 C15.8302917,16.5596508 15.7492976,17.0382527 15.5873068,17.4726824 C15.4253161,17.9071121 15.1970598,18.2439741 14.9025312,18.4832786 C14.6080026,18.7225831 14.2692998,18.8422335 13.8864126,18.8422335 C13.5697944,18.8422335 13.3028818,18.7465132 13.085667,18.5550696 C12.8684521,18.363626 12.7395978,18.1188028 12.6991001,17.8205925 L12.654921,17.8205925 C12.5076567,18.1408924 12.2968878,18.391238 12.0226081,18.5716367 C11.7483283,18.7520355 11.4234313,18.8422335 11.0479073,18.8422335 C10.4956662,18.8422335 10.0640042,18.653554 9.75290833,18.2761892 C9.44181249,17.8988244 9.2862669,17.3861682 9.2862669,16.7382053 C9.2862669,15.9871574 9.50347849,15.37694 9.93790819,14.9075351 C10.3723379,14.4381301 10.9429785,14.2034311 11.6498472,14.2034311 C11.9001965,14.2034311 12.183676,14.2264408 12.5002943,14.2724609 C12.8169125,14.318481 13.1022328,14.3819878 13.3562638,14.4629832 L13.2182042,17.0585036 L13.2182042,17.179996 C13.2182042,17.8353222 13.4630274,18.1629803 13.9526812,18.1629803 C14.2877075,18.1629803 14.5601424,17.9650969 14.769994,17.5693241 C14.9798457,17.1735513 15.0847699,16.6590543 15.0847699,16.0258178 C15.0847699,15.3594468 14.9485525,14.7759208 14.6761135,14.2752221 C14.4036745,13.7745235 14.0161911,13.3888809 13.5136517,13.1182827 C13.0111123,12.8476846 12.4340289,12.7123875 11.7823844,12.7123875 C10.9613859,12.7123875 10.2471647,12.8826593 9.63969946,13.223208 C9.0322342,13.5637567 8.5683586,14.0497216 8.24805874,14.6811173 C7.92775888,15.312513 7.76761135,16.0423808 7.76761135,16.8707425 C7.76761135,17.9936328 8.06397632,18.8569569 8.65671514,19.4607405 C9.24945397,20.0645242 10.1035741,20.3664115 11.2191012,20.3664115 C11.9922388,20.3664115 12.7948173,20.2081047 13.6268606,19.8914865 L13.6268606,20.6259635 C12.9199919,20.9352185 12.1174135,21.0898438 11.2191012,21.0898438 C9.88267767,21.0898438 8.84540028,20.7226089 8.10723795,19.9881282 C7.36907563,19.2536475 7,18.2274147 7,16.9093992 C7,15.9521812 7.19696305,15.0999018 7.59089507,14.3525355 C7.98482708,13.6051692 8.54626382,13.026245 9.27522213,12.6157458 C10.0041804,12.2052465 10.8398928,12 11.7823844,12 C12.57393,12 13.2780269,12.1665902 13.8946962,12.4997757 C14.5113655,12.8329612 14.9881265,13.3060407 15.3249936,13.9190284 C15.6618607,14.532016 15.8302917,15.2379537 15.8302917,16.0368626 Z M10.1201469,16.7602948 C10.1201469,17.6954232 10.4790982,18.1629803 11.1970117,18.1629803 C11.9591045,18.1629803 12.3732791,17.5868174 12.4395481,16.4344742 L12.5168614,14.993132 C12.2517857,14.9194999 11.9627838,14.8826843 11.6498472,14.8826843 C11.1712382,14.8826843 10.7966402,15.0483542 10.5260421,15.3796989 C10.2554439,15.7110436 10.1201469,16.1712376 10.1201469,16.7602948 Z" id="@" fill="#106ba3"></path>
    </g>
</svg>