<?xml version="1.0" encoding="UTF-8"?>
<svg width="24px" height="24px" viewBox="0 0 24 24" version="1.1" xmlns="http://www.w3.org/2000/svg" xmlns:xlink="http://www.w3.org/1999/xlink">
    <!-- Generator: Sketch 52.2 (67145) - http://www.bohemiancoding.com/sketch -->
    <title>Email</title>
    <desc>Email</desc>
    <g id="Email" stroke="none" stroke-width="1" fill="none" fill-rule="evenodd">
        <g transform="translate(3.000000, 0.000000)" fill="#000000">
            <path d="M12.8302917,16.0368626 C12.8302917,16.5596508 12.7492976,17.0382527 12.5873068,17.4726824 C12.4253161,17.9071121 12.1970598,18.2439741 11.9025312,18.4832786 C11.6080026,18.7225831 11.2692998,18.8422335 10.8864126,18.8422335 C10.5697944,18.8422335 10.3028818,18.7465132 10.085667,18.5550696 C9.86845211,18.363626 9.73959777,18.1188028 9.69910009,17.8205925 L9.65492102,17.8205925 C9.50765672,18.1408924 9.29688784,18.391238 9.02260807,18.5716367 C8.74832831,18.7520355 8.42343131,18.8422335 8.04790733,18.8422335 C7.49566619,18.8422335 7.06400417,18.653554 6.75290833,18.2761892 C6.44181249,17.8988244 6.2862669,17.3861682 6.2862669,16.7382053 C6.2862669,15.9871574 6.50347849,15.37694 6.93790819,14.9075351 C7.37233788,14.4381301 7.94297851,14.2034311 8.64984717,14.2034311 C8.90019649,14.2034311 9.18367602,14.2264408 9.50029427,14.2724609 C9.81691253,14.318481 10.1022328,14.3819878 10.3562638,14.4629832 L10.2182042,17.0585036 L10.2182042,17.179996 C10.2182042,17.8353222 10.4630274,18.1629803 10.9526812,18.1629803 C11.2877075,18.1629803 11.5601424,17.9650969 11.769994,17.5693241 C11.9798457,17.1735513 12.0847699,16.6590543 12.0847699,16.0258178 C12.0847699,15.3594468 11.9485525,14.7759208 11.6761135,14.2752221 C11.4036745,13.7745235 11.0161911,13.3888809 10.5136517,13.1182827 C10.0111123,12.8476846 9.43402893,12.7123875 8.78238438,12.7123875 C7.96138588,12.7123875 7.24716472,12.8826593 6.63969946,13.223208 C6.0322342,13.5637567 5.5683586,14.0497216 5.24805874,14.6811173 C4.92775888,15.312513 4.76761135,16.0423808 4.76761135,16.8707425 C4.76761135,17.9936328 5.06397632,18.8569569 5.65671514,19.4607405 C6.24945397,20.0645242 7.10357412,20.3664115 8.21910123,20.3664115 C8.99223883,20.3664115 9.79481725,20.2081047 10.6268606,19.8914865 L10.6268606,20.6259635 C9.91999191,20.9352185 9.11741349,21.0898438 8.21910123,21.0898438 C6.88267767,21.0898438 5.84540028,20.7226089 5.10723795,19.9881282 C4.36907563,19.2536475 4,18.2274147 4,16.9093992 C4,15.9521812 4.19696305,15.0999018 4.59089507,14.3525355 C4.98482708,13.6051692 5.54626382,13.026245 6.27522213,12.6157458 C7.00418044,12.2052465 7.83989283,12 8.78238438,12 C9.57393002,12 10.2780269,12.1665902 10.8946962,12.4997757 C11.5113655,12.8329612 11.9881265,13.3060407 12.3249936,13.9190284 C12.6618607,14.532016 12.8302917,15.2379537 12.8302917,16.0368626 Z M7.12014685,16.7602948 C7.12014685,17.6954232 7.47909821,18.1629803 8.1970117,18.1629803 C8.95910447,18.1629803 9.37327912,17.5868174 9.43954805,16.4344742 L9.51686143,14.993132 C9.25178568,14.9194999 8.96278381,14.8826843 8.64984717,14.8826843 C8.17123818,14.8826843 7.79664022,15.0483542 7.52604206,15.3796989 C7.2554439,15.7110436 7.12014685,16.1712376 7.12014685,16.7602948 Z" id="@"></path>
            <path d="M3,3.5 L3,3.5 C3,3.22385763 3.22385763,3 3.5,3 L11.5,3 C11.7761424,3 12,3.22385763 12,3.5 L12,3.5 C12,3.77614237 11.7761424,4 11.5,4 L3.5,4 C3.22385763,4 3,3.77614237 3,3.5 Z" id="Line-Copy-3" fill-rule="nonzero"></path>
            <path d="M3,6.5 L3,6.5 C3,6.22385763 3.22385763,6 3.5,6 L14.5,6 C14.7761424,6 15,6.22385763 15,6.5 L15,6.5 C15,6.77614237 14.7761424,7 14.5,7 L3.5,7 C3.22385763,7 3,6.77614237 3,6.5 Z" id="Line-2-Copy-3" fill-rule="nonzero"></path>
            <path d="M3,9.5 L3,9.5 C3,9.22385763 3.22385763,9 3.5,9 L14.5,9 C14.7761424,9 15,9.22385763 15,9.5 L15,9.5 C15,9.77614237 14.7761424,10 14.5,10 L3.5,10 C3.22385763,10 3,9.77614237 3,9.5 Z" id="Line-3-Copy-5" fill-rule="nonzero"></path>
            <path d="M1,1 L1,23 L17,23 L17,4.41421356 L13.5857864,1 L1,1 Z M1,0 L13.5857864,0 C13.8510029,-4.87194788e-17 14.1053568,0.10535684 14.2928932,0.292893219 L17.7071068,3.70710678 C17.8946432,3.89464316 18,4.14899707 18,4.41421356 L18,23 C18,23.5522847 17.5522847,24 17,24 L1,24 C0.44771525,24 0,23.5522847 0,23 L0,1 C0,0.44771525 0.44771525,1.01453063e-16 1,0 Z" id="Rectangle-Copy-12" fill-rule="nonzero"></path>
            <path d="M17,4 L18,5 L14,5 C13.4477153,5 13,4.55228475 13,4 L13,0 L14,1 L14,4 L17,4 Z M17,4 L18,5 L14,5 C13.4477153,5 13,4.55228475 13,4 L13,0 L14,1 L14,4 L17,4 Z" id="Rectangle-Copy-13" fill-rule="nonzero"></path>
        </g>
    </g>
</svg>