<?xml version="1.0" encoding="UTF-8"?>
<svg width="24px" height="24px" viewBox="0 0 24 24" version="1.1" xmlns="http://www.w3.org/2000/svg">
    <!-- Generator: Sketch 51.3 (57544) - http://www.bohemiancoding.com/sketch -->
    <title>Event</title>
    <desc>Created with Sketch.</desc>
    <defs></defs>
    <g id="Event" stroke="none" stroke-width="1" fill="none" fill-rule="evenodd">
        <rect id="Rectangle-8-Copy-6" stroke="#000000" fill-rule="nonzero" x="3.5" y="0.5" width="3" height="4"
              rx="1"></rect>
        <rect id="Rectangle-8-Copy-7" stroke="#000000" fill-rule="nonzero" x="17.5" y="0.5" width="3" height="4"
              rx="1"></rect>
        <polygon id="Line-5" fill="#000000" fill-rule="nonzero"
                 points="2.22044605e-16 7 2.22044605e-16 6 24 6 24 7"></polygon>
        <rect id="Rectangle-9-Copy-9" fill="#000000" fill-rule="nonzero" x="8" y="8" width="2" height="2"></rect>
        <rect id="Rectangle-9-Copy-14" fill="#000000" fill-rule="nonzero" x="8" y="11" width="2" height="2"></rect>
        <rect id="Rectangle-9-Copy-23" fill="#000000" fill-rule="nonzero" x="8" y="14" width="2" height="2"></rect>
        <rect id="Rectangle-9-Copy-30" fill="#000000" fill-rule="nonzero" x="8" y="17" width="2" height="2"></rect>
        <rect id="Rectangle-9-Copy-37" fill="#000000" fill-rule="nonzero" x="8" y="20" width="2" height="2"></rect>
        <rect id="Rectangle-9-Copy-15" fill="#000000" fill-rule="nonzero" x="5" y="11" width="2" height="2"></rect>
        <rect id="Rectangle-9-Copy-22" fill="#000000" fill-rule="nonzero" x="5" y="14" width="2" height="2"></rect>
        <rect id="Rectangle-9-Copy-29" fill="#000000" fill-rule="nonzero" x="5" y="17" width="2" height="2"></rect>
        <rect id="Rectangle-9-Copy-36" fill="#000000" fill-rule="nonzero" x="5" y="20" width="2" height="2"></rect>
        <rect id="Rectangle-9-Copy-16" fill="#000000" fill-rule="nonzero" x="2" y="11" width="2" height="2"></rect>
        <rect id="Rectangle-9-Copy-21" fill="#000000" fill-rule="nonzero" x="2" y="14" width="2" height="2"></rect>
        <rect id="Rectangle-9-Copy-28" fill="#000000" fill-rule="nonzero" x="2" y="17" width="2" height="2"></rect>
        <rect id="Rectangle-9-Copy-35" fill="#000000" fill-rule="nonzero" x="2" y="20" width="2" height="2"></rect>
        <rect id="Rectangle-9-Copy-10" fill="#000000" fill-rule="nonzero" x="11" y="8" width="2" height="2"></rect>
        <rect id="Rectangle-9-Copy-17" fill="#000000" fill-rule="nonzero" x="11" y="11" width="2" height="2"></rect>
        <rect id="Rectangle-9-Copy-24" fill="#000000" fill-rule="nonzero" x="11" y="14" width="2" height="2"></rect>
        <rect id="Rectangle-9-Copy-31" fill="#000000" fill-rule="nonzero" x="11" y="17" width="2" height="2"></rect>
        <rect id="Rectangle-9-Copy-39" fill="#000000" fill-rule="nonzero" x="11" y="20" width="2" height="2"></rect>
        <rect id="Rectangle-9-Copy-11" fill="#000000" fill-rule="nonzero" x="14" y="8" width="2" height="2"></rect>
        <rect id="Rectangle-9-Copy-18" fill="#000000" fill-rule="nonzero" x="14" y="11" width="2" height="2"></rect>
        <rect id="Rectangle-9-Copy-12" fill="#000000" fill-rule="nonzero" x="17" y="8" width="2" height="2"></rect>
        <rect id="Rectangle-9-Copy-19" fill="#000000" fill-rule="nonzero" x="17" y="11" width="2" height="2"></rect>
        <rect id="Rectangle-9-Copy-13" fill="#000000" fill-rule="nonzero" x="20" y="8" width="2" height="2"></rect>
        <rect id="Rectangle-9-Copy-20" fill="#000000" fill-rule="nonzero" x="20" y="11" width="2" height="2"></rect>
        <path d="M18,21 C19.6568542,21 21,19.6568542 21,18 C21,16.3431458 19.6568542,15 18,15 C16.3431458,15 15,16.3431458 15,18 C15,19.6568542 16.3431458,21 18,21 Z M18,22 C15.790861,22 14,20.209139 14,18 C14,15.790861 15.790861,14 18,14 C20.209139,14 22,15.790861 22,18 C22,20.209139 20.209139,22 18,22 Z"
              id="Oval-5" fill="#000000" fill-rule="nonzero"></path>
        <polygon id="Path-19" fill="#000000" fill-rule="nonzero"
                 points="20.6464466 15.6464466 21.3535534 16.3535534 17.5 20.2071068 15.6464466 18.3535534 16.3535534 17.6464466 17.5 18.7928932"></polygon>
        <path d="M20,3 L20,2 L22.5,2 C23.3284271,2 24,2.67157288 24,3.5 L24,22.5 C24,23.3284271 23.3284271,24 22.5,24 L1.5,24 C0.671572875,24 1.66533454e-16,23.3284271 0,22.5 L0,3.5 C-8.32667268e-17,2.67157288 0.671572875,2 1.5,2 L4,2 L4,3 L1.5,3 C1.22385763,3 1,3.22385763 1,3.5 L1,22.5 C1,22.7761424 1.22385763,23 1.5,23 L22.5,23 C22.7761424,23 23,22.7761424 23,22.5 L23,3.5 C23,3.22385763 22.7761424,3 22.5,3 L20,3 Z"
              id="Line-63" fill="#000000" fill-rule="nonzero"></path>
        <polygon id="Line-64" fill="#000000" fill-rule="nonzero" points="6 3 6 2 18 2 18 3"></polygon>
    </g>
</svg>