<?xml version="1.0" encoding="UTF-8"?>
<svg width="24px" height="24px" viewBox="0 0 24 24" version="1.1" xmlns="http://www.w3.org/2000/svg">
    <!-- Generator: Sketch 51.3 (57544) - http://www.bohemiancoding.com/sketch -->
    <title>Family</title>
    <desc>Created with Sketch.</desc>
    <defs></defs>
    <g id="Family" stroke="none" stroke-width="1" fill="none" fill-rule="evenodd">
        <g id="Group-3" transform="translate(0.000000, 4.000000)" fill="#000000">
            <path d="M21.2416,4.78853333 C21.2416,2.76144 19.59264,1.1136 17.5666667,1.1136 C15.5395733,1.1136 13.8906667,2.76256 13.8906667,4.78853333 C13.8906667,6.15312 14.6437867,7.39896 15.8562933,8.03946667 L16.1490133,8.193632 L15.8302667,8.28529867 C15.5010933,8.38009067 15.1802667,8.50092267 14.8781867,8.64364533 L14.7500613,8.70406133 L14.696936,8.57281067 C14.2833893,7.548864 13.304216,6.88739733 12.204216,6.88739733 C11.255256,6.88739733 10.3656827,7.399904 9.88338933,8.22489067 L9.82193067,8.33009867 L9.71151467,8.278016 C9.33546133,8.098848 8.941728,7.95510933 8.541728,7.85092267 L8.189648,7.75821333 L8.51778133,7.60092267 C9.86986133,6.95404267 10.7438347,5.57382933 10.7438347,4.08412267 C10.7438347,1.93308267 8.99383467,0.183056 6.842768,0.183056 C4.69170133,0.183056 2.94170133,1.933056 2.94170133,4.08412267 C2.94170133,5.573696 3.815648,6.955056 5.16775467,7.60172267 L5.495888,7.75901333 L5.143808,7.85172267 C2.19394133,8.62358933 0.133407733,11.292256 0.133407733,14.3413227 L0.133407733,14.777776 L7.86567467,14.777776 L7.80525867,14.9538187 C7.638592,15.442352 7.554216,15.9454987 7.554216,16.4475792 L7.554216,16.8840325 L16.8531493,16.8840325 L16.8531493,16.4475792 C16.8531493,15.9444587 16.7687733,15.4423787 16.6021067,14.9538187 L16.5416907,14.777776 L23.8667573,14.7767333 L23.8667573,14.34028 C23.8667573,11.5464133 21.989664,9.05601333 19.3011573,8.28401333 L18.9834507,8.19234667 L19.2761707,8.03818133 C20.4886773,7.398608 21.2417973,6.152768 21.2417973,4.788048 L21.2416,4.78853333 Z M12.204,7.76053333 C13.20608,7.76053333 14.0206667,8.57512 14.0206667,9.5772 C14.0206667,10.57928 13.20608,11.3938667 12.204,11.3938667 C11.20192,11.3938667 10.3873333,10.57928 10.3873333,9.5772 C10.3873333,8.57616 11.20192,7.76053333 12.204,7.76053333 Z M3.81333333,4.08453333 C3.81333333,2.41474667 5.17168,1.05653333 6.84133333,1.05653333 C8.51098667,1.05653333 9.86933333,2.41488 9.86933333,4.08453333 C9.86933333,5.75432 8.51098667,7.11253333 6.84133333,7.11253333 C5.17258667,7.11253333 3.81333333,5.75418667 3.81333333,4.08453333 Z M8.31333333,13.9053333 L1.01946667,13.9053333 L1.03404987,13.7584587 C1.33196987,10.763792 3.82871733,8.505392 6.84125067,8.505392 C7.76207733,8.505392 8.64333067,8.714768 9.46207733,9.12725867 L9.54541067,9.16892533 L9.534992,9.26163467 C9.52145067,9.37725867 9.51520267,9.480384 9.51520267,9.57726133 C9.51520267,10.4793413 9.96624267,11.3178747 10.7224827,11.8189147 L10.9474827,11.967872 L10.6922747,12.0553707 C9.74435467,12.382464 8.91310133,13.0189173 8.35270133,13.845984 L8.31333333,13.9053333 Z M8.44874933,16.0115733 L8.47270667,15.857408 C8.75916,14.0407413 10.36332,12.671008 12.2039067,12.671008 C14.0444933,12.671008 15.64764,14.0407947 15.93404,15.857408 L15.958,16.0115733 L8.44874933,16.0115733 Z M22.9623493,13.7584533 L22.9779733,13.9063707 L16.0947733,13.905328 L16.0551893,13.8469947 C15.4947627,13.0199013 14.6635093,12.384488 13.715616,12.0563813 L13.460408,11.96888 L13.685408,11.8199227 C14.3989547,11.347016 14.8479147,10.554296 14.886448,9.700136 L14.8895733,9.625136 L14.9551973,9.58867733 C15.7572773,9.147024 16.6593573,8.912624 17.565624,8.912624 C20.3458907,8.91366667 22.665624,10.9959573 22.962424,13.7584907 L22.9623493,13.7584533 Z M17.5655493,7.59178667 C16.0197093,7.59178667 14.7623493,6.33450667 14.7623493,4.78858667 C14.7623493,3.24266667 16.0196293,1.98538667 17.5655493,1.98538667 C19.1114693,1.98538667 20.3687493,3.24266667 20.3687493,4.78858667 C20.3687493,6.33450667 19.1114693,7.59178667 17.5655493,7.59178667 Z" id="Fill-1"></path>
        </g>
    </g>
</svg>