<?xml version="1.0" encoding="UTF-8"?>
<svg width="24px" height="24px" viewBox="0 0 24 24" version="1.1" xmlns="http://www.w3.org/2000/svg" xmlns:xlink="http://www.w3.org/1999/xlink">
    <!-- Generator: Sketch 52.2 (67145) - http://www.bohemiancoding.com/sketch -->
    <title>Family</title>
    <desc>Family</desc>
    <g id="Family" stroke="none" stroke-width="1" fill="none" fill-rule="evenodd">
        <g transform="translate(0.000000, 4.000000)" fill="#000000" id="Fill-1">
            <path d="M21.3453483,4.68793633 C21.3453483,2.6245488 19.6778618,0.947204971 17.6291262,0.947204971 C15.5792579,0.947204971 13.9118253,2.62568886 13.9118253,4.68793633 C13.9118253,6.07695531 14.6734068,7.34510151 15.8995363,7.99707616 L16.1955451,8.15400176 L15.8732173,8.24730967 C15.5403456,8.34379888 15.2159143,8.46679432 14.9104404,8.61207238 L14.7808755,8.6735701 L14.7271533,8.53996945 C14.3089604,7.49768948 13.3187857,6.82437955 12.206427,6.82437955 C11.2468051,6.82437955 10.3472372,7.34606241 9.8595252,8.1858201 L9.79737603,8.2929118 L9.68571947,8.23989661 C9.30544108,8.05752069 8.90728405,7.91120845 8.50278995,7.80515637 L8.14675424,7.71078712 L8.47857423,7.55068023 C9.84584521,6.89221813 10.7296379,5.4872927 10.7296379,3.97091351 C10.7296379,1.78136011 8.95997615,0 6.78474169,0 C4.60950722,0 2.83984551,1.78133296 2.83984551,3.97091351 C2.83984551,5.48715698 3.7236112,6.89324961 5.09090914,7.55149455 L5.42272914,7.71160144 L5.06669343,7.80597069 C2.08368423,8.59165728 0,11.3081052 0,14.4117641 L0,14.8560319 L7.81914098,14.8560319 L7.75804619,15.0352265 C7.58950698,15.5325068 7.50418299,16.0446621 7.50418299,16.5557322 L7.50418299,17 L16.9075923,17 L16.9075923,16.5557322 C16.9075923,16.0436035 16.8222683,15.532534 16.6537291,15.0352265 L16.5926343,14.8560319 L24,14.8549706 L24,14.4107027 C24,11.5668131 22.101817,9.03182364 19.3831043,8.24600133 L19.0618281,8.15269341 L19.3578369,7.99576782 C20.5839664,7.34474321 21.3455479,6.07659701 21.3455479,4.68744231 L21.3453483,4.68793633 Z M12.2062085,7.71314865 C13.2195472,7.71314865 14.0432859,8.54232013 14.0432859,9.56234192 C14.0432859,10.5823637 13.2195472,11.4115352 12.2062085,11.4115352 C11.1928699,11.4115352 10.3691311,10.5823637 10.3691311,9.56234192 C10.3691311,8.54337875 11.1928699,7.71314865 12.2062085,7.71314865 Z M3.72127053,3.97133153 C3.72127053,2.27164808 5.09487858,0.889116552 6.7832909,0.889116552 C8.47170323,0.889116552 9.84531127,2.2717838 9.84531127,3.97133153 C9.84531127,5.67101497 8.47170323,7.05354651 6.7832909,7.05354651 C5.09579543,7.05354651 3.72127053,5.67087925 3.72127053,3.97133153 Z M8.27182921,13.9679685 L0.896014038,13.9679685 L0.910761084,13.8184641 C1.21202829,10.7701793 3.73682737,8.47134368 6.78320731,8.47134368 C7.7143797,8.47134368 8.60553415,8.68446846 9.43347965,9.10434459 L9.51774925,9.14675728 L9.50721353,9.24112653 C9.49352006,9.35882073 9.48720186,9.46379247 9.48720186,9.56240435 C9.48720186,10.4806357 9.94330941,11.3341826 10.708046,11.8441935 L10.9355739,11.9958178 L10.6774986,12.0848831 C9.71892844,12.4178329 8.87833576,13.0656817 8.31163952,13.9075566 L8.27182921,13.9679685 Z M8.40876664,16.1119198 L8.43299314,15.9549942 C8.72266485,14.105801 10.344848,12.7115432 12.2061142,12.7115432 C14.0673803,12.7115432 15.6885387,14.1058552 15.9781565,15.9549942 L16.0023857,16.1119198 L8.40876664,16.1119198 Z M23.0854307,13.8184587 L23.1012303,13.9690244 L16.1406957,13.9679631 L16.100667,13.9085853 C15.5339438,13.0666833 14.6933511,12.4198931 13.7348079,12.0859119 L13.4767326,11.9968439 L13.7042605,11.8452195 C14.4258241,11.3638457 14.8798283,10.5569324 14.9187945,9.68747903 L14.921955,9.61113619 L14.9883163,9.57402475 C15.7994079,9.12446381 16.711623,8.88586699 17.6280718,8.88586699 C20.4395755,8.88692832 22.7853716,11.0065015 23.0855062,13.8184967 L23.0854307,13.8184587 Z M17.6279963,7.54138065 C16.0647884,7.54138065 14.7933016,6.26158962 14.7933016,4.68799062 C14.7933016,3.11439162 16.0647075,1.83460059 17.6279963,1.83460059 C19.1912851,1.83460059 20.462691,3.11439162 20.462691,4.68799062 C20.462691,6.26158962 19.1912851,7.54138065 17.6279963,7.54138065 Z"></path>
        </g>
    </g>
</svg>