<?xml version="1.0" encoding="UTF-8"?>
<svg width="24px" height="24px" viewBox="0 0 24 24" version="1.1" xmlns="http://www.w3.org/2000/svg">
    <!-- Generator: Sketch 51.3 (57544) - http://www.bohemiancoding.com/sketch -->
    <title>Folder</title>
    <desc>Created with Sketch.</desc>
    <defs></defs>
    <g id="Folder" stroke="none" stroke-width="1" fill="none" fill-rule="evenodd">
        <path d="M4.69300047,8.5 C4.48457819,8.5 4.29801783,8.62928642 4.22483588,8.82443828 L0.474835879,18.8244383 C0.453783931,18.8805768 0.443000468,18.940044 0.443000468,19 C0.443000468,19.2761424 0.666858093,19.5 0.943000468,19.5 L19.2792408,19.5 C19.494456,19.5 19.6855254,19.362285 19.7535824,19.1581139 L23.0869158,9.15811388 C23.1039102,9.10713065 23.1125741,9.05374105 23.1125741,9 C23.1125741,8.72385763 22.8887165,8.5 22.6125741,8.5 L4.69300047,8.5 Z"
              id="Rectangle-Copy-10" stroke="#000000" fill-rule="nonzero"></path>
        <path d="M1,20 L1,20 C0.44771525,20 6.76353751e-17,19.5522847 0,19 L0,5.5 C-8.32667268e-17,4.67157288 0.671572875,4 1.5,4 L7.10995636,4 C7.50778109,4 7.88931196,4.15803526 8.17061653,4.43933983 L9.58483009,5.85355339 C9.67859828,5.94732158 9.80577524,6 9.93838348,6 L18.5,6 C19.3284271,6 20,6.67157288 20,7.5 L20,9 L19,9 L19,7.5 C19,7.22385763 18.7761424,7 18.5,7 L9.93838348,7 C9.54055875,7 9.15902788,6.84196474 8.87772331,6.56066017 L7.46350975,5.14644661 C7.36974156,5.05267842 7.2425646,5 7.10995636,5 L1.5,5 C1.22385763,5 1,5.22385763 1,5.5 L1,20 Z"
              id="Line-22" fill="#000000" fill-rule="nonzero"></path>
    </g>
</svg>