<?xml version="1.0" encoding="UTF-8"?>
<svg width="24px" height="24px" viewBox="0 0 24 24" version="1.1" xmlns="http://www.w3.org/2000/svg" xmlns:xlink="http://www.w3.org/1999/xlink">
    <!-- Generator: Sketch 52.2 (67145) - http://www.bohemiancoding.com/sketch -->
    <title>Folder</title>
    <desc>Folder</desc>
    <g id="Folder" stroke="none" stroke-width="1" fill="none" fill-rule="evenodd">
        <g transform="translate(0.000000, 4.000000)" fill="#000000" fill-rule="nonzero">
            <path d="M4.8071815,5 L1,15 L19.6158387,15 L23,5 L4.8071815,5 Z M4.81630982,4 L22.98604,4 C23.5460347,4 24,4.44771525 24,5 C24,5.1074821 23.9824302,5.2142613 23.9479669,5.31622777 L20.5681004,15.3162278 C20.4300862,15.7245699 20.0426127,16 19.6061735,16 L1.01395996,16 C0.453965338,16 7.0357606e-17,15.5522847 0,15 C-1.40715212e-17,14.880088 0.021867999,14.7611536 0.0645596647,14.6488766 L3.86690952,4.64887656 C4.01531665,4.25857283 4.39364613,4 4.81630982,4 Z" id="Rectangle-Copy-10"></path>
            <path d="M1,16 L1,16 C0.44771525,16 6.76353751e-17,15.5522847 0,15 L0,1.5 C-8.32667268e-17,0.671572875 0.671572875,0 1.5,0 L7.10995636,8.8817842e-16 C7.50778109,8.8817842e-16 7.88931196,0.158035261 8.17061653,0.439339828 L9.58483009,1.85355339 C9.67859828,1.94732158 9.80577524,2 9.93838348,2 L18.5,2 C19.3284271,2 20,2.67157288 20,3.5 L20,5 L19,5 L19,3.5 C19,3.22385763 18.7761424,3 18.5,3 L9.93838348,3 C9.54055875,3 9.15902788,2.84196474 8.87772331,2.56066017 L7.46350975,1.14644661 C7.36974156,1.05267842 7.2425646,1 7.10995636,1 L1.5,1 C1.22385763,1 1,1.22385763 1,1.5 L1,16 Z" id="Line-22"></path>
        </g>
    </g>
</svg>