<?xml version="1.0" encoding="UTF-8"?>
<svg width="24px" height="24px" viewBox="0 0 24 24" version="1.1" xmlns="http://www.w3.org/2000/svg">
    <!-- Generator: Sketch 51.3 (57544) - http://www.bohemiancoding.com/sketch -->
    <title>HyperText</title>
    <desc>Created with Sketch.</desc>
    <defs></defs>
    <g id="HyperText" stroke="none" stroke-width="1" fill="none" fill-rule="evenodd">
        <path d="M9.06066017,21.0606602 L9.06066017,21.0606602 C8.86539803,21.2559223 8.54881554,21.2559223 8.35355339,21.0606602 L6.70710678,19.4142136 C6.31658249,19.0236893 6.31658249,18.3905243 6.70710678,18 L8.35355339,16.3535534 C8.54881554,16.1582912 8.86539803,16.1582912 9.06066017,16.3535534 L9.06066017,16.3535534 C9.25592232,16.5488155 9.25592232,16.865398 9.06066017,17.0606602 L7.41421356,18.7071068 L9.06066017,20.3535534 C9.25592232,20.5488155 9.25592232,20.865398 9.06066017,21.0606602 Z"
              id="Line-26" fill="#000000" fill-rule="nonzero"></path>
        <path d="M10.4,21.1 L10.4,21.1 C10.1790861,20.9343146 10.1343146,20.6209139 10.3,20.4 L13.3,16.4 C13.4656854,16.1790861 13.7790861,16.1343146 14,16.3 L14,16.3 C14.2209139,16.4656854 14.2656854,16.7790861 14.1,17 L11.1,21 C10.9343146,21.2209139 10.6209139,21.2656854 10.4,21.1 Z"
              id="Line-27" fill="#000000" fill-rule="nonzero"></path>
        <path d="M15.1464466,16.1464466 L15.1464466,16.1464466 C15.3417088,15.9511845 15.6582912,15.9511845 15.8535534,16.1464466 L17.5,17.7928932 C17.8905243,18.1834175 17.8905243,18.8165825 17.5,19.2071068 L15.8535534,20.8535534 C15.6582912,21.0488155 15.3417088,21.0488155 15.1464466,20.8535534 L15.1464466,20.8535534 C14.9511845,20.6582912 14.9511845,20.3417088 15.1464466,20.1464466 L16.7928932,18.5 L15.1464466,16.8535534 C14.9511845,16.6582912 14.9511845,16.3417088 15.1464466,16.1464466 Z"
              id="Line-28" fill="#000000" fill-rule="nonzero"></path>
        <path d="M6,3.5 L6,3.5 C6,3.22385763 6.22385763,3 6.5,3 L14.5,3 C14.7761424,3 15,3.22385763 15,3.5 L15,3.5 C15,3.77614237 14.7761424,4 14.5,4 L6.5,4 C6.22385763,4 6,3.77614237 6,3.5 Z"
              id="Line-Copy-2" fill="#000000" fill-rule="nonzero"></path>
        <path d="M6,6.5 L6,6.5 C6,6.22385763 6.22385763,6 6.5,6 L17.5,6 C17.7761424,6 18,6.22385763 18,6.5 L18,6.5 C18,6.77614237 17.7761424,7 17.5,7 L6.5,7 C6.22385763,7 6,6.77614237 6,6.5 Z"
              id="Line-2-Copy-2" fill="#000000" fill-rule="nonzero"></path>
        <path d="M6,9.5 L6,9.5 C6,9.22385763 6.22385763,9 6.5,9 L17.5,9 C17.7761424,9 18,9.22385763 18,9.5 L18,9.5 C18,9.77614237 17.7761424,10 17.5,10 L6.5,10 C6.22385763,10 6,9.77614237 6,9.5 Z"
              id="Line-3-Copy-3" fill="#000000" fill-rule="nonzero"></path>
        <path d="M4,1 L4,23 L20,23 L20,4.41421356 L16.5857864,1 L4,1 Z M4,0 L16.5857864,0 C16.8510029,-4.87194788e-17 17.1053568,0.10535684 17.2928932,0.292893219 L20.7071068,3.70710678 C20.8946432,3.89464316 21,4.14899707 21,4.41421356 L21,23 C21,23.5522847 20.5522847,24 20,24 L4,24 C3.44771525,24 3,23.5522847 3,23 L3,1 C3,0.44771525 3.44771525,1.01453063e-16 4,0 Z"
              id="Rectangle-Copy-10" fill="#000000" fill-rule="nonzero"></path>
        <path d="M20,4 L21,5 L17,5 C16.4477153,5 16,4.55228475 16,4 L16,0 L17,1 L17,4 L20,4 Z M20,4 L21,5 L17,5 C16.4477153,5 16,4.55228475 16,4 L16,0 L17,1 L17,4 L20,4 Z"
              id="Rectangle-Copy-11" fill="#000000" fill-rule="nonzero"></path>
        <path d="M6,12.5 L6,12.5 C6,12.2238576 6.22385763,12 6.5,12 L17.5,12 C17.7761424,12 18,12.2238576 18,12.5 L18,12.5 C18,12.7761424 17.7761424,13 17.5,13 L6.5,13 C6.22385763,13 6,12.7761424 6,12.5 Z"
              id="Line-3-Copy-4" fill="#000000" fill-rule="nonzero"></path>
    </g>
</svg>