<?xml version="1.0" encoding="UTF-8"?>
<svg width="24px" height="24px" viewBox="0 0 24 24" version="1.1" xmlns="http://www.w3.org/2000/svg" xmlns:xlink="http://www.w3.org/1999/xlink">
    <!-- Generator: Sketch 52.2 (67145) - http://www.bohemiancoding.com/sketch -->
    <title>HyperText</title>
    <desc>HyperText</desc>
    <g id="HyperText" stroke="none" stroke-width="1" fill="none" fill-rule="evenodd">
        <g transform="translate(3.000000, 0.000000)" fill="#000000" fill-rule="nonzero">
            <path d="M6.06066017,21.0606602 L6.06066017,21.0606602 C5.86539803,21.2559223 5.54881554,21.2559223 5.35355339,21.0606602 L3.70710678,19.4142136 C3.31658249,19.0236893 3.31658249,18.3905243 3.70710678,18 L5.35355339,16.3535534 C5.54881554,16.1582912 5.86539803,16.1582912 6.06066017,16.3535534 L6.06066017,16.3535534 C6.25592232,16.5488155 6.25592232,16.865398 6.06066017,17.0606602 L4.41421356,18.7071068 L6.06066017,20.3535534 C6.25592232,20.5488155 6.25592232,20.865398 6.06066017,21.0606602 Z" id="Line-26"></path>
            <path d="M7.4,21.1 L7.4,21.1 C7.1790861,20.9343146 7.13431458,20.6209139 7.3,20.4 L10.3,16.4 C10.4656854,16.1790861 10.7790861,16.1343146 11,16.3 L11,16.3 C11.2209139,16.4656854 11.2656854,16.7790861 11.1,17 L8.1,21 C7.93431458,21.2209139 7.6209139,21.2656854 7.4,21.1 Z" id="Line-27"></path>
            <path d="M12.1464466,16.1464466 L12.1464466,16.1464466 C12.3417088,15.9511845 12.6582912,15.9511845 12.8535534,16.1464466 L14.5,17.7928932 C14.8905243,18.1834175 14.8905243,18.8165825 14.5,19.2071068 L12.8535534,20.8535534 C12.6582912,21.0488155 12.3417088,21.0488155 12.1464466,20.8535534 L12.1464466,20.8535534 C11.9511845,20.6582912 11.9511845,20.3417088 12.1464466,20.1464466 L13.7928932,18.5 L12.1464466,16.8535534 C11.9511845,16.6582912 11.9511845,16.3417088 12.1464466,16.1464466 Z" id="Line-28"></path>
            <path d="M3,3.5 L3,3.5 C3,3.22385763 3.22385763,3 3.5,3 L11.5,3 C11.7761424,3 12,3.22385763 12,3.5 L12,3.5 C12,3.77614237 11.7761424,4 11.5,4 L3.5,4 C3.22385763,4 3,3.77614237 3,3.5 Z" id="Line-Copy-2"></path>
            <path d="M3,6.5 L3,6.5 C3,6.22385763 3.22385763,6 3.5,6 L14.5,6 C14.7761424,6 15,6.22385763 15,6.5 L15,6.5 C15,6.77614237 14.7761424,7 14.5,7 L3.5,7 C3.22385763,7 3,6.77614237 3,6.5 Z" id="Line-2-Copy-2"></path>
            <path d="M3,9.5 L3,9.5 C3,9.22385763 3.22385763,9 3.5,9 L14.5,9 C14.7761424,9 15,9.22385763 15,9.5 L15,9.5 C15,9.77614237 14.7761424,10 14.5,10 L3.5,10 C3.22385763,10 3,9.77614237 3,9.5 Z" id="Line-3-Copy-3"></path>
            <path d="M1,1 L1,23 L17,23 L17,4.41421356 L13.5857864,1 L1,1 Z M1,0 L13.5857864,0 C13.8510029,-4.87194788e-17 14.1053568,0.10535684 14.2928932,0.292893219 L17.7071068,3.70710678 C17.8946432,3.89464316 18,4.14899707 18,4.41421356 L18,23 C18,23.5522847 17.5522847,24 17,24 L1,24 C0.44771525,24 0,23.5522847 0,23 L0,1 C0,0.44771525 0.44771525,1.01453063e-16 1,0 Z" id="Rectangle-Copy-10"></path>
            <path d="M17,4 L18,5 L14,5 C13.4477153,5 13,4.55228475 13,4 L13,0 L14,1 L14,4 L17,4 Z M17,4 L18,5 L14,5 C13.4477153,5 13,4.55228475 13,4 L13,0 L14,1 L14,4 L17,4 Z" id="Rectangle-Copy-11"></path>
            <path d="M3,12.5 L3,12.5 C3,12.2238576 3.22385763,12 3.5,12 L14.5,12 C14.7761424,12 15,12.2238576 15,12.5 L15,12.5 C15,12.7761424 14.7761424,13 14.5,13 L3.5,13 C3.22385763,13 3,12.7761424 3,12.5 Z" id="Line-3-Copy-4"></path>
        </g>
    </g>
</svg>