<?xml version="1.0" encoding="UTF-8"?>
<svg width="24px" height="24px" viewBox="0 0 24 24" version="1.1" xmlns="http://www.w3.org/2000/svg" xmlns:xlink="http://www.w3.org/1999/xlink">
    <!-- Generator: Sketch 52.2 (67145) - http://www.bohemiancoding.com/sketch -->
    <title>Image</title>
    <desc>Image</desc>
    <g id="Image" stroke="none" stroke-width="1" fill="none" fill-rule="evenodd">
        <g transform="translate(0.000000, 3.000000)" fill="#000000" fill-rule="nonzero">
            <path d="M1,1 L1,17 L23,17 L23,1 L1,1 Z M1,0 L23,0 C23.5522847,0 24,0.44771525 24,1 L24,17 C24,17.5522847 23.5522847,18 23,18 L1,18 C0.44771525,18 6.76353751e-17,17.5522847 0,17 L0,1 C-6.76353751e-17,0.44771525 0.44771525,0 1,0 Z" id="Rectangle-Copy-6"></path>
            <path d="M14.5,12.7928932 L16.4393398,10.8535534 C17.0251263,10.267767 17.9748737,10.267767 18.5606602,10.8535534 L21.5606602,13.8535534 C21.8419647,14.134858 22,14.5163888 22,14.9142136 L22,15 C22,15.5522847 21.5522847,16 21,16 L3.5,16 C2.67157288,16 2,15.3284271 2,14.5 L2,13.9142136 C2,13.5163888 2.15803526,13.134858 2.43933983,12.8535534 L7.43933983,7.85355339 C8.02512627,7.26776695 8.97487373,7.26776695 9.56066017,7.85355339 L14.5,12.7928932 Z M3.5,15 L21,15 L21,14.9142136 C21,14.7816053 20.9473216,14.6544284 20.8535534,14.5606602 L17.8535534,11.5606602 C17.6582912,11.365398 17.3417088,11.365398 17.1464466,11.5606602 L14.5,14.2071068 L8.85355339,8.56066017 C8.65829124,8.36539803 8.34170876,8.36539803 8.14644661,8.56066017 L3.14644661,13.5606602 C3.05267842,13.6544284 3,13.7816053 3,13.9142136 L3,14.5 C3,14.7761424 3.22385763,15 3.5,15 Z" id="Path-30"></path>
            <path d="M15.5,7 C16.3284271,7 17,6.32842712 17,5.5 C17,4.67157288 16.3284271,4 15.5,4 C14.6715729,4 14,4.67157288 14,5.5 C14,6.32842712 14.6715729,7 15.5,7 Z M15.5,8 C14.1192881,8 13,6.88071187 13,5.5 C13,4.11928813 14.1192881,3 15.5,3 C16.8807119,3 18,4.11928813 18,5.5 C18,6.88071187 16.8807119,8 15.5,8 Z" id="Oval-13"></path>
        </g>
    </g>
</svg>