<?xml version="1.0" encoding="UTF-8"?>
<svg width="24px" height="24px" viewBox="0 0 24 24" version="1.1" xmlns="http://www.w3.org/2000/svg">
    <!-- Generator: Sketch 51.3 (57544) - http://www.bohemiancoding.com/sketch -->
    <title>Image</title>
    <desc>Created with Sketch.</desc>
    <defs></defs>
    <g id="Image" stroke="none" stroke-width="1" fill="none" fill-rule="evenodd">
        <path d="M1,4 L1,20 L23,20 L23,4 L1,4 Z M1,3 L23,3 C23.5522847,3 24,3.44771525 24,4 L24,20 C24,20.5522847 23.5522847,21 23,21 L1,21 C0.44771525,21 6.76353751e-17,20.5522847 0,20 L0,4 C-6.76353751e-17,3.44771525 0.44771525,3 1,3 Z"
              id="Rectangle-Copy-6" fill="#000000" fill-rule="nonzero"></path>
        <path d="M14.5,15.7928932 L16.4393398,13.8535534 C17.0251263,13.267767 17.9748737,13.267767 18.5606602,13.8535534 L21.5606602,16.8535534 C21.8419647,17.134858 22,17.5163888 22,17.9142136 L22,18 C22,18.5522847 21.5522847,19 21,19 L3.5,19 C2.67157288,19 2,18.3284271 2,17.5 L2,16.9142136 C2,16.5163888 2.15803526,16.134858 2.43933983,15.8535534 L7.43933983,10.8535534 C8.02512627,10.267767 8.97487373,10.267767 9.56066017,10.8535534 L14.5,15.7928932 Z M3.5,18 L21,18 L21,17.9142136 C21,17.7816053 20.9473216,17.6544284 20.8535534,17.5606602 L17.8535534,14.5606602 C17.6582912,14.365398 17.3417088,14.365398 17.1464466,14.5606602 L14.5,17.2071068 L8.85355339,11.5606602 C8.65829124,11.365398 8.34170876,11.365398 8.14644661,11.5606602 L3.14644661,16.5606602 C3.05267842,16.6544284 3,16.7816053 3,16.9142136 L3,17.5 C3,17.7761424 3.22385763,18 3.5,18 Z"
              id="Path-30" fill="#000000" fill-rule="nonzero"></path>
        <path d="M15.5,10 C16.3284271,10 17,9.32842712 17,8.5 C17,7.67157288 16.3284271,7 15.5,7 C14.6715729,7 14,7.67157288 14,8.5 C14,9.32842712 14.6715729,10 15.5,10 Z M15.5,11 C14.1192881,11 13,9.88071187 13,8.5 C13,7.11928813 14.1192881,6 15.5,6 C16.8807119,6 18,7.11928813 18,8.5 C18,9.88071187 16.8807119,11 15.5,11 Z"
              id="Oval-13" fill="#000000" fill-rule="nonzero"></path>
    </g>
</svg>