<?xml version="1.0" encoding="UTF-8"?>
<svg width="24px" height="24px" viewBox="0 0 24 24" version="1.1" xmlns="http://www.w3.org/2000/svg" xmlns:xlink="http://www.w3.org/1999/xlink">
    <!-- Generator: Sketch 52.2 (67145) - http://www.bohemiancoding.com/sketch -->
    <title>Land</title>
    <desc>Land</desc>
    <g id="Land" stroke="none" stroke-width="1" fill="none" fill-rule="evenodd">
        <g transform="translate(0.000000, 2.000000)" fill="#000000" fill-rule="nonzero">
            <path d="M9.5,16 L9.5,16 C9.22385763,16 9,15.7761424 9,15.5 L9,1 C9,0.44771525 9.44771525,1.01453063e-16 10,0 L10,15.5 C10,15.7761424 9.77614237,16 9.5,16 Z" id="Line-6"></path>
            <path d="M10,1 L10,6 L11.6534156,6 C12.9207236,6 14.1832484,6.15542391 15.4127178,6.46279125 L15.8298178,6.56706625 C16.9799666,6.85460344 18.1610382,7 19.3465844,7 L20,7 L20,2 L19.3465844,2 C18.0792764,2 16.8167516,1.84457609 15.5872822,1.53720875 L15.1701822,1.43293375 C14.0200334,1.14539656 12.8389618,1 11.6534156,1 L10,1 Z M11.6534156,-3.99680289e-14 C12.9207236,-2.19824159e-14 14.1832484,0.155423908 15.4127178,0.462791248 L15.8298178,0.567066252 C16.9799666,0.854603441 18.1610382,1 19.3465844,1 L20,1 C20.5522847,1 21,1.44771525 21,2 L21,7 C21,7.55228475 20.5522847,8 20,8 L19.3465844,8 C18.0792764,8 16.8167516,7.84457609 15.5872822,7.53720875 L15.1701822,7.43293375 C14.0200334,7.14539656 12.8389618,7 11.6534156,7 L10,7 C9.44771525,7 9,6.55228475 9,6 L9,1 C9,0.44771525 9.44771525,-1.08701963e-13 10,-1.29896094e-13 L11.6534156,-3.99680289e-14 Z" id="Rectangle"></path>
            <path d="M1,11 L1,13 L0,13 L0,11 C-6.76353751e-17,10.4477153 0.44771525,10 1,10 L2,10 L2,11 L1,11 Z" id="Line-65"></path>
            <path d="M1.5,20.5 L1.5,22.5 L0.5,22.5 L0.5,20.5 C0.5,19.9477153 0.94771525,19.5 1.5,19.5 L2.5,19.5 L2.5,20.5 L1.5,20.5 Z" id="Line-65-Copy-3" transform="translate(1.500000, 21.000000) rotate(-90.000000) translate(-1.500000, -21.000000) "></path>
            <path d="M23,11 L23,12 L22,12 L22,11 C22,10.4477153 22.4477153,10 23,10 L24,10 L24,11 L23,11 Z" id="Line-65-Copy" transform="translate(23.000000, 11.000000) rotate(-270.000000) translate(-23.000000, -11.000000) "></path>
            <path d="M23,20 L23,22 L22,22 L22,20 C22,19.4477153 22.4477153,19 23,19 L24,19 L24,20 L23,20 Z" id="Line-65-Copy-2" transform="translate(23.000000, 20.500000) rotate(-180.000000) translate(-23.000000, -20.500000) "></path>
            <polygon id="Line-66-Copy-5" transform="translate(23.500000, 14.000000) rotate(-90.000000) translate(-23.500000, -14.000000) " points="22.5 14.5 22.5 13.5 24.5 13.5 24.5 14.5"></polygon>
            <polygon id="Line-66-Copy-11" transform="translate(23.500000, 17.000000) rotate(-90.000000) translate(-23.500000, -17.000000) " points="22.5 17.5 22.5 16.5 24.5 16.5 24.5 17.5"></polygon>
            <polygon id="Line-66-Copy-18" transform="translate(0.500000, 18.000000) rotate(-90.000000) translate(-0.500000, -18.000000) " points="-0.5 18.5 -0.5 17.5 1.5 17.5 1.5 18.5"></polygon>
            <polygon id="Line-66-Copy-19" transform="translate(0.500000, 15.000000) rotate(-90.000000) translate(-0.500000, -15.000000) " points="-0.5 15.5 -0.5 14.5 1.5 14.5 1.5 15.5"></polygon>
            <polygon id="Line-66-Copy-4" points="3 11 3 10 5 10 5 11"></polygon>
            <polygon id="Line-66-Copy-6" points="6 11 6 10 8 10 8 11"></polygon>
            <polygon id="Line-66-Copy-7" points="19 11 19 10 21 10 21 11"></polygon>
            <polygon id="Line-66-Copy-12" points="19 22 19 21 21 21 21 22"></polygon>
            <polygon id="Line-66-Copy-8" points="16 11 16 10 18 10 18 11"></polygon>
            <polygon id="Line-66-Copy-13" points="16 22 16 21 18 21 18 22"></polygon>
            <polygon id="Line-66-Copy-9" points="13 11 13 10 15 10 15 11"></polygon>
            <polygon id="Line-66-Copy-15" points="10 22 10 21 12 21 12 22"></polygon>
            <polygon id="Line-66-Copy-14" points="13 22 13 21 15 21 15 22"></polygon>
            <polygon id="Line-66-Copy-16" points="7 22 7 21 9 21 9 22"></polygon>
            <polygon id="Line-66-Copy-17" points="4 22 4 21 6 21 6 22"></polygon>
            <polygon id="Line-66-Copy-10" points="11 11 11 10 12 10 12 11"></polygon>
        </g>
    </g>
</svg>