<?xml version="1.0" encoding="UTF-8"?>
<svg width="24px" height="24px" viewBox="0 0 24 24" version="1.1" xmlns="http://www.w3.org/2000/svg">
    <!-- Generator: Sketch 51.3 (57544) - http://www.bohemiancoding.com/sketch -->
    <title>LegalEntity</title>
    <desc>Created with Sketch.</desc>
    <defs></defs>
    <g id="LegalEntity" stroke="none" stroke-width="1" fill="none" fill-rule="evenodd">
        <path d="M0.5,24 L0.5,24 C0.260502988,24 0.0663522992,23.8058493 0.0663522992,23.5663523 C0.0663522992,23.5458326 0.0678087517,23.5253387 0.0707106781,23.5050253 L1,17 C1.11368277,16.4315861 1.43030564,16.0020354 1.9926688,15.8614446 L4.94957036,15.1222192 C5.35956952,15.0197194 5.79378511,15.0949315 6.14542409,15.3293575 L8.7773501,17.0839749 C9.00711444,17.2371511 9.06920138,17.5475858 8.91602515,17.7773501 L8.91602515,17.7773501 C8.76284892,18.0071144 8.45241425,18.0692014 8.2226499,17.9160251 L5.5907239,16.1614078 C5.4735109,16.0832658 5.32877237,16.0581951 5.19210599,16.0923617 C3.08929817,16.5711397 2.02526284,16.8736858 2,17 L1.07071068,23.5050253 C1.03013719,23.7890396 0.786897853,24 0.5,24 Z"
              id="Line-29" fill="#000000" fill-rule="nonzero"></path>
        <path d="M15.6049737,24 L15.6049737,24 C15.3654767,24 15.171326,23.8058493 15.171326,23.5663523 C15.171326,23.5458326 15.1727825,23.5253387 15.1756844,23.5050253 L16.1049737,17 C16.2186565,16.4315861 16.4302525,16.0020354 16.9926157,15.8614446 L19.9495172,15.1222192 C20.3595164,15.0197194 20.793732,15.0949315 21.145371,15.3293575 L23.777297,17.0839749 C24.0070613,17.2371511 24.0691482,17.5475858 23.915972,17.7773501 L23.915972,17.7773501 C23.7627958,18.0071144 23.4523611,18.0692014 23.2225968,17.9160251 L20.5906708,16.1614078 C20.4734578,16.0832658 20.3287192,16.0581951 20.1920528,16.0923617 C18.1592629,16.5711397 17.1302365,16.8736858 17.1049737,17 L16.1756844,23.5050253 C16.1351109,23.7890396 15.8918716,24 15.6049737,24 Z"
              id="Line-29-Copy" fill="#000000" fill-rule="nonzero"
              transform="translate(19.552487, 19.538713) scale(-1, 1) translate(-19.552487, -19.538713) "></path>
        <path d="M6.17082039,15.7236068 L5.5,16 L4.5,14.618034 C4.12951613,13.8770662 4.42985265,12.9760567 5.17082039,12.6055728 L5.38196601,12.5 C6.12293376,12.1295161 7.02394332,12.4298526 7.39442719,13.1708204 L7.6490712,13.6801084 C7.79421675,13.9703995 8.02960049,14.2057832 8.31989159,14.3509288 L11.1708204,15.7763932 C11.6789964,16.0304812 12,16.5498759 12,17.118034 L12,23.5 C12,23.7761424 11.7761424,24 11.5,24 L11.5,24 C11.2238576,24 11,23.7761424 11,23.5 L11,17.118034 C11,16.928648 10.8929988,16.7555164 10.7236068,16.6708204 L7.872678,15.245356 C7.38885949,15.0034467 6.99655326,14.6111405 6.75464401,14.127322 L6.5,13.618034 C6.37650538,13.3710447 6.07616886,13.2709326 5.82917961,13.3944272 L5.61803399,13.5 C5.37104474,13.6234946 5.27093257,13.9238311 5.39442719,14.1708204 L6.17082039,15.7236068 Z"
              id="Line-30" fill="#000000" fill-rule="nonzero"></path>
        <path d="M18.5,16 L17.8291796,15.7236068 L18.6055728,14.1708204 C18.7290674,13.9238311 18.6289553,13.6234946 18.381966,13.5 L18.1708204,13.3944272 C17.9238311,13.2709326 17.6234946,13.3710447 17.5,13.618034 L17.245356,14.127322 C17.0034467,14.6111405 16.6111405,15.0034467 16.127322,15.245356 L14.7236068,15.9472136 C14.4766175,16.0707082 14.176281,15.970596 14.0527864,15.7236068 L14.0527864,15.7236068 C13.9292918,15.4766175 14.029404,15.176281 14.2763932,15.0527864 L15.6801084,14.3509288 C15.9703995,14.2057832 16.2057832,13.9703995 16.3509288,13.6801084 L16.6055728,13.1708204 C16.9760567,12.4298526 17.8770662,12.1295161 18.618034,12.5 L18.8291796,12.6055728 C19.5701474,12.9760567 19.8704839,13.8770662 19.5,14.618034 L18.5,16 Z"
              id="Line-31" fill="#000000" fill-rule="nonzero"></path>
        <path d="M7,5 L7,6 L3.08834841,6.89223227 C3.03697757,6.90250644 3,6.94761183 3,7 C3,7.11650874 3.06638005,7.22283726 3.17105667,7.27399915 C6.89625638,9.09475044 9.84612857,10 12,10 C14.1538651,10 17.1037334,9.09475571 20.8289285,7.27402442 C20.9336151,7.22285085 21,7.11651175 21,7 C21,6.94761183 20.9630224,6.90250644 20.9116516,6.89223227 L17,6 L17,5 L21.1077677,5.91165159 C21.6265628,6.0154106 22,6.47093081 22,7 C22,7.498526 21.7159738,7.95349505 21.2680698,8.17244243 C17.4182966,10.0540627 14.3358243,11 12,11 C9.66416845,11 6.58169061,10.0540567 2.73193731,8.17242788 C2.28403758,7.95351182 2,7.49853626 2,7 C2,6.47093081 2.37343724,6.0154106 2.89223227,5.91165159 L7,5 Z"
              id="Line-32" fill="#000000" fill-rule="nonzero"></path>
        <path d="M7.83560101,2.70786025 C7.35341304,2.78822491 7,3.20541502 7,3.69425418 L7,5.30574582 C7,5.79458498 7.35341304,6.21177509 7.83560101,6.29213975 L9.16439899,6.51360608 C10.1267224,6.67399332 11.0277273,7.00403176 12,7 C12.92459,6.99616596 13.9204724,6.66612752 14.835601,6.51360608 L16.164399,6.29213975 C16.646587,6.21177509 17,5.79458498 17,5.30574582 L17,3.69425418 C17,3.20541502 16.646587,2.78822491 16.164399,2.70786025 L14.835601,2.48639392 C13.9194034,2.33369432 12.9256705,2.00366463 12,2 C11.0288067,1.99615515 10.1256535,2.32618484 9.16439899,2.48639392 L7.83560101,2.70786025 Z M7.67120203,1.75786794 C9.8720344,1.24969451 11.3149671,0.997071863 12,1 C12.6528589,1.00279061 14.0957915,1.25541326 16.328798,1.75786794 C17.2931739,1.9310523 18,2.83008931 18,3.8835287 L18,5.61989612 C18,6.6733355 17.4643759,7.32681563 16.5,7.5 C14.1576694,7.83136245 12.6576694,7.99802912 12,8 C11.3197736,8.00203848 9.81977357,7.83537181 7.5,7.5 C6.53562406,7.32681563 6,6.6733355 6,5.61989612 L6,3.8835287 C6,2.83008931 6.70682609,1.9310523 7.67120203,1.75786794 Z"
              id="Rectangle-18" fill="#000000" fill-rule="nonzero"></path>
        <path d="M9.51609438,4.3229618 L9.54526787,4.0020534 C9.96120803,4.03986614 10.3635647,4.06891592 10.7523197,4.08925462 C13.7009693,4.24352074 15.8671099,3.89663889 17.2427521,3.07125354 L17.7572479,3.92874646 C16.0900925,4.92903968 13.5532449,5.29481388 10.1371282,5.0532135 C10.1371282,5.0532135 10.1371282,5.0532135 10.1371282,5.0532135 L10.1371282,5.0532135 C9.76737925,5.0270635 9.48883729,4.706124 9.5149873,4.33637507 C9.51530381,4.33189977 9.51566518,4.32742776 9.51607137,4.32295971 Z"
              id="Path-31" fill="#000000" fill-rule="nonzero"></path>
    </g>
</svg>