<?xml version="1.0" encoding="UTF-8"?>
<svg width="24px" height="24px" viewBox="0 0 24 24" version="1.1" xmlns="http://www.w3.org/2000/svg">
    <!-- Generator: Sketch 51.3 (57544) - http://www.bohemiancoding.com/sketch -->
    <title>License</title>
    <desc>Created with Sketch.</desc>
    <defs></defs>
    <g id="License" stroke="none" stroke-width="1" fill="none" fill-rule="evenodd">
        <rect id="Rectangle-Copy-4" stroke="#000000" fill-rule="nonzero" x="0.5" y="4.5" width="23" height="15"
              rx="1"></rect>
        <path d="M3,19 L11,19 L11,17 C11,15.3431458 9.65685425,14 8,14 L6,14 C4.34314575,14 3,15.3431458 3,17 L3,19 Z M6,13 L8,13 C10.209139,13 12,14.790861 12,17 L12,20 L2,20 L2,17 C2,14.790861 3.790861,13 6,13 Z"
              id="Rectangle-6-Copy" fill="#000000" fill-rule="nonzero"></path>
        <path d="M7,12 C8.1045695,12 9,11.1045695 9,10 C9,8.8954305 8.1045695,8 7,8 C5.8954305,8 5,8.8954305 5,10 C5,11.1045695 5.8954305,12 7,12 Z M7,13 C5.34314575,13 4,11.6568542 4,10 C4,8.34314575 5.34314575,7 7,7 C8.65685425,7 10,8.34314575 10,10 C10,11.6568542 8.65685425,13 7,13 Z"
              id="Oval-3-Copy" fill="#000000" fill-rule="nonzero"></path>
        <path d="M13,7.5 L13,7.5 C13,7.22385763 13.2238576,7 13.5,7 L20.5,7 C20.7761424,7 21,7.22385763 21,7.5 L21,7.5 C21,7.77614237 20.7761424,8 20.5,8 L13.5,8 C13.2238576,8 13,7.77614237 13,7.5 Z"
              id="Line-9" fill="#000000" fill-rule="nonzero"></path>
        <path d="M13,10.5 L13,10.5 C13,10.2238576 13.2238576,10 13.5,10 L20.5,10 C20.7761424,10 21,10.2238576 21,10.5 L21,10.5 C21,10.7761424 20.7761424,11 20.5,11 L13.5,11 C13.2238576,11 13,10.7761424 13,10.5 Z"
              id="Line-9-Copy" fill="#000000" fill-rule="nonzero"></path>
        <path d="M13,13.5 L13,13.5 C13,13.2238576 13.2238576,13 13.5,13 L20.5,13 C20.7761424,13 21,13.2238576 21,13.5 L21,13.5 C21,13.7761424 20.7761424,14 20.5,14 L13.5,14 C13.2238576,14 13,13.7761424 13,13.5 Z"
              id="Line-9-Copy-2" fill="#000000" fill-rule="nonzero"></path>
        <path d="M13,16.5 L13,16.5 C13,16.2238576 13.2238576,16 13.5,16 L20.5,16 C20.7761424,16 21,16.2238576 21,16.5 L21,16.5 C21,16.7761424 20.7761424,17 20.5,17 L13.5,17 C13.2238576,17 13,16.7761424 13,16.5 Z"
              id="Line-9-Copy-3" fill="#000000" fill-rule="nonzero"></path>
    </g>
</svg>