<?xml version="1.0" encoding="UTF-8"?>
<svg width="24px" height="24px" viewBox="0 0 24 24" version="1.1" xmlns="http://www.w3.org/2000/svg" xmlns:xlink="http://www.w3.org/1999/xlink">
    <!-- Generator: Sketch 52.2 (67145) - http://www.bohemiancoding.com/sketch -->
    <title>License</title>
    <desc>License</desc>
    <g id="License" stroke="none" stroke-width="1" fill="none" fill-rule="evenodd">
        <g transform="translate(0.000000, 4.000000)" fill="#000000" fill-rule="nonzero">
            <path d="M1,1 L1,15 L23,15 L23,1 L1,1 Z M1,0 L23,0 C23.5522847,0 24,0.44771525 24,1 L24,15 C24,15.5522847 23.5522847,16 23,16 L1,16 C0.44771525,16 6.76353751e-17,15.5522847 0,15 L0,1 C-6.76353751e-17,0.44771525 0.44771525,0 1,0 Z" id="Rectangle-Copy-4"></path>
            <path d="M3,15 L11,15 L11,13 C11,11.3431458 9.65685425,10 8,10 L6,10 C4.34314575,10 3,11.3431458 3,13 L3,15 Z M6,9 L8,9 C10.209139,9 12,10.790861 12,13 L12,16 L2,16 L2,13 C2,10.790861 3.790861,9 6,9 Z" id="Rectangle-6-Copy"></path>
            <path d="M7,8 C8.1045695,8 9,7.1045695 9,6 C9,4.8954305 8.1045695,4 7,4 C5.8954305,4 5,4.8954305 5,6 C5,7.1045695 5.8954305,8 7,8 Z M7,9 C5.34314575,9 4,7.65685425 4,6 C4,4.34314575 5.34314575,3 7,3 C8.65685425,3 10,4.34314575 10,6 C10,7.65685425 8.65685425,9 7,9 Z" id="Oval-3-Copy"></path>
            <path d="M13,3.5 L13,3.5 C13,3.22385763 13.2238576,3 13.5,3 L20.5,3 C20.7761424,3 21,3.22385763 21,3.5 L21,3.5 C21,3.77614237 20.7761424,4 20.5,4 L13.5,4 C13.2238576,4 13,3.77614237 13,3.5 Z" id="Line-9"></path>
            <path d="M13,6.5 L13,6.5 C13,6.22385763 13.2238576,6 13.5,6 L20.5,6 C20.7761424,6 21,6.22385763 21,6.5 L21,6.5 C21,6.77614237 20.7761424,7 20.5,7 L13.5,7 C13.2238576,7 13,6.77614237 13,6.5 Z" id="Line-9-Copy"></path>
            <path d="M13,9.5 L13,9.5 C13,9.22385763 13.2238576,9 13.5,9 L20.5,9 C20.7761424,9 21,9.22385763 21,9.5 L21,9.5 C21,9.77614237 20.7761424,10 20.5,10 L13.5,10 C13.2238576,10 13,9.77614237 13,9.5 Z" id="Line-9-Copy-2"></path>
            <path d="M13,12.5 L13,12.5 C13,12.2238576 13.2238576,12 13.5,12 L20.5,12 C20.7761424,12 21,12.2238576 21,12.5 L21,12.5 C21,12.7761424 20.7761424,13 20.5,13 L13.5,13 C13.2238576,13 13,12.7761424 13,12.5 Z" id="Line-9-Copy-3"></path>
        </g>
    </g>
</svg>