<?xml version="1.0" encoding="UTF-8"?>
<svg width="24px" height="24px" viewBox="0 0 24 24" version="1.1" xmlns="http://www.w3.org/2000/svg" xmlns:xlink="http://www.w3.org/1999/xlink">
    <!-- Generator: Sketch 51.3 (57544) - http://www.bohemiancoding.com/sketch -->
    <title>Membership</title>
    <desc>Created with Sketch.</desc>
    <defs></defs>
    <g id="Membership" stroke="none" stroke-width="1" fill="none" fill-rule="evenodd">
        <path d="M2.5,16.5 L8.5,16.5 L8.5,15 C8.5,13.6192881 7.38071187,12.5 6,12.5 L5,12.5 C3.61928813,12.5 2.5,13.6192881 2.5,15 L2.5,16.5 Z" id="Rectangle-6-Copy-5" stroke="#106ba3" fill-rule="nonzero"></path>
        <path d="M16.5,16.5 L22.5,16.5 L22.5,15 C22.5,13.6192881 21.3807119,12.5 20,12.5 L19,12.5 C17.6192881,12.5 16.5,13.6192881 16.5,15 L16.5,16.5 Z" id="Rectangle-6-Copy-6" stroke="#106ba3" fill-rule="nonzero"></path>
        <path d="M9.5,11.5 L15.5,11.5 L15.5,10 C15.5,8.61928813 14.3807119,7.5 13,7.5 L12,7.5 C10.6192881,7.5 9.5,8.61928813 9.5,10 L9.5,11.5 Z" id="Rectangle-6-Copy-7" stroke="#106ba3" fill-rule="nonzero"></path>
        <path d="M9.5,22.5 L15.5,22.5 L15.5,21 C15.5,19.6192881 14.3807119,18.5 13,18.5 L12,18.5 C10.6192881,18.5 9.5,19.6192881 9.5,21 L9.5,22.5 Z" id="Rectangle-6-Copy-8" stroke="#106ba3" fill-rule="nonzero"></path>
        <circle id="Oval-7" stroke="#106ba3" fill-rule="nonzero" cx="12" cy="12" r="11.5"></circle>
        <circle id="Oval-3-Copy-5" stroke="#106ba3" fill-rule="nonzero" cx="5.5" cy="9.5" r="2"></circle>
        <circle id="Oval-3-Copy-6" stroke="#106ba3" fill-rule="nonzero" cx="19.5" cy="9.5" r="2"></circle>
        <circle id="Oval-3-Copy-7" stroke="#106ba3" fill-rule="nonzero" cx="12.5" cy="4.5" r="2"></circle>
        <circle id="Oval-3-Copy-8" stroke="#106ba3" fill-rule="nonzero" cx="12.5" cy="15.5" r="2"></circle>
    </g>
</svg>