<?xml version="1.0" encoding="UTF-8"?>
<svg width="24px" height="24px" viewBox="0 0 24 24" version="1.1" xmlns="http://www.w3.org/2000/svg" xmlns:xlink="http://www.w3.org/1999/xlink">
    <!-- Generator: Sketch 52.2 (67145) - http://www.bohemiancoding.com/sketch -->
    <title>Membership</title>
    <desc>Membership</desc>
    <g id="Membership" stroke="none" stroke-width="1" fill="none" fill-rule="evenodd">
        <g fill="#000000" fill-rule="nonzero">
            <path d="M14,10.2478163 L14,9 C14,7.8954305 13.1045695,7 12,7 C10.8954305,7 10,7.8954305 10,9 L10,10.2478163 C11.3141772,10.5665052 12.6858228,10.5665052 14,10.2478163 Z M12,6 C13.6568542,6 15,7.34314575 15,9 L15,11 C13.0526681,11.6491106 10.9473319,11.6491106 9,11 L9,9 C9,7.34314575 10.3431458,6 12,6 Z" id="Rectangle-6-Copy-7"></path>
            <path d="M20,15.2478163 L20,14 C20,12.8954305 19.1045695,12 18,12 C16.8954305,12 16,12.8954305 16,14 L16,15.2478163 C17.3141772,15.5665052 18.6858228,15.5665052 20,15.2478163 Z M18,11 C19.6568542,11 21,12.3431458 21,14 L21,16 C19.0526681,16.6491106 16.9473319,16.6491106 15,16 L15,14 C15,12.3431458 16.3431458,11 18,11 Z" id="Rectangle-6-Copy-9"></path>
            <path d="M14,20.2478163 L14,19 C14,17.8954305 13.1045695,17 12,17 C10.8954305,17 10,17.8954305 10,19 L10,20.2478163 C11.3141772,20.5665052 12.6858228,20.5665052 14,20.2478163 Z M12,16 C13.6568542,16 15,17.3431458 15,19 L15,21 C13.0526681,21.6491106 10.9473319,21.6491106 9,21 L9,19 C9,17.3431458 10.3431458,16 12,16 Z" id="Rectangle-6-Copy-8"></path>
            <path d="M12,23 C18.0751322,23 23,18.0751322 23,12 C23,5.92486775 18.0751322,1 12,1 C5.92486775,1 1,5.92486775 1,12 C1,18.0751322 5.92486775,23 12,23 Z M12,24 C5.372583,24 0,18.627417 0,12 C0,5.372583 5.372583,0 12,0 C18.627417,0 24,5.372583 24,12 C24,18.627417 18.627417,24 12,24 Z" id="Oval-7"></path>
            <path d="M12,5 C12.5522847,5 13,4.55228475 13,4 C13,3.44771525 12.5522847,3 12,3 C11.4477153,3 11,3.44771525 11,4 C11,4.55228475 11.4477153,5 12,5 Z M12,6 C10.8954305,6 10,5.1045695 10,4 C10,2.8954305 10.8954305,2 12,2 C13.1045695,2 14,2.8954305 14,4 C14,5.1045695 13.1045695,6 12,6 Z" id="Oval-3-Copy-7"></path>
            <path d="M18,10 C18.5522847,10 19,9.55228475 19,9 C19,8.44771525 18.5522847,8 18,8 C17.4477153,8 17,8.44771525 17,9 C17,9.55228475 17.4477153,10 18,10 Z M18,11 C16.8954305,11 16,10.1045695 16,9 C16,7.8954305 16.8954305,7 18,7 C19.1045695,7 20,7.8954305 20,9 C20,10.1045695 19.1045695,11 18,11 Z" id="Oval-3-Copy-9"></path>
            <path d="M8,15.2478163 L8,14 C8,12.8954305 7.1045695,12 6,12 C4.8954305,12 4,12.8954305 4,14 L4,15.2478163 C5.31417721,15.5665052 6.68582279,15.5665052 8,15.2478163 Z M6,11 C7.65685425,11 9,12.3431458 9,14 L9,16 C7.05266808,16.6491106 4.94733192,16.6491106 3,16 L3,14 C3,12.3431458 4.34314575,11 6,11 Z" id="Rectangle-6-Copy-10"></path>
            <path d="M6,10 C6.55228475,10 7,9.55228475 7,9 C7,8.44771525 6.55228475,8 6,8 C5.44771525,8 5,8.44771525 5,9 C5,9.55228475 5.44771525,10 6,10 Z M6,11 C4.8954305,11 4,10.1045695 4,9 C4,7.8954305 4.8954305,7 6,7 C7.1045695,7 8,7.8954305 8,9 C8,10.1045695 7.1045695,11 6,11 Z" id="Oval-3-Copy-10"></path>
            <path d="M12,15 C12.5522847,15 13,14.5522847 13,14 C13,13.4477153 12.5522847,13 12,13 C11.4477153,13 11,13.4477153 11,14 C11,14.5522847 11.4477153,15 12,15 Z M12,16 C10.8954305,16 10,15.1045695 10,14 C10,12.8954305 10.8954305,12 12,12 C13.1045695,12 14,12.8954305 14,14 C14,15.1045695 13.1045695,16 12,16 Z" id="Oval-3-Copy-8"></path>
        </g>
    </g>
</svg>