<?xml version="1.0" encoding="UTF-8"?>
<svg width="24px" height="24px" viewBox="0 0 24 24" version="1.1" xmlns="http://www.w3.org/2000/svg">
    <!-- Generator: Sketch 51.3 (57544) - http://www.bohemiancoding.com/sketch -->
    <title>Membership</title>
    <desc>Created with Sketch.</desc>
    <defs></defs>
    <g id="Membership" stroke="none" stroke-width="1" fill="none" fill-rule="evenodd">
        <path d="M14,10.2478163 L14,9 C14,7.8954305 13.1045695,7 12,7 C10.8954305,7 10,7.8954305 10,9 L10,10.2478163 C11.3141772,10.5665052 12.6858228,10.5665052 14,10.2478163 Z M12,6 C13.6568542,6 15,7.34314575 15,9 L15,11 C13.0526681,11.6491106 10.9473319,11.6491106 9,11 L9,9 C9,7.34314575 10.3431458,6 12,6 Z"
              id="Rectangle-6-Copy-7" fill="#000000" fill-rule="nonzero"></path>
        <path d="M20,15.2478163 L20,14 C20,12.8954305 19.1045695,12 18,12 C16.8954305,12 16,12.8954305 16,14 L16,15.2478163 C17.3141772,15.5665052 18.6858228,15.5665052 20,15.2478163 Z M18,11 C19.6568542,11 21,12.3431458 21,14 L21,16 C19.0526681,16.6491106 16.9473319,16.6491106 15,16 L15,14 C15,12.3431458 16.3431458,11 18,11 Z"
              id="Rectangle-6-Copy-9" fill="#000000" fill-rule="nonzero"></path>
        <path d="M14,20.2478163 L14,19 C14,17.8954305 13.1045695,17 12,17 C10.8954305,17 10,17.8954305 10,19 L10,20.2478163 C11.3141772,20.5665052 12.6858228,20.5665052 14,20.2478163 Z M12,16 C13.6568542,16 15,17.3431458 15,19 L15,21 C13.0526681,21.6491106 10.9473319,21.6491106 9,21 L9,19 C9,17.3431458 10.3431458,16 12,16 Z"
              id="Rectangle-6-Copy-8" fill="#000000" fill-rule="nonzero"></path>
        <path d="M12,23 C18.0751322,23 23,18.0751322 23,12 C23,5.92486775 18.0751322,1 12,1 C5.92486775,1 1,5.92486775 1,12 C1,18.0751322 5.92486775,23 12,23 Z M12,24 C5.372583,24 0,18.627417 0,12 C0,5.372583 5.372583,0 12,0 C18.627417,0 24,5.372583 24,12 C24,18.627417 18.627417,24 12,24 Z"
              id="Oval-7" fill="#000000" fill-rule="nonzero"></path>
        <circle id="Oval-3-Copy-7" stroke="#000000" fill-rule="nonzero" cx="12" cy="4" r="1.5"></circle>
        <circle id="Oval-3-Copy-9" stroke="#000000" fill-rule="nonzero" cx="18" cy="9" r="1.5"></circle>
        <path d="M8,15.2478163 L8,14 C8,12.8954305 7.1045695,12 6,12 C4.8954305,12 4,12.8954305 4,14 L4,15.2478163 C5.31417721,15.5665052 6.68582279,15.5665052 8,15.2478163 Z M6,11 C7.65685425,11 9,12.3431458 9,14 L9,16 C7.05266808,16.6491106 4.94733192,16.6491106 3,16 L3,14 C3,12.3431458 4.34314575,11 6,11 Z"
              id="Rectangle-6-Copy-10" fill="#000000" fill-rule="nonzero"></path>
        <circle id="Oval-3-Copy-10" stroke="#000000" fill-rule="nonzero" cx="6" cy="9" r="1.5"></circle>
        <circle id="Oval-3-Copy-8" stroke="#000000" fill-rule="nonzero" cx="12" cy="14" r="1.5"></circle>
    </g>
</svg>