<?xml version="1.0" encoding="UTF-8"?>
<svg width="24px" height="24px" viewBox="0 0 24 24" version="1.1" xmlns="http://www.w3.org/2000/svg" xmlns:xlink="http://www.w3.org/1999/xlink">
    <!-- Generator: Sketch 52.2 (67145) - http://www.bohemiancoding.com/sketch -->
    <title>Organization</title>
    <desc>Organization</desc>
    <g id="Organization" stroke="none" stroke-width="1" fill="none" fill-rule="evenodd">
        <g fill="#000000" fill-rule="nonzero">
            <path d="M12.5,4 C13.3284271,4 14,3.32842712 14,2.5 C14,1.67157288 13.3284271,1 12.5,1 C11.6715729,1 11,1.67157288 11,2.5 C11,3.32842712 11.6715729,4 12.5,4 Z M12.5,5 C11.1192881,5 10,3.88071187 10,2.5 C10,1.11928813 11.1192881,0 12.5,0 C13.8807119,0 15,1.11928813 15,2.5 C15,3.88071187 13.8807119,5 12.5,5 Z" id="Oval-3-Copy-9"></path>
            <path d="M12.5,13 C13.3284271,13 14,12.3284271 14,11.5 C14,10.6715729 13.3284271,10 12.5,10 C11.6715729,10 11,10.6715729 11,11.5 C11,12.3284271 11.6715729,13 12.5,13 Z M12.5,14 C11.1192881,14 10,12.8807119 10,11.5 C10,10.1192881 11.1192881,9 12.5,9 C13.8807119,9 15,10.1192881 15,11.5 C15,12.8807119 13.8807119,14 12.5,14 Z" id="Oval-3-Copy-10"></path>
            <path d="M21.5,13 C22.3284271,13 23,12.3284271 23,11.5 C23,10.6715729 22.3284271,10 21.5,10 C20.6715729,10 20,10.6715729 20,11.5 C20,12.3284271 20.6715729,13 21.5,13 Z M21.5,14 C20.1192881,14 19,12.8807119 19,11.5 C19,10.1192881 20.1192881,9 21.5,9 C22.8807119,9 24,10.1192881 24,11.5 C24,12.8807119 22.8807119,14 21.5,14 Z" id="Oval-3-Copy-13"></path>
            <path d="M2.5,13 C3.32842712,13 4,12.3284271 4,11.5 C4,10.6715729 3.32842712,10 2.5,10 C1.67157288,10 1,10.6715729 1,11.5 C1,12.3284271 1.67157288,13 2.5,13 Z M2.5,14 C1.11928813,14 0,12.8807119 0,11.5 C0,10.1192881 1.11928813,9 2.5,9 C3.88071187,9 5,10.1192881 5,11.5 C5,12.8807119 3.88071187,14 2.5,14 Z" id="Oval-3-Copy-12"></path>
            <path d="M2.5,23 C3.32842712,23 4,22.3284271 4,21.5 C4,20.6715729 3.32842712,20 2.5,20 C1.67157288,20 1,20.6715729 1,21.5 C1,22.3284271 1.67157288,23 2.5,23 Z M2.5,24 C1.11928813,24 0,22.8807119 0,21.5 C0,20.1192881 1.11928813,19 2.5,19 C3.88071187,19 5,20.1192881 5,21.5 C5,22.8807119 3.88071187,24 2.5,24 Z" id="Oval-3-Copy-11"></path>
            <path d="M8.5,23 C9.32842712,23 10,22.3284271 10,21.5 C10,20.6715729 9.32842712,20 8.5,20 C7.67157288,20 7,20.6715729 7,21.5 C7,22.3284271 7.67157288,23 8.5,23 Z M8.5,24 C7.11928813,24 6,22.8807119 6,21.5 C6,20.1192881 7.11928813,19 8.5,19 C9.88071187,19 11,20.1192881 11,21.5 C11,22.8807119 9.88071187,24 8.5,24 Z" id="Oval-3-Copy-14"></path>
            <path d="M15.5,23 C16.3284271,23 17,22.3284271 17,21.5 C17,20.6715729 16.3284271,20 15.5,20 C14.6715729,20 14,20.6715729 14,21.5 C14,22.3284271 14.6715729,23 15.5,23 Z M15.5,24 C14.1192881,24 13,22.8807119 13,21.5 C13,20.1192881 14.1192881,19 15.5,19 C16.8807119,19 18,20.1192881 18,21.5 C18,22.8807119 16.8807119,24 15.5,24 Z" id="Oval-3-Copy-15"></path>
            <path d="M21.5,23 C22.3284271,23 23,22.3284271 23,21.5 C23,20.6715729 22.3284271,20 21.5,20 C20.6715729,20 20,20.6715729 20,21.5 C20,22.3284271 20.6715729,23 21.5,23 Z M21.5,24 C20.1192881,24 19,22.8807119 19,21.5 C19,20.1192881 20.1192881,19 21.5,19 C22.8807119,19 24,20.1192881 24,21.5 C24,22.8807119 22.8807119,24 21.5,24 Z" id="Oval-3-Copy-16"></path>
            <polygon id="Line-10" points="12 4 13 4 13 10 12 10"></polygon>
            <polygon id="Line-10-Copy-2" points="11 11 11 12 4 12 4 11"></polygon>
            <polygon id="Line-10-Copy-3" points="2 13 3 13 3 20 2 20"></polygon>
            <polygon id="Line-10-Copy-4" points="8 16 9 16 9 20 8 20"></polygon>
            <polygon id="Line-10-Copy-5" points="8 17 8 16 16 16 16 17"></polygon>
            <polygon id="Line-11" points="15 16 16 16 16 20 15 20"></polygon>
            <polygon id="Line" points="21 13 22 13 22 20 21 20"></polygon>
            <polygon id="Line-2" points="14 3 14 2 22 2 22 3"></polygon>
            <polygon id="Line-3" points="21 2 22 2 22 10 21 10"></polygon>
            <polygon id="Line-4" points="12 13 13 13 13 17 12 17"></polygon>
        </g>
    </g>
</svg>