<?xml version="1.0" encoding="UTF-8"?>
<svg width="24px" height="24px" viewBox="0 0 24 24" version="1.1" xmlns="http://www.w3.org/2000/svg">
    <!-- Generator: Sketch 51.3 (57544) - http://www.bohemiancoding.com/sketch -->
    <title>Ownership</title>
    <desc>Created with Sketch.</desc>
    <defs></defs>
    <g id="Ownership" stroke="none" stroke-width="1" fill="none" fill-rule="evenodd">
        <path d="M15,13 L16,13 C16.2652165,13 16.5195704,13.1053568 16.7071068,13.2928932 L18,14.5857864 L19.2928932,13.2928932 C19.4804296,13.1053568 19.7347835,13 20,13 L21.5857864,13 L22.5857864,12 L21.5857864,11 L8.92959224,11 L8.66760345,10.4003716 C8.03578327,8.95428944 6.60549988,8 5,8 C2.790861,8 1,9.790861 1,12 C1,14.209139 2.790861,16 5,16 C6.60549988,16 8.03578327,15.0457106 8.66760345,13.5996284 L8.92959224,13 L11,13 C11.2652165,13 11.5195704,13.1053568 11.7071068,13.2928932 L13,14.5857864 L14.2928932,13.2928932 C14.4804296,13.1053568 14.7347835,13 15,13 Z M9.58395631,10 L22,10 L23.2928932,11.2928932 C23.6834175,11.6834175 23.6834175,12.3165825 23.2928932,12.7071068 L22.2928932,13.7071068 C22.1053568,13.8946432 21.8510029,14 21.5857864,14 L20,14 L18.7071068,15.2928932 C18.3165825,15.6834175 17.6834175,15.6834175 17.2928932,15.2928932 L16,14 L15,14 L13.7071068,15.2928932 C13.3165825,15.6834175 12.6834175,15.6834175 12.2928932,15.2928932 L11,14 L9.58395631,14 C8.81239969,15.7659048 7.05031904,17 5,17 C2.23857625,17 0,14.7614237 0,12 C0,9.23857625 2.23857625,7 5,7 C7.05031904,7 8.81239969,8.23409522 9.58395631,10 Z"
              id="Combined-Shape" fill="#000000" fill-rule="nonzero"></path>
        <circle id="Oval-3-Copy-17" stroke="#000000" fill-rule="nonzero" cx="3.5" cy="11.5" r="1"></circle>
    </g>
</svg>