<?xml version="1.0" encoding="UTF-8"?>
<svg width="24px" height="24px" viewBox="0 0 24 24" version="1.1" xmlns="http://www.w3.org/2000/svg" xmlns:xlink="http://www.w3.org/1999/xlink">
    <!-- Generator: Sketch 52.2 (67145) - http://www.bohemiancoding.com/sketch -->
    <title>Ownership</title>
    <desc>Ownership</desc>
    <g id="Ownership" stroke="none" stroke-width="1" fill="none" fill-rule="evenodd">
        <g transform="translate(0.000000, 7.000000)" fill="#000000" fill-rule="nonzero">
            <path d="M15,6 L16,6 C16.2652165,6 16.5195704,6.10535684 16.7071068,6.29289322 L18,7.58578644 L19.2928932,6.29289322 C19.4804296,6.10535684 19.7347835,6 20,6 L21.5857864,6 L22.5857864,5 L21.5857864,4 L8.92959224,4 L8.66760345,3.4003716 C8.03578327,1.95428944 6.60549988,1 5,1 C2.790861,1 1,2.790861 1,5 C1,7.209139 2.790861,9 5,9 C6.60549988,9 8.03578327,8.04571056 8.66760345,6.5996284 L8.92959224,6 L11,6 C11.2652165,6 11.5195704,6.10535684 11.7071068,6.29289322 L13,7.58578644 L14.2928932,6.29289322 C14.4804296,6.10535684 14.7347835,6 15,6 Z M9.58395631,3 L22,3 L23.2928932,4.29289322 C23.6834175,4.68341751 23.6834175,5.31658249 23.2928932,5.70710678 L22.2928932,6.70710678 C22.1053568,6.89464316 21.8510029,7 21.5857864,7 L20,7 L18.7071068,8.29289322 C18.3165825,8.68341751 17.6834175,8.68341751 17.2928932,8.29289322 L16,7 L15,7 L13.7071068,8.29289322 C13.3165825,8.68341751 12.6834175,8.68341751 12.2928932,8.29289322 L11,7 L9.58395631,7 C8.81239969,8.76590478 7.05031904,10 5,10 C2.23857625,10 -8.8817842e-15,7.76142375 -8.8817842e-15,5 C-8.8817842e-15,2.23857625 2.23857625,0 5,0 C7.05031904,0 8.81239969,1.23409522 9.58395631,3 Z" id="Combined-Shape"></path>
            <path d="M4,6 C4.55228475,6 5,5.55228475 5,5 C5,4.44771525 4.55228475,4 4,4 C3.44771525,4 3,4.44771525 3,5 C3,5.55228475 3.44771525,6 4,6 Z M4,7 C2.8954305,7 2,6.1045695 2,5 C2,3.8954305 2.8954305,3 4,3 C5.1045695,3 6,3.8954305 6,5 C6,6.1045695 5.1045695,7 4,7 Z" id="Oval-3-Copy-13"></path>
        </g>
    </g>
</svg>