<?xml version="1.0" encoding="UTF-8"?>
<svg width="24px" height="24px" viewBox="0 0 24 24" version="1.1" xmlns="http://www.w3.org/2000/svg" xmlns:xlink="http://www.w3.org/1999/xlink">
    <!-- Generator: Sketch 52.2 (67145) - http://www.bohemiancoding.com/sketch -->
    <title>PackageZIP</title>
    <desc>PackageZIP</desc>
    <g id="PackageZIP" stroke="none" stroke-width="1" fill="none" fill-rule="evenodd">
        <g transform="translate(0.000000, 4.000000)" fill-rule="nonzero">
            <path d="M4.72075922,5 L1,15 L19.2792408,15 L22.6125741,5 L4.72075922,5 Z M4.72075922,4 L22.6125741,4 C23.1648589,4 23.6125741,4.44771525 23.6125741,5 C23.6125741,5.1074821 23.5952462,5.2142613 23.5612574,5.31622777 L20.2279241,15.3162278 C20.09181,15.7245699 19.7096712,16 19.2792408,16 L1,16 C0.44771525,16 -4.25916029e-14,15.507607 -4.26325641e-14,14.9553223 C-4.26325641e-14,14.8836675 1.25735864,11.4598175 3.77207592,4.68377223 C3.90818997,4.27543009 4.29032881,4 4.72075922,4 Z" id="Rectangle-Copy-11" fill="#000000"></path>
            <path d="M1,16 L1,16 C0.44771525,16 6.76353751e-17,15.5522847 0,15 L0,1.5 C-8.32667268e-17,0.671572875 0.671572875,0 1.5,0 L7.10995636,8.8817842e-16 C7.50778109,8.8817842e-16 7.88931196,0.158035261 8.17061653,0.439339828 L9.58483009,1.85355339 C9.67859828,1.94732158 9.80577524,2 9.93838348,2 L18.5,2 C19.3284271,2 20,2.67157288 20,3.5 L20,5 L19,5 L19,3.5 C19,3.22385763 18.7761424,3 18.5,3 L9.93838348,3 C9.54055875,3 9.15902788,2.84196474 8.87772331,2.56066017 L7.46350975,1.14644661 C7.36974156,1.05267842 7.2425646,1 7.10995636,1 L1.5,1 C1.22385763,1 1,1.22385763 1,1.5 L1,16 Z" id="Line-22-Copy" fill="#000000"></path>
            <path d="M17.5,9.75 L17.5,9 L17,9.5 L18,9.5 L17.5,9 L17.5,9.75 Z" id="Rectangle-Copy-21" stroke="#000000"></path>
            <path d="M15.5,9.75 L15.5,9 L15,9.5 L16,9.5 L15.5,9 L15.5,9.75 Z" id="Rectangle-Copy-24" stroke="#000000"></path>
            <path d="M13,9.5 L14,9.5 L13.5,9 L13.5,10.5 L13.5,9 L13,9.5 Z" id="Rectangle-Copy-27" stroke="#000000"></path>
            <path d="M11,9.5 L12,9.5 L11.5,9 L11.5,10.5 L11.5,9 L11,9.5 Z" id="Rectangle-Copy-29" stroke="#000000"></path>
            <path d="M9.5,9.75 L9.5,9 L9,9.5 L10,9.5 L9.5,9 L9.5,9.75 Z" id="Rectangle-Copy-31" stroke="#000000"></path>
            <path d="M18.5,9.25 L18.5,10 L19,9.5 L18,9.5 L18.5,10 L18.5,9.25 Z" id="Rectangle-Copy-22" stroke="#000000"></path>
            <path d="M16.5,9.25 L16.5,10 L17,9.5 L16,9.5 L16.5,10 L16.5,9.25 Z" id="Rectangle-Copy-23" stroke="#000000"></path>
            <path d="M14.5,8.5 L14.5,10 L15,9.5 L14,9.5 L14.5,10 L14.5,8.5 Z" id="Rectangle-Copy-26" stroke="#000000"></path>
            <path d="M10.5,8.5 L10.5,10 L11,9.5 L10,9.5 L10.5,10 L10.5,8.5 Z" id="Rectangle-Copy-30" stroke="#000000"></path>
            <path d="M8.5,8.5 L8.5,10 L9,9.5 L8,9.5 L8.5,10 L8.5,8.5 Z" id="Rectangle-Copy-32" stroke="#000000"></path>
            <path d="M12.5,8.5 L12.5,10 L13,9.5 L12,9.5 L12.5,10 L12.5,8.5 Z" id="Rectangle-Copy-28" stroke="#000000"></path>
            <path d="M12.75,9.5 L6,9.5 L6.5,10 L6.5,9 L6,9.5 L12.75,9.5 Z" id="Rectangle-Copy-25" stroke="#000000"></path>
            <path d="M5,9 L5,10 L6,10 L6,9 L5,9 Z M5,8 L6,8 C6.55228475,8 7,8.44771525 7,9 L7,10 C7,10.5522847 6.55228475,11 6,11 L5,11 C4.44771525,11 4,10.5522847 4,10 L4,9 C4,8.44771525 4.44771525,8 5,8 Z" id="Rectangle-Copy-17" fill="#000000"></path>
        </g>
    </g>
</svg>