<?xml version="1.0" encoding="UTF-8"?>
<svg width="24px" height="24px" viewBox="0 0 24 24" version="1.1" xmlns="http://www.w3.org/2000/svg">
    <!-- Generator: Sketch 51.3 (57544) - http://www.bohemiancoding.com/sketch -->
    <title>PackageZIP</title>
    <desc>Created with Sketch.</desc>
    <defs></defs>
    <g id="PackageZIP" stroke="none" stroke-width="1" fill="none" fill-rule="evenodd">
        <path d="M4.72075922,9 L1,19 L19.2792408,19 L22.6125741,9 L4.72075922,9 Z M4.72075922,8 L22.6125741,8 C23.1648589,8 23.6125741,8.44771525 23.6125741,9 C23.6125741,9.1074821 23.5952462,9.2142613 23.5612574,9.31622777 L20.2279241,19.3162278 C20.09181,19.7245699 19.7096712,20 19.2792408,20 L1,20 C0.44771525,20 1.22534146e-14,19.507607 1.22124533e-14,18.9553223 C1.22124533e-14,18.8836675 1.25735864,15.4598175 3.77207592,8.68377223 C3.90818997,8.27543009 4.29032881,8 4.72075922,8 Z"
              id="Rectangle-Copy-11" fill="#000000" fill-rule="nonzero"></path>
        <path d="M1,20 L1,20 C0.44771525,20 6.76353751e-17,19.5522847 0,19 L0,5.5 C-8.32667268e-17,4.67157288 0.671572875,4 1.5,4 L7.10995636,4 C7.50778109,4 7.88931196,4.15803526 8.17061653,4.43933983 L9.58483009,5.85355339 C9.67859828,5.94732158 9.80577524,6 9.93838348,6 L18.5,6 C19.3284271,6 20,6.67157288 20,7.5 L20,9 L19,9 L19,7.5 C19,7.22385763 18.7761424,7 18.5,7 L9.93838348,7 C9.54055875,7 9.15902788,6.84196474 8.87772331,6.56066017 L7.46350975,5.14644661 C7.36974156,5.05267842 7.2425646,5 7.10995636,5 L1.5,5 C1.22385763,5 1,5.22385763 1,5.5 L1,20 Z"
              id="Line-22-Copy" fill="#000000" fill-rule="nonzero"></path>
        <path d="M17.5,13.75 L17.5,13 L17,13.5 L18,13.5 L17.5,13 L17.5,13.75 Z" id="Rectangle-Copy-21" stroke="#000000"
              fill-rule="nonzero"></path>
        <path d="M15,13.5 L16,13.5 L15.5,13 L15.5,14.5 L15.5,13 L15,13.5 Z" id="Rectangle-Copy-24" stroke="#000000"
              fill-rule="nonzero"></path>
        <path d="M13,13.5 L14,13.5 L13.5,13 L13.5,14.5 L13.5,13 L13,13.5 Z" id="Rectangle-Copy-27" stroke="#000000"
              fill-rule="nonzero"></path>
        <path d="M11,13.5 L12,13.5 L11.5,13 L11.5,14.5 L11.5,13 L11,13.5 Z" id="Rectangle-Copy-29" stroke="#000000"
              fill-rule="nonzero"></path>
        <path d="M9.5,13.75 L9.5,13 L9,13.5 L10,13.5 L9.5,13 L9.5,13.75 Z" id="Rectangle-Copy-31" stroke="#000000"
              fill-rule="nonzero"></path>
        <path d="M18.5,13.25 L18.5,14 L19,13.5 L18,13.5 L18.5,14 L18.5,13.25 Z" id="Rectangle-Copy-22" stroke="#000000"
              fill-rule="nonzero"></path>
        <path d="M16.5,13.25 L16.5,14 L17,13.5 L16,13.5 L16.5,14 L16.5,13.25 Z" id="Rectangle-Copy-23" stroke="#000000"
              fill-rule="nonzero"></path>
        <path d="M14.5,13.25 L14.5,14 L15,13.5 L14,13.5 L14.5,14 L14.5,13.25 Z" id="Rectangle-Copy-26" stroke="#000000"
              fill-rule="nonzero"></path>
        <path d="M10.5,12.5 L10.5,14 L11,13.5 L10,13.5 L10.5,14 L10.5,12.5 Z" id="Rectangle-Copy-30" stroke="#000000"
              fill-rule="nonzero"></path>
        <path d="M8.5,13.25 L8.5,14 L9,13.5 L8,13.5 L8.5,14 L8.5,13.25 Z" id="Rectangle-Copy-32" stroke="#000000"
              fill-rule="nonzero"></path>
        <path d="M12.5,12.5 L12.5,14 L13,13.5 L12,13.5 L12.5,14 L12.5,12.5 Z" id="Rectangle-Copy-28" stroke="#000000"
              fill-rule="nonzero"></path>
        <path d="M12.75,13.5 L6,13.5 L6.5,14 L6.5,13 L6,13.5 L12.75,13.5 Z" id="Rectangle-Copy-25" stroke="#000000"
              fill-rule="nonzero"></path>
        <path d="M5,13 L5,14 L6,14 L6,13 L5,13 Z M5,12 L6,12 C6.55228475,12 7,12.4477153 7,13 L7,14 C7,14.5522847 6.55228475,15 6,15 L5,15 C4.44771525,15 4,14.5522847 4,14 L4,13 C4,12.4477153 4.44771525,12 5,12 Z"
              id="Rectangle-Copy-17" fill="#000000" fill-rule="nonzero"></path>
    </g>
</svg>