<?xml version="1.0" encoding="UTF-8"?>
<svg width="24px" height="24px" viewBox="0 0 24 24" version="1.1" xmlns="http://www.w3.org/2000/svg" xmlns:xlink="http://www.w3.org/1999/xlink">
    <!-- Generator: Sketch 51.3 (57544) - http://www.bohemiancoding.com/sketch -->
    <title>Pages</title>
    <desc>Created with Sketch.</desc>
    <defs></defs>
    <g id="Pages" stroke="none" stroke-width="1" fill="none" fill-rule="evenodd">
        <rect id="Rectangle-Copy-6" stroke="#106ba3" fill-rule="nonzero" x="2.5" y="6.5" width="13" height="17"></rect>
        <path d="M4.5,4.5 L4.5,6.5 L15.5,6.5 L15.5,21.5 L17.5,21.5 L17.5,4.5 L4.5,4.5 Z" id="Rectangle-Copy-7" stroke="#106ba3" fill-rule="nonzero"></path>
        <path d="M6.5,2.5 L6.5,4.5 L17.5,4.5 L17.5,19.5 L19.5,19.5 L19.5,2.5 L6.5,2.5 Z" id="Rectangle-Copy-8" stroke="#106ba3" fill-rule="nonzero"></path>
        <path d="M8.5,0.5 L8.5,2.5 L19.5,2.5 L19.5,17.5 L21.5,17.5 L21.5,0.5 L8.5,0.5 Z" id="Rectangle-Copy-9" stroke="#106ba3" fill-rule="nonzero"></path>
        <path d="M4.5,9.5 L13.5,9.5" id="Line-Copy-4" stroke="#106ba3" stroke-linecap="square" fill-rule="nonzero"></path>
        <path d="M4.5,17.5 L13.5,17.5" id="Line-Copy-9" stroke="#106ba3" stroke-linecap="square" fill-rule="nonzero"></path>
        <path d="M4.5,11.5 L11.5,11.5" id="Line-Copy-5" stroke="#106ba3" stroke-linecap="square" fill-rule="nonzero"></path>
        <path d="M4.5,15.5 L12.5,15.5" id="Line-Copy-8" stroke="#106ba3" stroke-linecap="square" fill-rule="nonzero"></path>
        <path d="M4.5,21.5 L12.5,21.5" id="Line-Copy-12" stroke="#106ba3" stroke-linecap="square" fill-rule="nonzero"></path>
        <path d="M4.5,13.5 L8.5,13.5" id="Line-Copy-6" stroke="#106ba3" stroke-linecap="square" fill-rule="nonzero"></path>
        <path d="M4.5,19.5 L6.5,19.5" id="Line-Copy-10" stroke="#106ba3" stroke-linecap="square" fill-rule="nonzero"></path>
        <path d="M10.5,13.5 L13.5,13.5" id="Line-Copy-7" stroke="#106ba3" stroke-linecap="square" fill-rule="nonzero"></path>
        <path d="M8.5,19.5 L13.5,19.5" id="Line-Copy-11" stroke="#106ba3" stroke-linecap="square" fill-rule="nonzero"></path>
    </g>
</svg>