<?xml version="1.0" encoding="UTF-8"?>
<svg width="24px" height="24px" viewBox="0 0 24 24" version="1.1" xmlns="http://www.w3.org/2000/svg">
    <!-- Generator: Sketch 51.3 (57544) - http://www.bohemiancoding.com/sketch -->
    <title>Pages</title>
    <desc>Created with Sketch.</desc>
    <defs></defs>
    <g id="Pages" stroke="none" stroke-width="1" fill="none" fill-rule="evenodd">
        <path d="M3,7 L3,23 L15,23 L15,7 L3,7 Z M3,6 L15,6 C15.5,6 16,6.5 16,7 L16,23 C16,23.5522847 15.5522847,24 15,24 L3,24 C2.44771525,24 2,23.5522847 2,23 L2,7 C2,6.44771525 2.44771525,6 3,6 Z"
              id="Rectangle-Copy-6" fill="#000000" fill-rule="nonzero"></path>
        <path d="M4,9.5 L4,9.5 C4,9.22385763 4.22385763,9 4.5,9 L13.5,9 C13.7761424,9 14,9.22385763 14,9.5 L14,9.5 C14,9.77614237 13.7761424,10 13.5,10 L4.5,10 C4.22385763,10 4,9.77614237 4,9.5 Z"
              id="Line-Copy-4" fill="#000000" fill-rule="nonzero"></path>
        <path d="M4,17.5 L4,17.5 C4,17.2238576 4.22385763,17 4.5,17 L13.5,17 C13.7761424,17 14,17.2238576 14,17.5 L14,17.5 C14,17.7761424 13.7761424,18 13.5,18 L4.5,18 C4.22385763,18 4,17.7761424 4,17.5 Z"
              id="Line-Copy-9" fill="#000000" fill-rule="nonzero"></path>
        <path d="M4,11.5 L4,11.5 C4,11.2238576 4.22385763,11 4.5,11 L11.5,11 C11.7761424,11 12,11.2238576 12,11.5 L12,11.5 C12,11.7761424 11.7761424,12 11.5,12 L4.5,12 C4.22385763,12 4,11.7761424 4,11.5 Z"
              id="Line-Copy-5" fill="#000000" fill-rule="nonzero"></path>
        <path d="M4,15.5 L4,15.5 C4,15.2238576 4.22385763,15 4.5,15 L12.5,15 C12.7761424,15 13,15.2238576 13,15.5 L13,15.5 C13,15.7761424 12.7761424,16 12.5,16 L4.5,16 C4.22385763,16 4,15.7761424 4,15.5 Z"
              id="Line-Copy-8" fill="#000000" fill-rule="nonzero"></path>
        <path d="M4,21.5 L4,21.5 C4,21.2238576 4.22385763,21 4.5,21 L12.5,21 C12.7761424,21 13,21.2238576 13,21.5 L13,21.5 C13,21.7761424 12.7761424,22 12.5,22 L4.5,22 C4.22385763,22 4,21.7761424 4,21.5 Z"
              id="Line-Copy-12" fill="#000000" fill-rule="nonzero"></path>
        <path d="M4,13.5 L4,13.5 C4,13.2238576 4.22385763,13 4.5,13 L8.5,13 C8.77614237,13 9,13.2238576 9,13.5 L9,13.5 C9,13.7761424 8.77614237,14 8.5,14 L4.5,14 C4.22385763,14 4,13.7761424 4,13.5 Z"
              id="Line-Copy-6" fill="#000000" fill-rule="nonzero"></path>
        <path d="M4,19.5 L4,19.5 C4,19.2238576 4.22385763,19 4.5,19 L6.5,19 C6.77614237,19 7,19.2238576 7,19.5 L7,19.5 C7,19.7761424 6.77614237,20 6.5,20 L4.5,20 C4.22385763,20 4,19.7761424 4,19.5 Z"
              id="Line-Copy-10" fill="#000000" fill-rule="nonzero"></path>
        <path d="M10,13.5 L10,13.5 C10,13.2238576 10.2238576,13 10.5,13 L13.5,13 C13.7761424,13 14,13.2238576 14,13.5 L14,13.5 C14,13.7761424 13.7761424,14 13.5,14 L10.5,14 C10.2238576,14 10,13.7761424 10,13.5 Z"
              id="Line-Copy-7" fill="#000000" fill-rule="nonzero"></path>
        <path d="M8,19.5 L8,19.5 C8,19.2238576 8.22385763,19 8.5,19 L13.5,19 C13.7761424,19 14,19.2238576 14,19.5 L14,19.5 C14,19.7761424 13.7761424,20 13.5,20 L8.5,20 C8.22385763,20 8,19.7761424 8,19.5 Z"
              id="Line-Copy-11" fill="#000000" fill-rule="nonzero"></path>
        <path d="M5,6.5 L4,6.5 L4,5.5 C4,4.67157288 4.67157288,4 5.5,4 L16.5,4 C17.3284271,4 18,4.67157288 18,5.5 L18,20.5 C18,21.3284271 17.3284271,22 16.5,22 L15.5,22 L15.5,21 L16.5,21 C16.7761424,21 17,20.7761424 17,20.5 L17,5.5 C17,5.22385763 16.7761424,5 16.5,5 L5.5,5 C5.22385763,5 5,5.22385763 5,5.5 L5,6.5 Z"
              id="Line-19" fill="#000000" fill-rule="nonzero"></path>
        <path d="M7,4.5 L6,4.5 L6,3.5 C6,2.67157288 6.67157288,2 7.5,2 L18.5,2 C19.3284271,2 20,2.67157288 20,3.5 L20,18.5 C20,19.3284271 19.3284271,20 18.5,20 L17.5,20 L17.5,19 L18.5,19 C18.7761424,19 19,18.7761424 19,18.5 L19,3.5 C19,3.22385763 18.7761424,3 18.5,3 L7.5,3 C7.22385763,3 7,3.22385763 7,3.5 L7,4.5 Z"
              id="Line-19-Copy" fill="#000000" fill-rule="nonzero"></path>
        <path d="M9,2.5 L8,2.5 L8,1.5 C8,0.671572875 8.67157288,0 9.5,0 L20.5,0 C21.3284271,0 22,0.671572875 22,1.5 L22,16.5 C22,17.3284271 21.3284271,18 20.5,18 L19.5,18 L19.5,17 L20.5,17 C20.7761424,17 21,16.7761424 21,16.5 L21,1.5 C21,1.22385763 20.7761424,1 20.5,1 L9.5,1 C9.22385763,1 9,1.22385763 9,1.5 L9,2.5 Z"
              id="Line-19-Copy-2" fill="#000000" fill-rule="nonzero"></path>
    </g>
</svg>