<?xml version="1.0" encoding="UTF-8"?>
<svg width="24px" height="24px" viewBox="0 0 24 24" version="1.1" xmlns="http://www.w3.org/2000/svg" xmlns:xlink="http://www.w3.org/1999/xlink">
    <!-- Generator: Sketch 52.2 (67145) - http://www.bohemiancoding.com/sketch -->
    <title>DocumentPDF</title>
    <desc>DocumentPDF</desc>
    <g id="DocumentPDF" stroke="none" stroke-width="1" fill="none" fill-rule="evenodd">
        <g transform="translate(3.000000, 0.000000)" fill="#000000" fill-rule="nonzero">
            <path d="M3,3.5 L3,3.5 C3,3.22385763 3.22385763,3 3.5,3 L11.5,3 C11.7761424,3 12,3.22385763 12,3.5 L12,3.5 C12,3.77614237 11.7761424,4 11.5,4 L3.5,4 C3.22385763,4 3,3.77614237 3,3.5 Z" id="Line-Copy-4"></path>
            <path d="M3,6.5 L3,6.5 C3,6.22385763 3.22385763,6 3.5,6 L14.5,6 C14.7761424,6 15,6.22385763 15,6.5 L15,6.5 C15,6.77614237 14.7761424,7 14.5,7 L3.5,7 C3.22385763,7 3,6.77614237 3,6.5 Z" id="Line-2-Copy-4"></path>
            <path d="M3,9.5 L3,9.5 C3,9.22385763 3.22385763,9 3.5,9 L14.5,9 C14.7761424,9 15,9.22385763 15,9.5 L15,9.5 C15,9.77614237 14.7761424,10 14.5,10 L3.5,10 C3.22385763,10 3,9.77614237 3,9.5 Z" id="Line-3-Copy-7"></path>
            <path d="M1,1 L1,23 L17,23 L17,4.41421356 L13.5857864,1 L1,1 Z M1,0 L13.5857864,0 C13.8510029,-4.87194788e-17 14.1053568,0.10535684 14.2928932,0.292893219 L17.7071068,3.70710678 C17.8946432,3.89464316 18,4.14899707 18,4.41421356 L18,23 C18,23.5522847 17.5522847,24 17,24 L1,24 C0.44771525,24 0,23.5522847 0,23 L0,1 C0,0.44771525 0.44771525,1.01453063e-16 1,0 Z" id="Rectangle-Copy-14"></path>
            <path d="M17,4 L18,5 L14,5 C13.4477153,5 13,4.55228475 13,4 L13,0 L14,1 L14,4 L17,4 Z M17,4 L18,5 L14,5 C13.4477153,5 13,4.55228475 13,4 L13,0 L14,1 L14,4 L17,4 Z" id="Rectangle-Copy-15"></path>
            <path d="M3,12.5 L3,12.5 C3,12.2238576 3.22385763,12 3.5,12 L14.5,12 C14.7761424,12 15,12.2238576 15,12.5 L15,12.5 C15,12.7761424 14.7761424,13 14.5,13 L3.5,13 C3.22385763,13 3,12.7761424 3,12.5 Z" id="Line-3-Copy-8"></path>
            <path d="M9,18.5 C9,17.8468906 8.58259619,17.2912711 8,17.0853529 L8,19.9146471 C8.58259619,19.7087289 9,19.1531094 9,18.5 Z M7.5,16 C8.88071187,16 10,17.1192881 10,18.5 C10,19.8807119 8.88071187,21 7.5,21 L7.5,21 C7.22385763,21 7,20.7761424 7,20.5 L7,16.5 C7,16.2238576 7.22385763,16 7.5,16 Z" id="Line-58-Copy-2"></path>
            <path d="M4,18 L5,18 L5,17 L4,17 L4,18 Z M4,19 L4,20.5 C4,20.7761424 3.77614237,21 3.5,21 L3.5,21 C3.22385763,21 3,20.7761424 3,20.5 L3,17 C3,16.4477153 3.44771525,16 4,16 L5,16 C5.55228475,16 6,16.4477153 6,17 L6,18 C6,18.5522847 5.55228475,19 5,19 L4,19 Z" id="Line-60"></path>
            <path d="M12,17 L12,20.5 C12,20.7761424 11.7761424,21 11.5,21 L11.5,21 C11.2238576,21 11,20.7761424 11,20.5 L11,17 C11,16.4477153 11.4477153,16 12,16 L13.5,16 C13.7761424,16 14,16.2238576 14,16.5 L14,16.5 C14,16.7761424 13.7761424,17 13.5,17 L12,17 Z" id="Line-61"></path>
            <path d="M13.5,18.5 L13.5,18.5 C13.5,18.7761424 13.2761424,19 13,19 L11,19 L11,18 L13,18 C13.2761424,18 13.5,18.2238576 13.5,18.5 Z" id="Line-62"></path>
        </g>
    </g>
</svg>