<?xml version="1.0" encoding="UTF-8"?>
<svg width="24px" height="24px" viewBox="0 0 24 24" version="1.1" xmlns="http://www.w3.org/2000/svg">
    <!-- Generator: Sketch 51.3 (57544) - http://www.bohemiancoding.com/sketch -->
    <title>Passport</title>
    <desc>Created with Sketch.</desc>
    <defs></defs>
    <g id="Passport" stroke="none" stroke-width="1" fill="none" fill-rule="evenodd">
        <path d="M11.5,14 C14.5375661,14 17,11.5375661 17,8.5 C17,5.46243388 14.5375661,3 11.5,3 C8.46243388,3 6,5.46243388 6,8.5 C6,11.5375661 8.46243388,14 11.5,14 Z M11.5,15 C7.91014913,15 5,12.0898509 5,8.5 C5,4.91014913 7.91014913,2 11.5,2 C15.0898509,2 18,4.91014913 18,8.5 C18,12.0898509 15.0898509,15 11.5,15 Z"
              id="Oval-8" fill="#000000" fill-rule="nonzero"></path>
        <path d="M11.5,14 C12.7135276,14 14,11.610837 14,8.5 C14,5.38916304 12.7135276,3 11.5,3 C10.2864724,3 9,5.38916304 9,8.5 C9,11.610837 10.2864724,14 11.5,14 Z M11.5,15 C9.56700338,15 8,12.0898509 8,8.5 C8,4.91014913 9.56700338,2 11.5,2 C13.4329966,2 15,4.91014913 15,8.5 C15,12.0898509 13.4329966,15 11.5,15 Z"
              id="Oval-8-Copy" fill="#000000" fill-rule="nonzero"></path>
        <polygon id="Line-12" fill="#000000" fill-rule="nonzero"
                 points="11 2.04166667 12 2.04166667 12 14.9583333 11 14.9583333"></polygon>
        <polygon id="Line-13" fill="#000000" fill-rule="nonzero" points="5.5 9 5.5 8 17.5 8 17.5 9"></polygon>
        <path d="M4,1 L4,23 L19,23 L19,1 L4,1 Z M4,0 L19,0 C19.5522847,-1.01453063e-16 20,0.44771525 20,1 L20,23 C20,23.5522847 19.5522847,24 19,24 L4,24 C3.44771525,24 3,23.5522847 3,23 L3,1 C3,0.44771525 3.44771525,1.01453063e-16 4,0 Z"
              id="Rectangle-11" fill="#000000" fill-rule="nonzero"></path>
        <path d="M7,18.5 C7,18.2541542 6.7195669,18.0720675 6,18.0171758 L6,19.1602864 C6.70500214,19.0066427 7,18.7709941 7,18.5 Z M5.5,22 L5.5,22 C5.22385763,22 5,21.7761424 5,21.5 L5,17.5 C5,17.2238576 5.22385763,17 5.5,17 C7.07404532,17 8,17.4629773 8,18.5 C8,19.4010094 7.28058128,19.939105 6,20.1784932 L6,21.5 C6,21.7761424 5.77614237,22 5.5,22 Z"
              id="Path-21" fill="#000000" fill-rule="nonzero"></path>
        <polygon id="Line" fill="#000000" fill-rule="nonzero" points="8 21 8 20 11 20 11 21"></polygon>
        <path d="M14,21.5 L14,21.5 C14,21.2238576 14.2238576,21 14.5,21 L15.5,21 C15.6850552,21 15.9021178,20.7519284 15.9413611,20.4379826 C15.9779721,20.1450947 15.8631054,20 15.5,20 C14.5089388,20 13.9580857,19.3041856 14.0663611,18.4379826 C14.1625345,17.6685951 14.7475552,17 15.5,17 L16.5,17 C16.7761424,17 17,17.2238576 17,17.5 L17,17.5 C17,17.7761424 16.7761424,18 16.5,18 L15.5,18 C15.3149448,18 15.0978822,18.2480716 15.0586389,18.5620174 C15.0220279,18.8549053 15.1368946,19 15.5,19 C16.4910612,19 17.0419143,19.6958144 16.9336389,20.5620174 C16.8374655,21.3314049 16.2524448,22 15.5,22 L14.5,22 C14.2238576,22 14,21.7761424 14,21.5 Z"
              id="Line-35-Copy" fill="#000000" fill-rule="nonzero"></path>
        <path d="M11,21.5 L11,21.5 C11,21.2238576 11.2238576,21 11.5,21 L12.5,21 C12.6850552,21 12.9021178,20.7519284 12.9413611,20.4379826 C12.9779721,20.1450947 12.8631054,20 12.5,20 C11.5089388,20 10.9580857,19.3041856 11.0663611,18.4379826 C11.1625345,17.6685951 11.7475552,17 12.5,17 L13.5,17 C13.7761424,17 14,17.2238576 14,17.5 L14,17.5 C14,17.7761424 13.7761424,18 13.5,18 L12.5,18 C12.3149448,18 12.0978822,18.2480716 12.0586389,18.5620174 C12.0220279,18.8549053 12.1368946,19 12.5,19 C13.4910612,19 14.0419143,19.6958144 13.9336389,20.5620174 C13.8374655,21.3314049 13.2524448,22 12.5,22 L11.5,22 C11.2238576,22 11,21.7761424 11,21.5 Z"
              id="Line-35-Copy-2" fill="#000000" fill-rule="nonzero"></path>
        <path d="M8.5,21.9539685 L8.5,21.9539685 C8.22385763,21.9539685 8,21.7301109 8,21.4539685 L8,18.6100128 C8,18.3754075 8.08248501,18.1482706 8.23302615,17.9683344 L8.75,17.3504152 C9.09654621,16.9362016 9.71326385,16.8813464 10.1274774,17.2278926 C10.1718633,17.2650275 10.2128651,17.3060292 10.25,17.3504152 L10.7669738,17.9683344 C10.917515,18.1482706 11,18.3754075 11,18.6100128 L11,21.4539685 C11,21.7301109 10.7761424,21.9539685 10.5,21.9539685 L10.5,21.9539685 C10.2238576,21.9539685 10,21.7301109 10,21.4539685 L10,18.9789126 C10,18.7721181 9.93588944,18.5704093 9.81649658,18.4015623 L9.75,18.3075219 C9.65236893,18.1694508 9.46129449,18.1366676 9.3232233,18.2342986 C9.29483523,18.254372 9.2700734,18.2791339 9.25,18.3075219 L9.18350342,18.4015623 C9.06411056,18.5704093 9,18.7721181 9,18.9789126 L9,21.4539685 C9,21.7301109 8.77614237,21.9539685 8.5,21.9539685 Z"
              id="Line-Copy-4" fill="#000000" fill-rule="nonzero"></path>
    </g>
</svg>