<?xml version="1.0" encoding="UTF-8"?>
<svg width="24px" height="24px" viewBox="0 0 24 24" version="1.1" xmlns="http://www.w3.org/2000/svg" xmlns:xlink="http://www.w3.org/1999/xlink">
    <!-- Generator: Sketch 52.2 (67145) - http://www.bohemiancoding.com/sketch -->
    <title>Passport</title>
    <desc>Passport</desc>
    <g id="Passport" stroke="none" stroke-width="1" fill="none" fill-rule="evenodd">
        <g transform="translate(3.000000, 0.000000)" fill="#000000" fill-rule="nonzero">
            <path d="M8.5,14 C11.5375661,14 14,11.5375661 14,8.5 C14,5.46243388 11.5375661,3 8.5,3 C5.46243388,3 3,5.46243388 3,8.5 C3,11.5375661 5.46243388,14 8.5,14 Z M8.5,15 C4.91014913,15 2,12.0898509 2,8.5 C2,4.91014913 4.91014913,2 8.5,2 C12.0898509,2 15,4.91014913 15,8.5 C15,12.0898509 12.0898509,15 8.5,15 Z" id="Oval-8"></path>
            <path d="M8.5,14 C9.71352759,14 11,11.610837 11,8.5 C11,5.38916304 9.71352759,3 8.5,3 C7.28647241,3 6,5.38916304 6,8.5 C6,11.610837 7.28647241,14 8.5,14 Z M8.5,15 C6.56700338,15 5,12.0898509 5,8.5 C5,4.91014913 6.56700338,2 8.5,2 C10.4329966,2 12,4.91014913 12,8.5 C12,12.0898509 10.4329966,15 8.5,15 Z" id="Oval-8-Copy"></path>
            <polygon id="Line-12" points="8 2.04166667 9 2.04166667 9 14.9583333 8 14.9583333"></polygon>
            <polygon id="Line-13" points="2.5 9 2.5 8 14.5 8 14.5 9"></polygon>
            <path d="M1,1 L1,23 L16,23 L16,1 L1,1 Z M1,0 L16,0 C16.5522847,-1.01453063e-16 17,0.44771525 17,1 L17,23 C17,23.5522847 16.5522847,24 16,24 L1,24 C0.44771525,24 0,23.5522847 0,23 L0,1 C0,0.44771525 0.44771525,1.01453063e-16 1,0 Z" id="Rectangle-11"></path>
            <path d="M4,18.5 C4,18.2541542 3.7195669,18.0720675 3,18.0171758 L3,19.1602864 C3.70500214,19.0066427 4,18.7709941 4,18.5 Z M2.5,22 L2.5,22 C2.22385763,22 2,21.7761424 2,21.5 L2,17.5 C2,17.2238576 2.22385763,17 2.5,17 C4.07404532,17 5,17.4629773 5,18.5 C5,19.4010094 4.28058128,19.939105 3,20.1784932 L3,21.5 C3,21.7761424 2.77614237,22 2.5,22 Z" id="Path-21"></path>
            <polygon id="Line" points="5 21 5 20 8 20 8 21"></polygon>
            <path d="M11,21.5 L11,21.5 C11,21.2238576 11.2238576,21 11.5,21 L12.5,21 C12.6850552,21 12.9021178,20.7519284 12.9413611,20.4379826 C12.9779721,20.1450947 12.8631054,20 12.5,20 C11.5089388,20 10.9580857,19.3041856 11.0663611,18.4379826 C11.1625345,17.6685951 11.7475552,17 12.5,17 L13.5,17 C13.7761424,17 14,17.2238576 14,17.5 L14,17.5 C14,17.7761424 13.7761424,18 13.5,18 L12.5,18 C12.3149448,18 12.0978822,18.2480716 12.0586389,18.5620174 C12.0220279,18.8549053 12.1368946,19 12.5,19 C13.4910612,19 14.0419143,19.6958144 13.9336389,20.5620174 C13.8374655,21.3314049 13.2524448,22 12.5,22 L11.5,22 C11.2238576,22 11,21.7761424 11,21.5 Z" id="Line-35-Copy"></path>
            <path d="M8,21.5 L8,21.5 C8,21.2238576 8.22385763,21 8.5,21 L9.5,21 C9.6850552,21 9.90211784,20.7519284 9.94136106,20.4379826 C9.97797205,20.1450947 9.86310543,20 9.5,20 C8.50893876,20 7.95808569,19.3041856 8.06636106,18.4379826 C8.16253451,17.6685951 8.7475552,17 9.5,17 L10.5,17 C10.7761424,17 11,17.2238576 11,17.5 L11,17.5 C11,17.7761424 10.7761424,18 10.5,18 L9.5,18 C9.3149448,18 9.09788216,18.2480716 9.05863894,18.5620174 C9.02202795,18.8549053 9.13689457,19 9.5,19 C10.4910612,19 11.0419143,19.6958144 10.9336389,20.5620174 C10.8374655,21.3314049 10.2524448,22 9.5,22 L8.5,22 C8.22385763,22 8,21.7761424 8,21.5 Z" id="Line-35-Copy-2"></path>
            <path d="M5.5,21.9539685 L5.5,21.9539685 C5.22385763,21.9539685 5,21.7301109 5,21.4539685 L5,18.6100128 C5,18.3754075 5.08248501,18.1482706 5.23302615,17.9683344 L5.75,17.3504152 C6.09654621,16.9362016 6.71326385,16.8813464 7.12747741,17.2278926 C7.17186333,17.2650275 7.21286512,17.3060292 7.25,17.3504152 L7.76697385,17.9683344 C7.91751499,18.1482706 8,18.3754075 8,18.6100128 L8,21.4539685 C8,21.7301109 7.77614237,21.9539685 7.5,21.9539685 L7.5,21.9539685 C7.22385763,21.9539685 7,21.7301109 7,21.4539685 L7,18.9789126 C7,18.7721181 6.93588944,18.5704093 6.81649658,18.4015623 L6.75,18.3075219 C6.65236893,18.1694508 6.46129449,18.1366676 6.3232233,18.2342986 C6.29483523,18.254372 6.2700734,18.2791339 6.25,18.3075219 L6.18350342,18.4015623 C6.06411056,18.5704093 6,18.7721181 6,18.9789126 L6,21.4539685 C6,21.7301109 5.77614237,21.9539685 5.5,21.9539685 Z" id="Line-Copy-4"></path>
        </g>
    </g>
</svg>