<?xml version="1.0" encoding="UTF-8"?>
<svg width="24px" height="24px" viewBox="0 0 24 24" version="1.1" xmlns="http://www.w3.org/2000/svg" xmlns:xlink="http://www.w3.org/1999/xlink">
    <!-- Generator: Sketch 51.3 (57544) - http://www.bohemiancoding.com/sketch -->
    <title>Payment</title>
    <desc>Created with Sketch.</desc>
    <defs></defs>
    <g id="Payment" stroke="none" stroke-width="1" fill="none" fill-rule="evenodd">
        <rect id="Rectangle-8-Copy-5" stroke="#106ba3" fill-rule="nonzero" x="0.5" y="14.5" width="19" height="9"></rect>
        <path d="M2.5,12.5 L2.5,14.5 L19.5,14.5 L19.5,21.5 L21.5,21.5 L21.5,12.5 L2.5,12.5 Z" id="Rectangle-8-Copy-10" stroke="#106ba3" fill-rule="nonzero"></path>
        <path d="M4.5,10.5 L4.5,12.5 L21.5,12.5 L21.5,19.5 L23.5,19.5 L23.5,10.5 L4.5,10.5 Z" id="Rectangle-8-Copy-11" stroke="#106ba3" fill-rule="nonzero"></path>
        <path d="M0.5,14.5 L0.5,17.5 L2,17.5 C2.82842712,17.5 3.5,16.8284271 3.5,16 L3.5,14.5 L0.5,14.5 Z" id="Rectangle-8-Copy-6" stroke="#106ba3" fill-rule="nonzero"></path>
        <path d="M16.5,14.5 L16.5,17.5 L18,17.5 C18.8284271,17.5 19.5,16.8284271 19.5,16 L19.5,14.5 L16.5,14.5 Z" id="Rectangle-8-Copy-7" stroke="#106ba3" fill-rule="nonzero" transform="translate(18.000000, 16.000000) rotate(-270.000000) translate(-18.000000, -16.000000) "></path>
        <path d="M0.5,20.5 L0.5,23.5 L2,23.5 C2.82842712,23.5 3.5,22.8284271 3.5,22 L3.5,20.5 L0.5,20.5 Z" id="Rectangle-8-Copy-8" stroke="#106ba3" fill-rule="nonzero" transform="translate(2.000000, 22.000000) rotate(-90.000000) translate(-2.000000, -22.000000) "></path>
        <path d="M16.5,20.5 L16.5,23.5 L18,23.5 C18.8284271,23.5 19.5,22.8284271 19.5,22 L19.5,20.5 L16.5,20.5 Z" id="Rectangle-8-Copy-9" stroke="#106ba3" fill-rule="nonzero" transform="translate(18.000000, 22.000000) rotate(-180.000000) translate(-18.000000, -22.000000) "></path>
        <ellipse id="Oval-4-Copy" stroke="#106ba3" fill-rule="nonzero" cx="10" cy="19" rx="3.5" ry="2.5"></ellipse>
        <path d="M10.5,0.5 L10.5,8.5" id="Line-14" stroke="#106ba3" stroke-linecap="square" fill-rule="nonzero"></path>
        <path d="M12.5,0.5 L12.5,8.5" id="Line" stroke="#106ba3" stroke-linecap="square" fill-rule="nonzero"></path>
        <polyline id="Path-26" stroke="#106ba3" fill-rule="nonzero" points="15 3 13.5 1.5 9.5 1.5 8.5 2.5 8.5 3.5 9.5 4.5 13.5 4.5 14.5 5.5 14.5 6.5 13.5 7.5 9.5 7.5 8 6"></polyline>
    </g>
</svg>