<?xml version="1.0" encoding="UTF-8"?>
<svg width="24px" height="24px" viewBox="0 0 24 24" version="1.1" xmlns="http://www.w3.org/2000/svg" xmlns:xlink="http://www.w3.org/1999/xlink">
    <!-- Generator: Sketch 52.2 (67145) - http://www.bohemiancoding.com/sketch -->
    <title>Person</title>
    <desc>Person</desc>
    <g id="Person" stroke="none" stroke-width="1" fill="none" fill-rule="evenodd">
        <g fill-rule="nonzero">
            <path d="M12,11 C13.6568542,11 15,9.65685425 15,8 C15,6.34314575 13.6568542,5 12,5 C10.3431458,5 9,6.34314575 9,8 C9,9.65685425 10.3431458,11 12,11 Z M12,12 C9.790861,12 8,10.209139 8,8 C8,5.790861 9.790861,4 12,4 C14.209139,4 16,5.790861 16,8 C16,10.209139 14.209139,12 12,12 Z" id="Oval-3-Copy-2" fill="#000000"></path>
            <path d="M12,23 C18.0751322,23 23,18.0751322 23,12 C23,5.92486775 18.0751322,1 12,1 C5.92486775,1 1,5.92486775 1,12 C1,18.0751322 5.92486775,23 12,23 Z M12,24 C5.372583,24 0,18.627417 0,12 C0,5.372583 5.372583,0 12,0 C18.627417,0 24,5.372583 24,12 C24,18.627417 18.627417,24 12,24 Z" id="Oval-9" fill="#000000"></path>
            <path d="M6.5,22.1021025 C8.1716575,23.0143485 10.0498731,23.5 12,23.5 C13.9501269,23.5 15.8283425,23.0143485 17.5,22.1021025 L17.5,16 C17.5,14.0670034 15.9329966,12.5 14,12.5 L10,12.5 C8.06700338,12.5 6.5,14.0670034 6.5,16 L6.5,22.1021025 Z" id="Combined-Shape" stroke="#000000"></path>
        </g>
    </g>
</svg>