<?xml version="1.0" encoding="UTF-8"?>
<svg width="24px" height="24px" viewBox="0 0 24 24" version="1.1" xmlns="http://www.w3.org/2000/svg" xmlns:xlink="http://www.w3.org/1999/xlink">
    <!-- Generator: Sketch 52.2 (67145) - http://www.bohemiancoding.com/sketch -->
    <title>DocumentTXT</title>
    <desc>DocumentTXT</desc>
    <g id="DocumentTXT" stroke="none" stroke-width="1" fill="none" fill-rule="evenodd">
        <g transform="translate(3.000000, 0.000000)" fill="#000000" fill-rule="nonzero">
            <path d="M3,3.5 L3,3.5 C3,3.22385763 3.22385763,3 3.5,3 L11.5,3 C11.7761424,3 12,3.22385763 12,3.5 L12,3.5 C12,3.77614237 11.7761424,4 11.5,4 L3.5,4 C3.22385763,4 3,3.77614237 3,3.5 Z" id="Line-Copy-2"></path>
            <path d="M3,6.5 L3,6.5 C3,6.22385763 3.22385763,6 3.5,6 L14.5,6 C14.7761424,6 15,6.22385763 15,6.5 L15,6.5 C15,6.77614237 14.7761424,7 14.5,7 L3.5,7 C3.22385763,7 3,6.77614237 3,6.5 Z" id="Line-2-Copy-2"></path>
            <path d="M3,9.5 L3,9.5 C3,9.22385763 3.22385763,9 3.5,9 L14.5,9 C14.7761424,9 15,9.22385763 15,9.5 L15,9.5 C15,9.77614237 14.7761424,10 14.5,10 L3.5,10 C3.22385763,10 3,9.77614237 3,9.5 Z" id="Line-3-Copy-3"></path>
            <path d="M3,12.5 L3,12.5 C3,12.2238576 3.22385763,12 3.5,12 L14.5,12 C14.7761424,12 15,12.2238576 15,12.5 L15,12.5 C15,12.7761424 14.7761424,13 14.5,13 L3.5,13 C3.22385763,13 3,12.7761424 3,12.5 Z" id="Line-3-Copy-4"></path>
            <path d="M3,16.5 L3,16.5 C3,16.2238576 3.22385763,16 3.5,16 L5.5,16 C5.77614237,16 6,16.2238576 6,16.5 L6,16.5 C6,16.7761424 5.77614237,17 5.5,17 L3.5,17 C3.22385763,17 3,16.7761424 3,16.5 Z" id="Line-21"></path>
            <path d="M4,16 L5,16 L5,20.5 C5,20.7761424 4.77614237,21 4.5,21 L4.5,21 C4.22385763,21 4,20.7761424 4,20.5 L4,16 Z" id="Line"></path>
            <path d="M11,16.5 L11,16.5 C11,16.2238576 11.2238576,16 11.5,16 L13.5,16 C13.7761424,16 14,16.2238576 14,16.5 L14,16.5 C14,16.7761424 13.7761424,17 13.5,17 L11.5,17 C11.2238576,17 11,16.7761424 11,16.5 Z" id="Line-4"></path>
            <path d="M12,16 L13,16 L13,20.5 C13,20.7761424 12.7761424,21 12.5,21 L12.5,21 C12.2238576,21 12,20.7761424 12,20.5 L12,16 Z" id="Line-5"></path>
            <path d="M7.5,16 L7.5,16 C7.77614237,16 8,16.2238576 8,16.5 L8,17.0857864 C8,17.2183947 8.05267842,17.3455716 8.14644661,17.4393398 L9.56066017,18.8535534 C9.84196474,19.134858 10,19.5163888 10,19.9142136 L10,20.5 C10,20.7761424 9.77614237,21 9.5,21 L9.5,21 C9.22385763,21 9,20.7761424 9,20.5 L9,19.9142136 C9,19.7816053 8.94732158,19.6544284 8.85355339,19.5606602 L7.43933983,18.1464466 C7.15803526,17.865142 7,17.4836112 7,17.0857864 L7,16.5 C7,16.2238576 7.22385763,16 7.5,16 Z" id="Line-5-Copy-2"></path>
            <path d="M9.5,16 L9.5,16 C9.77614237,16 10,16.2238576 10,16.5 L10,17.0857864 C10,17.4836112 9.84196474,17.865142 9.56066017,18.1464466 L8.14644661,19.5606602 C8.05267842,19.6544284 8,19.7816053 8,19.9142136 L8,20.5 C8,20.7761424 7.77614237,21 7.5,21 L7.5,21 C7.22385763,21 7,20.7761424 7,20.5 L7,19.9142136 C7,19.5163888 7.15803526,19.134858 7.43933983,18.8535534 L8.85355339,17.4393398 C8.94732158,17.3455716 9,17.2183947 9,17.0857864 L9,16.5 C9,16.2238576 9.22385763,16 9.5,16 Z" id="Line-5-Copy"></path>
            <path d="M1,1 L1,23 L17,23 L17,4.41421356 L13.5857864,1 L1,1 Z M1,0 L13.5857864,0 C13.8510029,-4.87194788e-17 14.1053568,0.10535684 14.2928932,0.292893219 L17.7071068,3.70710678 C17.8946432,3.89464316 18,4.14899707 18,4.41421356 L18,23 C18,23.5522847 17.5522847,24 17,24 L1,24 C0.44771525,24 0,23.5522847 0,23 L0,1 C0,0.44771525 0.44771525,1.01453063e-16 1,0 Z" id="Rectangle-Copy-10"></path>
            <path d="M17,4 L18,5 L14,5 C13.4477153,5 13,4.55228475 13,4 L13,0 L14,1 L14,4 L17,4 Z M17,4 L18,5 L14,5 C13.4477153,5 13,4.55228475 13,4 L13,0 L14,1 L14,4 L17,4 Z" id="Rectangle-Copy-11"></path>
        </g>
    </g>
</svg>