<?xml version="1.0" encoding="UTF-8"?>
<svg width="24px" height="24px" viewBox="0 0 24 24" version="1.1" xmlns="http://www.w3.org/2000/svg" xmlns:xlink="http://www.w3.org/1999/xlink">
    <!-- Generator: Sketch 52.2 (67145) - http://www.bohemiancoding.com/sketch -->
    <title>PublicBody</title>
    <desc>PublicBody</desc>
    <g id="PublicBody" stroke="none" stroke-width="1" fill="none" fill-rule="evenodd">
        <g transform="translate(1.000000, 0.000000)" fill="#000000" fill-rule="nonzero">
            <path d="M16,17 L16,12 C16,10.3431458 14.6568542,9 13,9 L9,9 C7.34314575,9 6,10.3431458 6,12 L6,17 L16,17 Z M9,8 L13,8 C15.209139,8 17,9.790861 17,12 L17,18 L5,18 L5,12 C5,9.790861 6.790861,8 9,8 Z" id="Combined-Shape-Copy"></path>
            <path d="M11,7 C12.6568542,7 14,5.65685425 14,4 C14,2.34314575 12.6568542,1 11,1 C9.34314575,1 8,2.34314575 8,4 C8,5.65685425 9.34314575,7 11,7 Z M11,8 C8.790861,8 7,6.209139 7,4 C7,1.790861 8.790861,0 11,0 C13.209139,0 15,1.790861 15,4 C15,6.209139 13.209139,8 11,8 Z" id="Oval-3-Copy-3"></path>
            <path d="M1,18 L1,20 L21,20 L21,18 L1,18 Z M1,17 L21,17 C21.5522847,17 22,17.4477153 22,18 L22,20 C22,20.5522847 21.5522847,21 21,21 L1,21 C0.44771525,21 0,20.5522847 0,20 L0,18 C-1.11022302e-16,17.4477153 0.44771525,17 1,17 Z" id="Rectangle-12"></path>
            <path d="M3,21 L3,23 L19,23 L19,21 L3,21 Z M2,20 L20,20 L20,23 C20,23.5522847 19.5522847,24 19,24 L3,24 C2.44771525,24 2,23.5522847 2,23 L2,20 Z" id="Rectangle-12-Copy"></path>
            <path d="M12.5,14 C12.6401733,14 13,13.4002888 13,12.5 C13,11.5997112 12.6401733,11 12.5,11 C12.3598267,11 12,11.5997112 12,12.5 C12,13.4002888 12.3598267,14 12.5,14 Z M12.5,15 C11.6715729,15 11,13.8807119 11,12.5 C11,11.1192881 11.6715729,10 12.5,10 C13.3284271,10 14,11.1192881 14,12.5 C14,13.8807119 13.3284271,15 12.5,15 Z" id="Oval-10"></path>
            <path d="M8.5,14 C8.64017329,14 9,13.4002888 9,12.5 C9,11.5997112 8.64017329,11 8.5,11 C8.35982671,11 8,11.5997112 8,12.5 C8,13.4002888 8.35982671,14 8.5,14 Z M8.5,15 C7.67157288,15 7,13.8807119 7,12.5 C7,11.1192881 7.67157288,10 8.5,10 C9.32842712,10 10,11.1192881 10,12.5 C10,13.8807119 9.32842712,15 8.5,15 Z" id="Oval-10-Copy"></path>
            <polygon id="Line-15" points="12 14 13 14 13 18 12 18"></polygon>
            <polygon id="Line-15-Copy" points="8 14 9 14 9 18 8 18"></polygon>
        </g>
    </g>
</svg>