<?xml version="1.0" encoding="UTF-8"?>
<svg width="24px" height="24px" viewBox="0 0 24 24" version="1.1" xmlns="http://www.w3.org/2000/svg">
    <!-- Generator: Sketch 51.3 (57544) - http://www.bohemiancoding.com/sketch -->
    <title>PublicBody</title>
    <desc>Created with Sketch.</desc>
    <defs></defs>
    <g id="PublicBody" stroke="none" stroke-width="1" fill="none" fill-rule="evenodd">
        <path d="M17,17 L17,12 C17,10.3431458 15.6568542,9 14,9 L10,9 C8.34314575,9 7,10.3431458 7,12 L7,17 L17,17 Z M10,8 L14,8 C16.209139,8 18,9.790861 18,12 L18,18 L6,18 L6,12 C6,9.790861 7.790861,8 10,8 Z"
              id="Combined-Shape-Copy" fill="#000000" fill-rule="nonzero"></path>
        <path d="M12,7 C13.6568542,7 15,5.65685425 15,4 C15,2.34314575 13.6568542,1 12,1 C10.3431458,1 9,2.34314575 9,4 C9,5.65685425 10.3431458,7 12,7 Z M12,8 C9.790861,8 8,6.209139 8,4 C8,1.790861 9.790861,0 12,0 C14.209139,0 16,1.790861 16,4 C16,6.209139 14.209139,8 12,8 Z"
              id="Oval-3-Copy-3" fill="#000000" fill-rule="nonzero"></path>
        <path d="M2,18 L2,20 L22,20 L22,18 L2,18 Z M2,17 L22,17 C22.5522847,17 23,17.4477153 23,18 L23,20 C23,20.5522847 22.5522847,21 22,21 L2,21 C1.44771525,21 1,20.5522847 1,20 L1,18 C1,17.4477153 1.44771525,17 2,17 Z"
              id="Rectangle-12" fill="#000000" fill-rule="nonzero"></path>
        <path d="M4,21 L4,23 L20,23 L20,21 L4,21 Z M3,20 L21,20 L21,23 C21,23.5522847 20.5522847,24 20,24 L4,24 C3.44771525,24 3,23.5522847 3,23 L3,20 Z"
              id="Rectangle-12-Copy" fill="#000000" fill-rule="nonzero"></path>
        <path d="M13.5,14 C13.6401733,14 14,13.4002888 14,12.5 C14,11.5997112 13.6401733,11 13.5,11 C13.3598267,11 13,11.5997112 13,12.5 C13,13.4002888 13.3598267,14 13.5,14 Z M13.5,15 C12.6715729,15 12,13.8807119 12,12.5 C12,11.1192881 12.6715729,10 13.5,10 C14.3284271,10 15,11.1192881 15,12.5 C15,13.8807119 14.3284271,15 13.5,15 Z"
              id="Oval-10" fill="#000000" fill-rule="nonzero"></path>
        <path d="M9.5,14 C9.64017329,14 10,13.4002888 10,12.5 C10,11.5997112 9.64017329,11 9.5,11 C9.35982671,11 9,11.5997112 9,12.5 C9,13.4002888 9.35982671,14 9.5,14 Z M9.5,15 C8.67157288,15 8,13.8807119 8,12.5 C8,11.1192881 8.67157288,10 9.5,10 C10.3284271,10 11,11.1192881 11,12.5 C11,13.8807119 10.3284271,15 9.5,15 Z"
              id="Oval-10-Copy" fill="#000000" fill-rule="nonzero"></path>
        <polygon id="Line-15" fill="#000000" fill-rule="nonzero" points="13 14 14 14 14 18 13 18"></polygon>
        <polygon id="Line-15-Copy" fill="#000000" fill-rule="nonzero" points="9 14 10 14 10 18 9 18"></polygon>
    </g>
</svg>