<?xml version="1.0" encoding="UTF-8"?>
<svg width="24px" height="24px" viewBox="0 0 24 24" version="1.1" xmlns="http://www.w3.org/2000/svg">
    <!-- Generator: Sketch 51.3 (57544) - http://www.bohemiancoding.com/sketch -->
    <title>RealEstate</title>
    <desc>Created with Sketch.</desc>
    <defs></defs>
    <g id="RealEstate" stroke="none" stroke-width="1" fill="none" fill-rule="evenodd">
        <path d="M2.75,13.25 L2.75,13.25 C2.61090419,13.1109042 2.60802499,12.8862895 2.74350971,12.743674 L11.2750006,3.7631573 C11.6553864,3.36275117 12.2883433,3.3465215 12.6887495,3.72690733 C12.7011406,3.73867889 12.7132279,3.75076618 12.7249994,3.7631573 L21.2564903,12.743674 C21.391975,12.8862895 21.3890958,13.1109042 21.25,13.25 L21.25,13.25 C21.1119288,13.3880712 20.8880712,13.3880712 20.75,13.25 L12,4.5 L3.25,13.25 C3.11192881,13.3880712 2.88807119,13.3880712 2.75,13.25 Z"
              id="Path-27" fill="#000000" fill-rule="nonzero"></path>
        <path d="M5,13.9142136 L5,23 L19,23 L19,13.9142136 L12,6.91421356 L5,13.9142136 Z M4.29289322,13.2071068 L11.2928932,6.20710678 C11.6834175,5.81658249 12.3165825,5.81658249 12.7071068,6.20710678 L19.7071068,13.2071068 C19.8946432,13.3946432 20,13.6489971 20,13.9142136 L20,23 C20,23.5522847 19.5522847,24 19,24 L5,24 C4.44771525,24 4,23.5522847 4,23 L4,13.9142136 C4,13.6489971 4.10535684,13.3946432 4.29289322,13.2071068 Z"
              id="Rectangle-13" fill="#000000" fill-rule="nonzero"></path>
        <path d="M10,23 L14,23 L14,17 L10,17 L10,23 Z M10,16 L14,16 C14.5522847,16 15,16.4477153 15,17 L15,24 L9,24 L9,17 C9,16.4477153 9.44771525,16 10,16 Z"
              id="Rectangle-12-Copy-2" fill="#000000" fill-rule="nonzero"></path>
        <path d="M17,5 L16,5 L16,7.5 L17,8.5 L17,5 Z M16,4 L17,4 C17.5522847,4 18,4.44771525 18,5 L18,10.5 L15,7.5 L15,5 C15,4.44771525 15.4477153,4 16,4 Z"
              id="Rectangle-12-Copy-3" fill="#000000" fill-rule="nonzero"></path>
    </g>
</svg>