<?xml version="1.0" encoding="UTF-8"?>
<svg width="24px" height="24px" viewBox="0 0 24 24" version="1.1" xmlns="http://www.w3.org/2000/svg" xmlns:xlink="http://www.w3.org/1999/xlink">
    <!-- Generator: Sketch 52.2 (67145) - http://www.bohemiancoding.com/sketch -->
    <title>RealEstate</title>
    <desc>RealEstate</desc>
    <g id="RealEstate" stroke="none" stroke-width="1" fill="none" fill-rule="evenodd">
        <g transform="translate(2.000000, 3.000000)" fill="#000000" fill-rule="nonzero">
            <path d="M0.75,10.25 L0.75,10.25 C0.610904191,10.1109042 0.608024988,9.88628949 0.743509708,9.74367399 L9.27500057,0.763157299 C9.65538639,0.362751168 10.2883433,0.346521503 10.6887495,0.726907327 C10.7011406,0.738678887 10.7132279,0.750766182 10.7249994,0.763157299 L19.2564903,9.74367399 C19.391975,9.88628949 19.3890958,10.1109042 19.25,10.25 L19.25,10.25 C19.1119288,10.3880712 18.8880712,10.3880712 18.75,10.25 L10,1.5 L1.25,10.25 C1.11192881,10.3880712 0.888071187,10.3880712 0.75,10.25 Z" id="Path-27"></path>
            <path d="M3,10.9142136 L3,20 L17,20 L17,10.9142136 L10,3.91421356 L3,10.9142136 Z M2.29289322,10.2071068 L9.29289322,3.20710678 C9.68341751,2.81658249 10.3165825,2.81658249 10.7071068,3.20710678 L17.7071068,10.2071068 C17.8946432,10.3946432 18,10.6489971 18,10.9142136 L18,20 C18,20.5522847 17.5522847,21 17,21 L3,21 C2.44771525,21 2,20.5522847 2,20 L2,10.9142136 C2,10.6489971 2.10535684,10.3946432 2.29289322,10.2071068 Z" id="Rectangle-13"></path>
            <path d="M8,20 L12,20 L12,14 L8,14 L8,20 Z M8,13 L12,13 C12.5522847,13 13,13.4477153 13,14 L13,21 L7,21 L7,14 C7,13.4477153 7.44771525,13 8,13 Z" id="Rectangle-12-Copy-2"></path>
            <path d="M15,2 L14,2 L14,4.5 L15,5.5 L15,2 Z M14,1 L15,1 C15.5522847,1 16,1.44771525 16,2 L16,7.5 L13,4.5 L13,2 C13,1.44771525 13.4477153,1 14,1 Z" id="Rectangle-12-Copy-3"></path>
        </g>
    </g>
</svg>