<?xml version="1.0" encoding="UTF-8"?>
<svg width="24px" height="24px" viewBox="0 0 24 24" version="1.1" xmlns="http://www.w3.org/2000/svg" xmlns:xlink="http://www.w3.org/1999/xlink">
    <!-- Generator: Sketch 52.2 (67145) - http://www.bohemiancoding.com/sketch -->
    <title>Relationship</title>
    <desc>Relationship</desc>
    <g id="Relationship" stroke="none" stroke-width="1" fill="none" fill-rule="evenodd">
        <g transform="translate(0.000000, 7.000000)" fill="#000000" fill-rule="nonzero">
            <path d="M2,7.5 L5,10.5 L5,9 L15,9 L15,6 L5,6 L5,4.5 L2,7.5 Z M6,10 L6,11.5 C6,11.7761424 5.77614237,12 5.5,12 L5.41421356,12 C5.14899707,12 4.89464316,11.8946432 4.70710678,11.7071068 L1,8 C0.610325515,7.60862775 0.608627747,7.38967449 1,7 L4.79424379,3.2854305 C4.9811335,3.10246523 5.23226655,3 5.49380824,3 L5.54289826,3 C5.79534858,3 6,3.20465142 6,3.45710174 L6,5 L15,5 C15.5522847,5 16,5.44771525 16,6 L16,9 C16,9.55228475 15.5522847,10 15,10 L6,10 Z" id="Path-22-Copy-2"></path>
            <path d="M12.2928929,1.5 L9.29289287,4.5 L12.2928929,7.5 L12.2928929,6 L13.7928929,6 C14.0690352,6 14.2928929,6.22385763 14.2928929,6.5 L14.2928929,6.5 C14.2928929,6.77614237 14.0690352,7 13.7928929,7 L13.2928929,7 L13.2928929,8.5 C13.2928929,8.77614237 13.0690352,9 12.7928929,9 L12.7071064,9 C12.4418899,9 12.187536,8.89464316 11.9999997,8.70710678 L8.29289287,5 C7.90321839,4.60862775 7.90152062,4.38967449 8.29289287,4 L12.0871367,0.285430497 C12.2740264,0.102465226 12.5251594,-6.17945559e-15 12.7867011,-5.99520433e-15 L12.8357911,-5.32907052e-15 C13.0882415,-5.37544489e-15 13.2928929,0.20465142 13.2928929,0.45710174 L13.2928929,2 L22.2928929,2 C22.8451776,2 23.2928929,2.44771525 23.2928929,3 L23.2928929,3.5 C23.2928929,3.77614237 23.0690352,4 22.7928929,4 L22.7928929,4 C22.5167505,4 22.2928929,3.77614237 22.2928929,3.5 L22.2928929,3 L12.2928929,3 L12.2928929,1.5 Z" id="Path-22-Copy-3" transform="translate(15.646446, 4.500000) scale(-1, 1) translate(-15.646446, -4.500000) "></path>
        </g>
    </g>
</svg>