<?xml version="1.0" encoding="UTF-8"?>
<svg width="24px" height="24px" viewBox="0 0 24 24" version="1.1" xmlns="http://www.w3.org/2000/svg">
    <!-- Generator: Sketch 51.3 (57544) - http://www.bohemiancoding.com/sketch -->
    <title>Relationship</title>
    <desc>Created with Sketch.</desc>
    <defs></defs>
    <g id="Relationship" stroke="none" stroke-width="1" fill="none" fill-rule="evenodd">
        <path d="M2,14.5 L5,17.5 L5,16 L15,16 L15,13 L5,13 L5,11.5 L2,14.5 Z M6,17 L6,18.5 C6,18.7761424 5.77614237,19 5.5,19 L5.41421356,19 C5.14899707,19 4.89464316,18.8946432 4.70710678,18.7071068 L1,15 C0.610325515,14.6086277 0.608627747,14.3896745 1,14 L4.79424379,10.2854305 C4.9811335,10.1024652 5.23226655,10 5.49380824,10 L5.54289826,10 C5.79534858,10 6,10.2046514 6,10.4571017 L6,12 L15,12 C15.5522847,12 16,12.4477153 16,13 L16,16 C16,16.5522847 15.5522847,17 15,17 L6,17 Z"
              id="Path-22-Copy-2" fill="#000000" fill-rule="nonzero"></path>
        <path d="M12.2928929,8.5 L9.29289287,11.5 L12.2928929,14.5 L12.2928929,13 L13.7928929,13 C14.0690352,13 14.2928929,13.2238576 14.2928929,13.5 L14.2928929,13.5 C14.2928929,13.7761424 14.0690352,14 13.7928929,14 L13.2928929,14 L13.2928929,15.5 C13.2928929,15.7761424 13.0690352,16 12.7928929,16 L12.7071064,16 C12.4418899,16 12.187536,15.8946432 11.9999997,15.7071068 L8.29289287,12 C7.90321839,11.6086277 7.90152062,11.3896745 8.29289287,11 L12.0871367,7.2854305 C12.2740264,7.10246523 12.5251594,7 12.7867011,7 L12.8357911,7 C13.0882415,7 13.2928929,7.20465142 13.2928929,7.45710174 L13.2928929,9 L22.2928929,9 C22.8451776,9 23.2928929,9.44771525 23.2928929,10 L23.2928929,10.5 C23.2928929,10.7761424 23.0690352,11 22.7928929,11 L22.7928929,11 C22.5167505,11 22.2928929,10.7761424 22.2928929,10.5 L22.2928929,10 L12.2928929,10 L12.2928929,8.5 Z"
              id="Path-22-Copy-3" fill="#000000" fill-rule="nonzero"
              transform="translate(15.646446, 11.500000) scale(-1, 1) translate(-15.646446, -11.500000) "></path>
    </g>
</svg>