<?xml version="1.0" encoding="UTF-8"?>
<svg width="24px" height="24px" viewBox="0 0 24 24" version="1.1" xmlns="http://www.w3.org/2000/svg">
    <!-- Generator: Sketch 51.3 (57544) - http://www.bohemiancoding.com/sketch -->
    <title>Representation</title>
    <desc>Created with Sketch.</desc>
    <defs></defs>
    <g id="Representation" stroke="none" stroke-width="1" fill="none" fill-rule="evenodd">
        <path d="M4,22 L4,23 L10,23 L10,22 L4,22 Z M3,21 L11,21 L11,23 C11,23.5522847 10.5522847,24 10,24 L4,24 C3.44771525,24 3,23.5522847 3,23 L3,21 Z"
              id="Rectangle-14" fill="#000000" fill-rule="nonzero"></path>
        <path d="M11.9999976,2 C7.02943463,1.99999979 2.99999738,6.02943704 2.99999738,10.9999998 L2.99999738,21 L11,21 L11,19 C11,17.3431458 12.3431458,16 14,16 L19,16 C20.1045695,16 21,15.1045695 21,14 C21,12.8954305 20.1045695,12 19,12 L13.5,12 C12.1192881,12 11,10.8807119 11,9.5 C11,8.11928813 12.1192881,7 13.5,7 L20.4999999,7 C21.8807118,7 23,5.88071182 23,4.49999985 C23,3.11928795 21.8807118,1.99999983 20.4999999,1.99999985 L11.9999976,2 Z M20.4999999,0.999999851 C22.4329965,0.999999817 24,2.56700318 24,4.49999983 C24,6.43299658 22.4329966,8 20.4999999,8 L13.5,8 C12.6715729,8 12,8.67157288 12,9.5 C12,10.3284271 12.6715729,11 13.5,11 L19,11 C20.6568542,11 22,12.3431458 22,14 C22,15.6568542 20.6568542,17 19,17 L14,17 C12.8954305,17 12,17.8954305 12,19 L12,21 C12,21.5522847 11.5522847,22 11,22 L2.99999759,22 C2.44771284,22 1.99999759,21.5522847 1.99999759,21 L1.99999738,10.9999998 C1.99999738,5.47715229 6.47714988,0.999999789 11.9999974,0.999999789 L20.4999999,0.999999851 Z"
              id="Rectangle-14-Copy" fill="#000000" fill-rule="nonzero"></path>
        <path d="M16.0839749,11.7226499 L16.361325,11.3066248 L17.1933752,11.861325 L16.9160251,12.2773501 C16.642843,12.6871233 16.5,13.2584953 16.5,14 C16.5,14.7415047 16.642843,15.3128767 16.9160251,15.7226499 L17.1933752,16.138675 L16.361325,16.6933752 L16.0839749,16.2773501 C15.6904903,15.6871233 15.5,14.925162 15.5,14 C15.5,13.074838 15.6904903,12.3128767 16.0839749,11.7226499 Z"
              id="Line-16" fill="#000000" fill-rule="nonzero"></path>
        <path d="M17.1788643,1.73047315 L17.4483911,1.30933745 L18.2906625,1.84839115 L18.0211357,2.26952685 C17.677891,2.80584675 17.5,3.5470591 17.5,4.5 C17.5,5.4529409 17.677891,6.19415325 18.0211357,6.73047315 L18.2906625,7.15160885 L17.4483911,7.69066255 L17.1788643,7.26952685 C16.722109,6.55584675 16.5,5.63039243 16.5,4.5 C16.5,3.36960757 16.722109,2.44415325 17.1788643,1.73047315 Z"
              id="Line-16-Copy" fill="#000000" fill-rule="nonzero"></path>
        <path d="M10.5,6 C9.67157288,6 9,5.32842712 9,4.5 C9,3.67157288 9.67157288,3 10.5,3 C11.3284271,3 12,3.67157288 12,4.5 C12,5.32842712 11.3284271,6 10.5,6 Z M10.5,5 C10.7761424,5 11,4.77614237 11,4.5 C11,4.22385763 10.7761424,4 10.5,4 C10.2238576,4 10,4.22385763 10,4.5 C10,4.77614237 10.2238576,5 10.5,5 Z"
              id="Oval-11" fill="#000000" fill-rule="nonzero"></path>
        <path d="M13.5,4 C12.6715729,4 12,3.32842712 12,2.5 C12,1.67157288 12.6715729,1 13.5,1 C14.3284271,1 15,1.67157288 15,2.5 C15,3.32842712 14.3284271,4 13.5,4 Z M13.5,3 C13.7761424,3 14,2.77614237 14,2.5 C14,2.22385763 13.7761424,2 13.5,2 C13.2238576,2 13,2.22385763 13,2.5 C13,2.77614237 13.2238576,3 13.5,3 Z"
              id="Oval-11-Copy" fill="#000000" fill-rule="nonzero"></path>
        <path d="M4.5,19 L4.5,19 C4.77614237,19 5,19.2238576 5,19.5 L5,21 L4,21 L4,19.5 C4,19.2238576 4.22385763,19 4.5,19 Z"
              id="Line-17" fill="#000000" fill-rule="nonzero"></path>
        <path d="M7,19 L7,19 C7.27614237,19 7.5,19.2238576 7.5,19.5 L7.5,21 L6.5,21 L6.5,19.5 C6.5,19.2238576 6.72385763,19 7,19 Z"
              id="Line-17-Copy" fill="#000000" fill-rule="nonzero"></path>
        <path d="M9.5,19 L9.5,19 C9.77614237,19 10,19.2238576 10,19.5 L10,21 L9,21 L9,19.5 C9,19.2238576 9.22385763,19 9.5,19 Z"
              id="Line-17-Copy-2" fill="#000000" fill-rule="nonzero"></path>
    </g>
</svg>