<?xml version="1.0" encoding="UTF-8"?>
<svg width="24px" height="24px" viewBox="0 0 24 24" version="1.1" xmlns="http://www.w3.org/2000/svg" xmlns:xlink="http://www.w3.org/1999/xlink">
    <!-- Generator: Sketch 51.3 (57544) - http://www.bohemiancoding.com/sketch -->
    <title>Representation</title>
    <desc>Created with Sketch.</desc>
    <defs></defs>
    <g id="Representation" stroke="none" stroke-width="1" fill="none" fill-rule="evenodd">
        <rect id="Rectangle-14" stroke="#106ba3" fill-rule="nonzero" x="3.5" y="21.5" width="7" height="2"></rect>
        <path d="M2.49999758,21.5 L11.5,21.5 L11.5,19 C11.5,17.6192881 12.6192881,16.5 14,16.5 L19,16.5 C20.3807119,16.5 21.5,15.3807119 21.5,14 C21.5,12.6192881 20.3807119,11.5 19,11.5 L13.5,11.5 C12.3954305,11.5 11.5,10.6045695 11.5,9.5 C11.5,8.3954305 12.3954305,7.5 13.5,7.5 L20.4999999,7.5 C22.1568542,7.5 23.5,6.15685419 23.5,4.49999984 C23.5,2.84314557 22.1568542,1.49999982 20.4999999,1.49999985 L11.9999976,1.5 C6.75329225,1.49999979 2.49999738,5.75329467 2.49999738,10.9999998 L2.49999758,21.5 Z" id="Rectangle-14-Copy" stroke="#106ba3" fill-rule="nonzero"></path>
        <path d="M16.5,12 C16.1666667,12.5 16,13.1666667 16,14 C16,14.8333333 16.1666667,15.5 16.5,16" id="Line-16" stroke="#106ba3" stroke-linecap="square" fill-rule="nonzero"></path>
        <path d="M17.6,2 C17.2,2.625 17,3.45833333 17,4.5 C17,5.54166667 17.2,6.375 17.6,7" id="Line-16-Copy" stroke="#106ba3" stroke-linecap="square" fill-rule="nonzero"></path>
        <circle id="Oval-11" stroke="#106ba3" fill-rule="nonzero" cx="11" cy="4" r="1"></circle>
        <circle id="Oval-11-Copy" stroke="#106ba3" fill-rule="nonzero" cx="14" cy="2" r="1"></circle>
        <path d="M4.5,19.5 L4.5,20.5" id="Line-17" stroke="#106ba3" stroke-linecap="square" fill-rule="nonzero"></path>
        <path d="M7.5,19.5 L7.5,20.5" id="Line-17-Copy" stroke="#106ba3" stroke-linecap="square" fill-rule="nonzero"></path>
        <path d="M9.5,19.5 L9.5,20.5" id="Line-17-Copy-2" stroke="#106ba3" stroke-linecap="square" fill-rule="nonzero"></path>
    </g>
</svg>