<?xml version="1.0" encoding="UTF-8"?>
<svg width="24px" height="24px" viewBox="0 0 24 24" version="1.1" xmlns="http://www.w3.org/2000/svg" xmlns:xlink="http://www.w3.org/1999/xlink">
    <!-- Generator: Sketch 52.2 (67145) - http://www.bohemiancoding.com/sketch -->
    <title>Representation</title>
    <desc>Representation</desc>
    <g id="Representation" stroke="none" stroke-width="1" fill="none" fill-rule="evenodd">
        <g transform="translate(2.000000, 1.000000)" fill="#000000" fill-rule="nonzero">
            <path d="M2,21 L2,22 L8,22 L8,21 L2,21 Z M1,20 L9,20 L9,22 C9,22.5522847 8.55228475,23 8,23 L2,23 C1.44771525,23 1,22.5522847 1,22 L1,20 Z" id="Rectangle-14"></path>
            <path d="M9.9999976,1 C5.02943463,0.999999789 0.999997376,5.02943704 0.999997376,9.99999977 L0.999997376,20 L9,20 L9,18 C9,16.3431458 10.3431458,15 12,15 L17,15 C18.1045695,15 19,14.1045695 19,13 C19,11.8954305 18.1045695,11 17,11 L11.5,11 C10.1192881,11 9,9.88071187 9,8.5 C9,7.11928813 10.1192881,6 11.5,6 L18.4999999,6 C19.8807118,6 21,4.88071182 21,3.49999985 C21,2.11928795 19.8807118,0.999999826 18.4999999,0.999999851 L9.9999976,1 Z M18.4999999,-1.49494045e-07 C20.4329965,-1.83490696e-07 22,1.56700318 22,3.49999983 C22,5.43299658 20.4329966,7 18.4999999,7 L11.5,7 C10.6715729,7 10,7.67157288 10,8.5 C10,9.32842712 10.6715729,10 11.5,10 L17,10 C18.6568542,10 20,11.3431458 20,13 C20,14.6568542 18.6568542,16 17,16 L12,16 C10.8954305,16 10,16.8954305 10,18 L10,20 C10,20.5522847 9.55228475,21 9,21 L0.999997587,21 C0.447712837,21 -2.4126829e-06,20.5522847 -2.4126829e-06,20 L-2.6237333e-06,9.99999979 C-2.6237333e-06,4.47715229 4.47714988,-2.11050426e-07 9.99999738,-2.11050427e-07 L18.4999999,-1.49494045e-07 Z" id="Rectangle-14-Copy"></path>
            <path d="M14.0839749,10.7226499 L14.361325,10.3066248 L15.1933752,10.861325 L14.9160251,11.2773501 C14.642843,11.6871233 14.5,12.2584953 14.5,13 C14.5,13.7415047 14.642843,14.3128767 14.9160251,14.7226499 L15.1933752,15.138675 L14.361325,15.6933752 L14.0839749,15.2773501 C13.6904903,14.6871233 13.5,13.925162 13.5,13 C13.5,12.074838 13.6904903,11.3128767 14.0839749,10.7226499 Z" id="Line-16"></path>
            <path d="M15.1788643,0.730473152 L15.4483911,0.309337451 L16.2906625,0.848391148 L16.0211357,1.26952685 C15.677891,1.80584675 15.5,2.5470591 15.5,3.5 C15.5,4.4529409 15.677891,5.19415325 16.0211357,5.73047315 L16.2906625,6.15160885 L15.4483911,6.69066255 L15.1788643,6.26952685 C14.722109,5.55584675 14.5,4.63039243 14.5,3.5 C14.5,2.36960757 14.722109,1.44415325 15.1788643,0.730473152 Z" id="Line-16-Copy"></path>
            <path d="M8.5,5 C7.67157288,5 7,4.32842712 7,3.5 C7,2.67157288 7.67157288,2 8.5,2 C9.32842712,2 10,2.67157288 10,3.5 C10,4.32842712 9.32842712,5 8.5,5 Z M8.5,4 C8.77614237,4 9,3.77614237 9,3.5 C9,3.22385763 8.77614237,3 8.5,3 C8.22385763,3 8,3.22385763 8,3.5 C8,3.77614237 8.22385763,4 8.5,4 Z" id="Oval-11"></path>
            <path d="M11.5,3 C10.6715729,3 10,2.32842712 10,1.5 C10,0.671572875 10.6715729,0 11.5,0 C12.3284271,0 13,0.671572875 13,1.5 C13,2.32842712 12.3284271,3 11.5,3 Z M11.5,2 C11.7761424,2 12,1.77614237 12,1.5 C12,1.22385763 11.7761424,1 11.5,1 C11.2238576,1 11,1.22385763 11,1.5 C11,1.77614237 11.2238576,2 11.5,2 Z" id="Oval-11-Copy"></path>
            <path d="M2.5,18 L2.5,18 C2.77614237,18 3,18.2238576 3,18.5 L3,20 L2,20 L2,18.5 C2,18.2238576 2.22385763,18 2.5,18 Z" id="Line-17"></path>
            <path d="M5,18 L5,18 C5.27614237,18 5.5,18.2238576 5.5,18.5 L5.5,20 L4.5,20 L4.5,18.5 C4.5,18.2238576 4.72385763,18 5,18 Z" id="Line-17-Copy"></path>
            <path d="M7.5,18 L7.5,18 C7.77614237,18 8,18.2238576 8,18.5 L8,20 L7,20 L7,18.5 C7,18.2238576 7.22385763,18 7.5,18 Z" id="Line-17-Copy-2"></path>
        </g>
    </g>
</svg>