<?xml version="1.0" encoding="UTF-8"?>
<svg width="24px" height="24px" viewBox="0 0 24 24" version="1.1" xmlns="http://www.w3.org/2000/svg" xmlns:xlink="http://www.w3.org/1999/xlink">
    <!-- Generator: Sketch 52.2 (67145) - http://www.bohemiancoding.com/sketch -->
    <title>Sanction</title>
    <desc>Sanction</desc>
    <g id="Sanction" stroke="none" stroke-width="1" fill="none" fill-rule="evenodd">
        <g transform="translate(4.000000, 0.000000)" fill="#000000">
            <path d="M13,10.00032 L11.9997654,10.00032 L12.0007037,3 C12.0007037,2.46468 11.552614,2.02968 11.0004692,2.02968 C10.4483243,2.02968 10.0002346,2.46468 10.0002346,3 L9,3 C9,1.914384 9.89711539,1.03032 10.9995092,1.03032 C12.1037989,1.03032 12.9999544,1.914384 12.9999544,3 L13,10.00032 Z" id="Fill-1"></path>
            <path d="M10,10.00032 L8.99976542,10.00032 L9.00070374,1.99968 C9.00070374,1.46436 8.55167809,1.02936 8.00046916,1.02936 C7.44926023,1.0302984 7.00023458,1.465296 7.00023458,1.99968 L7.00023458,3 L6,3 L6.00093592,1.99968 C6.00093592,0.914064 6.89805131,0.03 8.00044516,0.03 C9.10379894,0.03 9.9999544,0.914064 9.9999544,1.99968 L10,10.00032 Z" id="Fill-2"></path>
            <path d="M7,10.00032 L5.99953133,10.00032 L6.00046987,3 C6.00046987,2.46468 5.55133913,2.02968 5.0000012,2.02968 C4.44866327,2.02968 3.99953253,2.46468 3.99953253,3 L3.99953253,8.24352 L3,8.24352 L3,3 C3,1.914384 3.89732534,1.03032 4.9999772,1.03032 C6.10358919,1.03032 6.99995439,1.914384 6.99995439,3 L7,10.00032 Z" id="Fill-3"></path>
            <path d="M6.89223744,24 C3.09220599,24 0,20.96616 0,17.23488 L0,8.24328 C0,7.157664 0.897274986,6.2736 1.99986496,6.2736 C3.10341502,6.2736 3.99972992,7.157664 3.99972992,8.24328 L3.99972992,12.17616 C6.379334,12.38616 8.00041993,14.105544 8.00041993,16.49904 L7.00000741,16.49904 C7.00000741,14.498424 5.59268525,13.15392 3.5000037,13.15392 L3.00027749,12.65424 L3.00027749,8.24328 C3.00027749,7.70796 2.55117195,7.27296 1.99986496,7.27296 C1.44855797,7.27296 0.999452436,7.70796 0.999452436,8.24328 L0.999452436,17.2368 C0.999452436,20.41392 3.64353698,22.9996795 6.89223744,22.9996795 L9.10776235,22.9996795 C12.3564628,22.9996795 15.0015074,20.41416 15.0015074,17.23488 L15.0015074,5.10552 C15.0015074,4.5702 14.553338,4.1352 14.0010949,4.1352 C13.4488518,4.1352 13.0006824,4.5702 13.0006824,5.10552 L12.0002699,5.10552 C12.0002699,4.019904 12.8975449,3.13584 14.0001348,3.13584 C15.1036849,3.13584 15.9999998,4.019904 15.9999998,5.10552 L15.9999998,17.23488 C16.0009359,20.96616 12.9087539,23.9999993 9.10776235,23.9999993 L6.89223744,24 Z" id="Fill-4"></path>
        </g>
    </g>
</svg>