<?xml version="1.0" encoding="UTF-8"?>
<svg width="24px" height="24px" viewBox="0 0 24 24" version="1.1" xmlns="http://www.w3.org/2000/svg">
    <!-- Generator: Sketch 51.3 (57544) - http://www.bohemiancoding.com/sketch -->
    <title>ShowDocuments</title>
    <desc>Created with Sketch.</desc>
    <defs></defs>
    <g id="ShowDocuments" stroke="none" stroke-width="1" fill="none" fill-rule="evenodd">
        <path d="M6,10.5 L6,10.5 C6,10.2238576 6.22385763,10 6.5,10 L17.5,10 C17.7761424,10 18,10.2238576 18,10.5 L18,10.5 C18,10.7761424 17.7761424,11 17.5,11 L6.5,11 C6.22385763,11 6,10.7761424 6,10.5 Z"
              id="Line-Copy-5" fill="#000000" fill-rule="nonzero"></path>
        <path d="M6,7.5 L6,7.5 C6,7.22385763 6.22385763,7 6.5,7 L17.5,7 C17.7761424,7 18,7.22385763 18,7.5 L18,7.5 C18,7.77614237 17.7761424,8 17.5,8 L6.5,8 C6.22385763,8 6,7.77614237 6,7.5 Z"
              id="Line-Copy-6" fill="#000000" fill-rule="nonzero"></path>
        <path d="M6,4.5 L6,4.5 C6,4.22385763 6.22385763,4 6.5,4 L14.5,4 C14.7761424,4 15,4.22385763 15,4.5 L15,4.5 C15,4.77614237 14.7761424,5 14.5,5 L6.5,5 C6.22385763,5 6,4.77614237 6,4.5 Z"
              id="Line-Copy-7" fill="#000000" fill-rule="nonzero"></path>
        <path d="M12,14 C10.240981,14 8.35712467,15.0049876 6.35813384,17.0833333 C8.35712467,19.161679 10.240981,20.1666667 12,20.1666667 C13.759019,20.1666667 15.6428753,19.161679 17.6418662,17.0833333 C15.6428753,15.0049876 13.759019,14 12,14 Z M12,21.1666667 C9.73148148,21.1666667 7.39814815,19.8055556 5,17.0833333 C7.39814815,14.3611111 9.73148148,13 12,13 C14.2685185,13 16.6018519,14.3611111 19,17.0833333 C16.6018519,19.8055556 14.2685185,21.1666667 12,21.1666667 Z"
              id="Oval-16" fill="#000000" fill-rule="nonzero"></path>
        <path d="M12,18 C12.6627417,18 13,17.6627417 13,17 C13,16.3372583 12.6627417,16 12,16 C11.3372583,16 11,16.3372583 11,17 C11,17.6627417 11.3372583,18 12,18 Z M12,19 C10.8954305,19 10,18.1045695 10,17 C10,15.8954305 10.8954305,15 12,15 C13.1045695,15 14,15.8954305 14,17 C14,18.1045695 13.1045695,19 12,19 Z"
              id="Oval-15-Copy" fill="#000000" fill-rule="nonzero"></path>
        <path d="M4,1 L4,23 L20,23 L20,4.41421356 L16.5857864,1 L4,1 Z M4,0 L16.5857864,0 C16.8510029,-4.87194788e-17 17.1053568,0.10535684 17.2928932,0.292893219 L20.7071068,3.70710678 C20.8946432,3.89464316 21,4.14899707 21,4.41421356 L21,23 C21,23.5522847 20.5522847,24 20,24 L4,24 C3.44771525,24 3,23.5522847 3,23 L3,1 C3,0.44771525 3.44771525,1.01453063e-16 4,0 Z"
              id="Rectangle-Copy-8" fill="#000000" fill-rule="nonzero"></path>
        <path d="M20,4 L21,5 L17,5 C16.4477153,5 16,4.55228475 16,4 L16,0 L17,1 L17,4 L20,4 Z M20,4 L21,5 L17,5 C16.4477153,5 16,4.55228475 16,4 L16,0 L17,1 L17,4 L20,4 Z"
              id="Rectangle-Copy-9" fill="#000000" fill-rule="nonzero"></path>
    </g>
</svg>