<?xml version="1.0" encoding="UTF-8"?>
<svg width="24px" height="24px" viewBox="0 0 24 24" version="1.1" xmlns="http://www.w3.org/2000/svg" xmlns:xlink="http://www.w3.org/1999/xlink">
    <!-- Generator: Sketch 52.2 (67145) - http://www.bohemiancoding.com/sketch -->
    <title>ShowExtractedText</title>
    <desc>ShowExtractedText</desc>
    <g id="ShowExtractedText" stroke="none" stroke-width="1" fill="none" fill-rule="evenodd">
        <g transform="translate(3.000000, 0.000000)" fill="#000000" fill-rule="nonzero">
            <path d="M9,14 C7.24098103,14 5.35712467,15.0049876 3.35813384,17.0833333 C5.35712467,19.161679 7.24098103,20.1666667 9,20.1666667 C10.759019,20.1666667 12.6428753,19.161679 14.6418662,17.0833333 C12.6428753,15.0049876 10.759019,14 9,14 Z M9,21.1666667 C6.73148148,21.1666667 4.39814815,19.8055556 2,17.0833333 C4.39814815,14.3611111 6.73148148,13 9,13 C11.2685185,13 13.6018519,14.3611111 16,17.0833333 C13.6018519,19.8055556 11.2685185,21.1666667 9,21.1666667 Z" id="Oval-16-Copy"></path>
            <path d="M9,18 C9.6627417,18 10,17.6627417 10,17 C10,16.3372583 9.6627417,16 9,16 C8.3372583,16 8,16.3372583 8,17 C8,17.6627417 8.3372583,18 9,18 Z M9,19 C7.8954305,19 7,18.1045695 7,17 C7,15.8954305 7.8954305,15 9,15 C10.1045695,15 11,15.8954305 11,17 C11,18.1045695 10.1045695,19 9,19 Z" id="Oval-15-Copy-2"></path>
            <path d="M3.5,10.9539685 L3.5,10.9539685 C3.22385763,10.9539685 3,10.7301109 3,10.4539685 L3,7.61001279 C3,7.37540749 3.08248501,7.14827055 3.23302615,6.96833443 L3.75,6.35041516 C4.09654621,5.93620159 4.71326385,5.88134636 5.12747741,6.22789257 C5.17186333,6.26502745 5.21286512,6.30602924 5.25,6.35041516 L5.76697385,6.96833443 C5.91751499,7.14827055 6,7.37540749 6,7.61001279 L6,10.4539685 C6,10.7301109 5.77614237,10.9539685 5.5,10.9539685 L5.5,10.9539685 C5.22385763,10.9539685 5,10.7301109 5,10.4539685 L5,7.97891257 C5,7.77211807 4.93588944,7.57040931 4.81649658,7.4015623 L4.75,7.30752194 C4.65236893,7.16945075 4.46129449,7.13666756 4.3232233,7.23429863 C4.29483523,7.25437204 4.2700734,7.27913386 4.25,7.30752194 L4.18350342,7.4015623 C4.06411056,7.57040931 4,7.77211807 4,7.97891257 L4,10.4539685 C4,10.7301109 3.77614237,10.9539685 3.5,10.9539685 Z" id="Line-Copy-2"></path>
            <path d="M12.939209,10.1235352 L13.5033564,10.057837 C13.7475563,10.0293985 13.9685733,10.2043077 13.9970118,10.4485076 C13.9990023,10.4655996 14,10.4827925 14,10.5 L14,10.5 C14,10.7761424 13.7761424,11 13.5,11 L12,11 C11.4477153,11 11,10.5522847 11,10 L11,7.70710678 C11,7.44189029 11.1053568,7.18753638 11.2928932,7 L12,6.29289322 C12.1875364,6.10535684 12.4418903,6 12.7071068,6 L13.5,6 C13.7761424,6 14,6.22385763 14,6.5 L14,6.5 C14,6.77614237 13.7761424,7 13.5,7 L13.1213203,7 C12.8561039,7 12.6017499,7.10535684 12.4142136,7.29289322 L12.2732716,7.43383523 C12.0974279,7.60967889 11.9934122,7.84473304 11.981522,8.09312912 L11.9294802,9.18033175 C11.9055569,9.68011182 12.2913151,10.1046573 12.7910951,10.1285806 C12.8405214,10.1309465 12.8900583,10.129259 12.939209,10.1235352 Z" id="Line-Copy-3"></path>
            <polygon id="Line" points="3 10 3 9 6 9 6 10"></polygon>
            <path d="M10,9.70710678 L10,10.1464466 C10,10.6178511 9.61785113,11 9.14644661,11 L8,11 C7.44771525,11 7,10.5522847 7,10 L7,6.85355339 C7,6.38214887 7.38214887,6 7.85355339,6 L8.29289322,6 C8.55810971,6 8.81246362,6.10535684 9,6.29289322 L9.5,6.79289322 C9.89052429,7.18341751 9.89052429,7.81658249 9.5,8.20710678 L9.20710678,8.5 L9.70710678,9 C9.89464316,9.18753638 10,9.44189029 10,9.70710678 Z M9,9.6767767 L9,9.6767767 C9,9.47525382 8.89779542,9.28748359 8.72855559,9.17807907 L8,8.70710678 L8,10 L8.6767767,10 C8.855288,10 9,9.855288 9,9.6767767 Z M8,8.29289322 L8.72296339,7.71966045 C8.85930971,7.61155238 8.88220133,7.41338294 8.77409326,7.27703661 C8.76658718,7.26756993 8.75854281,7.25854281 8.75,7.25 L8.75,7.25 C8.58992769,7.08992769 8.37282304,7 8.14644661,7 L8,7 L8,8.29289322 Z" id="Line-5-Copy-5"></path>
            <path d="M1,1 L1,23 L17,23 L17,4.41421356 L13.5857864,1 L1,1 Z M1,0 L13.5857864,0 C13.8510029,-4.87194788e-17 14.1053568,0.10535684 14.2928932,0.292893219 L17.7071068,3.70710678 C17.8946432,3.89464316 18,4.14899707 18,4.41421356 L18,23 C18,23.5522847 17.5522847,24 17,24 L1,24 C0.44771525,24 0,23.5522847 0,23 L0,1 C0,0.44771525 0.44771525,1.01453063e-16 1,0 Z" id="Rectangle-Copy-10"></path>
            <path d="M17,4 L18,5 L14,5 C13.4477153,5 13,4.55228475 13,4 L13,0 L14,1 L14,4 L17,4 Z M17,4 L18,5 L14,5 C13.4477153,5 13,4.55228475 13,4 L13,0 L14,1 L14,4 L17,4 Z" id="Rectangle-Copy-10"></path>
        </g>
    </g>
</svg>