<?xml version="1.0" encoding="UTF-8"?>
<svg width="24px" height="24px" viewBox="0 0 24 24" version="1.1" xmlns="http://www.w3.org/2000/svg">
    <!-- Generator: Sketch 51.3 (57544) - http://www.bohemiancoding.com/sketch -->
    <title>ShowExtractedText</title>
    <desc>Created with Sketch.</desc>
    <defs></defs>
    <g id="ShowExtractedText" stroke="none" stroke-width="1" fill="none" fill-rule="evenodd">
        <path d="M12,14 C10.240981,14 8.35712467,15.0049876 6.35813384,17.0833333 C8.35712467,19.161679 10.240981,20.1666667 12,20.1666667 C13.759019,20.1666667 15.6428753,19.161679 17.6418662,17.0833333 C15.6428753,15.0049876 13.759019,14 12,14 Z M12,21.1666667 C9.73148148,21.1666667 7.39814815,19.8055556 5,17.0833333 C7.39814815,14.3611111 9.73148148,13 12,13 C14.2685185,13 16.6018519,14.3611111 19,17.0833333 C16.6018519,19.8055556 14.2685185,21.1666667 12,21.1666667 Z"
              id="Oval-16-Copy" fill="#000000" fill-rule="nonzero"></path>
        <path d="M12,18 C12.6627417,18 13,17.6627417 13,17 C13,16.3372583 12.6627417,16 12,16 C11.3372583,16 11,16.3372583 11,17 C11,17.6627417 11.3372583,18 12,18 Z M12,19 C10.8954305,19 10,18.1045695 10,17 C10,15.8954305 10.8954305,15 12,15 C13.1045695,15 14,15.8954305 14,17 C14,18.1045695 13.1045695,19 12,19 Z"
              id="Oval-15-Copy-2" fill="#000000" fill-rule="nonzero"></path>
        <path d="M6.5,10.9539685 L6.5,10.9539685 C6.22385763,10.9539685 6,10.7301109 6,10.4539685 L6,7.61001279 C6,7.37540749 6.08248501,7.14827055 6.23302615,6.96833443 L6.75,6.35041516 C7.09654621,5.93620159 7.71326385,5.88134636 8.12747741,6.22789257 C8.17186333,6.26502745 8.21286512,6.30602924 8.25,6.35041516 L8.76697385,6.96833443 C8.91751499,7.14827055 9,7.37540749 9,7.61001279 L9,10.4539685 C9,10.7301109 8.77614237,10.9539685 8.5,10.9539685 L8.5,10.9539685 C8.22385763,10.9539685 8,10.7301109 8,10.4539685 L8,7.97891257 C8,7.77211807 7.93588944,7.57040931 7.81649658,7.4015623 L7.75,7.30752194 C7.65236893,7.16945075 7.46129449,7.13666756 7.3232233,7.23429863 C7.29483523,7.25437204 7.2700734,7.27913386 7.25,7.30752194 L7.18350342,7.4015623 C7.06411056,7.57040931 7,7.77211807 7,7.97891257 L7,10.4539685 C7,10.7301109 6.77614237,10.9539685 6.5,10.9539685 Z"
              id="Line-Copy-2" fill="#000000" fill-rule="nonzero"></path>
        <path d="M15.939209,10.1235352 L16.5033564,10.057837 C16.7475563,10.0293985 16.9685733,10.2043077 16.9970118,10.4485076 C16.9990023,10.4655996 17,10.4827925 17,10.5 L17,10.5 C17,10.7761424 16.7761424,11 16.5,11 L15,11 C14.4477153,11 14,10.5522847 14,10 L14,7.70710678 C14,7.44189029 14.1053568,7.18753638 14.2928932,7 L15,6.29289322 C15.1875364,6.10535684 15.4418903,6 15.7071068,6 L16.5,6 C16.7761424,6 17,6.22385763 17,6.5 L17,6.5 C17,6.77614237 16.7761424,7 16.5,7 L16.1213203,7 C15.8561039,7 15.6017499,7.10535684 15.4142136,7.29289322 L15.2732716,7.43383523 C15.0974279,7.60967889 14.9934122,7.84473304 14.981522,8.09312912 L14.9294802,9.18033175 C14.9055569,9.68011182 15.2913151,10.1046573 15.7910951,10.1285806 C15.8405214,10.1309465 15.8900583,10.129259 15.939209,10.1235352 Z"
              id="Line-Copy-3" fill="#000000" fill-rule="nonzero"></path>
        <polygon id="Line" fill="#000000" fill-rule="nonzero" points="6 10 6 9 9 9 9 10"></polygon>
        <path d="M13,9.70710678 L13,10.1464466 C13,10.6178511 12.6178511,11 12.1464466,11 L11,11 C10.4477153,11 10,10.5522847 10,10 L10,6.85355339 C10,6.38214887 10.3821489,6 10.8535534,6 L11.2928932,6 C11.5581097,6 11.8124636,6.10535684 12,6.29289322 L12.5,6.79289322 C12.8905243,7.18341751 12.8905243,7.81658249 12.5,8.20710678 L12.2071068,8.5 L12.7071068,9 C12.8946432,9.18753638 13,9.44189029 13,9.70710678 Z M12,9.6767767 L12,9.6767767 C12,9.47525382 11.8977954,9.28748359 11.7285556,9.17807907 L11,8.70710678 L11,10 L11.6767767,10 C11.855288,10 12,9.855288 12,9.6767767 Z M11,8.29289322 L11.7229634,7.71966045 C11.8593097,7.61155238 11.8822013,7.41338294 11.7740933,7.27703661 C11.7665872,7.26756993 11.7585428,7.25854281 11.75,7.25 L11.75,7.25 C11.5899277,7.08992769 11.372823,7 11.1464466,7 L11,7 L11,8.29289322 Z"
              id="Line-5-Copy-5" fill="#000000" fill-rule="nonzero"></path>
        <path d="M4,1 L4,23 L20,23 L20,4.41421356 L16.5857864,1 L4,1 Z M4,0 L16.5857864,0 C16.8510029,-4.87194788e-17 17.1053568,0.10535684 17.2928932,0.292893219 L20.7071068,3.70710678 C20.8946432,3.89464316 21,4.14899707 21,4.41421356 L21,23 C21,23.5522847 20.5522847,24 20,24 L4,24 C3.44771525,24 3,23.5522847 3,23 L3,1 C3,0.44771525 3.44771525,1.01453063e-16 4,0 Z"
              id="Rectangle-Copy-10" fill="#000000" fill-rule="nonzero"></path>
        <path d="M20,4 L21,5 L17,5 C16.4477153,5 16,4.55228475 16,4 L16,0 L17,1 L17,4 L20,4 Z M20,4 L21,5 L17,5 C16.4477153,5 16,4.55228475 16,4 L16,0 L17,1 L17,4 L20,4 Z"
              id="Rectangle-Copy-10" fill="#000000" fill-rule="nonzero"></path>
    </g>
</svg>