<?xml version="1.0" encoding="UTF-8"?>
<svg width="24px" height="24px" viewBox="0 0 24 24" version="1.1" xmlns="http://www.w3.org/2000/svg" xmlns:xlink="http://www.w3.org/1999/xlink">
    <!-- Generator: Sketch 52.2 (67145) - http://www.bohemiancoding.com/sketch -->
    <title>ShowDocuments</title>
    <desc>ShowDocuments</desc>
    <g id="ShowDocuments" stroke="none" stroke-width="1" fill="none" fill-rule="evenodd">
        <g transform="translate(3.000000, 0.000000)" fill="#000000" fill-rule="nonzero">
            <path d="M3,10.5 L3,10.5 C3,10.2238576 3.22385763,10 3.5,10 L14.5,10 C14.7761424,10 15,10.2238576 15,10.5 L15,10.5 C15,10.7761424 14.7761424,11 14.5,11 L3.5,11 C3.22385763,11 3,10.7761424 3,10.5 Z" id="Line-Copy-5"></path>
            <path d="M3,7.5 L3,7.5 C3,7.22385763 3.22385763,7 3.5,7 L14.5,7 C14.7761424,7 15,7.22385763 15,7.5 L15,7.5 C15,7.77614237 14.7761424,8 14.5,8 L3.5,8 C3.22385763,8 3,7.77614237 3,7.5 Z" id="Line-Copy-6"></path>
            <path d="M3,4.5 L3,4.5 C3,4.22385763 3.22385763,4 3.5,4 L11.5,4 C11.7761424,4 12,4.22385763 12,4.5 L12,4.5 C12,4.77614237 11.7761424,5 11.5,5 L3.5,5 C3.22385763,5 3,4.77614237 3,4.5 Z" id="Line-Copy-7"></path>
            <path d="M9,14 C7.24098103,14 5.35712467,15.0049876 3.35813384,17.0833333 C5.35712467,19.161679 7.24098103,20.1666667 9,20.1666667 C10.759019,20.1666667 12.6428753,19.161679 14.6418662,17.0833333 C12.6428753,15.0049876 10.759019,14 9,14 Z M9,21.1666667 C6.73148148,21.1666667 4.39814815,19.8055556 2,17.0833333 C4.39814815,14.3611111 6.73148148,13 9,13 C11.2685185,13 13.6018519,14.3611111 16,17.0833333 C13.6018519,19.8055556 11.2685185,21.1666667 9,21.1666667 Z" id="Oval-16"></path>
            <path d="M9,18 C9.6627417,18 10,17.6627417 10,17 C10,16.3372583 9.6627417,16 9,16 C8.3372583,16 8,16.3372583 8,17 C8,17.6627417 8.3372583,18 9,18 Z M9,19 C7.8954305,19 7,18.1045695 7,17 C7,15.8954305 7.8954305,15 9,15 C10.1045695,15 11,15.8954305 11,17 C11,18.1045695 10.1045695,19 9,19 Z" id="Oval-15-Copy"></path>
            <path d="M1,1 L1,23 L17,23 L17,4.41421356 L13.5857864,1 L1,1 Z M1,0 L13.5857864,0 C13.8510029,-4.87194788e-17 14.1053568,0.10535684 14.2928932,0.292893219 L17.7071068,3.70710678 C17.8946432,3.89464316 18,4.14899707 18,4.41421356 L18,23 C18,23.5522847 17.5522847,24 17,24 L1,24 C0.44771525,24 0,23.5522847 0,23 L0,1 C0,0.44771525 0.44771525,1.01453063e-16 1,0 Z" id="Rectangle-Copy-8"></path>
            <path d="M17,4 L18,5 L14,5 C13.4477153,5 13,4.55228475 13,4 L13,0 L14,1 L14,4 L17,4 Z M17,4 L18,5 L14,5 C13.4477153,5 13,4.55228475 13,4 L13,0 L14,1 L14,4 L17,4 Z" id="Rectangle-Copy-9"></path>
        </g>
    </g>
</svg>