<?xml version="1.0" encoding="UTF-8"?>
<svg width="24px" height="24px" viewBox="0 0 24 24" version="1.1" xmlns="http://www.w3.org/2000/svg" xmlns:xlink="http://www.w3.org/1999/xlink">
    <!-- Generator: Sketch 52.2 (67145) - http://www.bohemiancoding.com/sketch -->
    <title>Similar</title>
    <desc>Similar</desc>
    <g id="Similar" stroke="none" stroke-width="1" fill="none" fill-rule="evenodd">
        <g fill="#000000" fill-rule="nonzero">
            <path d="M23,10.5 C23,9.11928813 21.8807119,8 20.5,8 L16.5,8 C15.1192881,8 14,9.11928813 14,10.5 L14,10.5 C14,10.7761424 13.7761424,11 13.5,11 L13.5,11 C13.2238576,11 13,10.7761424 13,10.5 C13,8.56700338 14.5670034,7 16.5,7 L20.5,7 C22.4329966,7 24,8.56700338 24,10.5 L24,19 C24,19.5522847 23.5522847,20 23,20 L14,20 C13.4477153,20 13,19.5522847 13,19 L13,17.5 C13,17.2238576 13.2238576,17 13.5,17 L13.5,17 C13.7761424,17 14,17.2238576 14,17.5 L14,19 L23,19 L23,10.5 Z" id="Rectangle-6-Copy"></path>
            <path d="M10,10.5 C10,9.11928813 8.88071187,8 7.5,8 L3.5,8 C2.11928813,8 1,9.11928813 1,10.5 L1,10.5 C1,10.7761424 0.776142375,11 0.5,11 L0.5,11 C0.223857625,11 1.22848108e-13,10.7761424 -8.149037e-14,10.5 C-8.17124146e-14,8.56700338 1.56700338,7 3.5,7 L7.5,7 C9.43299662,7 11,8.56700338 11,10.5 L11,19 C11,19.5522847 10.5522847,20 10,20 L1,20 C0.44771525,20 -8.16447792e-14,19.5522847 -8.17124146e-14,19 L2.0250468e-13,17.5 C2.33864615e-13,17.2238576 0.223857625,17 0.5,17 L0.5,17 C0.776142375,17 1,17.2238576 1,17.5 L1,19 L10,19 L10,10.5 Z" id="Rectangle-6-Copy-2" transform="translate(5.500000, 13.500000) scale(-1, 1) translate(-5.500000, -13.500000) "></path>
            <path d="M5.5,6 C6.88071187,6 8,4.88071187 8,3.5 C8,2.11928813 6.88071187,1 5.5,1 C4.11928813,1 3,2.11928813 3,3.5 C3,4.88071187 4.11928813,6 5.5,6 Z M5.5,7 C3.56700338,7 2,5.43299662 2,3.5 C2,1.56700338 3.56700338,0 5.5,0 C7.43299662,0 9,1.56700338 9,3.5 C9,5.43299662 7.43299662,7 5.5,7 Z" id="Oval-3"></path>
            <path d="M18.5,6 C19.8807119,6 21,4.88071187 21,3.5 C21,2.11928813 19.8807119,1 18.5,1 C17.1192881,1 16,2.11928813 16,3.5 C16,4.88071187 17.1192881,6 18.5,6 Z M18.5,7 C16.5670034,7 15,5.43299662 15,3.5 C15,1.56700338 16.5670034,0 18.5,0 C20.4329966,0 22,1.56700338 22,3.5 C22,5.43299662 20.4329966,7 18.5,7 Z" id="Oval-3-Copy"></path>
            <path d="M2,20 L2,23 L9,23 L9,20 L2,20 Z M1,19 L10,19 L10,23 C10,23.5522847 9.55228475,24 9,24 L2,24 C1.44771525,24 1,23.5522847 1,23 L1,19 Z" id="Rectangle-19"></path>
            <path d="M15,20 L15,23 L22,23 L22,20 L15,20 Z M14,19 L23,19 L23,23 C23,23.5522847 22.5522847,24 22,24 L15,24 C14.4477153,24 14,23.5522847 14,23 L14,19 Z" id="Rectangle-19-Copy"></path>
            <path d="M6.00000671,13.9007792 L9.08579652,17 L9.08579652,15 L19.0857965,15 L19.0857965,13 L9.08579652,13 L9.08579652,10.8284338 L6.00000671,13.9007792 Z M10.0857965,16 L10.0857965,18 C10.0857965,18.2761424 9.86193889,18.5 9.58579652,18.5 L9.50759005,18.5 C9.23789879,18.5 8.97964086,18.3910685 8.79141715,18.1979229 L5.29135786,14.6063406 C4.90168338,14.2149683 4.90305969,13.5818048 5.29443194,13.1921303 L8.79459501,9.78357967 C8.98131187,9.60174989 9.23163918,9.5 9.49226392,9.5 L9.58579652,9.5 C9.86193889,9.5 10.0857965,9.72385763 10.0857965,10 L10.0857965,12 L19.0857965,12 C19.6380813,12 20.0857965,12.4477153 20.0857965,13 L20.0857965,15 C20.0857965,15.5522847 19.6380813,16 19.0857965,16 L10.0857965,16 Z" id="Path-22" transform="translate(12.542898, 14.000000) rotate(-180.000000) translate(-12.542898, -14.000000) "></path>
        </g>
    </g>
</svg>