<?xml version="1.0" encoding="UTF-8"?>
<svg width="24px" height="24px" viewBox="0 0 24 24" version="1.1" xmlns="http://www.w3.org/2000/svg">
    <!-- Generator: Sketch 51.3 (57544) - http://www.bohemiancoding.com/sketch -->
    <title>Source</title>
    <desc>Created with Sketch.</desc>
    <defs></defs>
    <g id="Source" stroke="none" stroke-width="1" fill="none" fill-rule="evenodd">
        <path d="M4,1 L4,23 L20,23 L20,4.41421356 L16.5857864,1 L4,1 Z M4,0 L16.5857864,0 C16.8510029,-4.87194788e-17 17.1053568,0.10535684 17.2928932,0.292893219 L20.7071068,3.70710678 C20.8946432,3.89464316 21,4.14899707 21,4.41421356 L21,23 C21,23.5522847 20.5522847,24 20,24 L4,24 C3.44771525,24 3,23.5522847 3,23 L3,1 C3,0.44771525 3.44771525,1.01453063e-16 4,0 Z"
              id="Rectangle-Copy-6" fill="#000000" fill-rule="nonzero"></path>
        <path d="M7,4 L7,7 L10,7 L10,4 L7,4 Z M7,3 L10,3 C10.5522847,3 11,3.44771525 11,4 L11,7 C11,7.55228475 10.5522847,8 10,8 L7,8 C6.44771525,8 6,7.55228475 6,7 L6,4 C6,3.44771525 6.44771525,3 7,3 Z"
              id="Rectangle-Copy-11" fill="#000000" fill-rule="nonzero"></path>
        <path d="M14,3 C14.1666667,3 14.3333333,3 14.5,3 L14.5,3 C14.7761424,3 15,3.22385763 15,3.5 L15,3.5 C15,3.77614237 14.7761424,4 14.5,4 L14,4 L14,7 L17,7 L17,6.5 C17,6.22385763 17.2238576,6 17.5,6 L17.5,6 C17.7761424,6 18,6.22385763 18,6.5 L18,7 C18,7.55228475 17.5522847,8 17,8 L14,8 C13.4477153,8 13,7.55228475 13,7 L13,4 C13,3.44771525 13.5,3 14,3 Z"
              id="Rectangle-Copy-16" fill="#000000" fill-rule="nonzero"></path>
        <path d="M7,18 L7,21 L10,21 L10,18 L7,18 Z M7,17 L10,17 C10.5522847,17 11,17.4477153 11,18 L11,21 C11,21.5522847 10.5522847,22 10,22 L7,22 C6.44771525,22 6,21.5522847 6,21 L6,18 C6,17.4477153 6.44771525,17 7,17 Z"
              id="Rectangle-Copy-12" fill="#000000" fill-rule="nonzero"></path>
        <path d="M14,18 L14,21 L17,21 L17,18 L14,18 Z M14,17 L17,17 C17.5522847,17 18,17.4477153 18,18 L18,21 C18,21.5522847 17.5522847,22 17,22 L14,22 C13.4477153,22 13,21.5522847 13,21 L13,18 C13,17.4477153 13.4477153,17 14,17 Z"
              id="Rectangle-Copy-13" fill="#000000" fill-rule="nonzero"></path>
        <path d="M14,11 L14,14 L17,14 L17,11 L14,11 Z M14,10 L17,10 C17.5522847,10 18,10.4477153 18,11 L18,14 C18,14.5522847 17.5522847,15 17,15 L14,15 C13.4477153,15 13,14.5522847 13,14 L13,11 C13,10.4477153 13.4477153,10 14,10 Z"
              id="Rectangle-Copy-14" fill="#000000" fill-rule="nonzero"></path>
        <path d="M7,11 L7,14 L10,14 L10,11 L7,11 Z M7,10 L10,10 C10.5522847,10 11,10.4477153 11,11 L11,14 C11,14.5522847 10.5522847,15 10,15 L7,15 C6.44771525,15 6,14.5522847 6,14 L6,11 C6,10.4477153 6.44771525,10 7,10 Z"
              id="Rectangle-Copy-15" fill="#000000" fill-rule="nonzero"></path>
        <path d="M20,4 L21,5 L17,5 C16.4477153,5 16,4.55228475 16,4 L16,0 L17,1 L17,4 L20,4 Z M20,4 L21,5 L17,5 C16.4477153,5 16,4.55228475 16,4 L16,0 L17,1 L17,4 L20,4 Z"
              id="Rectangle-Copy-7" fill="#000000" fill-rule="nonzero"></path>
    </g>
</svg>