<?xml version="1.0" encoding="UTF-8"?>
<svg width="24px" height="24px" viewBox="0 0 24 24" version="1.1" xmlns="http://www.w3.org/2000/svg" xmlns:xlink="http://www.w3.org/1999/xlink">
    <!-- Generator: Sketch 52.2 (67145) - http://www.bohemiancoding.com/sketch -->
    <title>Source</title>
    <desc>Source</desc>
    <g id="Source" stroke="none" stroke-width="1" fill="none" fill-rule="evenodd">
        <g transform="translate(3.000000, 0.000000)" fill="#000000" fill-rule="nonzero">
            <path d="M1,1 L1,23 L17,23 L17,4.41421356 L13.5857864,1 L1,1 Z M1,0 L13.5857864,0 C13.8510029,-4.87194788e-17 14.1053568,0.10535684 14.2928932,0.292893219 L17.7071068,3.70710678 C17.8946432,3.89464316 18,4.14899707 18,4.41421356 L18,23 C18,23.5522847 17.5522847,24 17,24 L1,24 C0.44771525,24 0,23.5522847 0,23 L0,1 C0,0.44771525 0.44771525,1.01453063e-16 1,0 Z" id="Rectangle-Copy-6"></path>
            <path d="M4,4 L4,7 L7,7 L7,4 L4,4 Z M4,3 L7,3 C7.55228475,3 8,3.44771525 8,4 L8,7 C8,7.55228475 7.55228475,8 7,8 L4,8 C3.44771525,8 3,7.55228475 3,7 L3,4 C3,3.44771525 3.44771525,3 4,3 Z" id="Rectangle-Copy-11"></path>
            <path d="M11,3 C11.1666667,3 11.3333333,3 11.5,3 L11.5,3 C11.7761424,3 12,3.22385763 12,3.5 L12,3.5 C12,3.77614237 11.7761424,4 11.5,4 L11,4 L11,7 L14,7 L14,6.5 C14,6.22385763 14.2238576,6 14.5,6 L14.5,6 C14.7761424,6 15,6.22385763 15,6.5 L15,7 C15,7.55228475 14.5522847,8 14,8 L11,8 C10.4477153,8 10,7.55228475 10,7 L10,4 C10,3.44771525 10.5,3 11,3 Z" id="Rectangle-Copy-16"></path>
            <path d="M4,18 L4,21 L7,21 L7,18 L4,18 Z M4,17 L7,17 C7.55228475,17 8,17.4477153 8,18 L8,21 C8,21.5522847 7.55228475,22 7,22 L4,22 C3.44771525,22 3,21.5522847 3,21 L3,18 C3,17.4477153 3.44771525,17 4,17 Z" id="Rectangle-Copy-12"></path>
            <path d="M11,18 L11,21 L14,21 L14,18 L11,18 Z M11,17 L14,17 C14.5522847,17 15,17.4477153 15,18 L15,21 C15,21.5522847 14.5522847,22 14,22 L11,22 C10.4477153,22 10,21.5522847 10,21 L10,18 C10,17.4477153 10.4477153,17 11,17 Z" id="Rectangle-Copy-13"></path>
            <path d="M11,11 L11,14 L14,14 L14,11 L11,11 Z M11,10 L14,10 C14.5522847,10 15,10.4477153 15,11 L15,14 C15,14.5522847 14.5522847,15 14,15 L11,15 C10.4477153,15 10,14.5522847 10,14 L10,11 C10,10.4477153 10.4477153,10 11,10 Z" id="Rectangle-Copy-14"></path>
            <path d="M4,11 L4,14 L7,14 L7,11 L4,11 Z M4,10 L7,10 C7.55228475,10 8,10.4477153 8,11 L8,14 C8,14.5522847 7.55228475,15 7,15 L4,15 C3.44771525,15 3,14.5522847 3,14 L3,11 C3,10.4477153 3.44771525,10 4,10 Z" id="Rectangle-Copy-15"></path>
            <path d="M17,4 L18,5 L14,5 C13.4477153,5 13,4.55228475 13,4 L13,0 L14,1 L14,4 L17,4 Z M17,4 L18,5 L14,5 C13.4477153,5 13,4.55228475 13,4 L13,0 L14,1 L14,4 L17,4 Z" id="Rectangle-Copy-7"></path>
        </g>
    </g>
</svg>