<?xml version="1.0" encoding="UTF-8"?>
<svg width="24px" height="24px" viewBox="0 0 24 24" version="1.1" xmlns="http://www.w3.org/2000/svg" xmlns:xlink="http://www.w3.org/1999/xlink">
    <!-- Generator: Sketch 52.2 (67145) - http://www.bohemiancoding.com/sketch -->
    <title>Table</title>
    <desc>Table</desc>
    <g id="Table" stroke="none" stroke-width="1" fill="none" fill-rule="evenodd">
        <g fill="#000000" fill-rule="nonzero">
            <path d="M1,1 L1,23 L23,23 L23,1 L1,1 Z M1,0 L23,0 C23.5522847,-1.01453063e-16 24,0.44771525 24,1 L24,23 C24,23.5522847 23.5522847,24 23,24 L1,24 C0.44771525,24 6.76353751e-17,23.5522847 0,23 L0,1 C-6.76353751e-17,0.44771525 0.44771525,1.01453063e-16 1,0 Z" id="Rectangle-Copy-6"></path>
            <polygon id="Line-Copy-4" points="0 6 0 5 24 5 24 6"></polygon>
            <polygon id="Line-Copy-7" points="9 24 8 24 8 0 9 0"></polygon>
            <polygon id="Line-Copy-8" points="16 24 15 24 15 0 16 0"></polygon>
            <path d="M2,8.5 L2,8.5 C2,8.22385763 2.22385763,8 2.5,8 L6.5,8 C6.77614237,8 7,8.22385763 7,8.5 L7,8.5 C7,8.77614237 6.77614237,9 6.5,9 L2.5,9 C2.22385763,9 2,8.77614237 2,8.5 Z" id="Line-Copy-5"></path>
            <path d="M2,11.5 L2,11.5 C2,11.2238576 2.22385763,11 2.5,11 L6.5,11 C6.77614237,11 7,11.2238576 7,11.5 L7,11.5 C7,11.7761424 6.77614237,12 6.5,12 L2.5,12 C2.22385763,12 2,11.7761424 2,11.5 Z" id="Line-Copy-6"></path>
            <path d="M2,14.5 L2,14.5 C2,14.2238576 2.22385763,14 2.5,14 L6.5,14 C6.77614237,14 7,14.2238576 7,14.5 L7,14.5 C7,14.7761424 6.77614237,15 6.5,15 L2.5,15 C2.22385763,15 2,14.7761424 2,14.5 Z" id="Line-Copy-9"></path>
            <path d="M2,17.5 L2,17.5 C2,17.2238576 2.22385763,17 2.5,17 L6.5,17 C6.77614237,17 7,17.2238576 7,17.5 L7,17.5 C7,17.7761424 6.77614237,18 6.5,18 L2.5,18 C2.22385763,18 2,17.7761424 2,17.5 Z" id="Line-Copy-10"></path>
            <path d="M2,20.5 L2,20.5 C2,20.2238576 2.22385763,20 2.5,20 L6.5,20 C6.77614237,20 7,20.2238576 7,20.5 L7,20.5 C7,20.7761424 6.77614237,21 6.5,21 L2.5,21 C2.22385763,21 2,20.7761424 2,20.5 Z" id="Line-Copy-11"></path>
            <path d="M10,8.5 L10,8.5 C10,8.22385763 10.2238576,8 10.5,8 L13.5,8 C13.7761424,8 14,8.22385763 14,8.5 L14,8.5 C14,8.77614237 13.7761424,9 13.5,9 L10.5,9 C10.2238576,9 10,8.77614237 10,8.5 Z" id="Line-Copy-12"></path>
            <path d="M10,11.5 L10,11.5 C10,11.2238576 10.2238576,11 10.5,11 L13.5,11 C13.7761424,11 14,11.2238576 14,11.5 L14,11.5 C14,11.7761424 13.7761424,12 13.5,12 L10.5,12 C10.2238576,12 10,11.7761424 10,11.5 Z" id="Line-Copy-13"></path>
            <path d="M10,14.5 L10,14.5 C10,14.2238576 10.2238576,14 10.5,14 L13.5,14 C13.7761424,14 14,14.2238576 14,14.5 L14,14.5 C14,14.7761424 13.7761424,15 13.5,15 L10.5,15 C10.2238576,15 10,14.7761424 10,14.5 Z" id="Line-Copy-14"></path>
            <path d="M10,17.5 L10,17.5 C10,17.2238576 10.2238576,17 10.5,17 L13.5,17 C13.7761424,17 14,17.2238576 14,17.5 L14,17.5 C14,17.7761424 13.7761424,18 13.5,18 L10.5,18 C10.2238576,18 10,17.7761424 10,17.5 Z" id="Line-Copy-15"></path>
            <path d="M10,20.5 L10,20.5 C10,20.2238576 10.2238576,20 10.5,20 L13.5,20 C13.7761424,20 14,20.2238576 14,20.5 L14,20.5 C14,20.7761424 13.7761424,21 13.5,21 L10.5,21 C10.2238576,21 10,20.7761424 10,20.5 Z" id="Line-Copy-16"></path>
            <path d="M17,8.5 L17,8.5 C17,8.22385763 17.2238576,8 17.5,8 L21.5,8 C21.7761424,8 22,8.22385763 22,8.5 L22,8.5 C22,8.77614237 21.7761424,9 21.5,9 L17.5,9 C17.2238576,9 17,8.77614237 17,8.5 Z" id="Line-Copy-17"></path>
            <path d="M17,11.5 L17,11.5 C17,11.2238576 17.2238576,11 17.5,11 L21.5,11 C21.7761424,11 22,11.2238576 22,11.5 L22,11.5 C22,11.7761424 21.7761424,12 21.5,12 L17.5,12 C17.2238576,12 17,11.7761424 17,11.5 Z" id="Line-Copy-18"></path>
            <path d="M17,14.5 L17,14.5 C17,14.2238576 17.2238576,14 17.5,14 L21.5,14 C21.7761424,14 22,14.2238576 22,14.5 L22,14.5 C22,14.7761424 21.7761424,15 21.5,15 L17.5,15 C17.2238576,15 17,14.7761424 17,14.5 Z" id="Line-Copy-19"></path>
            <path d="M17,17.5 L17,17.5 C17,17.2238576 17.2238576,17 17.5,17 L21.5,17 C21.7761424,17 22,17.2238576 22,17.5 L22,17.5 C22,17.7761424 21.7761424,18 21.5,18 L17.5,18 C17.2238576,18 17,17.7761424 17,17.5 Z" id="Line-Copy-20"></path>
            <path d="M17,20.5 L17,20.5 C17,20.2238576 17.2238576,20 17.5,20 L21.5,20 C21.7761424,20 22,20.2238576 22,20.5 L22,20.5 C22,20.7761424 21.7761424,21 21.5,21 L17.5,21 C17.2238576,21 17,20.7761424 17,20.5 Z" id="Line-Copy-21"></path>
        </g>
    </g>
</svg>