<?xml version="1.0" encoding="UTF-8"?>
<svg width="24px" height="24px" viewBox="0 0 24 24" version="1.1" xmlns="http://www.w3.org/2000/svg">
    <!-- Generator: Sketch 51.3 (57544) - http://www.bohemiancoding.com/sketch -->
    <title>Tags</title>
    <desc>Created with Sketch.</desc>
    <defs></defs>
    <g id="Tags" stroke="none" stroke-width="1" fill="none" fill-rule="evenodd">
        <path d="M2.38949809,12.5427299 C1.50197871,11.6937984 1,10.519001 1,9.29084158 L1,3.5 C1,2.67157288 1.67157288,2 2.5,2 L8.29084158,2 C9.51900096,2 10.6937984,2.50197871 11.5427299,3.38949809 L20.6852881,12.9476271 C21.2489398,13.5368993 21.2385898,14.468517 20.6619855,15.0451213 L14.0451213,21.6619855 C13.468517,22.2385898 12.5368993,22.2489398 11.9476271,21.6852881 L2.38949809,12.5427299 Z M3.08072074,11.8200881 L12.6388498,20.9626463 C12.8352738,21.1505302 13.1458131,21.1470802 13.3380145,20.9548787 L19.9548787,14.3380145 C20.1470802,14.1458131 20.1505302,13.8352738 19.9626463,13.6388498 L10.8200881,4.08072074 C10.159808,3.39042789 9.24607666,3 8.29084158,3 L2.5,3 C2.22385763,3 2,3.22385763 2,3.5 L2,9.29084158 C2,10.2460767 2.39042789,11.159808 3.08072074,11.8200881 Z"
              id="Line-34" fill="#000000" fill-rule="nonzero"></path>
        <path d="M14.7928932,22.5 L22.9393398,14.3535534 C23.134602,14.1582912 23.134602,13.8417088 22.9393398,13.6464466 L11.7928932,2.5 L11.7928932,2.5 C12.1834175,2.10947571 12.8165825,2.10947571 13.2071068,2.5 L23.6464466,12.9393398 C24.232233,13.5251263 24.232233,14.4748737 23.6464466,15.0606602 L16.2071068,22.5 C15.8165825,22.8905243 15.1834175,22.8905243 14.7928932,22.5 Z"
              id="Line-34-Copy" fill="#000000" fill-rule="nonzero"></path>
        <path d="M5.5,8 C6.32842712,8 7,7.32842712 7,6.5 C7,5.67157288 6.32842712,5 5.5,5 C4.67157288,5 4,5.67157288 4,6.5 C4,7.32842712 4.67157288,8 5.5,8 Z M5.5,9 C4.11928813,9 3,7.88071187 3,6.5 C3,5.11928813 4.11928813,4 5.5,4 C6.88071187,4 8,5.11928813 8,6.5 C8,7.88071187 6.88071187,9 5.5,9 Z"
              id="Oval-15" fill="#000000" fill-rule="nonzero"></path>
    </g>
</svg>