<?xml version="1.0" encoding="UTF-8"?>
<svg width="24px" height="24px" viewBox="0 0 24 24" version="1.1" xmlns="http://www.w3.org/2000/svg" xmlns:xlink="http://www.w3.org/1999/xlink">
    <!-- Generator: Sketch 52.2 (67145) - http://www.bohemiancoding.com/sketch -->
    <title>Tags</title>
    <desc>Tags</desc>
    <g id="Tags" stroke="none" stroke-width="1" fill="none" fill-rule="evenodd">
        <g transform="translate(1.000000, 1.000000)" fill="#000000" fill-rule="nonzero">
            <path d="M1.38949809,11.5427299 C0.501978713,10.6937984 -2.89102076e-13,9.51900096 -1.0886847e-12,8.29084158 L-6.16395823e-12,2.5 C-5.62472291e-12,1.67157288 0.671572875,1 1.5,1 L7.29084158,1 C8.51900096,1 9.69379835,1.50197871 10.5427299,2.38949809 L19.6852881,11.9476271 C20.2489398,12.5368993 20.2385898,13.468517 19.6619855,14.0451213 L13.0451213,20.6619855 C12.468517,21.2385898 11.5368993,21.2489398 10.9476271,20.6852881 L1.38949809,11.5427299 Z M2.08072074,10.8200881 L11.6388498,19.9626463 C11.8352738,20.1505302 12.1458131,20.1470802 12.3380145,19.9548787 L18.9548787,13.3380145 C19.1470802,13.1458131 19.1505302,12.8352738 18.9626463,12.6388498 L9.82008808,3.08072074 C9.15980796,2.39042789 8.24607666,2 7.29084158,2 L1.5,2 C1.22385763,2 1,2.22385763 1,2.5 L1,8.29084158 C1,9.24607666 1.39042789,10.159808 2.08072074,10.8200881 Z" id="Line-34"></path>
            <path d="M13.7928932,21.5 L21.9393398,13.3535534 C22.134602,13.1582912 22.134602,12.8417088 21.9393398,12.6464466 L10.7928932,1.5 L10.7928932,1.5 C11.1834175,1.10947571 11.8165825,1.10947571 12.2071068,1.5 L22.6464466,11.9393398 C23.232233,12.5251263 23.232233,13.4748737 22.6464466,14.0606602 L15.2071068,21.5 C14.8165825,21.8905243 14.1834175,21.8905243 13.7928932,21.5 Z" id="Line-34-Copy"></path>
            <path d="M4.5,7 C5.32842712,7 6,6.32842712 6,5.5 C6,4.67157288 5.32842712,4 4.5,4 C3.67157288,4 3,4.67157288 3,5.5 C3,6.32842712 3.67157288,7 4.5,7 Z M4.5,8 C3.11928813,8 2,6.88071187 2,5.5 C2,4.11928813 3.11928813,3 4.5,3 C5.88071187,3 7,4.11928813 7,5.5 C7,6.88071187 5.88071187,8 4.5,8 Z" id="Oval-15"></path>
        </g>
    </g>
</svg>