<?xml version="1.0" encoding="UTF-8"?>
<svg width="24px" height="24px" viewBox="0 0 24 24" version="1.1" xmlns="http://www.w3.org/2000/svg">
    <!-- Generator: Sketch 51.3 (57544) - http://www.bohemiancoding.com/sketch -->
    <title>TaxRoll</title>
    <desc>Created with Sketch.</desc>
    <defs></defs>
    <g id="TaxRoll" stroke="none" stroke-width="1" fill="none" fill-rule="evenodd">
        <path d="M8,23 L8,17 L3,17 L3,23 L8,23 Z M3,16 L9,16 L9,24 L3,24 C2.44771525,24 2,23.5522847 2,23 L2,17 C2,16.4477153 2.44771525,16 3,16 Z"
              id="Rectangle-8-Copy-17" fill="#000000" fill-rule="nonzero"></path>
        <path d="M17,17 L17,23 L22,23 L22,17 L17,17 Z M16,16 L22,16 C22.5522847,16 23,16.4477153 23,17 L23,23 C23,23.5522847 22.5522847,24 22,24 L16,24 L16,16 Z"
              id="Rectangle-8-Copy-18" fill="#000000" fill-rule="nonzero"></path>
        <path d="M9,22 L9,23 L16,23 L16,22 L9,22 Z M8,21 L17,21 L17,24 L8,24 L8,21 Z" id="Rectangle-8-Copy-19"
              fill="#000000" fill-rule="nonzero"></path>
        <path d="M9,16 L9,21 L16,21 L16,16 L9,16 Z M8,15 L17,15 L17,22 L8,22 L8,15 Z" id="Rectangle-8-Copy-20"
              fill="#000000" fill-rule="nonzero"></path>
        <path d="M9,14 L9,15 L16,15 L16,14 L9,14 Z M8,13 L17,13 L17,16 L8,16 L8,13 Z" id="Rectangle-8-Copy-22"
              fill="#000000" fill-rule="nonzero"></path>
        <path d="M12.5,10 C10.736764,10 9.27805926,11.3038529 9.03544443,13 L15.9645556,13 C15.7219407,11.3038529 14.263236,10 12.5,10 Z M12.5,9 C14.9852814,9 17,11.0147186 17,13.5 L17,14 L8,14 L8,13.5 C8,11.0147186 10.0147186,9 12.5,9 Z"
              id="Rectangle-8-Copy-21" fill="#000000" fill-rule="nonzero"></path>
        <path d="M16,7 L16,5 L13,5 L13,7 L16,7 Z M13,4 L16,4 C16.5522847,4 17,4.44771525 17,5 L17,7 C17,7.55228475 16.5522847,8 16,8 L12,8 L12,5 C12,4.44771525 12.4477153,4 13,4 Z"
              id="Rectangle-9-Copy-48" fill="#000000" fill-rule="nonzero"></path>
        <rect id="Rectangle-9-Copy-44" stroke="#000000" fill-rule="nonzero" x="10.5" y="17.5" width="1"
              height="3"></rect>
        <rect id="Rectangle-9-Copy-46" stroke="#000000" fill-rule="nonzero" x="14.5" y="17.5" width="1"
              height="3"></rect>
        <rect id="Rectangle-9-Copy-45" stroke="#000000" fill-rule="nonzero" x="12.5" y="17.5" width="1"
              height="3"></rect>
        <path d="M3.5,2 L3.5,2 C3.77614237,2 4,2.22385763 4,2.5 L4,10.5 C4,10.7761424 3.77614237,11 3.5,11 L3.5,11 C3.22385763,11 3,10.7761424 3,10.5 L3,2.5 C3,2.22385763 3.22385763,2 3.5,2 Z"
              id="Line-14" fill="#000000" fill-rule="nonzero"></path>
        <path d="M5.5,2 L5.5,2 C5.77614237,2 6,2.22385763 6,2.5 L6,10.5 C6,10.7761424 5.77614237,11 5.5,11 L5.5,11 C5.22385763,11 5,10.7761424 5,10.5 L5,2.5 C5,2.22385763 5.22385763,2 5.5,2 Z"
              id="Line" fill="#000000" fill-rule="nonzero"></path>
        <path d="M7.75,4.75 L7.75,4.75 C7.60610158,4.89389842 7.37882063,4.91150903 7.21447323,4.79149469 L6.73223305,4.43933983 C6.45092848,4.15803526 6.06939761,4 5.67157288,4 L3.20710678,4 C2.88696216,4 2.57992982,4.12717696 2.35355339,4.35355339 L2.20710678,4.5 C2.07449854,4.63260824 2,4.81246362 2,5 C2,5.18753638 2.07449854,5.36739176 2.20710678,5.5 L2.35355339,5.64644661 C2.57992982,5.87282304 2.88696216,6 3.20710678,6 L5.79289322,6 C6.37825433,6 6.93964058,6.2325338 7.35355339,6.64644661 L7.5,6.79289322 C7.82014462,7.11303784 8,7.54724713 8,8 C8,8.45275287 7.82014462,8.88696216 7.5,9.20710678 L7.35355339,9.35355339 C6.93964058,9.7674662 6.37825433,10 5.79289322,10 L3.32842712,10 C2.6653859,10 2.02950112,9.7366079 1.56066017,9.26776695 L1.20850531,8.78552677 C1.08849097,8.62117937 1.10610158,8.39389842 1.25,8.25 L1.25,8.25 C1.39389842,8.10610158 1.62117937,8.08849097 1.78552677,8.20850531 L2.26776695,8.56066017 C2.54907152,8.84196474 2.93060239,9 3.32842712,9 L5.79289322,9 C6.11303784,9 6.42007018,8.87282304 6.64644661,8.64644661 L6.79289322,8.5 C6.92550146,8.36739176 7,8.18753638 7,8 C7,7.81246362 6.92550146,7.63260824 6.79289322,7.5 L6.64644661,7.35355339 C6.42007018,7.12717696 6.11303784,7 5.79289322,7 L3.20710678,7 C2.62174567,7 2.06035942,6.7674662 1.64644661,6.35355339 L1.5,6.20710678 C1.17985538,5.88696216 1,5.45275287 1,5 C1,4.54724713 1.17985538,4.11303784 1.5,3.79289322 L1.64644661,3.64644661 C2.06035942,3.2325338 2.62174567,3 3.20710678,3 L5.67157288,3 C6.3346141,3 6.97049888,3.2633921 7.43933983,3.73223305 L7.79149469,4.21447323 C7.91150903,4.37882063 7.89389842,4.60610158 7.75,4.75 Z"
              id="Path-26" fill="#000000" fill-rule="nonzero"></path>
        <polygon id="Line-38" fill="#000000" fill-rule="nonzero" points="12 7 13 7 13 10 12 10"></polygon>
        <polygon id="Line-38-Copy" fill="#000000" fill-rule="nonzero" points="4 18 5 18 5 20 4 20"></polygon>
        <polygon id="Line-38-Copy-2" fill="#000000" fill-rule="nonzero" points="6 18 7 18 7 20 6 20"></polygon>
        <polygon id="Line-38-Copy-3" fill="#000000" fill-rule="nonzero" points="18 18 19 18 19 20 18 20"></polygon>
        <polygon id="Line-38-Copy-4" fill="#000000" fill-rule="nonzero" points="20 18 21 18 21 20 20 20"></polygon>
    </g>
</svg>