<?xml version="1.0" encoding="UTF-8"?>
<svg width="24px" height="24px" viewBox="0 0 24 24" version="1.1" xmlns="http://www.w3.org/2000/svg" xmlns:xlink="http://www.w3.org/1999/xlink">
    <!-- Generator: Sketch 51.3 (57544) - http://www.bohemiancoding.com/sketch -->
    <title>TaxRoll</title>
    <desc>Created with Sketch.</desc>
    <defs></defs>
    <g id="TaxRoll" stroke="none" stroke-width="1" fill="none" fill-rule="evenodd">
        <rect id="Rectangle-8-Copy-17" stroke="#106ba3" fill-rule="nonzero" x="2.5" y="16.5" width="6" height="7"></rect>
        <rect id="Rectangle-8-Copy-18" stroke="#106ba3" fill-rule="nonzero" x="16.5" y="16.5" width="6" height="7"></rect>
        <rect id="Rectangle-8-Copy-19" stroke="#106ba3" fill-rule="nonzero" x="8.5" y="21.5" width="8" height="2"></rect>
        <rect id="Rectangle-8-Copy-20" stroke="#106ba3" fill-rule="nonzero" x="8.5" y="15.5" width="8" height="6"></rect>
        <rect id="Rectangle-8-Copy-22" stroke="#106ba3" fill-rule="nonzero" x="8.5" y="13.5" width="8" height="2"></rect>
        <path d="M8.5,13.5 L16.5,13.5 C16.5,11.290861 14.709139,9.5 12.5,9.5 C10.290861,9.5 8.5,11.290861 8.5,13.5 Z" id="Rectangle-8-Copy-21" stroke="#106ba3" fill-rule="nonzero"></path>
        <rect id="Rectangle-9-Copy-40" stroke="#106ba3" fill-rule="nonzero" x="4.5" y="18.5" width="1" height="1"></rect>
        <rect id="Rectangle-9-Copy-41" stroke="#106ba3" fill-rule="nonzero" x="6.5" y="18.5" width="1" height="1"></rect>
        <rect id="Rectangle-9-Copy-47" stroke="#106ba3" fill-rule="nonzero" x="12.5" y="8.5" width="1" height="3"></rect>
        <rect id="Rectangle-9-Copy-48" stroke="#106ba3" fill-rule="nonzero" x="12.5" y="5.5" width="3" height="2"></rect>
        <rect id="Rectangle-9-Copy-44" stroke="#106ba3" fill-rule="nonzero" x="10.5" y="17.5" width="1" height="3"></rect>
        <rect id="Rectangle-9-Copy-46" stroke="#106ba3" fill-rule="nonzero" x="14.5" y="17.5" width="1" height="3"></rect>
        <rect id="Rectangle-9-Copy-45" stroke="#106ba3" fill-rule="nonzero" x="12.5" y="17.5" width="1" height="3"></rect>
        <rect id="Rectangle-9-Copy-42" stroke="#106ba3" fill-rule="nonzero" x="18.5" y="18.5" width="1" height="1"></rect>
        <rect id="Rectangle-9-Copy-43" stroke="#106ba3" fill-rule="nonzero" x="20.5" y="18.5" width="1" height="1"></rect>
        <path d="M3.5,2.5 L3.5,10.5" id="Line-14" stroke="#106ba3" stroke-linecap="square" fill-rule="nonzero"></path>
        <path d="M5.5,2.5 L5.5,10.5" id="Line" stroke="#106ba3" stroke-linecap="square" fill-rule="nonzero"></path>
        <polyline id="Path-26" stroke="#106ba3" fill-rule="nonzero" points="8 5 6.5 3.5 2.5 3.5 1.5 4.5 1.5 5.5 2.5 6.5 6.5 6.5 7.5 7.5 7.5 8.5 6.5 9.5 2.5 9.5 1 8"></polyline>
    </g>
</svg>