<?xml version="1.0" encoding="UTF-8"?>
<svg width="24px" height="24px" viewBox="0 0 24 24" version="1.1" xmlns="http://www.w3.org/2000/svg" xmlns:xlink="http://www.w3.org/1999/xlink">
    <!-- Generator: Sketch 52.2 (67145) - http://www.bohemiancoding.com/sketch -->
    <title>TaxRoll</title>
    <desc>TaxRoll</desc>
    <g id="TaxRoll" stroke="none" stroke-width="1" fill="none" fill-rule="evenodd">
        <g transform="translate(1.000000, 2.000000)" fill-rule="nonzero">
            <path d="M7,21 L7,15 L2,15 L2,21 L7,21 Z M2,14 L8,14 L8,22 L2,22 C1.44771525,22 1,21.5522847 1,21 L1,15 C1,14.4477153 1.44771525,14 2,14 Z" id="Rectangle-8-Copy-17" fill="#000000"></path>
            <path d="M16,15 L16,21 L21,21 L21,15 L16,15 Z M15,14 L21,14 C21.5522847,14 22,14.4477153 22,15 L22,21 C22,21.5522847 21.5522847,22 21,22 L15,22 L15,14 Z" id="Rectangle-8-Copy-18" fill="#000000"></path>
            <path d="M8,20 L8,21 L15,21 L15,20 L8,20 Z M7,19 L16,19 L16,22 L7,22 L7,19 Z" id="Rectangle-8-Copy-19" fill="#000000"></path>
            <path d="M8,14 L8,19 L15,19 L15,14 L8,14 Z M7,13 L16,13 L16,20 L7,20 L7,13 Z" id="Rectangle-8-Copy-20" fill="#000000"></path>
            <path d="M8,12 L8,13 L15,13 L15,12 L8,12 Z M7,11 L16,11 L16,14 L7,14 L7,11 Z" id="Rectangle-8-Copy-22" fill="#000000"></path>
            <path d="M11.5,8 C9.73676405,8 8.27805926,9.30385293 8.03544443,11 L14.9645556,11 C14.7219407,9.30385293 13.263236,8 11.5,8 Z M11.5,7 C13.9852814,7 16,9.01471863 16,11.5 L16,12 L7,12 L7,11.5 C7,9.01471863 9.01471863,7 11.5,7 Z" id="Rectangle-8-Copy-21" fill="#000000"></path>
            <path d="M15,5 L15,3 L12,3 L12,5 L15,5 Z M12,2 L15,2 C15.5522847,2 16,2.44771525 16,3 L16,5 C16,5.55228475 15.5522847,6 15,6 L11,6 L11,3 C11,2.44771525 11.4477153,2 12,2 Z" id="Rectangle-9-Copy-48" fill="#000000"></path>
            <path d="M9.5,17 L9.5,19 L10,18.5 L9,18.5 L9.5,19 L9.5,17 Z M9.5,17 L9.5,15 L9,15.5 L10,15.5 L9.5,15 L9.5,17 Z" id="Rectangle-9-Copy-44" stroke="#000000"></path>
            <path d="M13.5,17 L13.5,19 L14,18.5 L13,18.5 L13.5,19 L13.5,17 Z M13.5,17 L13.5,15 L13,15.5 L14,15.5 L13.5,15 L13.5,17 Z" id="Rectangle-9-Copy-46" stroke="#000000"></path>
            <rect id="Rectangle-9-Copy-45" stroke="#000000" x="11.5" y="15.5" width="1" height="3"></rect>
            <path d="M2.5,0 L2.5,0 C2.77614237,-5.07265313e-17 3,0.223857625 3,0.5 L3,8.5 C3,8.77614237 2.77614237,9 2.5,9 L2.5,9 C2.22385763,9 2,8.77614237 2,8.5 L2,0.5 C2,0.223857625 2.22385763,5.07265313e-17 2.5,0 Z" id="Line-14" fill="#000000"></path>
            <path d="M4.5,0 L4.5,0 C4.77614237,-5.07265313e-17 5,0.223857625 5,0.5 L5,8.5 C5,8.77614237 4.77614237,9 4.5,9 L4.5,9 C4.22385763,9 4,8.77614237 4,8.5 L4,0.5 C4,0.223857625 4.22385763,5.07265313e-17 4.5,0 Z" id="Line" fill="#000000"></path>
            <path d="M6.75,2.75 L6.75,2.75 C6.60610158,2.89389842 6.37882063,2.91150903 6.21447323,2.79149469 L5.73223305,2.43933983 C5.45092848,2.15803526 5.06939761,2 4.67157288,2 L2.20710678,2 C1.88696216,2 1.57992982,2.12717696 1.35355339,2.35355339 L1.20710678,2.5 C1.07449854,2.63260824 1,2.81246362 1,3 C1,3.18753638 1.07449854,3.36739176 1.20710678,3.5 L1.35355339,3.64644661 C1.57992982,3.87282304 1.88696216,4 2.20710678,4 L4.79289322,4 C5.37825433,4 5.93964058,4.2325338 6.35355339,4.64644661 L6.5,4.79289322 C6.82014462,5.11303784 7,5.54724713 7,6 C7,6.45275287 6.82014462,6.88696216 6.5,7.20710678 L6.35355339,7.35355339 C5.93964058,7.7674662 5.37825433,8 4.79289322,8 L2.32842712,8 C1.6653859,8 1.02950112,7.7366079 0.560660172,7.26776695 L0.208505311,6.78552677 C0.0884909747,6.62117937 0.106101584,6.39389842 0.25,6.25 L0.25,6.25 C0.393898416,6.10610158 0.621179369,6.08849097 0.785526768,6.20850531 L1.26776695,6.56066017 C1.54907152,6.84196474 1.93060239,7 2.32842712,7 L4.79289322,7 C5.11303784,7 5.42007018,6.87282304 5.64644661,6.64644661 L5.79289322,6.5 C5.92550146,6.36739176 6,6.18753638 6,6 C6,5.81246362 5.92550146,5.63260824 5.79289322,5.5 L5.64644661,5.35355339 C5.42007018,5.12717696 5.11303784,5 4.79289322,5 L2.20710678,5 C1.62174567,5 1.06035942,4.7674662 0.646446609,4.35355339 L0.5,4.20710678 C0.179855377,3.88696216 0,3.45275287 0,3 C0,2.54724713 0.179855377,2.11303784 0.5,1.79289322 L0.646446609,1.64644661 C1.06035942,1.2325338 1.62174567,1 2.20710678,1 L4.67157288,1 C5.3346141,1 5.97049888,1.2633921 6.43933983,1.73223305 L6.79149469,2.21447323 C6.91150903,2.37882063 6.89389842,2.60610158 6.75,2.75 Z" id="Path-26" fill="#000000"></path>
            <polygon id="Line-38" fill="#000000" points="11 5 12 5 12 8 11 8"></polygon>
            <polygon id="Line-38-Copy" fill="#000000" points="3 16 4 16 4 18 3 18"></polygon>
            <polygon id="Line-38-Copy-2" fill="#000000" points="5 16 6 16 6 18 5 18"></polygon>
            <polygon id="Line-38-Copy-3" fill="#000000" points="17 16 18 16 18 18 17 18"></polygon>
            <polygon id="Line-38-Copy-4" fill="#000000" points="19 16 20 16 20 18 19 18"></polygon>
        </g>
    </g>
</svg>