<?xml version="1.0" encoding="UTF-8"?>
<svg width="24px" height="24px" viewBox="0 0 24 24" version="1.1" xmlns="http://www.w3.org/2000/svg" xmlns:xlink="http://www.w3.org/1999/xlink">
    <!-- Generator: Sketch 52.2 (67145) - http://www.bohemiancoding.com/sketch -->
    <title>Thing</title>
    <desc>Thing</desc>
    <g id="Thing" stroke="none" stroke-width="1" fill="none" fill-rule="evenodd">
        <g fill="#000000" fill-rule="nonzero">
            <path d="M12,23 C18.0751322,23 23,18.0751322 23,12 C23,5.92486775 18.0751322,1 12,1 C5.92486775,1 1,5.92486775 1,12 C1,18.0751322 5.92486775,23 12,23 Z M12,24 C5.372583,24 0,18.627417 0,12 C0,5.372583 5.372583,0 12,0 C18.627417,0 24,5.372583 24,12 C24,18.627417 18.627417,24 12,24 Z" id="Oval-9"></path>
            <path d="M6,10 L6,17 L13,17 L13,10 L6,10 Z M6,9 L14,9 L14,17 C14,17.5522847 13.5522847,18 13,18 L6,18 C5.44771525,18 5,17.5522847 5,17 L5,10 C5,9.44771525 5.44771525,9 6,9 Z" id="Rectangle"></path>
            <path d="M6.5,9 L6,10 L5,10 L5,9.41421356 C5,9.14899707 5.10535684,8.89464316 5.29289322,8.70710678 L8.70710678,5.29289322 C8.89464316,5.10535684 9.14899707,5 9.41421356,5 L17,5 C17.5522847,5 18,5.44771525 18,6 L18,13.5857864 C18,13.8510029 17.8946432,14.1053568 17.7071068,14.2928932 L14.2928932,17.7071068 C14.1053568,17.8946432 13.8510029,18 13.5857864,18 L13,18 L13,16.5 L14,16.5 L17,13.5 L17,6 L9.5,6 L6.5,9 Z" id="Line"></path>
            <polygon id="Line-66" points="13.5 10.2071068 12.7928932 9.5 17 5.29289322 17.7071068 6"></polygon>
        </g>
    </g>
</svg>