<?xml version="1.0" encoding="UTF-8"?>
<svg width="24px" height="24px" viewBox="0 0 24 24" version="1.1" xmlns="http://www.w3.org/2000/svg" xmlns:xlink="http://www.w3.org/1999/xlink">
    <!-- Generator: Sketch 51.3 (57544) - http://www.bohemiancoding.com/sketch -->
    <title>UnknownLink</title>
    <desc>Created with Sketch.</desc>
    <defs></defs>
    <g id="UnknownLink" stroke="none" stroke-width="1" fill="none" fill-rule="evenodd">
        <g id="Group-3" transform="translate(0.000000, 13.000000)" fill="#106ba3">
            <path d="M15.33,6.0356 C14.6674,7.1441 13.5113,7.9696 12.0914,8.0236 C9.3755,8.058 6.6591,8.0249 3.943,8.0249 C2.3696,8.0049 0.8821,7.0158 0.2806,5.5946 C-0.712,3.2492 1.0353,0.133 3.8438,0.0261 C6.5928,-0.0088 9.3424,-0.0088 12.0914,0.0261 C13.6601,0.0858 15.1243,1.1081 15.6913,2.5449 C15.7547,2.7057 15.8055,2.8696 15.8443,3.0356 L14.6935,3.0356 C14.5162,2.3288 14.0667,1.6981 13.2794,1.3185 C12.8986,1.1349 12.4875,1.0419 12.0661,1.0259 C9.3607,0.9916 6.6549,1.0249 3.9494,1.0249 C1.2829,1.0587 -0.0921,5.4063 2.6558,6.7312 C3.0366,6.9148 3.4477,7.0078 3.8691,7.0238 C6.6012,7.0584 9.334,7.0584 12.0661,7.0238 C12.8364,6.9945 13.493,6.6038 13.9676,6.0332 L13.9676,6.0356 L15.33,6.0356 Z" id="Fill-1"></path>
            <path d="M8.3608,6.0356 C8.9068,4.9267 9.992,4.0671 11.3533,4.0152 C14.4181,3.9764 17.4836,3.9764 20.5484,4.0152 C21.9264,4.0677 23.2106,4.9647 23.7083,6.2261 C24.5206,8.2847 22.973,10.9422 20.5484,11.0345 C17.4836,11.0733 14.4181,11.0733 11.3533,11.0345 C10.055,10.9851 8.8379,10.1843 8.2861,9.0356 L9.4784,9.0356 C9.6816,9.34 9.9727,9.6015 10.3635,9.7899 C10.6821,9.9435 11.0261,10.0213 11.3787,10.0347 C14.4266,10.0733 17.4752,10.0733 20.5231,10.0347 C22.7193,9.9512 23.8105,6.3553 21.5382,5.2598 C21.2196,5.1062 20.8757,5.0284 20.5231,5.015 C17.4977,4.9767 14.4719,5.0141 11.4463,5.0141 C10.6949,5.0237 10.0662,5.4422 9.6504,6.0356 L8.3608,6.0356 Z" id="Fill-2"></path>
        </g>
        <path d="M11.1181641,8.63867188 L11.1181641,8.32226562 C11.1181641,7.86523209 11.1884759,7.48925929 11.3291016,7.19433594 C11.4697273,6.89941259 11.7314434,6.58789227 12.1142578,6.25976562 C12.6455105,5.81054463 12.9804681,5.47265738 13.1191406,5.24609375 C13.2578132,5.01953012 13.3271484,4.74609535 13.3271484,4.42578125 C13.3271484,4.02734176 13.19922,3.71972765 12.9433594,3.50292969 C12.6874987,3.28613173 12.3193383,3.17773438 11.8388672,3.17773438 C11.5302719,3.17773438 11.2294937,3.21386683 10.9365234,3.28613281 C10.6435532,3.3583988 10.3076191,3.49023342 9.92871094,3.68164062 L9.58300781,2.890625 C10.3212928,2.50390432 11.0927694,2.31054688 11.8974609,2.31054688 C12.6435584,2.31054688 13.2236307,2.49413879 13.6376953,2.86132812 C14.0517599,3.22851746 14.2587891,3.74609041 14.2587891,4.4140625 C14.2587891,4.69922018 14.2207035,4.95019423 14.1445312,5.16699219 C14.068359,5.38379015 13.9560554,5.58886622 13.8076172,5.78222656 C13.6591789,5.9755869 13.3388696,6.28710723 12.8466797,6.71679688 C12.4521465,7.05273605 12.1914069,7.33203014 12.0644531,7.5546875 C11.9374994,7.77734486 11.8740234,8.07421689 11.8740234,8.4453125 L11.8740234,8.63867188 L11.1181641,8.63867188 Z M10.8310547,10.3789062 C10.8310547,9.84765359 11.0654273,9.58203125 11.5341797,9.58203125 C11.7607433,9.58203125 11.9355463,9.65038994 12.0585938,9.78710938 C12.1816412,9.92382881 12.2431641,10.1210925 12.2431641,10.3789062 C12.2431641,10.6289075 12.1806647,10.8232415 12.0556641,10.9619141 C11.9306634,11.1005866 11.7568371,11.1699219 11.5341797,11.1699219 C11.3310537,11.1699219 11.1630866,11.1083991 11.0302734,10.9853516 C10.8974603,10.8623041 10.8310547,10.6601577 10.8310547,10.3789062 Z" id="?" fill="#106ba3"></path>
        <path d="M17.1181641,8.63867188 L17.1181641,8.32226562 C17.1181641,7.86523209 17.1884759,7.48925929 17.3291016,7.19433594 C17.4697273,6.89941259 17.7314434,6.58789227 18.1142578,6.25976562 C18.6455105,5.81054463 18.9804681,5.47265738 19.1191406,5.24609375 C19.2578132,5.01953012 19.3271484,4.74609535 19.3271484,4.42578125 C19.3271484,4.02734176 19.19922,3.71972765 18.9433594,3.50292969 C18.6874987,3.28613173 18.3193383,3.17773438 17.8388672,3.17773438 C17.5302719,3.17773438 17.2294937,3.21386683 16.9365234,3.28613281 C16.6435532,3.3583988 16.3076191,3.49023342 15.9287109,3.68164062 L15.5830078,2.890625 C16.3212928,2.50390432 17.0927694,2.31054688 17.8974609,2.31054688 C18.6435584,2.31054688 19.2236307,2.49413879 19.6376953,2.86132812 C20.0517599,3.22851746 20.2587891,3.74609041 20.2587891,4.4140625 C20.2587891,4.69922018 20.2207035,4.95019423 20.1445312,5.16699219 C20.068359,5.38379015 19.9560554,5.58886622 19.8076172,5.78222656 C19.6591789,5.9755869 19.3388696,6.28710723 18.8466797,6.71679688 C18.4521465,7.05273605 18.1914069,7.33203014 18.0644531,7.5546875 C17.9374994,7.77734486 17.8740234,8.07421689 17.8740234,8.4453125 L17.8740234,8.63867188 L17.1181641,8.63867188 Z M16.8310547,10.3789062 C16.8310547,9.84765359 17.0654273,9.58203125 17.5341797,9.58203125 C17.7607433,9.58203125 17.9355463,9.65038994 18.0585938,9.78710938 C18.1816412,9.92382881 18.2431641,10.1210925 18.2431641,10.3789062 C18.2431641,10.6289075 18.1806647,10.8232415 18.0556641,10.9619141 C17.9306634,11.1005866 17.7568371,11.1699219 17.5341797,11.1699219 C17.3310537,11.1699219 17.1630866,11.1083991 17.0302734,10.9853516 C16.8974603,10.8623041 16.8310547,10.6601577 16.8310547,10.3789062 Z" id="?-copy-2" fill="#106ba3"></path>
        <path d="M5.11816406,8.63867188 L5.11816406,8.32226562 C5.11816406,7.86523209 5.18847586,7.48925929 5.32910156,7.19433594 C5.46972727,6.89941259 5.7314434,6.58789227 6.11425781,6.25976562 C6.64551047,5.81054463 6.98046806,5.47265738 7.11914062,5.24609375 C7.25781319,5.01953012 7.32714844,4.74609535 7.32714844,4.42578125 C7.32714844,4.02734176 7.19922003,3.71972765 6.94335938,3.50292969 C6.68749872,3.28613173 6.31933834,3.17773438 5.83886719,3.17773438 C5.53027189,3.17773438 5.22949365,3.21386683 4.93652344,3.28613281 C4.64355322,3.3583988 4.30761908,3.49023342 3.92871094,3.68164062 L3.58300781,2.890625 C4.32129275,2.50390432 5.09276941,2.31054688 5.89746094,2.31054688 C6.64355842,2.31054688 7.22363074,2.49413879 7.63769531,2.86132812 C8.05175988,3.22851746 8.25878906,3.74609041 8.25878906,4.4140625 C8.25878906,4.69922018 8.22070351,4.95019423 8.14453125,5.16699219 C8.06835899,5.38379015 7.95605543,5.58886622 7.80761719,5.78222656 C7.65917895,5.9755869 7.33886965,6.28710723 6.84667969,6.71679688 C6.45214646,7.05273605 6.19140688,7.33203014 6.06445312,7.5546875 C5.93749937,7.77734486 5.87402344,8.07421689 5.87402344,8.4453125 L5.87402344,8.63867188 L5.11816406,8.63867188 Z M4.83105469,10.3789062 C4.83105469,9.84765359 5.06542734,9.58203125 5.53417969,9.58203125 C5.76074332,9.58203125 5.93554626,9.65038994 6.05859375,9.78710938 C6.18164124,9.92382881 6.24316406,10.1210925 6.24316406,10.3789062 C6.24316406,10.6289075 6.18066469,10.8232415 6.05566406,10.9619141 C5.93066344,11.1005866 5.75683705,11.1699219 5.53417969,11.1699219 C5.33105367,11.1699219 5.1630866,11.1083991 5.03027344,10.9853516 C4.89746027,10.8623041 4.83105469,10.6601577 4.83105469,10.3789062 Z" id="?-copy" fill="#106ba3"></path>
    </g>
</svg>