<?xml version="1.0" encoding="UTF-8"?>
<svg width="24px" height="24px" viewBox="0 0 24 24" version="1.1" xmlns="http://www.w3.org/2000/svg" xmlns:xlink="http://www.w3.org/1999/xlink">
    <!-- Generator: Sketch 52.2 (67145) - http://www.bohemiancoding.com/sketch -->
    <title>UnknownLink</title>
    <desc>UnknownLink</desc>
    <g id="UnknownLink" stroke="none" stroke-width="1" fill="none" fill-rule="evenodd">
        <g fill="#000000">
            <path d="M18.8241348,9.85714286 L18.8241348,9.46428571 C18.8241348,8.89682256 18.9114355,8.43000624 19.0860395,8.06382275 C19.2606436,7.69763926 19.5855963,7.3108486 20.0609073,6.90343915 C20.7205226,6.34567622 21.1364135,5.92614779 21.3085925,5.64484127 C21.4807714,5.36353475 21.5668597,5.02403197 21.5668597,4.62632275 C21.5668597,4.13161128 21.4080209,3.74967066 21.0903385,3.48048942 C20.7726561,3.21130818 20.3155399,3.07671958 19.7189761,3.07671958 C19.3358172,3.07671958 18.9623641,3.12158244 18.5986057,3.21130952 C18.2348473,3.3010366 17.8177438,3.46472544 17.3472829,3.70238095 L16.9180501,2.7202381 C17.8347214,2.24007696 18.7926042,2 19.7917274,2 C20.7180989,2 21.4383297,2.22795187 21.9524417,2.68386243 C22.4665536,3.139773 22.7236057,3.78240326 22.7236057,4.61177249 C22.7236057,4.96583069 22.6763178,5.27744574 22.5817406,5.54662698 C22.4871634,5.81580822 22.3477248,6.07043531 22.1634205,6.31051587 C21.9791162,6.55059644 21.581413,6.9373871 20.9702988,7.47089947 C20.4804375,7.88800914 20.1566973,8.23478698 19.9990686,8.51124339 C19.84144,8.78769979 19.7626268,9.15630281 19.7626268,9.61706349 L19.7626268,9.85714286 L18.8241348,9.85714286 Z M18.4676533,12.0178571 C18.4676533,11.3582419 18.7586557,11.0284392 19.3406692,11.0284392 C19.6219757,11.0284392 19.839015,11.1133148 19.9917935,11.2830688 C20.1445721,11.4528227 20.2209602,11.6977497 20.2209602,12.0178571 C20.2209602,12.3282643 20.1433595,12.5695538 19.988156,12.7417328 C19.8329524,12.9139118 19.6171256,13 19.3406692,13 C19.0884633,13 18.8799116,12.9236119 18.7150078,12.7708333 C18.550104,12.6180548 18.4676533,12.3670652 18.4676533,12.0178571 Z" id="?-copy-2"></path>
            <path d="M5.20710678,10.5 L4.5,11.2071068 L1.76776695,8.47487373 C0.400931932,7.10803871 0.400931932,4.89196129 1.76776695,3.52512627 L3.52512627,1.76776695 C4.89196129,0.400931932 7.10803871,0.400931932 8.47487373,1.76776695 L14.232233,7.52512627 C15.5990681,8.89196129 15.5990681,11.1080387 14.232233,12.4748737 L12.4748737,14.232233 C11.1080387,15.5990681 8.89196129,15.5990681 7.52512627,14.232233 L6.79289322,13.5 L7.5,12.7928932 L8.23223305,13.5251263 C9.20854378,14.501437 10.7914562,14.501437 11.767767,13.5251263 L13.5251263,11.767767 C14.501437,10.7914562 14.501437,9.20854378 13.5251263,8.23223305 L7.76776695,2.47487373 C6.79145622,1.498563 5.20854378,1.498563 4.23223305,2.47487373 L2.47487373,4.23223305 C1.498563,5.20854378 1.498563,6.79145622 2.47487373,7.76776695 L5.20710678,10.5 Z" id="Line-33" fill-rule="nonzero"></path>
            <path d="M13.7928932,14.5 L14.5,13.7928932 L17.232233,16.5251263 C18.5990681,17.8919613 18.5990681,20.1080387 17.232233,21.4748737 L15.4748737,23.232233 C14.1080387,24.5990681 11.8919613,24.5990681 10.5251263,23.232233 L4.76776695,17.4748737 C3.40093193,16.1080387 3.40093193,13.8919613 4.76776695,12.5251263 L6.52512627,10.767767 C7.89196129,9.40093193 10.1080387,9.40093193 11.4748737,10.767767 L12.2071068,11.5 L11.5,12.2071068 L10.767767,11.4748737 C9.79145622,10.498563 8.20854378,10.498563 7.23223305,11.4748737 L5.47487373,13.232233 C4.498563,14.2085438 4.498563,15.7914562 5.47487373,16.767767 L11.232233,22.5251263 C12.2085438,23.501437 13.7914562,23.501437 14.767767,22.5251263 L16.5251263,20.767767 C17.501437,19.7914562 17.501437,18.2085438 16.5251263,17.232233 L13.7928932,14.5 Z" id="Line-33-Copy" fill-rule="nonzero"></path>
        </g>
    </g>
</svg>