<?xml version="1.0" encoding="UTF-8"?>
<svg width="24px" height="24px" viewBox="0 0 24 24" version="1.1" xmlns="http://www.w3.org/2000/svg" xmlns:xlink="http://www.w3.org/1999/xlink">
    <!-- Generator: Sketch 51.3 (57544) - http://www.bohemiancoding.com/sketch -->
    <title>Vehicle</title>
    <desc>Created with Sketch.</desc>
    <defs></defs>
    <g id="Vehicle" stroke="none" stroke-width="1" fill="none" fill-rule="evenodd">
        <path d="M20.5,17.5 L22,17.5 C22.8284271,17.5 23.5,16.8284271 23.5,16 L23.5,7 C23.5,6.17157288 22.8284271,5.5 22,5.5 L9,5.5 C8.17157288,5.5 7.5,6.17157288 7.5,7 L7.5,17.5 L16.5,17.5 C16.5,16.3954305 17.3954305,15.5 18.5,15.5 C19.6045695,15.5 20.5,16.3954305 20.5,17.5 Z" id="Combined-Shape" stroke="#106ba3" fill-rule="nonzero"></path>
        <path d="M7.46026989,17.5 L7.5,17.5 L7.5,11.5 L2,11.5 C1.17157288,11.5 0.5,12.1715729 0.5,13 L0.5,16 C0.5,16.8284271 1.17157288,17.5 2,17.5 L3.53973011,17.5 C3.72087143,16.3750672 4.50277253,15.5 5.5,15.5 C6.49722747,15.5 7.27912857,16.3750672 7.46026989,17.5 Z" id="Combined-Shape" stroke="#106ba3" fill-rule="nonzero"></path>
        <path d="M1.73851648,11.5 L7.5,11.5 L7.5,7.5 L4.35406592,7.5 C3.74070904,7.5 3.18914591,7.87342642 2.96135089,8.44291399 L1.73851648,11.5 Z" id="Path-28-Copy-2" stroke="#106ba3" fill-rule="nonzero"></path>
        <circle id="Oval-12-Copy-2" stroke="#106ba3" fill-rule="nonzero" cx="5.5" cy="17.5" r="2"></circle>
        <circle id="Oval-12-Copy-4" fill="#106ba3" fill-rule="nonzero" cx="5.5" cy="17.5" r="1"></circle>
        <circle id="Oval-12-Copy-5" fill="#106ba3" fill-rule="nonzero" cx="18.5" cy="17.5" r="1"></circle>
        <circle id="Oval-12-Copy-3" stroke="#106ba3" fill-rule="nonzero" cx="18.5" cy="17.5" r="2"></circle>
    </g>
</svg>