<?xml version="1.0" encoding="UTF-8"?>
<svg width="24px" height="24px" viewBox="0 0 24 24" version="1.1" xmlns="http://www.w3.org/2000/svg" xmlns:xlink="http://www.w3.org/1999/xlink">
    <!-- Generator: Sketch 52.2 (67145) - http://www.bohemiancoding.com/sketch -->
    <title>Vehicle</title>
    <desc>Vehicle</desc>
    <g id="Vehicle" stroke="none" stroke-width="1" fill="none" fill-rule="evenodd">
        <g transform="translate(0.000000, 5.000000)" fill="#000000" fill-rule="nonzero">
            <path d="M22,12 C22.5522847,12 23,11.5522847 23,11 L23,2 C23,1.44771525 22.5522847,1 22,1 L9,1 C8.44771525,1 8,1.44771525 8,2 L8,12 L16.0500091,12 C16.2816442,10.8588798 17.290521,10 18.5,10 C19.709479,10 20.7183558,10.8588798 20.9499909,12 L22,12 Z M20,12.5 C20,11.6715729 19.3284271,11 18.5,11 C17.6715729,11 17,11.6715729 17,12.5 C17,12.6753177 17.0300771,12.8436105 17.0853529,13 L7,13 L7,2 C7,0.8954305 7.8954305,-1.59872116e-14 9,-1.59872116e-14 L22,-1.59872116e-14 C23.1045695,-1.59872116e-14 24,0.8954305 24,2 L24,11 C24,12.1045695 23.1045695,13 22,13 L19.9146471,13 C19.9699229,12.8436105 20,12.6753177 20,12.5 Z" id="Combined-Shape"></path>
            <path d="M7,7 L2,7 C1.44771525,7 1,7.44771525 1,8 L1,11 C1,11.5522847 1.44771525,12 2,12 L3.14046475,12 C3.47186222,10.8569765 4.3610003,10 5.5,10 C6.07765432,10 6.5910416,10.2204234 7,10.5867944 L7,7 Z M7,13 C7,11.8954305 6.32842712,11 5.5,11 C4.67157288,11 4,11.8954305 4,13 L2,13 C0.8954305,13 1.3527075e-16,12.1045695 0,11 L0,8 C-1.3527075e-16,6.8954305 0.8954305,6 2,6 L8,6 L8,13 L7,13 Z" id="Combined-Shape"></path>
            <path d="M2.47703296,6 L7,6 L7,3 L4.35406592,3 C3.94516133,3 3.57745258,3.24895094 3.42558923,3.62860932 L2.47703296,6 Z M4.35406592,2 L8,2 L8,7 L1,7 L2.49711254,3.25721865 C2.80083924,2.49790189 3.53625675,2 4.35406592,2 Z" id="Path-28-Copy-2"></path>
            <path d="M5.5,14 C6.32842712,14 7,13.3284271 7,12.5 C7,11.6715729 6.32842712,11 5.5,11 C4.67157288,11 4,11.6715729 4,12.5 C4,13.3284271 4.67157288,14 5.5,14 Z M5.5,15 C4.11928813,15 3,13.8807119 3,12.5 C3,11.1192881 4.11928813,10 5.5,10 C6.88071187,10 8,11.1192881 8,12.5 C8,13.8807119 6.88071187,15 5.5,15 Z" id="Oval-12-Copy-2"></path>
            <circle id="Oval-12-Copy-4" cx="5.5" cy="12.5" r="1"></circle>
            <circle id="Oval-12-Copy-5" cx="18.5" cy="12.5" r="1"></circle>
            <path d="M18.5,14 C19.3284271,14 20,13.3284271 20,12.5 C20,11.6715729 19.3284271,11 18.5,11 C17.6715729,11 17,11.6715729 17,12.5 C17,13.3284271 17.6715729,14 18.5,14 Z M18.5,15 C17.1192881,15 16,13.8807119 16,12.5 C16,11.1192881 17.1192881,10 18.5,10 C19.8807119,10 21,11.1192881 21,12.5 C21,13.8807119 19.8807119,15 18.5,15 Z" id="Oval-12-Copy-3"></path>
        </g>
    </g>
</svg>