<?xml version="1.0" encoding="UTF-8"?>
<svg width="24px" height="24px" viewBox="0 0 24 24" version="1.1" xmlns="http://www.w3.org/2000/svg">
    <!-- Generator: Sketch 51.3 (57544) - http://www.bohemiancoding.com/sketch -->
    <title>Vehicle</title>
    <desc>Created with Sketch.</desc>
    <defs></defs>
    <g id="Vehicle" stroke="none" stroke-width="1" fill="none" fill-rule="evenodd">
        <path d="M22,17 C22.5522847,17 23,16.5522847 23,16 L23,7 C23,6.44771525 22.5522847,6 22,6 L9,6 C8.44771525,6 8,6.44771525 8,7 L8,17 L16.0500091,17 C16.2816442,15.8588798 17.290521,15 18.5,15 C19.709479,15 20.7183558,15.8588798 20.9499909,17 L22,17 Z M20,17.5 C20,16.6715729 19.3284271,16 18.5,16 C17.6715729,16 17,16.6715729 17,17.5 C17,17.6753177 17.0300771,17.8436105 17.0853529,18 L7,18 L7,7 C7,5.8954305 7.8954305,5 9,5 L22,5 C23.1045695,5 24,5.8954305 24,7 L24,16 C24,17.1045695 23.1045695,18 22,18 L19.9146471,18 C19.9699229,17.8436105 20,17.6753177 20,17.5 Z"
              id="Combined-Shape" fill="#000000" fill-rule="nonzero"></path>
        <path d="M7.5,17.5 L7.88958208,17.1104179 C7.88014252,17.0733324 7.87012357,17.0365202 7.85953525,17 L7,17 L7.5,17.5 Z M7,12 L2,12 C1.44771525,12 1,12.4477153 1,13 L1,16 C1,16.5522847 1.44771525,17 2,17 L3.14046475,17 C3.47186222,15.8569765 4.3610003,15 5.5,15 C6.07765432,15 6.5910416,15.2204234 7,15.5867944 L7,12 Z M7,18 C7,16.8954305 6.32842712,16 5.5,16 C4.67157288,16 4,16.8954305 4,18 L2,18 C0.8954305,18 1.3527075e-16,17.1045695 0,16 L0,13 C-1.3527075e-16,11.8954305 0.8954305,11 2,11 L8,11 L8,18 L7,18 Z"
              id="Combined-Shape" fill="#000000" fill-rule="nonzero"></path>
        <path d="M2.47703296,11 L7,11 L7,8 L4.35406592,8 C3.94516133,8 3.57745258,8.24895094 3.42558923,8.62860932 L2.47703296,11 Z M4.35406592,7 L8,7 L8,12 L1,12 L2.49711254,8.25721865 C2.80083924,7.49790189 3.53625675,7 4.35406592,7 Z"
              id="Path-28-Copy-2" fill="#000000" fill-rule="nonzero"></path>
        <path d="M5.5,19 C6.32842712,19 7,18.3284271 7,17.5 C7,16.6715729 6.32842712,16 5.5,16 C4.67157288,16 4,16.6715729 4,17.5 C4,18.3284271 4.67157288,19 5.5,19 Z M5.5,20 C4.11928813,20 3,18.8807119 3,17.5 C3,16.1192881 4.11928813,15 5.5,15 C6.88071187,15 8,16.1192881 8,17.5 C8,18.8807119 6.88071187,20 5.5,20 Z"
              id="Oval-12-Copy-2" fill="#000000" fill-rule="nonzero"></path>
        <circle id="Oval-12-Copy-4" fill="#000000" fill-rule="nonzero" cx="5.5" cy="17.5" r="1"></circle>
        <circle id="Oval-12-Copy-5" fill="#000000" fill-rule="nonzero" cx="18.5" cy="17.5" r="1"></circle>
        <path d="M18.5,19 C19.3284271,19 20,18.3284271 20,17.5 C20,16.6715729 19.3284271,16 18.5,16 C17.6715729,16 17,16.6715729 17,17.5 C17,18.3284271 17.6715729,19 18.5,19 Z M18.5,20 C17.1192881,20 16,18.8807119 16,17.5 C16,16.1192881 17.1192881,15 18.5,15 C19.8807119,15 21,16.1192881 21,17.5 C21,18.8807119 19.8807119,20 18.5,20 Z"
              id="Oval-12-Copy-3" fill="#000000" fill-rule="nonzero"></path>
    </g>
</svg>