<?xml version="1.0" encoding="UTF-8"?>
<svg width="24px" height="24px" viewBox="0 0 24 24" version="1.1" xmlns="http://www.w3.org/2000/svg" xmlns:xlink="http://www.w3.org/1999/xlink">
    <!-- Generator: Sketch 52.2 (67145) - http://www.bohemiancoding.com/sketch -->
    <title>Vessel</title>
    <desc>Vessel</desc>
    <g id="Vessel" stroke="none" stroke-width="1" fill="none" fill-rule="evenodd">
        <g fill="#000000" fill-rule="nonzero">
            <path d="M0,19.5 L0,19.5 C-3.38176876e-17,19.2238576 0.223857625,19 0.5,19 L23.5,19 C23.7761424,19 24,19.2238576 24,19.5 L24,19.5 C24,19.7761424 23.7761424,20 23.5,20 L0.5,20 C0.223857625,20 3.38176876e-17,19.7761424 0,19.5 Z" id="Line-18"></path>
            <path d="M2,21.5 L2,21.5 C2,21.2238576 2.22385763,21 2.5,21 L21.5,21 C21.7761424,21 22,21.2238576 22,21.5 L22,21.5 C22,21.7761424 21.7761424,22 21.5,22 L2.5,22 C2.22385763,22 2,21.7761424 2,21.5 Z" id="Line-18-Copy"></path>
            <path d="M4,23.5 L4,23.5 C4,23.2238576 4.22385763,23 4.5,23 L19.5,23 C19.7761424,23 20,23.2238576 20,23.5 L20,23.5 C20,23.7761424 19.7761424,24 19.5,24 L4.5,24 C4.22385763,24 4,23.7761424 4,23.5 Z" id="Line-18-Copy-2"></path>
            <path d="M3.31192086,12.6504544 L5.69300047,19 L18.3069995,19 L20.6880791,12.6504544 L12,10.0440307 L3.31192086,12.6504544 Z M3.02457298,11.6926281 L11.7126521,9.08620437 C11.9000908,9.02997275 12.0999092,9.02997275 12.2873479,9.08620437 L20.975427,11.6926281 C21.5044199,11.851326 21.8046033,12.4088094 21.6459054,12.9378023 C21.6394573,12.959296 21.6322875,12.9805665 21.6244083,13.0015778 L19.2433287,19.3511234 C19.0969648,19.7414272 18.7238441,20 18.3069995,20 L5.69300047,20 C5.27615591,20 4.90303519,19.7414272 4.75667129,19.3511234 L2.37559169,13.0015778 C2.18167157,12.4844575 2.4436771,11.9080453 2.96079742,11.7141252 C2.98180872,11.706246 3.00307928,11.6990762 3.02457298,11.6926281 Z" id="Rectangle-15"></path>
            <polygon id="Line" points="11.5 9.5 12.5 9.5 12.5 20 11.5 20"></polygon>
            <path d="M6,11.5 L5,11.5 L5,5.5 C5,4.67157288 5.67157288,4 6.5,4 L17.5,4 C18.3284271,4 19,4.67157288 19,5.5 L19,11.5 L18,11.5 L18,5.5 C18,5.22385763 17.7761424,5 17.5,5 L6.5,5 C6.22385763,5 6,5.22385763 6,5.5 L6,11.5 Z" id="Path-29"></path>
            <path d="M8,6 C8.55228475,6 9,6.44771525 9,7 C9,7.55228475 8.55228475,8 8,8 C7.44771525,8 7,7.55228475 7,7 C7,6.44771525 7.44771525,6 8,6 Z" id="Rectangle-Copy-25"></path>
            <path d="M12,6 C12.5522847,6 13,6.44771525 13,7 C13,7.55228475 12.5522847,8 12,8 C11.4477153,8 11,7.55228475 11,7 C11,6.44771525 11.4477153,6 12,6 Z" id="Rectangle-Copy-26"></path>
            <path d="M16,6 C16.5522847,6 17,6.44771525 17,7 C17,7.55228475 16.5522847,8 16,8 C15.4477153,8 15,7.55228475 15,7 C15,6.44771525 15.4477153,6 16,6 Z" id="Rectangle-Copy-27"></path>
            <polygon id="Line-2" points="12.5 5 11.5 5 11.5 1 12.5 1"></polygon>
            <path d="M9,0.5 L9,0.5 C9,0.223857625 9.22385763,5.07265313e-17 9.5,0 L14.5,0 C14.7761424,-5.07265313e-17 15,0.223857625 15,0.5 L15,0.5 C15,0.776142375 14.7761424,1 14.5,1 L9.5,1 C9.22385763,1 9,0.776142375 9,0.5 Z" id="Line-20"></path>
        </g>
    </g>
</svg>