<?xml version="1.0" encoding="UTF-8"?>
<svg width="24px" height="24px" viewBox="0 0 24 24" version="1.1" xmlns="http://www.w3.org/2000/svg">
    <!-- Generator: Sketch 51.3 (57544) - http://www.bohemiancoding.com/sketch -->
    <title>Video</title>
    <desc>Created with Sketch.</desc>
    <defs></defs>
    <g id="Video" stroke="none" stroke-width="1" fill="none" fill-rule="evenodd">
        <rect id="Rectangle-Copy-7" stroke="#000000" fill-rule="nonzero" x="0.5" y="3.5" width="23" height="17"
              rx="3"></rect>
        <path d="M10,13.3573095 L13.5927071,11.5 L10,9.64269053 L10,13.3573095 Z M10.4592303,8.75437329 L14.0519374,10.6116828 C14.5425415,10.8653087 14.7346502,11.4686263 14.4810243,11.9592303 C14.3858919,12.1432507 14.2359578,12.2931848 14.0519374,12.3883172 L10.4592303,14.2456267 C9.96862625,14.4992526 9.36530866,14.3071438 9.11168276,13.8165398 C9.03829708,13.6745854 9,13.5171109 9,13.3573095 L9,9.64269053 C9,9.09040578 9.44771525,8.64269053 10,8.64269053 C10.1598015,8.64269053 10.3172759,8.68098762 10.4592303,8.75437329 Z"
              id="Line-24" fill="#000000" fill-rule="nonzero"></path>
        <path d="M3,17.5 L3,17.5 C3,17.2238576 3.22385763,17 3.5,17 L20.5,17 C20.7761424,17 21,17.2238576 21,17.5 L21,17.5 C21,17.7761424 20.7761424,18 20.5,18 L3.5,18 C3.22385763,18 3,17.7761424 3,17.5 Z"
              id="Line-25" fill="#000000" fill-rule="nonzero"></path>
        <rect id="Rectangle-17" stroke="#000000" fill-rule="nonzero" x="5.5" y="16.5" width="1" height="2"></rect>
    </g>
</svg>