<?xml version="1.0" encoding="UTF-8"?>
<svg width="24px" height="24px" viewBox="0 0 24 24" version="1.1" xmlns="http://www.w3.org/2000/svg" xmlns:xlink="http://www.w3.org/1999/xlink">
    <!-- Generator: Sketch 52.2 (67145) - http://www.bohemiancoding.com/sketch -->
    <title>Video</title>
    <desc>Video</desc>
    <g id="Video" stroke="none" stroke-width="1" fill="none" fill-rule="evenodd">
        <g transform="translate(0.000000, 3.000000)" fill-rule="nonzero">
            <rect id="Rectangle-Copy-7" stroke="#000000" x="0.5" y="0.5" width="23" height="17" rx="3"></rect>
            <path d="M10,10.3573095 L13.5927071,8.5 L10,6.64269053 L10,10.3573095 Z M10.4592303,5.75437329 L14.0519374,7.61168276 C14.5425415,7.86530866 14.7346502,8.46862625 14.4810243,8.95923032 C14.3858919,9.14325073 14.2359578,9.29318484 14.0519374,9.38831724 L10.4592303,11.2456267 C9.96862625,11.4992526 9.36530866,11.3071438 9.11168276,10.8165398 C9.03829708,10.6745854 9,10.5171109 9,10.3573095 L9,6.64269053 C9,6.09040578 9.44771525,5.64269053 10,5.64269053 C10.1598015,5.64269053 10.3172759,5.68098762 10.4592303,5.75437329 Z" id="Line-24" fill="#000000"></path>
            <path d="M3,14.5 L3,14.5 C3,14.2238576 3.22385763,14 3.5,14 L20.5,14 C20.7761424,14 21,14.2238576 21,14.5 L21,14.5 C21,14.7761424 20.7761424,15 20.5,15 L3.5,15 C3.22385763,15 3,14.7761424 3,14.5 Z" id="Line-25" fill="#000000"></path>
            <rect id="Rectangle-17" stroke="#000000" x="5.5" y="13.5" width="1" height="2"></rect>
        </g>
    </g>
</svg>