<?xml version="1.0" encoding="UTF-8"?>
<svg width="24px" height="24px" viewBox="0 0 24 24" version="1.1" xmlns="http://www.w3.org/2000/svg">
    <!-- Generator: Sketch 51.3 (57544) - http://www.bohemiancoding.com/sketch -->
    <title>WorkbookXCEL</title>
    <desc>Created with Sketch.</desc>
    <defs></defs>
    <g id="WorkbookXCEL" stroke="none" stroke-width="1" fill="none" fill-rule="evenodd">
        <path d="M15,6 L16.5,6 C17.3284271,6 18,6.67157288 18,7.5 L18,11.5 C18,12.3284271 17.3284271,13 16.5,13 L7.5,13 C6.67157288,13 6,12.3284271 6,11.5 L6,4.5 C6,3.67157288 6.67157288,3 7.5,3 L13.5,3 C14.3284271,3 15,3.67157288 15,4.5 L15,6 Z M7.5,12 L16.5,12 C16.7761424,12 17,11.7761424 17,11.5 L17,7.5 C17,7.22385763 16.7761424,7 16.5,7 L14,7 L14,4.5 C14,4.22385763 13.7761424,4 13.5,4 L7.5,4 C7.22385763,4 7,4.22385763 7,4.5 L7,11.5 C7,11.7761424 7.22385763,12 7.5,12 Z"
              id="Line-3-Copy-6" fill="#000000" fill-rule="nonzero"></path>
        <path d="M6.5,16 L6.5,16 C6.77614237,16 7,16.2238576 7,16.5 L7,17.0857864 C7,17.2183947 7.05267842,17.3455716 7.14644661,17.4393398 L8.56066017,18.8535534 C8.84196474,19.134858 9,19.5163888 9,19.9142136 L9,20.5 C9,20.7761424 8.77614237,21 8.5,21 L8.5,21 C8.22385763,21 8,20.7761424 8,20.5 L8,19.9142136 C8,19.7816053 7.94732158,19.6544284 7.85355339,19.5606602 L6.43933983,18.1464466 C6.15803526,17.865142 6,17.4836112 6,17.0857864 L6,16.5 C6,16.2238576 6.22385763,16 6.5,16 Z"
              id="Line-5-Copy-3" fill="#000000" fill-rule="nonzero"></path>
        <path d="M8.5,16 L8.5,16 C8.77614237,16 9,16.2238576 9,16.5 L9,17.0857864 C9,17.4836112 8.84196474,17.865142 8.56066017,18.1464466 L7.14644661,19.5606602 C7.05267842,19.6544284 7,19.7816053 7,19.9142136 L7,20.5 C7,20.7761424 6.77614237,21 6.5,21 L6.5,21 C6.22385763,21 6,20.7761424 6,20.5 L6,19.9142136 C6,19.5163888 6.15803526,19.134858 6.43933983,18.8535534 L7.85355339,17.4393398 C7.94732158,17.3455716 8,17.2183947 8,17.0857864 L8,16.5 C8,16.2238576 8.22385763,16 8.5,16 Z"
              id="Line-5-Copy-4" fill="#000000" fill-rule="nonzero"></path>
        <path d="M11,20 L12.5,20 C12.7761424,20 13,20.2238576 13,20.5 L13,20.5 C13,20.7761424 12.7761424,21 12.5,21 L11,21 C10.4477153,21 10,20.5522847 10,20 L10,16.5 C10,16.2238576 10.2238576,16 10.5,16 L10.5,16 C10.7761424,16 11,16.2238576 11,16.5 L11,20 Z"
              id="Line-23" fill="#000000" fill-rule="nonzero"></path>
        <path d="M14,20.5 L14,20.5 C14,20.2238576 14.2238576,20 14.5,20 L15.5,20 C15.6850552,20 15.9021178,19.7519284 15.9413611,19.4379826 C15.9779721,19.1450947 15.8631054,19 15.5,19 C14.5089388,19 13.9580857,18.3041856 14.0663611,17.4379826 C14.1625345,16.6685951 14.7475552,16 15.5,16 L16.5,16 C16.7761424,16 17,16.2238576 17,16.5 L17,16.5 C17,16.7761424 16.7761424,17 16.5,17 L15.5,17 C15.3149448,17 15.0978822,17.2480716 15.0586389,17.5620174 C15.0220279,17.8549053 15.1368946,18 15.5,18 C16.4910612,18 17.0419143,18.6958144 16.9336389,19.5620174 C16.8374655,20.3314049 16.2524448,21 15.5,21 L14.5,21 C14.2238576,21 14,20.7761424 14,20.5 Z"
              id="Line-35" fill="#000000" fill-rule="nonzero"></path>
        <path d="M4,1 L4,23 L20,23 L20,4.41421356 L16.5857864,1 L4,1 Z M4,0 L16.5857864,0 C16.8510029,-4.87194788e-17 17.1053568,0.10535684 17.2928932,0.292893219 L20.7071068,3.70710678 C20.8946432,3.89464316 21,4.14899707 21,4.41421356 L21,23 C21,23.5522847 20.5522847,24 20,24 L4,24 C3.44771525,24 3,23.5522847 3,23 L3,1 C3,0.44771525 3.44771525,1.01453063e-16 4,0 Z"
              id="Rectangle-Copy-14" fill="#000000" fill-rule="nonzero"></path>
        <path d="M20,4 L21,5 L17,5 C16.4477153,5 16,4.55228475 16,4 L16,0 L17,1 L17,4 L20,4 Z M20,4 L21,5 L17,5 C16.4477153,5 16,4.55228475 16,4 L16,0 L17,1 L17,4 L20,4 Z"
              id="Rectangle-Copy-15" fill="#000000" fill-rule="nonzero"></path>
        <polygon id="Line-36" fill="#000000" fill-rule="nonzero" points="6 7 6 6 15 6 15 7"></polygon>
        <polygon id="Line" fill="#000000" fill-rule="nonzero" points="6 10 6 9 18 9 18 10"></polygon>
        <polygon id="Line-2" fill="#000000" fill-rule="nonzero" points="10 3 11 3 11 13 10 13"></polygon>
        <polygon id="Line-3" fill="#000000" fill-rule="nonzero" points="14 6 15 6 15 13 14 13"></polygon>
    </g>
</svg>