<?xml version="1.0" encoding="UTF-8"?>
<svg width="24px" height="24px" viewBox="0 0 24 24" version="1.1" xmlns="http://www.w3.org/2000/svg" xmlns:xlink="http://www.w3.org/1999/xlink">
    <!-- Generator: Sketch 51.3 (57544) - http://www.bohemiancoding.com/sketch -->
    <title>WorkbookXCEL</title>
    <desc>Created with Sketch.</desc>
    <defs></defs>
    <g id="WorkbookXCEL" stroke="none" stroke-width="1" fill="none" fill-rule="evenodd">
        <rect id="Rectangle-Copy-5" stroke="#106ba3" fill-rule="nonzero" x="3.5" y="0.5" width="17" height="23"></rect>
        <path d="M6.5,3.5 L17.5,3.5" id="Line-Copy-3" stroke="#106ba3" stroke-linecap="square" fill-rule="nonzero"></path>
        <path d="M6.5,3.5 L6.5,12.5" id="Line-Copy-4" stroke="#106ba3" stroke-linecap="square" fill-rule="nonzero"></path>
        <path d="M9.5,3.5 L9.5,12.5" id="Line-Copy-5" stroke="#106ba3" stroke-linecap="square" fill-rule="nonzero"></path>
        <path d="M13.5,3.5 L13.5,12.5" id="Line-Copy-6" stroke="#106ba3" stroke-linecap="square" fill-rule="nonzero"></path>
        <path d="M17.5,3.5 L17.5,12.5" id="Line-Copy-7" stroke="#106ba3" stroke-linecap="square" fill-rule="nonzero"></path>
        <path d="M6.5,6.5 L17.5,6.5" id="Line-2-Copy-3" stroke="#106ba3" stroke-linecap="square" fill-rule="nonzero"></path>
        <path d="M6.5,9.5 L17.5,9.5" id="Line-3-Copy-5" stroke="#106ba3" stroke-linecap="square" fill-rule="nonzero"></path>
        <path d="M6.5,12.5 L17.5,12.5" id="Line-3-Copy-6" stroke="#106ba3" stroke-linecap="square" fill-rule="nonzero"></path>
        <path d="M8.5,16.5 L8.5,17.5 C7.16666667,18.8333333 6.5,19.5 6.5,19.5 C6.5,19.5 6.5,20.1666667 6.5,21.5" id="Line-3-Copy-7" stroke="#106ba3" stroke-linecap="square" fill-rule="nonzero"></path>
        <path d="M6.5,16.5 L6.5,17.5 C7.83333333,18.8333333 8.5,19.5 8.5,19.5 C8.5,19.5 8.5,20.1666667 8.5,21.5" id="Line-3-Copy-8" stroke="#106ba3" stroke-linecap="square" fill-rule="nonzero"></path>
        <polyline id="Line-23" stroke="#106ba3" stroke-linecap="square" fill-rule="nonzero" points="10.5 16.5 10.5 21.5 12.5 21.5"></polyline>
        <polyline id="Path-24-Copy-2" stroke="#106ba3" fill-rule="nonzero" points="16.5 16.5 15.5 16.5 14.5 17.5 16.5 19.5 16.5 20.5 15.5 21.5 14 21.5"></polyline>
    </g>
</svg>