<?xml version="1.0" encoding="UTF-8"?>
<svg width="24px" height="24px" viewBox="0 0 24 24" version="1.1" xmlns="http://www.w3.org/2000/svg" xmlns:xlink="http://www.w3.org/1999/xlink">
    <!-- Generator: Sketch 52.2 (67145) - http://www.bohemiancoding.com/sketch -->
    <title>WorkbookXCEL</title>
    <desc>WorkbookXCEL</desc>
    <g id="WorkbookXCEL" stroke="none" stroke-width="1" fill="none" fill-rule="evenodd">
        <g transform="translate(3.000000, 0.000000)" fill="#000000" fill-rule="nonzero">
            <path d="M12,6 L13.5,6 C14.3284271,6 15,6.67157288 15,7.5 L15,11.5 C15,12.3284271 14.3284271,13 13.5,13 L4.5,13 C3.67157288,13 3,12.3284271 3,11.5 L3,4.5 C3,3.67157288 3.67157288,3 4.5,3 L10.5,3 C11.3284271,3 12,3.67157288 12,4.5 L12,6 Z M4.5,12 L13.5,12 C13.7761424,12 14,11.7761424 14,11.5 L14,7.5 C14,7.22385763 13.7761424,7 13.5,7 L11,7 L11,4.5 C11,4.22385763 10.7761424,4 10.5,4 L4.5,4 C4.22385763,4 4,4.22385763 4,4.5 L4,11.5 C4,11.7761424 4.22385763,12 4.5,12 Z" id="Line-3-Copy-6"></path>
            <path d="M3.5,16 L3.5,16 C3.77614237,16 4,16.2238576 4,16.5 L4,17.0857864 C4,17.2183947 4.05267842,17.3455716 4.14644661,17.4393398 L5.56066017,18.8535534 C5.84196474,19.134858 6,19.5163888 6,19.9142136 L6,20.5 C6,20.7761424 5.77614237,21 5.5,21 L5.5,21 C5.22385763,21 5,20.7761424 5,20.5 L5,19.9142136 C5,19.7816053 4.94732158,19.6544284 4.85355339,19.5606602 L3.43933983,18.1464466 C3.15803526,17.865142 3,17.4836112 3,17.0857864 L3,16.5 C3,16.2238576 3.22385763,16 3.5,16 Z" id="Line-5-Copy-3"></path>
            <path d="M5.5,16 L5.5,16 C5.77614237,16 6,16.2238576 6,16.5 L6,17.0857864 C6,17.4836112 5.84196474,17.865142 5.56066017,18.1464466 L4.14644661,19.5606602 C4.05267842,19.6544284 4,19.7816053 4,19.9142136 L4,20.5 C4,20.7761424 3.77614237,21 3.5,21 L3.5,21 C3.22385763,21 3,20.7761424 3,20.5 L3,19.9142136 C3,19.5163888 3.15803526,19.134858 3.43933983,18.8535534 L4.85355339,17.4393398 C4.94732158,17.3455716 5,17.2183947 5,17.0857864 L5,16.5 C5,16.2238576 5.22385763,16 5.5,16 Z" id="Line-5-Copy-4"></path>
            <path d="M8,20 L9.5,20 C9.77614237,20 10,20.2238576 10,20.5 L10,20.5 C10,20.7761424 9.77614237,21 9.5,21 L8,21 C7.44771525,21 7,20.5522847 7,20 L7,16.5 C7,16.2238576 7.22385763,16 7.5,16 L7.5,16 C7.77614237,16 8,16.2238576 8,16.5 L8,20 Z" id="Line-23"></path>
            <path d="M11,20.5 L11,20.5 C11,20.2238576 11.2238576,20 11.5,20 L12.5,20 C12.6850552,20 12.9021178,19.7519284 12.9413611,19.4379826 C12.9779721,19.1450947 12.8631054,19 12.5,19 C11.5089388,19 10.9580857,18.3041856 11.0663611,17.4379826 C11.1625345,16.6685951 11.7475552,16 12.5,16 L13.5,16 C13.7761424,16 14,16.2238576 14,16.5 L14,16.5 C14,16.7761424 13.7761424,17 13.5,17 L12.5,17 C12.3149448,17 12.0978822,17.2480716 12.0586389,17.5620174 C12.0220279,17.8549053 12.1368946,18 12.5,18 C13.4910612,18 14.0419143,18.6958144 13.9336389,19.5620174 C13.8374655,20.3314049 13.2524448,21 12.5,21 L11.5,21 C11.2238576,21 11,20.7761424 11,20.5 Z" id="Line-35"></path>
            <path d="M1,1 L1,23 L17,23 L17,4.41421356 L13.5857864,1 L1,1 Z M1,0 L13.5857864,0 C13.8510029,-4.87194788e-17 14.1053568,0.10535684 14.2928932,0.292893219 L17.7071068,3.70710678 C17.8946432,3.89464316 18,4.14899707 18,4.41421356 L18,23 C18,23.5522847 17.5522847,24 17,24 L1,24 C0.44771525,24 0,23.5522847 0,23 L0,1 C0,0.44771525 0.44771525,1.01453063e-16 1,0 Z" id="Rectangle-Copy-14"></path>
            <path d="M17,4 L18,5 L14,5 C13.4477153,5 13,4.55228475 13,4 L13,0 L14,1 L14,4 L17,4 Z M17,4 L18,5 L14,5 C13.4477153,5 13,4.55228475 13,4 L13,0 L14,1 L14,4 L17,4 Z" id="Rectangle-Copy-15"></path>
            <polygon id="Line-36" points="3 7 3 6 12 6 12 7"></polygon>
            <polygon id="Line" points="3 10 3 9 15 9 15 10"></polygon>
            <polygon id="Line-2" points="7 3 8 3 8 13 7 13"></polygon>
            <polygon id="Line-3" points="11 6 12 6 12 13 11 13"></polygon>
        </g>
    </g>
</svg>