<svg xmlns="http://www.w3.org/2000/svg" width="16" height="16" viewBox="0 0 16 16"><path fill="#5c7080" d="M8.56 3.54c-.07 0-.13 0-.13-.08 0-.07.06-.08.13-.08h.24c.07 0 .13.01.13.08 0 .08-.06.08-.13.08zm.78.92c-.07 0-.15-.06-.15-.13v-.34c0-.07.08-.13.15-.13.08 0 .16.06.16.13v.34c0 .07-.08.13-.16.13zM6.02 3.5a.2.2 0 0 1-.28 0l-.54-.55c-.08-.07-.08-.2 0-.28a.2.2 0 0 1 .28 0l.54.55c.08.07.08.2 0 .28zm6.91 6.38c.11 0 .23.09.23.2v.62c0 .11-.12.2-.23.2-.11 0-.23-.09-.23-.2v-.62c0-.11.12-.2.23-.2zM8 0a8 8 0 1 1 0 16A8 8 0 0 1 8 0zm0 14.4a6.37 6.37 0 0 0 6.26-7.66h-.35c-.27 0-.49-.15-.5-.45h-.47c.16.15.34.3.34.5v1c0 .13-.08.25-.16.34h-.03l-.02.01-.03.01-.97.94v1.76c0 .28-.15.48-.43.48h-.78c-.28 0-.47-.2-.47-.48V9.02c-.15-.36-.41-.6-.77-.75h-.98c-.28 0-.54-.21-.54-.49v-1c0-.28.26-.5.54-.5h.27l.01-.01.46-.46c.2-.2.52-.2.72 0l.46.46.01.01h1.02c.23 0 .35-.23.5-.46v-.16l-.06.01h-.39a.22.22 0 0 1-.22-.23c0-.13.09-.23.22-.23h.39l.06.01v-.27L12 4.9h-.43l-.1.11a.5.5 0 0 1-.71.01l-.1-.12h-.25l.35.38c.03.03.03.13 0 .16-.04.03-.1.04-.13.01l-.42-.4h-.19l-.52.47-.05-.01c-.06.16-.13.13-.21.13-.18 0-.33-.1-.33-.28 0-.18.15-.3.33-.3h.26v-.27c0-.13.08-.19.21-.19h.1v-.18c0-.21.21-.44.41-.44h.41c.23 0 .39-.16.39-.4V3.5c0-.02.08.03.08-.12h-.27l-.01.02-.44.48c-.08.07-.19.07-.26 0-.07-.06-.07-.18 0-.25l.57-.56c.04-.03.09-.03.13-.03l.01.03h1.27a6.38 6.38 0 0 0-8.2 0h.85c.14 0 .24.1.24.23 0 .14-.1.24-.24.24h-.69c0 .15-.06.08-.06.09v.52h.62l.33-.37c.19-.19.5-.22.69-.03.19.19.19.5 0 .69L3.9 6.18l-.02.01-.05.03-.02.01c-.07.05-.16.06-.26.06h-.5c-.18.15-.27.21-.27.39v.13c0 .02-.04.04-.04.06l.81.86a.2.2 0 0 1 0 .3.2.2 0 0 1-.3 0l-.84-.84-.12.02c-.23 0-.43-.18-.43-.4v-.52h-.02A6.4 6.4 0 0 0 8 14.4zm.4-11.62c0 .28-.22.46-.49.46h-.54v.15c0 .16-.07.29-.23.29s-.24-.13-.24-.29v-.51c-.15-.03-.04-.04-.04-.08 0-.27.18-.47.45-.47h.59c.28 0 .5.18.5.45zM3.7 8.32v1.9c0 .28.16.49.44.49h.32v1.92c0 .27.26.49.53.49s.54-.22.54-.49v-1.15h-.02c.28 0 .48-.15.48-.43v-.33h.15c.28 0 .46-.22.46-.5v-.64-.02L4.88 7.82h-.74c-.28 0-.44.22-.44.5z"/></svg>